<svg width="160" height="160" viewBox="0 0 160 160" fill="none" xmlns="http://www.w3.org/2000/svg">
<path d="M113.92 58.6527C112.218 60.9357 109.878 62.6629 107.195 63.6159C104.511 64.569 101.606 64.7052 98.8453 64.0072C96.0847 63.3093 93.593 61.8086 91.6851 59.6949C89.7773 57.5811 88.5389 54.9491 88.1266 52.1317C87.7143 49.3143 88.1465 46.4378 89.3686 43.866C90.5907 41.2942 92.5479 39.1424 94.9927 37.6827C97.4375 36.2229 100.26 35.5208 103.104 35.665C105.948 35.8092 108.685 36.7932 110.97 38.4927H110.986C112.503 39.6233 113.782 41.0418 114.751 42.667C115.719 44.2923 116.358 46.0925 116.63 47.9647C116.903 49.8369 116.804 51.7445 116.339 53.5784C115.874 55.4123 115.052 57.1366 113.92 58.6527Z" fill="#F0F0F0"/>
<path d="M111.171 56.6015C109.874 58.3431 108.089 59.6608 106.043 60.3878C103.996 61.1149 101.78 61.2187 99.6746 60.6862C97.5691 60.1536 95.6689 59.0086 94.2143 57.396C92.7597 55.7834 91.816 53.7756 91.5026 51.6266C91.1892 49.4775 91.5201 47.2839 92.4536 45.323C93.3871 43.3621 94.8812 41.7221 96.7468 40.6104C98.6125 39.4987 100.766 38.9653 102.935 39.0777C105.104 39.19 107.19 39.9431 108.931 41.2415C110.088 42.1025 111.063 43.1829 111.801 44.421C112.54 45.6592 113.027 47.0307 113.235 48.4572C113.443 49.8838 113.368 51.3373 113.014 52.7348C112.66 54.1323 112.034 55.4462 111.171 56.6015Z" fill="#F5F5F5"/>
<path d="M111.376 56.3198C111.322 56.2846 111.571 55.8686 111.933 55.091C112.443 53.9985 112.781 52.8339 112.934 51.6382C113.034 50.8182 113.043 49.9899 112.963 49.1678C112.869 48.2288 112.654 47.306 112.323 46.4222C111.962 45.4466 111.456 44.5307 110.822 43.7054C110.492 43.266 110.128 42.854 109.731 42.4734C109.322 42.0837 108.886 41.7234 108.426 41.395C107.958 41.0761 107.47 40.7895 106.963 40.5374C106.47 40.296 105.959 40.0938 105.434 39.9326C104.928 39.7728 104.41 39.654 103.885 39.5774C103.382 39.4969 102.874 39.4563 102.365 39.4558C101.422 39.4404 100.48 39.5479 99.5649 39.7758C98.765 39.9813 97.9902 40.2743 97.2545 40.6494C96.1841 41.2037 95.2061 41.9204 94.3552 42.7742C93.7472 43.3822 93.4464 43.7598 93.3952 43.7342C93.344 43.7086 93.5648 43.2638 94.1152 42.5694C94.9097 41.5903 95.8785 40.7668 96.9729 40.1406C98.614 39.1966 100.472 38.6939 102.365 38.6814C103.485 38.6687 104.6 38.8251 105.674 39.1454C106.242 39.3149 106.796 39.5289 107.331 39.7854C107.879 40.0538 108.406 40.3618 108.909 40.707C109.405 41.0626 109.876 41.4529 110.317 41.875C110.741 42.2876 111.132 42.7339 111.485 43.2094C111.829 43.6665 112.134 44.1513 112.397 44.659C113.548 46.8244 113.947 49.3107 113.533 51.7278C113.32 52.9709 112.879 54.1642 112.234 55.2478C111.76 55.9998 111.414 56.3518 111.376 56.3198Z" fill="#E0E0E0"/>
<path d="M99.4528 56.019L98.3296 57.5646L96.96 56.563L98.0512 55.0558C96.7456 53.9806 95.7408 52.6014 95.4144 51.4558L97.3952 50.3198C97.7868 51.4496 98.4663 52.4577 99.3664 53.2446L101.04 50.9374C99.776 49.4526 98.432 47.6958 99.8656 45.7214C100.928 44.2558 102.906 43.7694 105.27 45.1038L106.384 43.571L107.766 44.5726L106.659 46.0798C107.609 46.8525 108.361 47.8396 108.854 48.9598L106.934 50.1598C106.554 49.3152 106.01 48.5539 105.334 47.9198L103.632 50.2398C104.912 51.7118 106.221 53.4398 104.806 55.395C103.766 56.8478 101.811 57.3278 99.4528 56.019ZM102.499 48.9054L103.923 46.9438C103.072 46.5758 102.49 46.7678 102.16 47.2254C101.83 47.683 102.032 48.2718 102.499 48.9054ZM102.461 53.9614C102.813 53.4782 102.602 52.9246 102.16 52.2846L100.774 54.2046C101.578 54.5438 102.141 54.3998 102.461 53.9614Z" fill="#E0E0E0"/>
<path d="M62.3712 79.9486C62.8493 83.2014 62.3519 86.5228 60.9421 89.4929C59.5322 92.463 57.2731 94.9482 54.4507 96.6342C51.6282 98.3202 48.3691 99.1313 45.0856 98.9649C41.8022 98.7984 38.6418 97.6619 36.0043 95.6991C33.3668 93.7364 31.3706 91.0354 30.2683 87.938C29.166 84.8406 29.0071 81.4859 29.8116 78.2981C30.6161 75.1104 32.348 72.2329 34.7881 70.0295C37.2282 67.8261 40.267 66.3959 43.52 65.9198H43.552C45.7093 65.6039 47.9077 65.716 50.0216 66.2498C52.1355 66.7835 54.1236 67.7284 55.8723 69.0305C57.6211 70.3327 59.0962 71.9665 60.2135 73.8387C61.3308 75.7109 62.0683 77.7849 62.384 79.9422L62.3712 79.9486Z" fill="#F0F0F0"/>
<path d="M58.4576 80.5152C58.8238 82.9933 58.4468 85.5243 57.3745 87.7882C56.3021 90.0521 54.5826 91.9472 52.4332 93.2338C50.2838 94.5204 47.8012 95.1407 45.2993 95.0163C42.7973 94.892 40.3885 94.0285 38.3773 92.5351C36.3661 91.0417 34.8429 88.9855 34.0004 86.6264C33.1578 84.2673 33.0337 81.7114 33.6438 79.2818C34.2539 76.8522 35.5707 74.6581 37.4278 72.9769C39.2848 71.2957 41.5987 70.2029 44.0768 69.8368H44.1056C47.4247 69.3506 50.801 70.2023 53.4923 72.2047C56.1836 74.2072 57.9696 77.1964 58.4576 80.5152Z" fill="#F5F5F5"/>
<path d="M58.3969 80.1246C58.32 80.1246 58.1889 79.5966 57.8464 78.6654C57.3696 77.3589 56.6939 76.1338 55.8432 75.0334C55.2554 74.284 54.588 73.6005 53.8528 72.995C53.0072 72.3091 52.0769 71.7348 51.0848 71.2862C50.5499 71.0428 49.9981 70.8385 49.4336 70.675C48.8471 70.5016 48.248 70.3742 47.6417 70.2942C47.014 70.2083 46.3806 70.172 45.7473 70.1854C45.0951 70.2007 44.4449 70.2628 43.8017 70.371C43.1607 70.4919 42.5289 70.6565 41.9104 70.8638C41.3105 71.0715 40.7275 71.325 40.1664 71.6222C39.6253 71.902 39.1065 72.223 38.6144 72.5822C38.1405 72.9288 37.6933 73.3107 37.2768 73.7246C36.4995 74.4878 35.8241 75.3482 35.2672 76.2846C34.7831 77.1038 34.3914 77.9742 34.0992 78.8798C33.6774 80.2054 33.4616 81.5879 33.4592 82.979C33.4592 83.971 33.5232 84.5246 33.4592 84.5374C33.3952 84.5502 33.2128 84.0158 33.0944 82.9982C32.9441 81.5522 33.0623 80.0908 33.4432 78.6878C34.0106 76.5789 35.1129 74.6522 36.6432 73.0942C37.0821 72.6404 37.5561 72.222 38.0608 71.843C39.1273 71.0288 40.3151 70.3874 41.5808 69.9422C42.2465 69.7114 42.9291 69.5327 43.6225 69.4078C44.3163 69.2895 45.0179 69.2221 45.7217 69.2062C46.4057 69.1997 47.0892 69.2446 47.7664 69.3406C48.4167 69.4358 49.0587 69.5813 49.6864 69.7758C50.2903 69.9585 50.8788 70.1886 51.4464 70.4638C52.4977 70.9705 53.4761 71.6163 54.3552 72.3838C55.1169 73.0465 55.7959 73.7986 56.3776 74.6238C57.2208 75.8086 57.8361 77.1401 58.1921 78.5502C58.4449 79.5486 58.4513 80.115 58.3969 80.1246Z" fill="#E0E0E0"/>
<path d="M48.4256 89.6L48.7744 91.7792L46.832 92.0992L46.4928 89.9808C44.5472 90.1728 42.6016 89.8656 41.3984 89.2L42.0896 86.656C43.3309 87.2534 44.7054 87.5201 46.08 87.4304L45.5584 84.1792C43.3184 84.0032 40.7904 83.6672 40.3456 80.8864C40.0256 78.8256 41.2288 76.816 44.2464 75.9744L43.9008 73.8144L45.8464 73.4944L46.1856 75.6128C47.5887 75.4661 49.0065 75.6536 50.3232 76.16L49.7344 78.72C48.7344 78.3331 47.667 78.1503 46.5952 78.1824L47.1264 81.4912C49.3664 81.6512 51.8528 81.9904 52.2912 84.7328C52.6208 86.7616 51.4208 88.7488 48.4256 89.6ZM45.12 81.3216L44.6752 78.56C43.6832 78.9568 43.3632 79.5872 43.4656 80.2304C43.568 80.8736 44.2048 81.1872 45.12 81.3216ZM49.216 85.4816C49.104 84.8 48.4832 84.5216 47.616 84.3616L48.0448 87.0464C48.96 86.6688 49.3024 86.0864 49.2032 85.4752L49.216 85.4816Z" fill="#E0E0E0"/>
<path d="M96.0192 22.2207C95.7261 23.818 94.966 25.2926 93.8349 26.4579C92.7037 27.6232 91.2525 28.4269 89.6646 28.7674C88.0767 29.108 86.4235 28.97 84.914 28.371C83.4046 27.772 82.1066 26.7388 81.1843 25.4021C80.262 24.0654 79.7568 22.4853 79.7325 20.8615C79.7083 19.2376 80.1661 17.6431 81.048 16.2795C81.93 14.9158 83.1965 13.8443 84.6874 13.2005C86.1783 12.5566 87.8267 12.3693 89.424 12.6623H89.4432C90.5022 12.8571 91.5123 13.2587 92.416 13.8441C93.3197 14.4295 94.0992 15.1872 94.7099 16.074C95.3206 16.9608 95.7505 17.9592 95.9752 19.0123C96.1999 20.0653 96.2148 21.1523 96.0192 22.2111V22.2207Z" fill="#F0F0F0"/>
<path d="M94.0992 21.8623C93.8758 23.0792 93.2965 24.2025 92.4346 25.0902C91.5727 25.9779 90.4669 26.5901 89.2571 26.8494C88.0473 27.1087 86.7878 27.0034 85.6378 26.5469C84.4878 26.0903 83.499 25.3031 82.7965 24.2846C82.0939 23.2661 81.7091 22.0622 81.6908 20.825C81.6725 19.5879 82.0214 18.3731 82.6935 17.3342C83.3655 16.2954 84.3305 15.4791 85.4665 14.9887C86.6024 14.4983 87.8583 14.3557 89.0752 14.5791C89.8836 14.727 90.6548 15.0327 91.3449 15.4789C92.0349 15.9251 92.6303 16.5029 93.0969 17.1793C93.5635 17.8557 93.8922 18.6175 94.0642 19.421C94.2361 20.2246 94.2481 21.0541 94.0992 21.8623Z" fill="#F5F5F5"/>
<path d="M94.1312 21.6702C94.0982 21.4145 94.0907 21.1561 94.1088 20.899C94.0956 20.2121 93.978 19.5313 93.76 18.8798C93.6056 18.4324 93.4028 18.0032 93.1552 17.5998C92.8678 17.1452 92.5237 16.729 92.1312 16.3614C91.9208 16.1606 91.6951 15.9765 91.456 15.811C91.2058 15.6384 90.9414 15.4875 90.6656 15.3598C90.3862 15.219 90.0963 15.1002 89.7984 15.0046C89.4905 14.9084 89.1761 14.8346 88.8576 14.7838C88.5398 14.7364 88.2189 14.7128 87.8976 14.7134C87.5846 14.7134 87.272 14.7391 86.9632 14.7902C86.6647 14.8356 86.3704 14.9052 86.0832 14.9982C85.8055 15.084 85.5349 15.1909 85.2736 15.3182C84.3595 15.7591 83.5682 16.4186 82.9696 17.2382C82.5566 17.7902 82.2327 18.4035 82.0096 19.0558C81.9483 19.3057 81.8626 19.549 81.7536 19.7822C81.7213 19.5205 81.7475 19.2549 81.8304 19.0046C81.9875 18.3033 82.2752 17.6379 82.6784 17.043C82.9523 16.6296 83.2746 16.2504 83.6384 15.9134C84.0648 15.5316 84.5405 15.2087 85.0528 14.9534C85.3301 14.8111 85.6179 14.6902 85.9136 14.5918C86.2272 14.4888 86.5481 14.4097 86.8736 14.355C87.2066 14.2979 87.5437 14.2679 87.8816 14.2654C88.5793 14.2593 89.2732 14.3674 89.936 14.5854C90.2598 14.6794 90.5754 14.7992 90.88 14.9438C91.4473 15.2354 91.9682 15.6096 92.4256 16.0542C93.1963 16.8104 93.7651 17.7478 94.08 18.7806C94.2853 19.4689 94.3612 20.1894 94.304 20.9054C94.3015 21.1697 94.2426 21.4305 94.1312 21.6702Z" fill="#E0E0E0"/>
<path d="M87.9616 24.5184L87.776 25.6L86.816 25.4368L86.9952 24.3904C86.1471 24.2181 85.3643 23.8112 84.736 23.216L85.4624 22.1344C85.9482 22.6133 86.5504 22.9574 87.2096 23.1328L87.4816 21.5328C86.4608 21.0912 85.3312 20.5344 85.5616 19.1616C85.7344 18.144 86.6208 17.3984 88.1664 17.4848L88.3488 16.4192L89.3088 16.5824L89.1296 17.6288C89.8105 17.7876 90.4435 18.1069 90.976 18.56L90.2944 19.6576C89.8942 19.3081 89.4272 19.0436 88.9216 18.88L88.64 20.5184C89.664 20.9504 90.7712 21.504 90.5408 22.8576C90.3744 23.856 89.4976 24.5952 87.9616 24.5184ZM87.7248 20.1152L87.9584 18.752C87.4304 18.7808 87.1808 19.024 87.1264 19.3408C87.072 19.6576 87.328 19.9104 87.7248 20.1152ZM88.9824 22.72C89.0368 22.4 88.7904 22.1536 88.4032 21.9392L88.176 23.2608C88.6752 23.2288 88.928 23.0176 88.9824 22.72Z" fill="#E0E0E0"/>
<path d="M145.68 145.747C145.68 145.795 104.349 145.83 76.8256 145.83C49.3024 145.83 15.36 145.795 15.36 145.747C15.36 145.699 49.28 145.664 76.8256 145.664C104.371 145.664 145.68 145.702 145.68 145.747Z" fill="#263238"/>
<path d="M39.2896 132.672C44.7808 128.832 46.0288 121.712 45.8112 115.309C45.776 114.24 45.8912 113.114 45.3856 112.173C44.88 111.232 43.6896 110.595 42.7328 111.046C41.9392 111.421 41.5936 112.342 41.1488 113.107C40.5533 114.124 39.684 114.954 38.64 115.501C37.9616 115.853 37.12 116.07 36.448 115.699C35.5264 115.19 35.4176 113.917 35.424 112.854C35.4368 110.873 35.4485 108.891 35.4592 106.909C35.4592 105.846 35.4592 104.762 35.1392 103.754C34.8192 102.746 34.0768 101.805 33.0656 101.514C32.0544 101.222 30.8032 101.814 30.592 102.854C30.551 103.294 30.5403 103.735 30.56 104.176C30.5312 104.618 30.3264 105.107 29.92 105.229C29.5136 105.35 29.0688 105.053 28.752 104.742C27.6544 103.667 26.9088 102.285 26.2144 100.902C25.52 99.52 24.8416 98.1184 23.8464 96.9472C22.8512 95.776 21.4752 94.848 19.952 94.7616C18.4288 94.6752 16.8064 95.616 16.432 97.1104C16.0576 98.6048 16.9216 100.131 17.872 101.344C19.2839 103.143 20.948 104.73 22.8128 106.054C23.1765 106.253 23.4661 106.564 23.6384 106.941C23.8688 107.651 23.2 108.355 22.4992 108.589C21.7056 108.851 20.848 108.768 20.0192 108.867C19.1904 108.966 18.2912 109.331 17.9776 110.112C17.5424 111.2 18.4512 112.352 19.344 113.085C21.1353 114.579 23.1704 115.753 25.36 116.557C26.144 116.845 26.96 117.094 27.6 117.645C28.24 118.195 28.6112 119.149 28.24 119.885C27.8688 120.621 26.88 120.874 26.0608 120.723C25.2416 120.573 24.5088 120.125 23.728 119.83C22.2688 119.28 20.3808 119.379 19.4464 120.643C18.8288 121.472 18.7776 122.63 19.088 123.619C19.4407 124.593 19.9847 125.486 20.688 126.246C23.0048 129.027 26.0169 131.143 29.4176 132.381C32.8064 133.555 35.9456 133.872 39.3152 132.64" fill="#D5B7FF"/>
<path d="M17.9456 95.6799C17.9748 95.7187 18.0093 95.7532 18.048 95.7823L18.368 96.0639C18.6464 96.3103 19.056 96.6719 19.5712 97.1551C21.0334 98.512 22.3908 99.9776 23.632 101.539C24.4256 102.525 25.232 103.638 26.1056 104.851C26.9792 106.064 27.8752 107.373 28.7808 108.781C29.7358 110.247 30.6107 111.764 31.4016 113.325C31.8112 114.138 32.1792 114.986 32.5504 115.853L33.68 118.49C35.1327 121.829 36.3966 125.248 37.4656 128.73C38.3289 131.575 38.9225 134.496 39.2384 137.453C39.4458 139.447 39.479 141.456 39.3376 143.456C39.2832 144.166 39.2288 144.714 39.1776 145.085C39.1584 145.264 39.1424 145.405 39.1296 145.507C39.1264 145.556 39.1264 145.605 39.1296 145.654C39.1423 145.607 39.1519 145.559 39.1584 145.51C39.1737 145.369 39.1972 145.229 39.2288 145.091C39.2896 144.72 39.3568 144.173 39.424 143.462C39.5952 141.458 39.5824 139.442 39.3856 137.44C39.0894 134.47 38.5075 131.536 37.648 128.678C36.5822 125.182 35.3161 121.751 33.856 118.4L32.7264 115.763C32.352 114.896 31.984 114.038 31.5712 113.222C30.7746 111.658 29.8922 110.139 28.928 108.672C28.016 107.261 27.1008 105.958 26.2368 104.746C25.3728 103.533 24.5376 102.422 23.7376 101.44C22.4821 99.8826 21.1049 98.4274 19.6192 97.0879C19.0944 96.6143 18.6784 96.2591 18.3904 96.0255L18.0704 95.7567L17.9456 95.6799Z" fill="#263238"/>
<path d="M31.5136 113.219C31.5645 113.072 31.5999 112.92 31.6192 112.765C31.6736 112.471 31.7408 112.045 31.8144 111.514C31.9648 110.458 32.1344 108.989 32.2912 107.354C32.448 105.719 32.6368 104.272 32.8032 103.219C32.8832 102.691 32.9536 102.259 33.008 101.971C33.0449 101.82 33.0642 101.666 33.0656 101.51C33.0074 101.654 32.9635 101.803 32.9344 101.955C32.8576 102.246 32.7648 102.669 32.6688 103.194C32.464 104.247 32.2656 105.712 32.096 107.335C31.9264 108.957 31.776 110.378 31.6768 111.495C31.6256 111.994 31.5808 112.413 31.5424 112.752C31.5168 112.906 31.5071 113.063 31.5136 113.219Z" fill="#263238"/>
<path d="M17.8464 110.665C18.0255 110.703 18.2075 110.724 18.3904 110.73C18.7424 110.762 19.2512 110.803 19.8752 110.877C21.1264 111.011 22.8512 111.258 24.7392 111.613C26.6272 111.968 28.3232 112.371 29.5392 112.694C30.1504 112.851 30.64 112.992 30.9824 113.088C31.1552 113.147 31.333 113.191 31.5136 113.219C31.3514 113.134 31.181 113.065 31.0048 113.014C30.6848 112.896 30.1856 112.736 29.5776 112.56C28.3648 112.202 26.6688 111.779 24.7776 111.421C23.1618 111.108 21.5308 110.879 19.8912 110.736C19.2512 110.681 18.752 110.659 18.4 110.653C18.2156 110.636 18.0299 110.64 17.8464 110.665Z" fill="#263238"/>
<path d="M37.4688 128.406C37.5079 128.356 37.5392 128.3 37.5616 128.24L37.7952 127.747C37.9968 127.315 38.272 126.685 38.6016 125.904C39.2608 124.336 40.1024 122.144 41.0016 119.715C41.9008 117.286 42.72 115.085 43.344 113.51L44.0928 111.642C44.1728 111.44 44.2368 111.27 44.2912 111.133C44.3199 111.075 44.3394 111.014 44.3488 110.95C44.3097 111.001 44.2785 111.057 44.256 111.117L44.0224 111.613C43.8208 112.042 43.5456 112.672 43.216 113.456C42.5568 115.021 41.7152 117.213 40.816 119.645C39.9168 122.077 39.0976 124.272 38.4736 125.85L37.7248 127.715L37.5264 128.224C37.4977 128.281 37.4783 128.343 37.4688 128.406Z" fill="#263238"/>
<path d="M19.3056 122.56C19.3618 122.592 19.4221 122.617 19.4848 122.634L20.0128 122.81L21.9584 123.45C23.6 123.984 25.8592 124.73 28.3584 125.59C30.8576 126.451 33.1232 127.19 34.7776 127.677C35.6064 127.926 36.2752 128.122 36.7424 128.246L37.28 128.387C37.3423 128.407 37.4068 128.419 37.472 128.422C37.4147 128.39 37.3534 128.365 37.2896 128.349L36.7648 128.173L34.8192 127.533C33.1776 126.998 30.9184 126.253 28.4192 125.392C25.92 124.531 23.6544 123.792 22.0192 123.309C21.1904 123.059 20.5216 122.864 20.0544 122.736L19.52 122.595C19.4505 122.574 19.3784 122.562 19.3056 122.56Z" fill="#263238"/>
<path d="M91.4688 129.773L55.9488 129.61C54.9331 129.605 53.9282 129.4 52.9916 129.007C52.055 128.614 51.205 128.041 50.49 127.319C49.7751 126.598 49.2093 125.743 48.8248 124.802C48.4404 123.862 48.245 122.856 48.2496 121.84L48.64 32.7967C48.6502 30.7448 49.4746 28.7809 50.9321 27.3366C52.3896 25.8923 54.3609 25.0858 56.4128 25.0943L91.9328 25.2575C93.9844 25.2668 95.9483 26.0905 97.3927 27.5475C98.8371 29.0045 99.6437 30.9755 99.6352 33.0271L99.2576 122.07C99.2538 123.086 99.0499 124.091 98.6575 125.028C98.265 125.965 97.6918 126.816 96.9706 127.531C96.2493 128.246 95.3941 128.812 94.454 129.197C93.5138 129.582 92.507 129.777 91.4912 129.773H91.4688Z" fill="#263238"/>
<path d="M91.8656 28.3328L84.9824 28.3008C84.758 28.3045 84.5365 28.3524 84.3306 28.4418C84.1247 28.5311 83.9384 28.6602 83.7824 28.8216C83.6264 28.9829 83.5037 29.1734 83.4214 29.3822C83.339 29.591 83.2986 29.8139 83.3024 30.0384V31.2896C83.3101 31.7431 83.1375 32.1811 82.8225 32.5075C82.5075 32.8339 82.0759 33.0219 81.6224 33.0304L68.2016 32.9664C67.7483 32.9538 67.3185 32.7623 67.0061 32.4336C66.6936 32.105 66.5241 31.6661 66.5344 31.2128V29.9616C66.5456 29.5085 66.3767 29.0696 66.0648 28.7409C65.7529 28.4122 65.3234 28.2205 64.8704 28.208H62.448L56.4224 28.16C55.7109 28.157 55.0059 28.2942 54.3474 28.5638C53.689 28.8333 53.0901 29.2299 52.585 29.7309C52.0798 30.2319 51.6783 30.8275 51.4033 31.4836C51.1284 32.1398 50.9853 32.8437 50.9824 33.5552L50.6144 120.467C50.6143 121.902 51.1809 123.278 52.1907 124.297C53.2006 125.316 54.5719 125.895 56.0064 125.907L91.4528 126.07C92.8894 126.075 94.2692 125.51 95.2892 124.498C96.3093 123.487 96.886 122.112 96.8928 120.675L97.2608 33.7632C97.2642 32.328 96.698 30.9501 95.6865 29.932C94.6749 28.9138 93.3007 28.3387 91.8656 28.3328Z" fill="white"/>
<path d="M83.8144 71.3152H60.9856V93.3056H83.8144V71.3152Z" fill="#D5B7FF"/>
<path d="M67.28 65.187L60.9824 71.315H83.8112L88.176 65.187H67.28Z" fill="#D5B7FF"/>
<path opacity="0.1" d="M67.28 65.187L60.9824 71.315H83.8112L88.176 65.187H67.28Z" fill="black"/>
<path d="M83.8112 93.3022L88.176 87.0942V65.187L83.8112 71.315V93.3022Z" fill="#D5B7FF"/>
<path opacity="0.3" d="M83.8112 93.3022L88.176 87.0942V65.187L83.8112 71.315V93.3022Z" fill="black"/>
<path d="M77.84 80.4448H65.9232V81.7952H77.84V80.4448Z" fill="#D5B7FF"/>
<path opacity="0.2" d="M77.84 80.4448H65.9232V81.7952H77.84V80.4448Z" fill="black"/>
<path d="M75.6864 82.8064H68.08V84.08H75.6864V82.8064Z" fill="#D5B7FF"/>
<path opacity="0.2" d="M75.6864 82.8064H68.08V84.08H75.6864V82.8064Z" fill="black"/>
<path d="M65.6384 64.3198C65.6086 64.0422 65.5627 63.7665 65.5008 63.4942C65.3024 62.7559 64.8617 62.1057 64.2496 61.6478C63.834 61.3317 63.3492 61.1189 62.8352 61.027C62.2463 60.9221 61.6401 60.9751 61.0784 61.1806C60.7743 61.2875 60.4892 61.442 60.2336 61.6382C59.9626 61.8361 59.725 62.0759 59.5296 62.3486C59.1073 62.9197 58.8795 63.6112 58.8795 64.3214C58.8795 65.0316 59.1073 65.7231 59.5296 66.2942C59.9195 66.8276 60.4583 67.234 61.0784 67.4622C61.6048 67.6545 62.1709 67.7122 62.7253 67.63C63.2797 67.5479 63.8047 67.3285 64.2528 66.9918C64.8632 66.5342 65.3026 65.8853 65.5008 65.1486C65.5627 64.8753 65.6086 64.5985 65.6384 64.3198C65.6605 64.6035 65.6356 64.889 65.5648 65.1646C65.3859 65.9284 64.9484 66.6067 64.3264 67.0846C63.6577 67.5984 62.8258 67.853 61.9841 67.8016C61.1425 67.7502 60.3478 67.3961 59.7466 66.8047C59.1455 66.2134 58.7785 65.4246 58.7133 64.5838C58.6482 63.7431 58.8892 62.9072 59.392 62.2302C59.7826 61.6991 60.3159 61.2897 60.9299 61.0495C61.5439 60.8093 62.2134 60.7483 62.8608 60.8734C63.5128 60.9989 64.1148 61.3099 64.5945 61.7691C65.0741 62.2283 65.411 62.8162 65.5648 63.4622C65.6372 63.7419 65.662 64.0318 65.6384 64.3198Z" fill="#263238"/>
<path d="M60.6848 63.8464C60.6848 63.3664 60.9536 63.0464 61.3504 63.0464C61.7472 63.0464 62.016 63.3664 62.016 63.8464C62.016 64.3264 61.7408 64.6464 61.3504 64.6464C61.2529 64.641 61.1575 64.6156 61.0702 64.5717C60.983 64.5279 60.9057 64.4665 60.8433 64.3914C60.7808 64.3163 60.7345 64.2292 60.7072 64.1354C60.6799 64.0416 60.6723 63.9432 60.6848 63.8464ZM61.8048 63.8464C61.8048 63.4624 61.6224 63.2352 61.3504 63.2352C61.0784 63.2352 60.896 63.4656 60.896 63.8464C60.896 64.2272 61.072 64.4544 61.3504 64.4544C61.6288 64.4544 61.8048 64.2272 61.8048 63.8464ZM63.1328 63.0656H63.3824L61.3696 66.0128H61.12L63.1328 63.0656ZM62.4928 65.2352C62.4928 64.7552 62.768 64.4352 63.1584 64.4352C63.5488 64.4352 63.824 64.7552 63.824 65.2352C63.824 65.7152 63.5552 66.0352 63.1584 66.0352C62.7616 66.0352 62.4896 65.7152 62.4896 65.2352H62.4928ZM63.6128 65.2352C63.6128 64.8544 63.4368 64.624 63.1584 64.624C62.88 64.624 62.704 64.8512 62.704 65.2352C62.704 65.6192 62.8864 65.8432 63.1584 65.8432C63.4304 65.8432 63.6096 65.6 63.6096 65.2352H63.6128Z" fill="#263238"/>
<path d="M80.2272 100.742C80.2272 101.382 79.7632 101.926 78.7392 101.926C78.2568 101.936 77.7825 101.802 77.376 101.542L77.696 100.902C77.993 101.113 78.3491 101.225 78.7136 101.222C79.1264 101.222 79.3824 101.049 79.3824 100.758C79.3824 100.467 79.2 100.291 78.5504 100.291H77.6352L77.8208 98.2815H80V98.9439H78.5088L78.4544 99.6223H78.7456C79.808 99.6319 80.2272 100.109 80.2272 100.742Z" fill="#263238"/>
<path d="M80.5632 100.077C80.5632 98.8959 81.2192 98.2271 82.096 98.2271C82.9728 98.2271 83.6288 98.8959 83.6288 100.077C83.6288 101.257 82.9888 101.926 82.096 101.926C81.2032 101.926 80.5632 101.257 80.5632 100.077ZM82.8032 100.077C82.8032 99.2639 82.5184 98.9279 82.1024 98.9279C81.6864 98.9279 81.408 99.2639 81.408 100.077C81.408 100.889 81.696 101.225 82.1024 101.225C82.5088 101.225 82.7968 100.889 82.7968 100.077H82.8032Z" fill="#263238"/>
<path d="M85.76 99.0718C85.7807 99.2581 85.7266 99.4449 85.6096 99.5913C85.4926 99.7377 85.3222 99.8317 85.136 99.8526C85.0966 99.8558 85.057 99.8558 85.0176 99.8526C84.8768 99.8556 84.7377 99.8214 84.6144 99.7534L84.7392 99.507C84.8214 99.5584 84.9176 99.5831 85.0144 99.5774C85.1166 99.5835 85.2171 99.5489 85.2939 99.4812C85.3706 99.4134 85.4174 99.318 85.424 99.2158C85.4272 99.1956 85.4272 99.1751 85.424 99.155C85.3245 99.2451 85.1933 99.2923 85.0592 99.2862C84.9989 99.2915 84.9381 99.2848 84.8804 99.2666C84.8227 99.2484 84.7691 99.219 84.7227 99.18C84.6764 99.1411 84.6381 99.0934 84.6102 99.0397C84.5823 98.986 84.5652 98.9273 84.56 98.867V98.8318C84.5617 98.7662 84.5762 98.7016 84.6028 98.6417C84.6295 98.5818 84.6677 98.5277 84.7152 98.4825C84.7628 98.4373 84.8187 98.402 84.88 98.3784C84.9412 98.3549 85.0064 98.3437 85.072 98.3454H85.12C85.5232 98.3518 85.76 98.6014 85.76 99.0718ZM85.3856 98.819C85.3839 98.7598 85.3593 98.7037 85.3168 98.6625C85.2744 98.6212 85.2176 98.5982 85.1584 98.5982H85.12C85.091 98.5923 85.0611 98.5924 85.0321 98.5983C85.0032 98.6042 84.9756 98.6159 84.9513 98.6326C84.9269 98.6494 84.9061 98.6709 84.8902 98.6958C84.8743 98.7208 84.8635 98.7486 84.8586 98.7778C84.8537 98.807 84.8547 98.8368 84.8615 98.8656C84.8683 98.8944 84.8809 98.9215 84.8984 98.9454C84.9159 98.9692 84.938 98.9893 84.9635 99.0044C84.9889 99.0195 85.0171 99.0294 85.0464 99.0334H85.12C85.149 99.0384 85.1787 99.0377 85.2074 99.0313C85.2362 99.0249 85.2633 99.0129 85.2874 98.9959C85.3115 98.979 85.332 98.9574 85.3477 98.9326C85.3635 98.9077 85.3742 98.88 85.3792 98.851C85.3808 98.8393 85.3808 98.8275 85.3792 98.8158L85.3856 98.819Z" fill="#263238"/>
<path d="M87.0944 99.0719C87.1151 99.2582 87.061 99.445 86.944 99.5914C86.8269 99.7378 86.6566 99.8318 86.4704 99.8527C86.431 99.8559 86.3914 99.8559 86.352 99.8527C86.2112 99.8557 86.0721 99.8215 85.9488 99.7535L86.08 99.5199C86.1608 99.5717 86.2561 99.5964 86.352 99.5903C86.4023 99.5942 86.4528 99.5881 86.5007 99.5723C86.5487 99.5566 86.5929 99.5314 86.631 99.4984C86.6692 99.4653 86.7003 99.425 86.7227 99.3798C86.7451 99.3347 86.7583 99.2855 86.7616 99.2351C86.7648 99.2128 86.7648 99.1902 86.7616 99.1679C86.7135 99.2134 86.6566 99.2485 86.5944 99.2711C86.5322 99.2936 86.466 99.3032 86.4 99.2991C86.3393 99.3044 86.2781 99.2976 86.22 99.2793C86.1619 99.2609 86.1079 99.2312 86.0613 99.192C86.0146 99.1528 85.9761 99.1048 85.9481 99.0507C85.92 98.9966 85.9028 98.9375 85.8976 98.8767V98.8447C85.8992 98.7792 85.9138 98.7146 85.9404 98.6546C85.9671 98.5947 86.0052 98.5406 86.0528 98.4954C86.1003 98.4503 86.1563 98.4149 86.2176 98.3914C86.2788 98.3679 86.344 98.3566 86.4096 98.3583H86.4512C86.848 98.3519 87.0944 98.6015 87.0944 99.0719ZM86.7168 98.8191C86.7151 98.76 86.6905 98.7038 86.648 98.6626C86.6056 98.6214 86.5487 98.5983 86.4896 98.5983H86.464C86.4063 98.5983 86.3509 98.6212 86.3101 98.6621C86.2693 98.7029 86.2464 98.7582 86.2464 98.8159C86.2464 98.8736 86.2693 98.929 86.3101 98.9698C86.3509 99.0106 86.4063 99.0335 86.464 99.0335C86.493 99.038 86.5227 99.0367 86.5512 99.0296C86.5797 99.0226 86.6065 99.0098 86.6301 98.9923C86.6536 98.9747 86.6734 98.9526 86.6883 98.9272C86.7032 98.9019 86.7129 98.8739 86.7168 98.8447C86.7183 98.8352 86.7183 98.8255 86.7168 98.8159V98.8191Z" fill="#263238"/>
<path d="M87.0816 100.355H84.528V100.678H87.0816V100.355Z" fill="#263238"/>
<path d="M72.56 99.3374H59.376V99.747H72.56V99.3374Z" fill="#263238"/>
<path d="M67.3792 100.643H59.376V101.053H67.3792V100.643Z" fill="#263238"/>
<path d="M87.7408 117.529L61.3824 117.408C61.1104 117.408 60.8896 117.107 60.8928 116.742L60.9216 109.846C60.9216 109.481 61.1456 109.187 61.4176 109.187L87.776 109.312C88.048 109.312 88.2688 109.609 88.2688 109.974L88.24 116.87C88.2368 117.235 88.016 117.529 87.7408 117.529Z" fill="#D5B7FF"/>
<path d="M73.488 113.667C73.488 114.019 73.2384 114.218 72.7456 114.214H71.8368V112.15H72.6912C73.1296 112.15 73.3824 112.349 73.3824 112.685C73.386 112.787 73.3569 112.887 73.2993 112.971C73.2417 113.055 73.1587 113.119 73.0624 113.152C73.1854 113.168 73.2978 113.23 73.3768 113.326C73.4558 113.421 73.4955 113.543 73.488 113.667ZM73.28 113.648C73.28 113.379 73.0944 113.261 72.7456 113.261H72.048V114.035H72.7456C73.0912 114.038 73.28 113.92 73.28 113.648ZM72.0512 112.32V113.069H72.6912C73.0112 113.069 73.1904 112.944 73.1936 112.698C73.1968 112.451 73.0112 112.323 72.6944 112.32H72.0512Z" fill="white"/>
<path d="M73.952 113.338V112.157H74.16V113.331C74.16 113.821 74.3776 114.045 74.7616 114.048C75.1456 114.051 75.3696 113.827 75.3696 113.338V112.163H75.5712V113.347C75.5712 113.939 75.2512 114.243 74.7584 114.243C74.2656 114.243 73.9488 113.92 73.952 113.338Z" fill="white"/>
<path d="M76.8512 113.52V114.24H76.6464V113.526L75.8624 112.173H76.0832L76.7584 113.334L77.44 112.179H77.648L76.8512 113.52Z" fill="white"/>
<path d="M65.9392 47.6318H55.9744V52.7198H65.9392V47.6318Z" fill="#D5B7FF"/>
<path d="M58.1248 45.8496L55.9744 47.632H65.9392L67.408 45.8496H58.1248Z" fill="#D5B7FF"/>
<path opacity="0.2" d="M58.1248 45.8496L55.9744 47.632H65.9392L67.408 45.8496H58.1248Z" fill="black"/>
<path d="M65.9392 52.72L67.408 50.7808V45.8496L65.9392 47.632V52.72Z" fill="#D5B7FF"/>
<path opacity="0.1" d="M65.9392 52.72L67.408 50.7808V45.8496L65.9392 47.632V52.72Z" fill="black"/>
<path d="M64.2432 49.2864H57.4496V49.8112H64.2432V49.2864Z" fill="#D5B7FF"/>
<path opacity="0.1" d="M64.2432 49.2864H57.4496V49.8112H64.2432V49.2864Z" fill="black"/>
<path d="M63.0112 50.2334H58.7936V50.7582H63.0112V50.2334Z" fill="#D5B7FF"/>
<path opacity="0.1" d="M63.0112 50.2334H58.7936V50.7582H63.0112V50.2334Z" fill="black"/>
<path d="M63.3344 55.4624H58.7936V56.1568H63.3344V55.4624Z" fill="#263238"/>
<path d="M55.9744 47.632C56.1343 47.6085 56.2959 47.5978 56.4576 47.6L57.7728 47.5712C58.8832 47.5712 60.4192 47.5488 62.112 47.5488L65.952 47.568L65.9008 47.5904L66.9952 46.3104C67.1244 46.1465 67.2667 45.9935 67.4208 45.8528C67.3131 46.0317 67.1899 46.2009 67.0528 46.3584L65.9904 47.68L65.9712 47.7024H65.9392L62.0992 47.7216C60.4064 47.7216 58.8704 47.7216 57.76 47.696L56.4448 47.6704C56.2871 47.6736 56.1294 47.6608 55.9744 47.632Z" fill="#D5B7FF"/>
<g opacity="0.2">
<path d="M55.9744 47.632C56.1343 47.6085 56.2959 47.5978 56.4576 47.6L57.7728 47.5712C58.8832 47.5712 60.4192 47.5488 62.112 47.5488L65.952 47.568L65.9008 47.5904L66.9952 46.3104C67.1244 46.1465 67.2667 45.9935 67.4208 45.8528C67.3131 46.0317 67.1899 46.2009 67.0528 46.3584L65.9904 47.68L65.9712 47.7024H65.9392L62.0992 47.7216C60.4064 47.7216 58.8704 47.7216 57.76 47.696L56.4448 47.6704C56.2871 47.6736 56.1294 47.6608 55.9744 47.632Z" fill="black"/>
</g>
<path d="M65.9392 52.72C65.8555 51.8747 65.8277 51.0249 65.856 50.176C65.8261 49.3217 65.8539 48.4665 65.9392 47.616C66.0255 48.4664 66.0544 49.3217 66.0256 50.176C66.0544 51.0249 66.0255 51.8749 65.9392 52.72Z" fill="#D5B7FF"/>
<g opacity="0.2">
<path d="M65.9392 52.72C65.8555 51.8747 65.8277 51.0249 65.856 50.176C65.8261 49.3217 65.8539 48.4665 65.9392 47.616C66.0255 48.4664 66.0544 49.3217 66.0256 50.176C66.0544 51.0249 66.0255 51.8749 65.9392 52.72Z" fill="black"/>
</g>
<path d="M77.5488 55.4624H73.008V56.1568H77.5488V55.4624Z" fill="#263238"/>
<path d="M71.5662 44.8101L71.5002 52.6882L78.6456 52.7481L78.7116 44.87L71.5662 44.8101Z" fill="#D5B7FF"/>
<path d="M73.648 43.2224L71.5392 44.8416H78.6848L80.1536 43.2224H73.648Z" fill="#D5B7FF"/>
<path d="M78.6848 52.72L80.1536 50.7808V43.2224L78.6848 44.8416V52.72Z" fill="#D5B7FF"/>
<path d="M76.7008 48.0254H73.088V48.5502H76.7008V48.0254Z" fill="#D5B7FF"/>
<path opacity="0.2" d="M76.7008 48.0254H73.088V48.5502H76.7008V48.0254Z" fill="black"/>
<path d="M76.048 48.9758H73.8048V49.5006H76.048V48.9758Z" fill="#D5B7FF"/>
<path opacity="0.2" d="M76.048 48.9758H73.8048V49.5006H76.048V48.9758Z" fill="black"/>
<path d="M71.5392 44.8415C71.6604 44.818 71.7837 44.8073 71.9072 44.8095L72.9056 44.7807C73.7504 44.7647 74.9152 44.7551 76.2048 44.7551H78.6848L78.6304 44.7775C79.0784 44.2943 79.4528 43.8975 79.7184 43.6223C79.849 43.4693 79.9948 43.3299 80.1536 43.2063C80.0445 43.3751 79.9202 43.5336 79.7824 43.6799C79.5328 43.9711 79.1744 44.3807 78.7392 44.8735L78.7168 44.8991H76.2048C74.9248 44.8991 73.7504 44.8991 72.9056 44.8735L71.9072 44.8479C71.7847 44.8602 71.6612 44.858 71.5392 44.8415Z" fill="#D5B7FF"/>
<g opacity="0.3">
<path d="M71.5392 44.8415C71.6604 44.818 71.7837 44.8073 71.9072 44.8095L72.9056 44.7807C73.7504 44.7647 74.9152 44.7551 76.2048 44.7551H78.6848L78.6304 44.7775C79.0784 44.2943 79.4528 43.8975 79.7184 43.6223C79.849 43.4693 79.9948 43.3299 80.1536 43.2063C80.0445 43.3751 79.9202 43.5336 79.7824 43.6799C79.5328 43.9711 79.1744 44.3807 78.7392 44.8735L78.7168 44.8991H76.2048C74.9248 44.8991 73.7504 44.8991 72.9056 44.8735L71.9072 44.8479C71.7847 44.8602 71.6612 44.858 71.5392 44.8415Z" fill="black"/>
</g>
<path d="M78.6848 52.72C78.6368 52.72 78.5984 50.9568 78.5984 48.7808C78.5984 46.6048 78.6368 44.8416 78.6848 44.8416C78.7328 44.8416 78.7712 46.6048 78.7712 48.7808C78.7712 50.9568 78.72 52.72 78.6848 52.72Z" fill="#D5B7FF"/>
<g opacity="0.3">
<path d="M78.6848 52.72C78.6368 52.72 78.5984 50.9568 78.5984 48.7808C78.5984 46.6048 78.6368 44.8416 78.6848 44.8416C78.7328 44.8416 78.7712 46.6048 78.7712 48.7808C78.7712 50.9568 78.72 52.72 78.6848 52.72Z" fill="black"/>
</g>
<path d="M90.2016 55.4624H85.6608V56.1568H90.2016V55.4624Z" fill="#263238"/>
<path d="M84.688 47.763C85.0589 47.7108 85.4336 47.6904 85.808 47.7022C86.5024 47.7022 87.4592 47.6766 88.5184 47.6766C89.456 47.6766 90.3168 47.6766 90.9696 47.6958L90.9216 47.7182C91.2128 47.3982 91.4496 47.1614 91.6192 46.9918C91.6991 46.8964 91.7917 46.8124 91.8944 46.7422C91.8339 46.8505 91.7597 46.9505 91.6736 47.0398C91.5232 47.2254 91.2992 47.4878 91.0336 47.8046L91.0144 47.827H90.9824C90.3424 47.827 89.4688 47.8462 88.5312 47.8462C87.472 47.8462 86.5152 47.8462 85.8208 47.8206C85.4423 47.8302 85.0636 47.811 84.688 47.763Z" fill="#D5B7FF"/>
<path d="M90.9728 47.7632H84.688V52.7232H90.9728V47.7632Z" fill="#D5B7FF"/>
<path opacity="0.2" d="M90.9728 47.7632H84.688V52.7232H90.9728V47.7632Z" fill="black"/>
<path d="M86.016 46.7422L84.688 47.7598H90.9728L91.8944 46.7422H86.016Z" fill="#D5B7FF"/>
<path d="M90.9728 52.7198L91.8944 51.5006V46.7422L90.9728 47.7598V52.7198Z" fill="#D5B7FF"/>
<path opacity="0.1" d="M90.9728 52.7198L91.8944 51.5006V46.7422L90.9728 47.7598V52.7198Z" fill="black"/>
<path d="M89.344 49.6543H86.4672V50.0383H89.344V49.6543Z" fill="#D5B7FF"/>
<path d="M88.8224 50.3518H87.0368V50.7358H88.8224V50.3518Z" fill="#D5B7FF"/>
<path d="M90.9728 52.72C90.8843 51.8965 90.8533 51.0678 90.88 50.24C90.8512 49.4134 90.8801 48.5858 90.9664 47.7632C91.0485 48.5861 91.0763 49.4135 91.0496 50.24C91.0784 51.0674 91.0528 51.8959 90.9728 52.72Z" fill="#D5B7FF"/>
<path d="M99.9424 23.8657L99.2896 25.0561L98.0992 25.7057L99.2896 26.3585L99.9424 27.5457L100.592 26.3585L101.782 25.7057L100.592 25.0561L99.9424 23.8657Z" fill="#D5B7FF"/>
<path d="M44.272 54.4866L43.6192 55.677L42.4288 56.3266L43.6192 56.9762L44.272 58.1666L44.9216 56.9762L46.112 56.3266L44.9216 55.677L44.272 54.4866Z" fill="#D5B7FF"/>
<path d="M104.685 28.9153L104.285 29.6449L103.555 30.0449L104.285 30.4449L104.685 31.1777L105.088 30.4449L105.818 30.0449L105.088 29.6449L104.685 28.9153Z" fill="#D5B7FF"/>
<path d="M40.7008 47.645L40.3008 48.3746L39.5712 48.7746L40.3008 49.1746L40.7008 49.9074L41.1008 49.1746L41.8304 48.7746L41.1008 48.3746L40.7008 47.645Z" fill="#D5B7FF"/>
<path d="M131.101 130.88L128.746 129.027L132.186 124.595L135.658 127.267L135.462 127.555C134.582 128.835 130.893 133.981 130.022 134.595C129.024 135.315 131.101 130.88 131.101 130.88Z" fill="#D5B7FF"/>
<path d="M129.712 134.554C129.67 134.522 130.934 132.845 132.534 130.81C134.134 128.774 135.466 127.152 135.507 127.184C135.549 127.216 134.285 128.893 132.685 130.928C131.085 132.963 129.754 134.586 129.712 134.554Z" fill="#263238"/>
<path d="M131.52 131.347C131.52 131.398 131.357 131.417 131.178 131.417C130.998 131.417 130.842 131.392 130.835 131.341C130.829 131.289 130.979 131.222 131.178 131.225C131.376 131.229 131.52 131.296 131.52 131.347Z" fill="#263238"/>
<path d="M131.453 131.75C131.437 131.801 131.267 131.798 131.069 131.769C130.87 131.741 130.704 131.702 130.704 131.651C130.704 131.6 130.88 131.552 131.094 131.581C131.309 131.609 131.469 131.699 131.453 131.75Z" fill="#263238"/>
<path d="M134.445 128.499C134.419 128.499 134.365 128.406 134.301 128.234C134.215 128.002 134.172 127.757 134.176 127.51C134.179 127.252 134.272 127.004 134.438 126.806C134.57 126.659 134.691 126.624 134.704 126.646C134.717 126.669 134.634 126.742 134.547 126.886C134.434 127.081 134.373 127.301 134.368 127.526C134.369 127.755 134.39 127.983 134.432 128.208C134.461 128.378 134.47 128.493 134.445 128.499Z" fill="#263238"/>
<path d="M131.066 131.011C131.046 130.963 131.142 130.877 131.267 130.797C131.392 130.717 131.514 130.666 131.549 130.704C131.584 130.742 131.514 130.867 131.373 130.96C131.232 131.053 131.085 131.062 131.066 131.011Z" fill="#263238"/>
<path d="M130.88 130.765C130.842 130.726 130.902 130.582 131.014 130.445C131.126 130.307 131.258 130.211 131.302 130.243C131.347 130.275 131.283 130.416 131.165 130.563C131.046 130.71 130.931 130.8 130.88 130.765Z" fill="#263238"/>
<path d="M115.498 92.8C115.498 92.8 108.458 111.469 109.418 114.957C110.378 118.445 129.315 132.294 129.315 132.294L134.458 124.89C134.458 124.89 119.68 113.194 119.632 112.55C119.584 111.907 125.501 96.3937 125.501 96.3937L115.498 92.8Z" fill="#263238"/>
<path d="M128.989 126.601L128.922 126.566C128.874 126.531 128.813 126.493 128.736 126.445L128.032 125.961C127.427 125.536 126.55 124.915 125.472 124.128C123.341 122.553 120.445 120.307 117.373 117.677C116.605 117.017 115.859 116.368 115.133 115.737L114.086 114.8C113.729 114.513 113.424 114.166 113.184 113.776C112.987 113.373 112.94 112.914 113.053 112.48C113.133 112.067 113.238 111.68 113.338 111.299C113.539 110.547 113.741 109.849 113.923 109.213L114.8 106.201C114.896 105.856 114.973 105.581 115.03 105.379L115.088 105.165C115.078 105.162 115.07 105.155 115.064 105.146C115.059 105.137 115.057 105.127 115.059 105.117C115.062 105.106 115.068 105.098 115.077 105.092C115.086 105.087 115.097 105.085 115.107 105.088C115.117 105.09 115.126 105.097 115.132 105.106C115.137 105.115 115.139 105.126 115.136 105.136C115.134 105.143 115.131 105.149 115.126 105.154C115.121 105.159 115.114 105.163 115.107 105.165C115.099 105.238 115.084 105.311 115.062 105.382C115.021 105.571 114.957 105.853 114.864 106.211C114.682 106.931 114.397 107.965 114.042 109.241C113.866 109.881 113.67 110.576 113.475 111.331C113.379 111.705 113.277 112.099 113.2 112.499C113.098 112.9 113.142 113.324 113.325 113.696C113.558 114.068 113.852 114.398 114.195 114.672L115.245 115.603C115.958 116.243 116.704 116.883 117.485 117.539C120.554 120.166 123.434 122.425 125.546 124.022L128.061 125.901L128.746 126.409L128.922 126.544C128.96 126.582 128.992 126.601 128.989 126.601Z" fill="#455A64"/>
<path d="M127.274 128.857C127.235 128.829 128.211 127.481 129.453 125.849C130.694 124.217 131.734 122.915 131.773 122.944C131.811 122.973 130.832 124.32 129.59 125.955C128.349 127.59 127.312 128.886 127.274 128.857Z" fill="#455A64"/>
<path d="M127.907 57.2991C128.547 58.5535 128.867 59.6415 130.109 60.2879C130.669 60.5823 131.354 60.7487 131.709 61.2799C132.077 61.8623 131.904 62.7039 132.368 63.1999C133.046 63.9391 134.429 63.3407 135.187 63.9903C135.866 64.5727 135.648 65.8207 136.381 66.3327C136.79 66.6239 137.341 66.5599 137.821 66.7391C138.589 67.0367 138.954 67.9231 139.053 68.7391C139.159 69.3941 139.075 70.0657 138.813 70.6751C138.679 70.9774 138.471 71.241 138.208 71.4418C137.945 71.6425 137.636 71.7739 137.309 71.8239C136.435 71.9167 135.45 71.3151 134.749 71.8239C134.521 72.035 134.323 72.2762 134.16 72.5407C133.981 72.7677 133.76 72.9572 133.508 73.0986C133.256 73.2399 132.979 73.3303 132.692 73.3645C132.406 73.3986 132.115 73.376 131.837 73.2978C131.559 73.2196 131.299 73.0873 131.072 72.9087C130.867 72.7449 130.694 72.5454 130.56 72.3199C130.074 71.5071 130.106 70.3999 129.392 69.7599C128.987 69.4754 128.534 69.2672 128.054 69.1455C127.59 68.9727 127.11 68.6847 126.973 68.2111C126.813 67.7921 126.586 67.402 126.301 67.0559C125.946 66.5247 125.472 67.1743 124.998 66.9119C124.525 66.6495 124.707 66.1375 124.678 65.5999" fill="#263238"/>
<path d="M119.629 75.4368L113.549 73.4048C113.549 73.4048 110.864 81.136 110.029 81.2128C105.472 81.6288 100.595 80.1152 98.8864 79.52C98.7104 79.3248 98.512 79.0912 98.2912 78.8032C98.1031 78.5563 97.9581 78.2793 97.8624 77.984C97.7305 77.6213 97.6487 77.2424 97.6192 76.8576C97.6282 76.7635 97.5995 76.6696 97.5396 76.5965C97.4797 76.5234 97.3933 76.4769 97.2992 76.4672C97.2457 76.463 97.1919 76.4705 97.1416 76.4893C97.0913 76.5081 97.0457 76.5377 97.008 76.576C96.8128 76.832 96.7616 77.808 97.2096 78.8608C97.6576 79.9136 96.0672 79.0752 95.4816 78.7808C94.896 78.4864 93.0432 77.6608 92.8096 77.7696C92.4672 77.9296 92.576 78.3232 93.168 78.6048C93.76 78.8864 95.4752 79.8496 95.3024 80.1504C95.1296 80.4512 92.176 78.9088 92.176 78.9088C92.176 78.9088 91.5936 78.48 91.3856 78.8224C91.0112 79.44 94.2656 80.8416 94.5856 80.9664C94.8064 81.056 94.6336 81.3888 94.4032 81.2864C94.1728 81.184 91.5232 79.6864 91.1264 80.3264C90.8256 80.8064 93.8016 81.5072 94.1856 82.1248C94.5696 82.7424 91.984 81.3664 91.7184 81.8368C91.6192 82.0096 91.568 82.1568 93.168 82.7328C94.3406 83.0979 95.5316 83.4013 96.736 83.6416V83.6576C96.736 83.6576 112.717 90.8064 116.166 83.9168C119.814 76.5824 119.629 75.4368 119.629 75.4368Z" fill="#E5BAAB"/>
<path d="M125.635 69.0334L128.288 69.0815L130.394 75.1198L128.678 82.0382C128.176 84.0574 130.454 88.1023 130.394 90.3327L115.52 92.7423L115.2 82.8062V82.4862L110.051 79.9262L111.75 75.7662C114.365 69.6415 118.931 69.2702 118.931 69.2702L125.635 69.0334Z" fill="#D5B7FF"/>
<g opacity="0.2">
<path d="M125.635 69.0334L128.288 69.0815L130.394 75.1198L128.678 82.0382C128.176 84.0574 130.454 88.1023 130.394 90.3327L115.52 92.7423L115.2 82.8062V82.4862L110.051 79.9262L111.75 75.7662C114.365 69.6415 118.931 69.2702 118.931 69.2702L125.635 69.0334Z" fill="white"/>
</g>
<path d="M128.397 69.0977C128.366 69.1022 128.336 69.1143 128.31 69.1329C128.225 69.1618 128.139 69.1864 128.051 69.2065C127.711 69.2678 127.366 69.302 127.021 69.3089L127.053 69.2481L128.067 70.8961L128.138 71.0049L128.006 70.9825C127.419 70.8802 126.82 70.8608 126.227 70.9249L126.288 70.8481C126.31 71.5243 126.407 72.1961 126.576 72.8513L126.621 72.9857L126.48 72.9537C125.804 72.8093 125.153 72.5701 124.544 72.2433L124.669 72.1889C124.547 72.7841 124.422 73.4081 124.294 74.0449L124.266 74.1825L124.157 74.0961C123.889 73.882 123.633 73.6523 123.392 73.4081C123.154 73.17 122.931 72.9178 122.723 72.6529L122.845 72.6689L121.142 74.0097L121.037 74.0929L121.008 73.9617C120.886 73.3697 120.771 72.7937 120.659 72.2433L120.762 72.3009L118.941 72.9409L118.816 72.9857L118.851 72.8577C119.043 72.1313 119.219 71.4721 119.379 70.8865L119.424 70.9569L117.843 70.6849H117.779L117.814 70.6305L118.506 69.6193L118.691 69.3601C118.733 69.3025 118.758 69.2737 118.762 69.2769C118.765 69.2801 118.73 69.3409 118.71 69.3729L118.544 69.6417L117.888 70.6753L117.859 70.6113L119.443 70.8513H119.507V70.9153L119.002 72.8929L118.912 72.8065L120.723 72.1665L120.81 72.1345L120.829 72.2241L121.187 73.9425L121.053 73.8945L122.752 72.5473L122.819 72.4929L122.874 72.5601C123.073 72.8125 123.286 73.053 123.514 73.2801C123.75 73.5193 124 73.7447 124.262 73.9553L124.128 74.0065C124.256 73.3665 124.384 72.7457 124.506 72.1505L124.528 72.0353L124.63 72.0961C125.224 72.4158 125.86 72.6506 126.518 72.7937L126.426 72.8929C126.257 72.227 126.165 71.5443 126.15 70.8577V70.7873H126.221C126.827 70.7258 127.44 70.7527 128.038 70.8673L127.978 70.9569C127.59 70.3169 127.261 69.7409 126.992 69.2897L126.96 69.2321H127.024C127.368 69.2347 127.711 69.2133 128.051 69.1681C128.165 69.1386 128.28 69.1151 128.397 69.0977Z" fill="#455A64"/>
<path d="M131.334 71.6351C131.231 71.591 131.124 71.5546 131.014 71.5263C130.707 71.4411 130.384 71.4356 130.074 71.5103L130.099 71.4751C130.16 71.8271 130.256 72.2495 130.387 72.7327C130.518 73.2159 130.678 73.7631 130.822 74.3807L130.845 74.4703L130.752 74.4447C129.994 74.2239 129.101 74.0575 128.163 73.7407L128.25 73.6703C128.349 74.5823 128.342 75.5903 128.397 76.6783V76.7711H128.301C127.446 76.6228 126.606 76.4011 125.789 76.1087C125.686 76.0799 125.568 76.0383 125.539 76.0831C125.475 76.1602 125.427 76.2495 125.398 76.3455L125.133 76.9855C124.957 77.4175 124.774 77.8559 124.592 78.2975L124.538 78.4319L124.448 78.3199L122.746 76.2079L122.618 76.0511H122.733L120 77.9327L119.91 77.9935L119.872 77.8911C119.552 77.0015 119.264 76.1439 118.976 75.3119L119.098 75.3535C118.142 75.9747 117.12 76.4888 116.051 76.8863L115.939 76.9311V76.7999C116.134 75.4143 116.31 74.1695 116.461 73.0943L116.541 73.1551C115.763 73.4625 114.928 73.5968 114.093 73.5487H114.038L114.058 73.4975L114.63 71.9551C114.698 71.7919 114.746 71.6607 114.784 71.5615C114.8 71.5158 114.82 71.4718 114.845 71.4303C114.835 71.4771 114.823 71.523 114.806 71.5679C114.771 71.6703 114.726 71.8015 114.672 71.9711C114.544 72.3359 114.352 72.8575 114.131 73.5263L114.096 73.4719C114.917 73.5049 115.735 73.362 116.496 73.0527L116.589 73.0143V73.1135C116.445 74.1919 116.269 75.4335 116.096 76.8223L115.997 76.7455C117.052 76.3451 118.061 75.8311 119.005 75.2127L119.091 75.1583L119.126 75.2543L120.029 77.8143L119.901 77.7759L122.637 75.8911L122.704 75.8463L122.752 75.9071L122.88 76.0639L124.579 78.1791L124.435 78.1983L124.979 76.8863L125.245 76.2463C125.283 76.1255 125.35 76.0157 125.44 75.9263C125.472 75.8976 125.512 75.8787 125.555 75.8719H125.664C125.724 75.8845 125.782 75.9005 125.84 75.9199C126.649 76.21 127.481 76.4326 128.326 76.5855L128.237 76.6655C128.189 75.5839 128.198 74.5695 128.109 73.6639V73.5583L128.208 73.5935C129.136 73.9135 130.022 74.0895 130.787 74.3199L130.717 74.3839C130.582 73.7727 130.426 73.2255 130.304 72.7359C130.182 72.2463 130.093 71.8239 130.038 71.4559V71.4271H130.067C130.385 71.3555 130.717 71.371 131.027 71.4719C131.136 71.5131 131.239 71.568 131.334 71.6351Z" fill="#455A64"/>
<path d="M115.283 82.3999C115.166 82.3655 115.057 82.3078 114.963 82.2303C114.691 82.0409 114.457 81.8008 114.275 81.5231C114.005 81.101 113.883 80.6014 113.926 80.1023C113.947 79.5583 114.109 79.0291 114.395 78.5659C114.681 78.1028 115.081 77.7215 115.558 77.4591L115.514 77.5231C115.635 76.6111 115.747 75.8271 115.834 75.2831C115.865 74.986 115.92 74.6918 115.997 74.4031C116 74.703 115.978 75.0026 115.933 75.2991C115.878 75.8559 115.786 76.6431 115.674 77.5583V77.5967L115.632 77.6191C115.186 77.8748 114.811 78.238 114.541 78.6756C114.271 79.1132 114.115 79.6113 114.086 80.1247C114.038 80.5937 114.141 81.0658 114.381 81.4719C114.551 81.747 114.768 81.9906 115.021 82.1919C115.112 82.2567 115.199 82.3261 115.283 82.3999Z" fill="#455A64"/>
<path d="M115.84 75.696C115.798 75.7184 115.651 75.504 115.52 75.2224C115.389 74.9408 115.302 74.6944 115.347 74.672C115.392 74.6496 115.536 74.864 115.667 75.1488C115.798 75.4336 115.888 75.6768 115.84 75.696Z" fill="#455A64"/>
<path d="M125.456 69.12L125.914 58.6656L121.754 55.52L117.981 57.3632C117.981 57.3632 117.853 62.1024 117.981 64.16C118.109 66.2176 120.179 66.432 120.179 66.432C120.179 66.432 120.131 67.6384 120.083 68.9024C120.055 69.6106 120.309 70.3009 120.789 70.8226C121.269 71.3443 121.935 71.6548 122.643 71.6864H122.778C123.469 71.6854 124.132 71.4182 124.631 70.9402C125.13 70.4622 125.426 69.8102 125.456 69.12Z" fill="#E5BAAB"/>
<path d="M118.4 60.819C118.399 60.8716 118.414 60.9231 118.443 60.9671C118.472 61.0111 118.513 61.0457 118.561 61.0664C118.609 61.087 118.663 61.0929 118.714 61.0833C118.766 61.0737 118.814 61.049 118.851 61.0123C118.889 60.9756 118.915 60.9286 118.925 60.8772C118.936 60.8258 118.932 60.7723 118.912 60.7235C118.893 60.6748 118.859 60.6329 118.816 60.6032C118.773 60.5735 118.721 60.5573 118.669 60.5566C118.599 60.5566 118.533 60.5843 118.483 60.6335C118.434 60.6827 118.406 60.7494 118.406 60.819H118.4Z" fill="#263238"/>
<path d="M118.144 60.531C118.176 60.5662 118.371 60.3998 118.653 60.3838C118.934 60.3678 119.149 60.5054 119.181 60.467C119.213 60.4286 119.158 60.3902 119.066 60.3262C118.94 60.2449 118.792 60.2057 118.643 60.2143C118.494 60.2229 118.352 60.279 118.237 60.3742C118.154 60.451 118.125 60.5182 118.144 60.531Z" fill="#263238"/>
<path d="M121.446 60.819C121.446 60.8709 121.462 60.9217 121.491 60.9648C121.519 61.008 121.56 61.0416 121.608 61.0615C121.656 61.0813 121.709 61.0865 121.76 61.0764C121.811 61.0663 121.858 61.0413 121.894 61.0046C121.931 60.9679 121.956 60.9211 121.966 60.8702C121.976 60.8193 121.971 60.7666 121.951 60.7186C121.931 60.6707 121.898 60.6297 121.855 60.6009C121.811 60.572 121.761 60.5566 121.709 60.5566C121.639 60.5566 121.572 60.5843 121.523 60.6335C121.474 60.6827 121.446 60.7494 121.446 60.819Z" fill="#263238"/>
<path d="M121.28 60.531C121.312 60.5662 121.507 60.3998 121.792 60.3838C122.077 60.3678 122.285 60.5054 122.317 60.467C122.349 60.4286 122.294 60.3902 122.202 60.3262C122.076 60.2449 121.928 60.2057 121.779 60.2143C121.63 60.2229 121.488 60.279 121.373 60.3742C121.346 60.3914 121.324 60.4145 121.308 60.4417C121.292 60.469 121.282 60.4995 121.28 60.531Z" fill="#263238"/>
<path d="M121.197 63.1904C120.765 63.4116 120.304 63.571 119.827 63.664C119.932 63.8063 120.081 63.9096 120.25 63.9577C120.42 64.0058 120.601 63.9959 120.765 63.9296C120.84 63.9123 120.912 63.8802 120.975 63.8353C121.038 63.7903 121.091 63.7333 121.132 63.6677C121.173 63.602 121.201 63.5288 121.214 63.4524C121.226 63.376 121.224 63.2979 121.206 63.2224L121.197 63.1904Z" fill="white"/>
<path d="M120.182 66.4318C121.159 66.392 122.104 66.0733 122.906 65.5134C122.906 65.5134 122.288 67.0238 120.227 66.9374L120.182 66.4318Z" fill="#D78776"/>
<path d="M131.894 64.5726C131.635 64.5826 131.378 64.5241 131.149 64.403C130.81 64.2213 130.528 63.9487 130.336 63.6158C130.097 63.1997 129.893 62.764 129.728 62.3134C129.344 61.3534 129.056 60.4734 128.858 59.827C128.829 59.7246 128.8 59.6318 128.774 59.5422C128.749 59.4526 128.739 59.3342 128.72 59.2606C127.597 54.9758 123.84 54.1758 123.085 54.1758C122.33 54.1758 120.89 53.7374 118.851 55.8526C118.543 56.1701 118.283 56.53 118.077 56.9214C117.626 57.4867 117.315 58.1498 117.168 58.8574C117.079 59.1903 117.062 59.5385 117.12 59.8782C117.158 59.8782 117.165 59.4878 117.325 58.8926C117.422 58.5428 117.555 58.2039 117.722 57.8814C117.543 58.6732 117.616 59.501 117.93 60.2494L118.659 60.0478L121.277 59.1582C121.04 58.3454 121.389 57.3406 121.597 56.8702L121.616 56.8542C121.763 57.7087 122.178 58.4943 122.8 59.0981C123.422 59.7019 124.22 60.0927 125.078 60.2142L125.562 66.9342C129.04 66.1918 128.96 61.5358 128.938 60.5886C129.098 61.123 129.302 61.7342 129.558 62.3774C129.729 62.8383 129.944 63.2819 130.198 63.7022C130.415 64.0561 130.73 64.3396 131.104 64.5182C131.356 64.6368 131.638 64.678 131.914 64.6366C132.016 64.6265 132.113 64.5889 132.195 64.5278C132.096 64.5515 131.996 64.5665 131.894 64.5726Z" fill="#263238"/>
<path d="M120.259 62.9247C120.109 62.8863 119.954 62.867 119.798 62.8671C119.725 62.8671 119.654 62.8511 119.638 62.7999C119.629 62.7207 119.644 62.6406 119.68 62.5695L119.872 61.9839C120.01 61.5647 120.125 61.1839 120.192 60.9087C120.246 60.7623 120.281 60.6096 120.298 60.4543C120.218 60.5885 120.157 60.7327 120.115 60.8831C120.019 61.1551 119.891 61.5231 119.754 61.9487C119.69 62.1535 119.629 62.3519 119.568 62.5375C119.526 62.6299 119.517 62.7338 119.542 62.8319C119.552 62.8574 119.568 62.8801 119.589 62.8979C119.609 62.9158 119.634 62.9283 119.661 62.9343C119.702 62.9407 119.744 62.9407 119.786 62.9343C119.943 62.9504 120.102 62.9471 120.259 62.9247Z" fill="#263238"/>
<path d="M126.131 62.8384C126.099 62.4962 126.137 62.1511 126.243 61.824C126.298 61.6609 126.395 61.5155 126.525 61.4029C126.655 61.2903 126.813 61.2147 126.982 61.184C127.18 61.1759 127.373 61.24 127.526 61.3643C127.679 61.4886 127.782 61.6646 127.814 61.8592C127.838 62.0557 127.803 62.2548 127.713 62.431C127.623 62.6072 127.482 62.7525 127.309 62.848C127.133 62.9399 126.939 62.9905 126.741 62.996C126.543 63.0016 126.347 62.9619 126.166 62.88" fill="#E5BAAB"/>
<path d="M126.72 62.5375C126.72 62.5151 126.832 62.5663 126.979 62.5215C127.071 62.4915 127.152 62.4334 127.209 62.3553C127.266 62.2773 127.298 62.1832 127.299 62.0863C127.307 62.0379 127.304 61.9884 127.292 61.941C127.279 61.8936 127.256 61.8494 127.226 61.8111C127.162 61.7613 127.082 61.7373 127.002 61.7439C126.848 61.7599 126.739 61.7983 126.73 61.7727C126.72 61.7471 126.8 61.6767 126.982 61.6255C127.041 61.6101 127.103 61.6081 127.163 61.6198C127.223 61.6314 127.279 61.6563 127.328 61.6927C127.382 61.7436 127.423 61.8068 127.448 61.877C127.472 61.9473 127.48 62.0224 127.469 62.0959C127.462 62.2374 127.408 62.3725 127.315 62.4799C127.239 62.5697 127.131 62.627 127.014 62.6399C126.806 62.6623 126.72 62.5503 126.72 62.5375Z" fill="#D78776"/>
<path d="M123.581 144.262V141.267L129.194 141.232L129.238 145.613L128.893 145.638C127.344 145.734 121.014 146.016 119.978 145.709C118.822 145.366 123.581 144.262 123.581 144.262Z" fill="#D5B7FF"/>
<path d="M119.846 145.434C119.846 145.382 121.946 145.338 124.534 145.338C127.123 145.338 129.219 145.382 129.219 145.434C129.219 145.485 127.123 145.53 124.534 145.53C121.946 145.53 119.846 145.488 119.846 145.434Z" fill="#263238"/>
<path d="M123.485 144.873C123.437 144.899 123.328 144.79 123.216 144.646C123.104 144.502 123.03 144.371 123.066 144.326C123.101 144.281 123.248 144.368 123.37 144.525C123.491 144.681 123.52 144.848 123.485 144.873Z" fill="#263238"/>
<path d="M123.126 145.072C123.075 145.091 122.976 144.954 122.874 144.781C122.771 144.608 122.701 144.461 122.742 144.419C122.784 144.378 122.928 144.496 123.037 144.685C123.146 144.874 123.174 145.053 123.126 145.072Z" fill="#263238"/>
<path d="M127.53 145.414C127.51 145.398 127.555 145.293 127.651 145.136C127.779 144.925 127.946 144.74 128.144 144.592C128.349 144.436 128.6 144.355 128.858 144.361C129.056 144.361 129.158 144.448 129.149 144.47C129.139 144.493 129.027 144.47 128.861 144.496C128.641 144.526 128.433 144.612 128.256 144.745C128.075 144.887 127.909 145.045 127.76 145.219C127.635 145.35 127.552 145.43 127.53 145.414Z" fill="#263238"/>
<path d="M123.466 144.32C123.494 144.275 123.619 144.297 123.76 144.345C123.901 144.393 124.016 144.457 124.006 144.509C123.997 144.56 123.856 144.582 123.686 144.528C123.517 144.473 123.44 144.355 123.466 144.32Z" fill="#263238"/>
<path d="M123.555 144.019C123.555 143.968 123.709 143.926 123.891 143.93C124.074 143.933 124.211 143.978 124.211 144.029C124.211 144.08 124.064 144.125 123.875 144.122C123.686 144.118 123.549 144.074 123.555 144.019Z" fill="#263238"/>
<path d="M118.57 92.2879L115.498 92.8031L117.267 94.9791C117.776 105.219 117.651 115.155 118.122 120.105C118.192 120.857 121.366 144.425 121.05 143.885L130.397 144.275L127.606 120.595L128.928 99.5615C130.361 97.0762 130.781 94.1339 130.099 91.3471L129.869 90.4031" fill="#455A64"/>
<path d="M125.011 55.2767C124.778 55.1871 124.57 55.0435 124.403 54.8577C124.236 54.6719 124.115 54.4493 124.051 54.2079C123.993 53.9649 124.002 53.7106 124.077 53.4722C124.152 53.2338 124.29 53.0202 124.477 52.8543C124.668 52.6944 124.904 52.5963 125.153 52.5728C125.401 52.5494 125.651 52.6018 125.869 52.7231C126.203 52.954 126.447 53.2931 126.56 53.6831C126.666 53.9348 126.695 54.2119 126.643 54.4799C126.579 54.6728 126.466 54.8458 126.315 54.9821C126.164 55.1184 125.981 55.2132 125.782 55.2575C125.384 55.3369 124.975 55.3478 124.573 55.2895" fill="#263238"/>
<path d="M133.258 60.9792C133.293 60.8423 133.299 60.6996 133.277 60.56C133.24 60.4018 133.164 60.2554 133.056 60.1344C132.906 59.9785 132.715 59.8676 132.506 59.8144C132.247 59.7516 131.98 59.7332 131.715 59.76C131.424 59.7792 131.114 59.8305 130.774 59.8369C130.411 59.8592 130.049 59.7735 129.734 59.5904C129.419 59.3543 129.198 59.0142 129.11 58.6304C128.899 57.9543 128.55 57.3289 128.086 56.7936C127.706 56.3571 127.259 55.9834 126.762 55.6865C126.291 55.4301 125.796 55.2232 125.283 55.0688H125.395C125.504 55.0775 125.611 55.099 125.715 55.1328C126.103 55.2314 126.476 55.3798 126.826 55.5744C127.344 55.8645 127.812 56.2387 128.208 56.6817C128.694 57.2251 129.059 57.8653 129.28 58.56C129.355 58.9079 129.55 59.2184 129.83 59.4369C130.121 59.6063 130.455 59.6864 130.79 59.6673C131.11 59.6673 131.43 59.6193 131.725 59.6065C132.005 59.585 132.286 59.6121 132.557 59.6865C132.785 59.7505 132.989 59.8795 133.146 60.0576C133.26 60.1953 133.335 60.361 133.363 60.5376C133.379 60.6451 133.369 60.7548 133.334 60.8576C133.29 60.9504 133.261 60.9824 133.258 60.9792Z" fill="#263238"/>
<path d="M127.36 62.819C127.36 62.803 127.514 62.9246 127.514 63.1998C127.512 63.2808 127.494 63.3606 127.46 63.4343C127.426 63.508 127.378 63.5741 127.318 63.6286C127.246 63.699 127.159 63.7513 127.062 63.7814C126.966 63.8114 126.864 63.8183 126.765 63.8015C126.666 63.7843 126.572 63.7448 126.491 63.6861C126.409 63.6273 126.342 63.5508 126.294 63.4623C126.256 63.3912 126.233 63.3133 126.225 63.2331C126.217 63.1529 126.226 63.072 126.25 62.995C126.266 62.9248 126.299 62.8594 126.345 62.8039C126.391 62.7483 126.449 62.7043 126.515 62.675C126.438 62.775 126.388 62.8928 126.368 63.0174C126.345 63.1418 126.368 63.2701 126.432 63.379C126.472 63.4428 126.525 63.4976 126.587 63.54C126.649 63.5824 126.72 63.6115 126.794 63.6254C126.868 63.6363 126.944 63.6313 127.016 63.6109C127.088 63.5905 127.155 63.5551 127.213 63.5071C127.309 63.4256 127.373 63.3119 127.392 63.1871C127.411 62.9663 127.322 62.8318 127.36 62.819Z" fill="#E0E0E0"/>
<path d="M126.518 55.68C125.833 54.9972 124.96 54.5348 124.01 54.352C124.508 54.3327 125.002 54.4453 125.443 54.6785C125.883 54.9117 126.254 55.2572 126.518 55.68Z" fill="#D5B7FF"/>
<path d="M127.712 62.4256C127.712 62.4032 127.805 62.3968 127.862 62.5024C127.877 62.5341 127.884 62.5685 127.884 62.6032C127.884 62.638 127.877 62.6723 127.862 62.704C127.841 62.7438 127.81 62.7772 127.772 62.8008C127.734 62.8244 127.69 62.8374 127.645 62.8384C127.577 62.8428 127.509 62.8201 127.458 62.7751C127.406 62.7302 127.375 62.6667 127.37 62.5984C127.366 62.5815 127.366 62.5642 127.37 62.5472C127.37 62.4384 127.446 62.4032 127.462 62.416C127.478 62.4288 127.462 62.48 127.491 62.544C127.496 62.5791 127.514 62.6111 127.541 62.6336C127.568 62.6561 127.603 62.6676 127.638 62.6656C127.652 62.6665 127.665 62.6647 127.678 62.6603C127.691 62.656 127.703 62.6492 127.713 62.6402C127.723 62.6313 127.731 62.6205 127.737 62.6084C127.743 62.5963 127.746 62.5831 127.747 62.5696C127.747 62.5696 127.747 62.5536 127.747 62.544C127.744 62.4832 127.706 62.4512 127.712 62.4256Z" fill="#E0E0E0"/>
<path d="M125.523 68.8C125.556 68.9121 125.568 69.0293 125.558 69.1456C125.552 69.4645 125.489 69.7797 125.373 70.0769C125.223 70.4606 124.991 70.8065 124.692 71.0896C124.393 71.3728 124.035 71.5861 123.643 71.7143C123.252 71.8425 122.837 71.8824 122.428 71.8311C122.02 71.7798 121.628 71.6386 121.28 71.4176C120.877 71.1591 120.547 70.8023 120.32 70.3808C120.169 70.0998 120.068 69.7944 120.022 69.4784C120 69.3643 120 69.247 120.022 69.1328C120.09 69.5497 120.227 69.9522 120.429 70.3232C120.66 70.7129 120.98 71.042 121.363 71.2832C121.839 71.569 122.389 71.704 122.943 71.6702C123.497 71.6365 124.027 71.4358 124.464 71.0944C124.816 70.8082 125.095 70.4417 125.277 70.0256C125.425 69.6333 125.509 69.2193 125.523 68.8Z" fill="#455A64"/>
<path d="M124.851 142.134C124.842 142.106 124.835 142.077 124.832 142.048C124.832 141.981 124.81 141.898 124.797 141.792C124.765 141.555 124.72 141.226 124.666 140.81C124.557 139.955 124.413 138.72 124.243 137.187C123.901 134.128 123.482 129.898 123.104 125.216C122.726 120.534 122.464 116.285 122.317 113.21C122.237 111.674 122.186 110.429 122.157 109.568C122.144 109.141 122.134 108.812 122.128 108.579V108.32C122.125 108.291 122.125 108.262 122.128 108.234C122.131 108.262 122.131 108.291 122.128 108.32C122.126 108.406 122.132 108.492 122.147 108.576C122.163 108.816 122.182 109.146 122.211 109.565C122.262 110.438 122.333 111.677 122.422 113.203C122.608 116.275 122.89 120.518 123.264 125.2C123.638 129.882 124.042 134.115 124.349 137.174C124.506 138.698 124.63 139.933 124.72 140.803C124.762 141.219 124.794 141.549 124.816 141.789C124.819 141.875 124.826 141.96 124.838 142.045C124.847 142.074 124.852 142.104 124.851 142.134Z" fill="#263238"/>
<path d="M130.074 142.157C129.957 142.188 129.836 142.205 129.715 142.208C129.485 142.227 129.149 142.249 128.736 142.269C127.907 142.31 126.762 142.329 125.498 142.31C124.234 142.291 123.088 142.253 122.262 142.221L121.283 142.173C121.162 142.176 121.04 142.163 120.922 142.134C121.04 142.109 121.162 142.099 121.283 142.105H122.266C123.091 142.105 124.237 142.125 125.501 142.144C126.765 142.163 127.904 142.163 128.733 142.144H129.712C129.833 142.134 129.954 142.138 130.074 142.157Z" fill="#263238"/>
<path d="M128.397 69.0975C127.956 69.2594 127.49 69.3428 127.021 69.3439L127.082 69.2287L127.699 70.2303L128.09 70.8703L128.182 71.0271L128.003 70.9919C127.412 70.905 126.815 70.8548 126.218 70.8415C126.382 70.7875 126.554 70.7605 126.726 70.7615C127.163 70.7338 127.601 70.7574 128.032 70.8319L127.949 70.9535L127.552 70.3135L126.954 69.3023L126.886 69.1903H127.014C127.424 69.1711 127.773 69.1455 128.013 69.1231C128.14 69.1018 128.268 69.0932 128.397 69.0975Z" fill="#455A64"/>
<path d="M131.334 71.6352C131.334 71.664 130.87 71.552 130.074 71.5328L130.128 71.472C130.317 72.2208 130.566 73.2192 130.858 74.3712L130.89 74.5056L130.758 74.4704L128.723 73.92L128.17 73.7664L128.278 73.68C128.323 74.784 128.365 75.808 128.4 76.688V76.784L128.31 76.7584L126.355 76.2112L125.814 76.0512C125.75 76.0347 125.687 76.01 125.629 75.9776C125.696 75.9786 125.763 75.9893 125.827 76.0096L126.378 76.1344L128.339 76.6208L128.253 76.6944C128.208 75.8144 128.157 74.7904 128.102 73.6896V73.5712L128.218 73.6032L128.771 73.7568L130.8 74.3232L130.701 74.4224C130.432 73.2608 130.202 72.256 130.026 71.5008L130.01 71.4368H130.08C130.393 71.4522 130.704 71.4918 131.011 71.5552C131.121 71.5708 131.23 71.5976 131.334 71.6352Z" fill="#455A64"/>
<path d="M131.738 79.7504C131.647 79.6844 131.569 79.6032 131.507 79.5104C131.373 79.3408 131.226 79.0592 131.014 78.7328H131.101C130.583 79.7441 129.977 80.7079 129.29 81.6128L129.226 81.6992L129.158 81.6128C128.838 81.2139 128.518 80.7872 128.198 80.3328L127.462 79.3728H127.584L126.4 80.416L125.869 80.8736L125.622 81.088L125.504 81.1904L125.475 81.216H125.44C125.44 81.2448 125.334 81.1776 125.357 81.1488V81.1296C125.357 81.1296 125.379 81.184 125.389 81.1808L125.334 81.1968L125.315 81.136C125.126 80.496 124.995 79.9904 124.915 79.6256C124.861 79.4399 124.839 79.246 124.851 79.0528C124.885 79.2405 124.929 79.4264 124.982 79.6096C125.082 79.9648 125.232 80.4736 125.44 81.0976L125.366 81.0528C125.389 81.0464 125.414 81.0464 125.437 81.0528C125.453 81.0582 125.467 81.0686 125.476 81.0824C125.486 81.0962 125.491 81.1127 125.491 81.1296C125.494 81.1444 125.494 81.1597 125.491 81.1744H125.475L125.43 81.1552C125.427 81.1429 125.421 81.1319 125.411 81.1232L125.392 81.104L125.418 81.0784L125.536 80.9728L125.779 80.7552C125.946 80.6048 126.118 80.4352 126.301 80.288L127.469 79.248L127.536 79.1872L127.594 79.2608L128.33 80.2208C128.669 80.6624 128.995 81.0912 129.29 81.5008H129.158C129.846 80.6054 130.465 79.6598 131.011 78.672L131.056 78.5952L131.101 78.6688C131.306 79.0112 131.421 79.3088 131.552 79.472C131.683 79.6352 131.747 79.7408 131.738 79.7504Z" fill="#455A64"/>
<path d="M126.08 75.2C126.078 75.3087 126.06 75.4166 126.026 75.52C125.978 75.7184 125.904 75.9999 125.802 76.3487C125.6 77.0431 125.286 77.9968 124.883 79.024C124.48 80.0512 124.058 80.9632 123.731 81.6096C123.568 81.9296 123.43 82.1919 123.328 82.3679C123.283 82.4635 123.226 82.5528 123.158 82.6336C123.292 82.2664 123.447 81.9074 123.622 81.5583C123.92 80.8991 124.32 79.9871 124.723 78.9631C125.126 77.9391 125.456 76.9952 125.683 76.3104C125.792 75.9321 125.924 75.5612 126.08 75.2Z" fill="#455A64"/>
<path d="M128.397 69.0975C127.956 69.2594 127.49 69.3428 127.021 69.3439L127.082 69.2287L127.699 70.2303L128.09 70.8703L128.182 71.0271L128.003 70.9919C127.412 70.905 126.815 70.8548 126.218 70.8415C126.382 70.7875 126.554 70.7605 126.726 70.7615C127.163 70.7338 127.601 70.7574 128.032 70.8319L127.949 70.9535L127.552 70.3135L126.954 69.3023L126.886 69.1903H127.014C127.424 69.1711 127.773 69.1455 128.013 69.1231C128.14 69.1018 128.268 69.0932 128.397 69.0975Z" fill="#455A64"/>
<path d="M126.08 75.2C126.078 75.3087 126.06 75.4166 126.026 75.52C125.978 75.7184 125.904 75.9999 125.802 76.3487C125.6 77.0431 125.286 77.9968 124.883 79.024C124.48 80.0512 124.058 80.9632 123.731 81.6096C123.568 81.9296 123.43 82.1919 123.328 82.3679C123.283 82.4635 123.226 82.5528 123.158 82.6336C123.292 82.2664 123.447 81.9074 123.622 81.5583C123.92 80.8991 124.32 79.9871 124.723 78.9631C125.126 77.9391 125.456 76.9952 125.683 76.3104C125.792 75.9321 125.924 75.5612 126.08 75.2Z" fill="#455A64"/>
<path d="M96.4361 71.1305L88.9976 96.6509C88.6138 97.9676 89.3701 99.346 90.6867 99.7298L132.496 111.916C133.812 112.3 135.191 111.544 135.575 110.227L143.013 84.7065C143.397 83.3898 142.641 82.0114 141.324 81.6276L99.515 69.4414C98.1984 69.0576 96.8199 69.8138 96.4361 71.1305Z" fill="#D5B7FF"/>
<g opacity="0.3">
<path d="M96.4361 71.1305L88.9976 96.6509C88.6138 97.9676 89.3701 99.346 90.6867 99.7298L132.496 111.916C133.812 112.3 135.191 111.544 135.575 110.227L143.013 84.7065C143.397 83.3898 142.641 82.0114 141.324 81.6276L99.515 69.4414C98.1984 69.0576 96.8199 69.8138 96.4361 71.1305Z" fill="black"/>
</g>
<path d="M94.9696 89.3119L94.2144 91.8975L93.9488 91.8207L94.6336 89.4719L94.0224 89.2927L94.0928 89.0559L94.9696 89.3119Z" fill="white"/>
<path d="M97.6001 92.4351L97.5297 92.6719L95.7025 92.1599L95.7568 91.9711L97.1393 91.2319C97.5169 91.0303 97.6225 90.8703 97.6737 90.6943C97.7601 90.3935 97.6033 90.1503 97.2097 90.0351C97.0803 89.9884 96.9422 89.9714 96.8054 89.9852C96.6686 89.9991 96.5366 90.0435 96.4193 90.1151L96.2784 89.8975C96.4315 89.8072 96.6024 89.7513 96.7792 89.7336C96.956 89.7159 97.1346 89.7369 97.3025 89.7951C97.8273 89.9487 98.0801 90.3135 97.9425 90.7551C97.8721 91.0015 97.7281 91.1999 97.2833 91.4399L96.1505 92.0479L97.6001 92.4351Z" fill="white"/>
<path d="M100.438 92.8L99.92 92.6496L99.7216 93.328L99.456 93.2512L99.6544 92.5696L98.1952 92.16L98.2496 91.968L100.122 90.656L100.416 90.7424L98.608 92.0224L99.7312 92.3424L99.904 91.744L100.163 91.8208L99.9904 92.4192L100.506 92.5696L100.438 92.8Z" fill="white"/>
<path d="M104.4 93.9423L103.882 93.7887L103.683 94.4703L103.418 94.3935L103.616 93.7119L102.157 93.2862L102.214 93.0943L104.083 91.7791L104.378 91.8654L102.57 93.1454L103.693 93.4654L103.866 92.8671L104.125 92.9407L103.952 93.5423L104.467 93.6927L104.4 93.9423Z" fill="white"/>
<path d="M106.685 94.5183C106.554 94.9567 106.147 95.2127 105.517 95.0271C105.172 94.9417 104.874 94.7261 104.685 94.4255L104.877 94.2527C104.957 94.3844 105.061 94.4991 105.186 94.5903C105.31 94.6814 105.45 94.7472 105.6 94.7839C106.038 94.9119 106.336 94.7647 106.426 94.4639C106.515 94.1631 106.378 93.8623 105.718 93.6735L105.168 93.5103L105.68 92.2527L107.094 92.6655L107.027 92.9023L105.843 92.5567L105.523 93.3567L105.843 93.4527C106.611 93.6671 106.816 94.0607 106.685 94.5183Z" fill="white"/>
<path d="M109.242 95.2511C109.177 95.4636 109.031 95.642 108.836 95.7475C108.641 95.853 108.411 95.877 108.198 95.8143L108.128 95.7887C107.44 95.5903 107.206 95.0047 107.443 94.1887C107.699 93.3119 108.314 92.9919 109.014 93.1967C109.231 93.2481 109.43 93.3589 109.587 93.5167L109.418 93.6991C109.292 93.5649 109.129 93.4713 108.95 93.4303C108.394 93.2671 107.93 93.5231 107.728 94.2239C107.709 94.2943 107.69 94.3647 107.677 94.4383C107.793 94.3177 107.941 94.2334 108.104 94.1953C108.267 94.1573 108.438 94.1672 108.595 94.2239C108.701 94.2421 108.802 94.2809 108.893 94.3382C108.983 94.3955 109.062 94.4702 109.124 94.5578C109.186 94.6455 109.23 94.7445 109.253 94.8492C109.277 94.9539 109.279 95.0622 109.261 95.1679L109.242 95.2511ZM108.976 95.1839C108.998 95.1097 109.005 95.0319 108.997 94.955C108.989 94.8781 108.965 94.8035 108.928 94.7357C108.891 94.6678 108.841 94.608 108.78 94.5597C108.72 94.5114 108.65 94.4756 108.576 94.4543C108.548 94.4448 108.519 94.4384 108.49 94.4351C108.419 94.4006 108.343 94.3803 108.265 94.3753C108.187 94.3704 108.109 94.3808 108.035 94.4061C107.961 94.4313 107.893 94.4709 107.834 94.5225C107.775 94.5742 107.727 94.6369 107.693 94.7071C107.658 94.7772 107.638 94.8535 107.633 94.9316C107.628 95.0096 107.639 95.0878 107.664 95.1618C107.689 95.2358 107.729 95.3041 107.78 95.3628C107.832 95.4215 107.895 95.4694 107.965 95.5039C108.029 95.5356 108.098 95.5552 108.17 95.5615C108.312 95.6251 108.474 95.6295 108.62 95.5737C108.766 95.5179 108.884 95.4064 108.947 95.2639C108.96 95.2385 108.97 95.2116 108.976 95.1839Z" fill="white"/>
<path d="M112.771 96.32C112.646 96.752 112.234 96.992 111.61 96.8096C111.265 96.7223 110.966 96.5072 110.774 96.208L110.966 96.032C111.125 96.2968 111.381 96.4887 111.68 96.5664C112.109 96.6912 112.403 96.5664 112.499 96.2464C112.595 95.9264 112.429 95.6672 111.949 95.5296L111.763 95.4752L111.821 95.28L112.8 94.5888L111.478 94.2048L111.546 93.968L113.21 94.4512L113.155 94.64L112.154 95.36C112.701 95.5264 112.893 95.8976 112.771 96.32Z" fill="white"/>
<path d="M115.373 97.0399C115.34 97.1457 115.287 97.2439 115.217 97.3292C115.146 97.4144 115.06 97.4849 114.962 97.5366C114.864 97.5883 114.757 97.6202 114.647 97.6305C114.537 97.6409 114.426 97.6294 114.32 97.5967L114.256 97.5743C113.571 97.3759 113.338 96.7903 113.574 95.9743C113.83 95.0943 114.445 94.7775 115.146 94.9791C115.361 95.0334 115.559 95.1438 115.718 95.2991L115.549 95.4815C115.421 95.3501 115.259 95.257 115.082 95.2127C114.525 95.0527 114.061 95.3055 113.856 96.0063C113.837 96.0767 113.821 96.1471 113.808 96.2207C113.923 96.0986 114.072 96.0134 114.235 95.9758C114.399 95.9382 114.57 95.95 114.726 96.0095C114.833 96.0277 114.935 96.0667 115.026 96.1245C115.117 96.1822 115.196 96.2574 115.258 96.3458C115.32 96.4342 115.363 96.534 115.386 96.6394C115.409 96.7448 115.411 96.8538 115.392 96.9599C115.388 96.9872 115.382 97.014 115.373 97.0399ZM115.107 96.9695C115.129 96.8943 115.135 96.8156 115.126 96.7379C115.116 96.6603 115.092 96.5852 115.054 96.5171C115.015 96.4489 114.964 96.3891 114.902 96.341C114.84 96.2928 114.77 96.2574 114.694 96.2367L114.621 96.2207C114.551 96.1863 114.474 96.166 114.396 96.161C114.318 96.156 114.24 96.1664 114.166 96.1917C114.092 96.217 114.024 96.2566 113.965 96.3082C113.906 96.3599 113.859 96.4226 113.824 96.4927C113.79 96.5629 113.769 96.6392 113.764 96.7172C113.759 96.7952 113.77 96.8735 113.795 96.9475C113.82 97.0214 113.86 97.0897 113.912 97.1484C113.963 97.2071 114.026 97.2551 114.096 97.2895C114.16 97.3213 114.23 97.3408 114.301 97.3471C114.372 97.3785 114.448 97.3957 114.525 97.3975C114.603 97.3994 114.68 97.386 114.752 97.3581C114.824 97.3301 114.89 97.2882 114.946 97.2347C115.002 97.1812 115.047 97.1172 115.078 97.0463C115.078 97.0175 115.101 96.9887 115.107 96.9599V96.9695Z" fill="white"/>
<path d="M118.278 95.9169L118.224 96.1057L116.445 98.1889L116.157 98.1057L117.904 96.0641L116.573 95.6801L116.432 96.1633L116.17 96.0865L116.381 95.3665L118.278 95.9169Z" fill="white"/>
<path d="M121.974 96.9952L121.92 97.1841L120.141 99.2641L119.853 99.1808L121.6 97.1425L120.269 96.7552L120.128 97.2384L119.866 97.1617L120.077 96.4417L121.974 96.9952Z" fill="white"/>
<path d="M123.978 99.6033C123.843 100.061 123.373 100.243 122.755 100.051C122.138 99.8592 121.84 99.4752 121.974 99.0176C122.015 98.8696 122.105 98.7401 122.23 98.6508C122.354 98.5616 122.506 98.5182 122.659 98.528C122.55 98.455 122.467 98.3484 122.424 98.2242C122.381 98.1001 122.379 97.9652 122.419 97.84C122.541 97.4208 122.976 97.2608 123.523 97.4208C124.07 97.5808 124.358 97.9488 124.234 98.3808C124.199 98.5086 124.124 98.6215 124.02 98.7025C123.915 98.7834 123.787 98.8278 123.654 98.8288C123.787 98.903 123.891 99.0196 123.95 99.1601C124.009 99.3005 124.018 99.4566 123.978 99.6033ZM123.706 99.52C123.798 99.2 123.581 98.9216 123.123 98.7872C122.666 98.6528 122.336 98.7872 122.243 99.1072C122.15 99.4272 122.362 99.7056 122.822 99.84C123.283 99.9744 123.61 99.84 123.706 99.52ZM123.2 98.576C123.603 98.6944 123.898 98.5761 123.978 98.3041C124.058 98.0321 123.859 97.76 123.472 97.648C123.085 97.536 122.781 97.648 122.698 97.9264C122.614 98.2048 122.781 98.4608 123.2 98.576Z" fill="white"/>
<path d="M126.662 99.7376C126.406 100.618 125.792 100.938 125.088 100.733C124.873 100.679 124.676 100.569 124.518 100.413L124.688 100.23C124.813 100.364 124.974 100.457 125.152 100.499C125.712 100.662 126.173 100.406 126.378 99.7056C126.397 99.6352 126.416 99.5648 126.429 99.4912C126.314 99.6133 126.165 99.6985 126.002 99.7361C125.838 99.7737 125.667 99.762 125.51 99.7024C125.405 99.6842 125.305 99.6454 125.214 99.5882C125.124 99.531 125.046 99.4566 124.985 99.3691C124.924 99.2817 124.88 99.183 124.857 99.0787C124.834 98.9745 124.832 98.8667 124.851 98.7616C124.855 98.7322 124.861 98.7032 124.87 98.6752C124.933 98.4631 125.078 98.2848 125.272 98.1792C125.467 98.0736 125.695 98.0494 125.907 98.112L125.984 98.1376C126.666 98.336 126.899 98.9216 126.662 99.7376ZM126.445 99.12C126.478 98.9536 126.443 98.781 126.349 98.64C126.255 98.4991 126.109 98.4012 125.942 98.368H125.923C125.78 98.3143 125.621 98.3188 125.48 98.3806C125.34 98.4423 125.229 98.5565 125.171 98.6987C125.114 98.8409 125.114 98.9999 125.172 99.1419C125.23 99.284 125.341 99.3978 125.482 99.4592C125.521 99.4753 125.562 99.4871 125.603 99.4944C125.681 99.5262 125.765 99.5424 125.849 99.5419C125.933 99.5415 126.016 99.5244 126.094 99.4917C126.171 99.459 126.242 99.4113 126.301 99.3514C126.36 99.2914 126.407 99.2204 126.438 99.1424C126.439 99.1345 126.441 99.1267 126.445 99.12Z" fill="white"/>
<path d="M129.654 99.2318L128.899 101.817L128.634 101.741L129.318 99.3918L128.707 99.2126L128.778 98.9758L129.654 99.2318Z" fill="white"/>
<path d="M131.101 102.355L131.03 102.592L129.216 102.08L129.27 101.891L130.653 101.152C131.03 100.95 131.136 100.79 131.187 100.614C131.274 100.317 131.117 100.07 130.723 99.9552C130.594 99.9085 130.456 99.8915 130.319 99.9053C130.182 99.9192 130.05 99.9636 129.933 100.035L129.792 99.8176C129.945 99.7279 130.116 99.6725 130.293 99.6554C130.47 99.6382 130.648 99.6598 130.816 99.7184C131.341 99.8688 131.594 100.234 131.456 100.678C131.382 100.925 131.242 101.123 130.797 101.363L129.664 101.971L131.101 102.355Z" fill="white"/>
<path d="M133.44 102.528C133.312 102.96 132.902 103.2 132.278 103.017C131.935 102.924 131.641 102.703 131.456 102.4L131.648 102.227C131.726 102.359 131.829 102.474 131.951 102.565C132.074 102.657 132.213 102.724 132.362 102.761C132.79 102.886 133.085 102.761 133.178 102.441C133.27 102.121 133.11 101.862 132.63 101.725L132.445 101.67L132.502 101.472L133.478 100.784L132.157 100.4L132.227 100.163L133.888 100.646L133.834 100.835L132.835 101.542C133.379 101.741 133.571 102.112 133.44 102.528Z" fill="white"/>
<path d="M113.454 99.406L113.128 100.527L133.838 106.56L134.165 105.439L113.454 99.406Z" fill="white"/>
<path d="M122.892 104.581L122.564 105.705L133.188 108.8L133.516 107.675L122.892 104.581Z" fill="white"/>
<path d="M95.478 81.67L94.4742 85.1139C94.2289 85.9555 94.7123 86.8365 95.5539 87.0818L101.197 88.7268C102.039 88.9721 102.92 88.4887 103.165 87.6471L104.169 84.2033C104.414 83.3617 103.931 82.4806 103.09 82.2353L97.446 80.5904C96.6044 80.3451 95.7233 80.8285 95.478 81.67Z" fill="#263238"/>
<path d="M94.56 84.8383L94.6816 84.4223L99.1616 85.7279C99.4103 85.8004 99.6776 85.7712 99.9047 85.6467C100.132 85.5222 100.3 85.3125 100.373 85.0639C100.445 84.8152 100.416 84.5479 100.292 84.3208C100.167 84.0936 99.9575 83.9252 99.7088 83.8527L95.2288 82.5503L95.3504 82.1343L99.8304 83.4367C100.174 83.5541 100.459 83.7993 100.626 84.1214C100.793 84.4434 100.83 84.8175 100.729 85.1659C100.627 85.5144 100.396 85.8104 100.082 85.9925C99.768 86.1746 99.396 86.2288 99.0432 86.1439L94.56 84.8383Z" fill="white"/>
<path d="M100.63 84.9077L100.508 85.3254L103.579 86.2236L103.702 85.8059L100.63 84.9077Z" fill="white"/>
<path d="M98.5102 75.103L97.9515 77.02L120.301 83.5344L120.86 81.6174L98.5102 75.103Z" fill="white"/>
<path d="M131.894 79.6511L126.4 76.0415C126.4 76.0415 123.715 83.7727 122.88 83.8495C118.323 84.2655 113.446 82.7519 111.738 82.1567C111.565 81.9615 111.366 81.7279 111.146 81.4399C110.957 81.193 110.812 80.916 110.717 80.6207C110.583 80.2585 110.502 79.8793 110.474 79.4943C110.483 79.4002 110.454 79.3063 110.394 79.2332C110.334 79.1601 110.248 79.1136 110.154 79.1039C110.1 79.0997 110.046 79.1072 109.996 79.126C109.946 79.1448 109.9 79.1744 109.862 79.2127C109.664 79.4687 109.613 80.4447 110.064 81.4975C110.515 82.5503 108.922 81.7119 108.336 81.4175C107.75 81.1231 105.894 80.2975 105.661 80.4063C105.322 80.5663 105.427 80.9599 106.019 81.2415C106.611 81.5231 108.326 82.4863 108.157 82.7871C107.987 83.0879 105.027 81.5455 105.027 81.5455C105.027 81.5455 104.448 81.1167 104.24 81.4591C103.862 82.0767 107.12 83.4783 107.44 83.6031C107.658 83.6927 107.485 84.0255 107.254 83.9231C107.024 83.8207 104.336 82.3231 103.949 82.9439C103.651 83.4239 106.627 84.1247 107.011 84.7423C107.395 85.3599 104.806 83.9839 104.541 84.4511C104.442 84.6271 104.394 84.7711 105.994 85.3503C107.165 85.7154 108.355 86.0188 109.558 86.2591V86.2751C109.558 86.2751 125.898 93.5903 128.989 86.5343C132.298 79.0143 131.894 79.6511 131.894 79.6511Z" fill="#E5BAAB"/>
<path d="M128.288 69.0815C128.288 69.0815 133.28 69.6703 132.768 75.6095C132.434 79.2814 131.402 82.8557 129.728 86.1407L123.181 82.7039C124.655 79.7632 125.764 76.6532 126.483 73.4431L128.32 69.0815H128.288Z" fill="#D5B7FF"/>
<g opacity="0.2">
<path d="M128.288 69.0815C128.288 69.0815 133.28 69.6703 132.768 75.6095C132.434 79.2814 131.402 82.8557 129.728 86.1407L123.181 82.7039C124.655 79.7632 125.764 76.6532 126.483 73.4431L128.32 69.0815H128.288Z" fill="white"/>
</g>
<path d="M131.334 71.6352C131.334 71.664 130.87 71.552 130.074 71.5328L130.128 71.472C130.317 72.2208 130.566 73.2192 130.858 74.3712L130.89 74.5056L130.758 74.4704L128.723 73.92L128.17 73.7664L128.278 73.68C128.323 74.784 128.365 75.808 128.4 76.688V76.784L128.31 76.7584L126.355 76.2112L125.814 76.0512C125.75 76.0347 125.687 76.01 125.629 75.9776C125.696 75.9786 125.763 75.9893 125.827 76.0096L126.378 76.1344L128.339 76.6208L128.253 76.6944C128.208 75.8144 128.157 74.7904 128.102 73.6896V73.5712L128.218 73.6032L128.771 73.7568L130.8 74.3232L130.701 74.4224C130.432 73.2608 130.202 72.256 130.026 71.5008L130.01 71.4368H130.08C130.393 71.4522 130.704 71.4918 131.011 71.5552C131.121 71.5708 131.23 71.5976 131.334 71.6352Z" fill="#455A64"/>
<path d="M131.738 79.7504C131.647 79.6844 131.569 79.6032 131.507 79.5104C131.373 79.3408 131.226 79.0592 131.014 78.7328H131.101C130.583 79.7441 129.977 80.7079 129.29 81.6128L129.226 81.6992L129.158 81.6128C128.838 81.2139 128.518 80.7872 128.198 80.3328L127.462 79.3728H127.584L126.4 80.416L125.869 80.8736L125.622 81.088L125.504 81.1904L125.475 81.216H125.44C125.44 81.2448 125.334 81.1776 125.357 81.1488V81.1296C125.357 81.1296 125.379 81.184 125.389 81.1808L125.334 81.1968L125.315 81.136C125.126 80.496 124.995 79.9904 124.915 79.6256C124.861 79.4399 124.839 79.246 124.851 79.0528C124.885 79.2405 124.929 79.4264 124.982 79.6096C125.082 79.9648 125.232 80.4736 125.44 81.0976L125.366 81.0528C125.389 81.0464 125.414 81.0464 125.437 81.0528C125.453 81.0582 125.467 81.0686 125.476 81.0824C125.486 81.0962 125.491 81.1127 125.491 81.1296C125.494 81.1444 125.494 81.1597 125.491 81.1744H125.475L125.43 81.1552C125.427 81.1429 125.421 81.1319 125.411 81.1232L125.392 81.104L125.418 81.0784L125.536 80.9728L125.779 80.7552C125.946 80.6048 126.118 80.4352 126.301 80.288L127.469 79.248L127.536 79.1872L127.594 79.2608L128.33 80.2208C128.669 80.6624 128.995 81.0912 129.29 81.5008H129.158C129.846 80.6054 130.465 79.6598 131.011 78.672L131.056 78.5952L131.101 78.6688C131.306 79.0112 131.421 79.3088 131.552 79.472C131.683 79.6352 131.747 79.7408 131.738 79.7504Z" fill="#455A64"/>
</svg>
