<svg width="640" height="640" viewBox="0 0 640 640" fill="none" xmlns="http://www.w3.org/2000/svg">
<path opacity="0.7" d="M151.296 500.544C169.677 503.283 188.416 502.809 206.835 505.165C253.325 511.104 282.355 536.819 315.84 561.165H523.674C525.171 559.603 526.63 558.016 528.051 556.377C578.624 498.201 584.013 400.64 564.442 329.817C538.202 234.688 465.92 119.309 362.522 97.2031C316.787 87.4239 268.608 95.7566 229.926 122.086C143.744 180.749 62.3616 282.086 65.1136 391.513C66.432 443.955 97.088 492.454 151.296 500.544Z" fill="#F9F9F9"/>
<path d="M49.8176 561.165H594.509" stroke="#263238" stroke-linecap="round" stroke-linejoin="round"/>
<path d="M366.733 145.011L365.786 136.909C365.786 136.909 369.626 129.856 369.626 129.229C369.626 128.602 368.269 121.549 366.758 119.59C365.394 117.962 363.852 116.489 362.163 115.2C360.486 113.69 359.808 115.2 360.32 116.966C358.403 116.319 356.419 115.89 354.406 115.686C353.29 115.99 352.213 116.419 351.194 116.966C350.532 116.798 349.854 116.708 349.171 116.698C348.125 117.098 347.129 117.618 346.202 118.246C345.461 118.448 344.735 118.696 344.026 118.989C342.899 119.616 341.466 122.624 341.466 122.624C341.466 122.624 339.43 123.494 339.098 124.173C338.765 124.851 335.718 129.088 336.538 129.434C338.381 130.253 341.658 127.91 341.658 127.91C341.658 127.91 346.509 128.346 346.778 129.613C347.046 130.88 350.682 137.293 353.088 138.33V145.92L366.733 145.011Z" fill="white" stroke="#263238" stroke-linecap="round" stroke-linejoin="round"/>
<path d="M498.765 187.891L492.096 196.493L482.598 189.146L482.099 181.875L489.267 180.544L498.765 187.891Z" fill="#407BFF" stroke="#263238" stroke-linecap="round" stroke-linejoin="round"/>
<path d="M448.998 130.291C448.998 130.291 458.304 126.733 465.638 132.288C474.906 139.328 486.31 159.399 475.29 195.098C475.29 195.098 463.398 183.207 429.286 195.098C429.286 195.098 420.211 190.554 418.445 164.467C417.523 150.707 415.578 124.467 448.998 130.291Z" fill="#263238"/>
<path d="M482.099 181.862C482.099 181.862 473.395 182.553 469.645 168.153" stroke="#263238" stroke-linecap="round" stroke-linejoin="round"/>
<path d="M532.352 407.475L522.317 411.674L517.683 400.589L520.832 394.01L527.731 396.391L532.352 407.475Z" fill="#407BFF" stroke="#263238" stroke-linecap="round" stroke-linejoin="round"/>
<path d="M521.165 394.573C521.165 394.573 517.67 380.902 507.008 380.646" stroke="#263238" stroke-linecap="round" stroke-linejoin="round"/>
<path d="M428.378 176.934C435.392 177.626 434.931 160.538 428.851 159.411C422.029 158.144 418.291 175.962 428.378 176.934Z" fill="#407BFF" stroke="#263238" stroke-linecap="round" stroke-linejoin="round"/>
<path d="M430.848 154.88C421.261 153.945 421.888 177.305 430.195 178.841C439.539 180.595 444.634 156.224 430.848 154.88Z" fill="#757575" stroke="#263238" stroke-linecap="round" stroke-linejoin="round"/>
<path d="M414.054 530.112L415.334 533.862C413.403 537.071 411.234 540.13 408.845 543.014C408.845 543.014 407.565 542.592 405.453 544.448C404.165 545.741 403.368 547.443 403.2 549.261C403.2 549.261 393.421 560.985 381.018 561.165C368.614 561.344 372.352 555.085 372.352 555.085L414.054 530.112Z" fill="#407BFF" stroke="#263238" stroke-linecap="round" stroke-linejoin="round"/>
<path d="M402.406 500.262C402.406 500.262 385.766 494.131 382.502 506.406C382.502 506.406 385.472 519.91 383.693 527.283C381.914 534.656 372.954 548.774 372.403 551.462C371.328 556.697 372.134 557.056 372.134 557.056C372.134 557.056 378.662 560.819 387.405 556.787C396.147 552.755 411.315 535.411 413.683 531.84C416.051 528.269 406.259 514.137 406.259 514.137L402.406 500.262Z" fill="white"/>
<path opacity="0.7" d="M402.406 500.262C402.406 500.262 385.766 494.131 382.502 506.406C382.502 506.406 385.472 519.91 383.693 527.283C381.914 534.656 372.954 548.774 372.403 551.462C371.328 556.697 372.134 557.056 372.134 557.056C372.134 557.056 378.662 560.819 387.405 556.787C396.147 552.755 411.315 535.411 413.683 531.84C416.051 528.269 406.259 514.137 406.259 514.137L402.406 500.262Z" fill="black"/>
<path d="M402.406 500.262C402.406 500.262 385.766 494.131 382.502 506.406C382.502 506.406 385.472 519.91 383.693 527.283C381.914 534.656 372.954 548.774 372.403 551.462C371.328 556.697 372.134 557.056 372.134 557.056C372.134 557.056 378.662 560.819 387.405 556.787C396.147 552.755 411.315 535.411 413.683 531.84C416.051 528.269 406.259 514.137 406.259 514.137L402.406 500.262Z" stroke="#263238" stroke-linecap="round" stroke-linejoin="round"/>
<path d="M393.882 517.606C395.329 525.872 393.859 534.383 389.722 541.683C389.722 541.683 385.613 545.523 387.354 547.789" stroke="#263238" stroke-linecap="round" stroke-linejoin="round"/>
<path d="M392.077 540.007C392.077 540.007 383.373 540.519 378.829 538.727" stroke="#263238" stroke-linecap="round" stroke-linejoin="round"/>
<path d="M393.69 535.194C393.69 535.194 385.549 536.474 381.005 533.914" stroke="#263238" stroke-linecap="round" stroke-linejoin="round"/>
<path d="M395.072 529.92C395.072 529.92 387.942 530.957 383.296 528.742" stroke="#263238" stroke-linecap="round" stroke-linejoin="round"/>
<path d="M395.866 523.814C395.866 523.814 387.93 526.31 384.179 523.814" stroke="#263238" stroke-linecap="round" stroke-linejoin="round"/>
<path d="M464.986 288.729C464.986 288.729 480.346 333.44 473.549 362.739C466.752 392.038 464.589 404.057 464.986 419.981C465.382 435.904 448.794 518.681 448.794 518.681H433.613C433.613 518.681 435.866 447.001 435.75 429.632C435.635 412.262 438.886 417.011 434.906 400.192C430.925 383.373 433.882 366.438 428.352 348.211C428.352 348.211 398.515 399.526 393.114 406.95C393.114 406.95 399.117 429.491 398.438 448.653C397.658 471.091 399.629 504.87 399.629 504.87C399.629 504.87 396.25 511.206 386.97 508.71C386.97 508.71 362.726 408.729 364.083 403.75C365.44 398.771 374.886 344.691 400.819 308.787C400.819 308.787 405.261 293.504 408.307 283.725L464.986 288.729Z" fill="#263238"/>
<path d="M452.608 516.851C452.608 516.851 445.517 511.731 430.848 512.806C430.848 512.806 429.786 530.406 427.789 535.526C425.792 540.646 415.258 549.516 413.312 551.027C411.366 552.537 411.354 557.875 411.354 557.875H455.91C455.346 550.256 454.16 542.696 452.365 535.27L452.608 516.851Z" fill="white"/>
<path opacity="0.7" d="M452.608 516.851C452.608 516.851 445.517 511.731 430.848 512.806C430.848 512.806 429.786 530.406 427.789 535.526C425.792 540.646 415.258 549.516 413.312 551.027C411.366 552.537 411.354 557.875 411.354 557.875H455.91C455.346 550.256 454.16 542.696 452.365 535.27L452.608 516.851Z" fill="black"/>
<path d="M452.608 516.851C452.608 516.851 445.517 511.731 430.848 512.806C430.848 512.806 429.786 530.406 427.789 535.526C425.792 540.646 415.258 549.516 413.312 551.027C411.366 552.537 411.354 557.875 411.354 557.875H455.91C455.346 550.256 454.16 542.696 452.365 535.27L452.608 516.851Z" stroke="#263238" stroke-linecap="round" stroke-linejoin="round"/>
<path d="M443.418 519.129C443.418 519.129 442.355 535.334 439.846 539.609C438.496 541.956 436.834 544.109 434.906 546.009C434.906 546.009 431.859 546.009 434.906 550.105" stroke="#263238" stroke-linecap="round" stroke-linejoin="round"/>
<path d="M438.31 544.448C438.31 544.448 428.8 538.995 422.029 543.168" stroke="#263238" stroke-linecap="round" stroke-linejoin="round"/>
<path d="M440.602 540.749C440.602 540.749 433.958 535.629 426.138 538.406" stroke="#263238" stroke-linecap="round" stroke-linejoin="round"/>
<path d="M443.418 535.04C443.418 535.04 436.275 529.497 428.749 533.03" stroke="#263238" stroke-linecap="round" stroke-linejoin="round"/>
<path d="M444.378 528.038C444.378 528.038 435.725 523.392 429.414 526.925" stroke="#263238" stroke-linecap="round" stroke-linejoin="round"/>
<path d="M455.898 557.875V561.165H450.778C449.462 560.448 447.988 560.072 446.49 560.072C444.991 560.072 443.517 560.448 442.202 561.165H418.176C415.636 561.154 413.129 560.591 410.829 559.513L411.341 557.875H455.898Z" fill="#407BFF" stroke="#263238" stroke-linecap="round" stroke-linejoin="round"/>
<path d="M489.946 208.538C485.134 205.335 479.834 202.936 474.253 201.434C474.253 201.434 471.232 198.477 469.645 200.793C463.245 210.035 429.235 196.8 429.235 196.8C429.235 196.8 427.354 194.688 422.528 194.778C419.228 192.039 415.156 190.397 410.88 190.08C403.789 189.568 379.149 194.15 376.115 192.218C373.082 190.285 367.002 141.683 367.002 141.683H352.333V147.968C352.333 147.968 345.754 163.456 346.266 185.728C346.778 208 326.554 216.627 387.315 236.928C387.315 236.928 385.293 273.382 391.872 289.587C391.872 289.587 440.666 314.086 471.718 314.24C471.718 314.24 478.63 318.784 469.568 298.022L480 283.674C480 283.674 494.682 309.274 504.806 302.208C514.931 295.142 506.88 219.238 489.946 208.538Z" fill="#407BFF"/>
<path opacity="0.2" d="M387.136 241.523C387.213 238.618 387.315 236.877 387.315 236.877C326.554 216.614 346.765 208.013 346.266 185.677C345.766 163.341 352.333 147.917 352.333 147.917V141.619H367.027C367.027 141.619 373.094 190.259 376.141 192.166C382.976 202.675 370.445 215.014 374.861 216.998C379.277 218.982 389.99 209.318 389.99 209.318C391.129 220.137 390.16 231.074 387.136 241.523Z" fill="black" fill-opacity="0.7"/>
<path opacity="0.2" d="M502.093 271.27C502.093 271.27 499.2 292.275 497.677 302.771C488.96 299.302 480 283.661 480 283.661L469.581 297.958C478.643 318.72 471.731 314.189 471.731 314.189C440.678 314.035 391.885 289.536 391.885 289.536C390.829 286.812 390.028 283.997 389.491 281.126C421.312 306.56 462.451 309.517 466.112 309.734C459.878 309.312 438.771 302.835 436.275 297.958C433.779 293.081 456.755 297.6 462.784 296.589C468.813 295.577 475.315 276.109 475.315 276.109C470.81 276.109 465.139 259.904 465.664 257.894C466.189 255.885 473.946 256.333 473.946 256.333C473.946 256.333 469.709 252.301 470.886 247.027C472.064 241.753 469.952 233.817 474.138 234.829C478.323 235.84 477.299 242.88 477.299 242.88L502.093 271.27Z" fill="black" fill-opacity="0.7"/>
<path d="M489.946 208.538C485.134 205.335 479.834 202.936 474.253 201.434C474.253 201.434 471.232 198.477 469.645 200.794C463.245 210.035 429.235 196.8 429.235 196.8C429.235 196.8 427.354 194.688 422.528 194.778C419.228 192.039 415.156 190.397 410.88 190.08C403.789 189.568 379.149 194.15 376.115 192.218C373.082 190.285 367.002 141.683 367.002 141.683H352.333V147.968C352.333 147.968 345.754 163.456 346.266 185.728C346.778 208 326.554 216.627 387.315 236.928C387.315 236.928 385.293 273.382 391.872 289.587C391.872 289.587 440.666 314.086 471.718 314.24C471.718 314.24 478.63 318.784 469.568 298.022L480 283.674C480 283.674 494.682 309.274 504.806 302.208C514.931 295.142 506.88 219.238 489.946 208.538Z" stroke="#263238" stroke-linecap="round" stroke-linejoin="round"/>
<path d="M440.717 216.998C455.475 218.176 469.645 200.794 469.645 200.794C469.645 200.794 461.645 200.461 460.685 196.8C457.459 185.28 465.421 170.022 465.421 170.022C465.421 170.022 430.131 173.862 436.966 181.376C438.234 182.745 439.307 184.283 440.154 185.946C442.714 191.066 441.562 195.136 440.499 196.186C440.425 196.257 440.343 196.322 440.256 196.378C438.195 197.53 429.286 196.787 429.286 196.787C429.286 196.787 427.251 215.923 440.717 216.998Z" fill="white" stroke="#263238" stroke-linecap="round" stroke-linejoin="round"/>
<path d="M464.998 205.658C459.819 207.884 454.226 208.988 448.589 208.896L444.339 211.456" stroke="#263238" stroke-linecap="round" stroke-linejoin="round"/>
<path d="M439.898 211.431L439.334 208.538C439.334 208.538 431.898 206.861 429.299 202.727" stroke="#263238" stroke-linecap="round" stroke-linejoin="round"/>
<path d="M440.448 196.199C451.507 198.144 455.462 183.834 455.462 183.834C455.462 183.834 446.592 181.965 440.102 185.946C442.675 191.04 441.51 195.136 440.448 196.199Z" fill="#263238"/>
<path d="M440.064 133.44C416 136.96 427.597 172.519 430.08 181.338C431.002 184.602 441.152 194.138 445.696 193.293C449.242 192.615 461.862 181.952 462.515 177.549C464.243 165.799 467.2 129.447 440.064 133.44Z" fill="white" stroke="#263238" stroke-linecap="round" stroke-linejoin="round"/>
<path d="M436.762 159.347C436.762 161.011 438.144 165.747 434.88 169.088C432.768 171.238 438.144 172.198 438.144 172.198" stroke="#263238" stroke-linecap="round" stroke-linejoin="round"/>
<path d="M435.674 151.897C434.091 151.926 432.535 152.313 431.122 153.029C429.71 153.745 428.479 154.772 427.52 156.032" stroke="#263238" stroke-linecap="round" stroke-linejoin="round"/>
<path d="M443.981 151.539C447.068 151.132 450.205 151.367 453.197 152.23" stroke="#263238" stroke-linecap="round" stroke-linejoin="round"/>
<path d="M431.104 163.277C431.296 164.25 432.013 164.941 432.73 164.8C433.446 164.659 433.856 163.763 433.677 162.778C433.498 161.792 432.755 161.114 432.051 161.254C431.347 161.395 430.912 162.291 431.104 163.277Z" fill="#263238"/>
<path d="M446.72 161.382C446.899 162.368 447.629 163.059 448.346 162.918C448.732 162.766 449.044 162.471 449.218 162.094C449.392 161.718 449.414 161.288 449.28 160.896C449.101 159.91 448.371 159.232 447.654 159.36C447.27 159.514 446.96 159.81 446.786 160.186C446.613 160.562 446.589 160.989 446.72 161.382Z" fill="#263238"/>
<path d="M438.144 178.726C442.052 177.861 445.731 176.172 448.934 173.772C448.934 173.772 449.894 179.929 444.8 181.644C440.896 182.924 438.989 178.534 438.989 178.534" stroke="#263238" stroke-linecap="round" stroke-linejoin="round"/>
<path d="M448.998 138.381C448.998 138.381 448.998 156.032 464.998 161.139L470.874 143.706L442.01 129.024C411.366 129.165 404.659 166.899 420.992 188.518C420.992 188.518 417.28 140.16 448.998 138.381Z" fill="#263238"/>
<path d="M461.67 162.163C461.299 160.205 465.869 154.79 467.814 157.862C471.142 163.123 469.44 168.102 466.611 170.189C465.331 171.136 463.795 172.851 462.49 171.469" fill="white"/>
<path d="M461.67 162.163C461.299 160.205 465.869 154.79 467.814 157.862C471.142 163.123 469.44 168.102 466.611 170.189C465.331 171.136 463.795 172.851 462.49 171.469" stroke="#263238" stroke-linecap="round" stroke-linejoin="round"/>
<path d="M465.651 151.347C456.051 150.413 456.691 173.773 464.998 175.309C474.33 177.05 479.424 152.678 465.651 151.347Z" fill="#757575" stroke="#263238" stroke-linecap="round" stroke-linejoin="round"/>
<path d="M466.368 157.069C466.368 157.069 465.088 129.971 435.648 130.317C435.648 130.317 440.09 126.861 448.563 129.037C457.037 131.213 470.848 137.651 470.848 157.081L466.368 157.069Z" fill="#407BFF" stroke="#263238" stroke-linecap="round" stroke-linejoin="round"/>
<path d="M467.917 154.573C460.915 153.895 461.376 170.97 467.443 172.109C474.278 173.376 478.003 155.546 467.917 154.573Z" fill="#407BFF" stroke="#263238" stroke-linecap="round" stroke-linejoin="round"/>
<g opacity="0.2">
<path d="M429.594 306.918C429.594 306.918 424.256 325.619 428.045 340.301" stroke="white" stroke-linecap="round" stroke-linejoin="round"/>
<path d="M426.342 344.32C426.342 344.32 415.923 336.973 411.366 336.218" stroke="white" stroke-linecap="round" stroke-linejoin="round"/>
<path d="M433.395 347.648C433.395 347.648 413.645 344.857 408.333 347.648" stroke="white" stroke-linecap="round" stroke-linejoin="round"/>
<path d="M429.594 344.32C429.594 344.32 439.066 340.02 444.339 339.008" stroke="white" stroke-linecap="round" stroke-linejoin="round"/>
<path d="M424.538 306.138C424.538 306.138 419.546 317.299 426.342 320.947" stroke="white" stroke-linecap="round" stroke-linejoin="round"/>
<path d="M384.179 402.842C383.91 403.853 390.682 406.899 390.682 406.899C390.682 406.899 387.968 413.978 384.179 415.002" stroke="white" stroke-linecap="round" stroke-linejoin="round"/>
<path d="M457.766 415.001C455.002 422.425 447.526 427.801 447.526 427.801" stroke="white" stroke-linecap="round" stroke-linejoin="round"/>
<path d="M379.725 464.282C379.725 464.282 389.146 474.407 390.682 478.119" stroke="white" stroke-linecap="round" stroke-linejoin="round"/>
</g>
<path d="M500.646 331.699L506.381 379.558C506.458 380.183 506.34 380.817 506.045 381.373C505.75 381.93 505.291 382.382 504.73 382.669L458.24 406.681C457.877 406.862 457.476 406.953 457.071 406.949C456.666 406.944 456.268 406.843 455.909 406.654C455.55 406.466 455.242 406.194 455.008 405.863C454.775 405.532 454.623 405.15 454.566 404.749L448.166 355.853C448.085 355.211 448.206 354.559 448.514 353.99C448.822 353.421 449.3 352.962 449.882 352.678L497.011 329.715C497.376 329.542 497.777 329.458 498.181 329.469C498.584 329.481 498.98 329.588 499.334 329.781C499.689 329.975 499.992 330.249 500.22 330.583C500.448 330.916 500.594 331.298 500.646 331.699Z" fill="#BFBFBF" stroke="#263238" stroke-linecap="round" stroke-linejoin="round"/>
<path d="M503.206 333.222L508.941 381.069C509.017 381.696 508.899 382.331 508.604 382.889C508.309 383.447 507.85 383.902 507.29 384.192L460.8 408.192C460.438 408.372 460.038 408.464 459.634 408.46C459.23 408.456 458.832 408.356 458.473 408.169C458.115 407.982 457.806 407.712 457.572 407.382C457.338 407.053 457.185 406.672 457.126 406.272L450.726 357.363C450.642 356.722 450.761 356.071 451.066 355.502C451.372 354.932 451.848 354.473 452.429 354.189L499.558 331.238C499.924 331.063 500.326 330.976 500.731 330.987C501.137 330.997 501.534 331.103 501.89 331.297C502.246 331.491 502.551 331.766 502.78 332.101C503.009 332.436 503.155 332.82 503.206 333.222Z" fill="#BFBFBF" stroke="#263238" stroke-linecap="round" stroke-linejoin="round"/>
<path d="M479.181 364.992C479.177 364.507 479.135 364.023 479.053 363.545C479.324 363.254 479.651 363.019 480.013 362.855C480.375 362.69 480.767 362.598 481.165 362.585C483.315 362.585 485.005 365.248 485.005 368.537C485.005 371.827 483.277 374.489 481.165 374.489C479.347 374.489 477.837 372.569 477.414 369.984C478.621 368.608 479.253 366.821 479.181 364.992Z" fill="#407BFF" stroke="#263238" stroke-linecap="round" stroke-linejoin="round"/>
<path d="M487.411 318.784L492.134 374.489C492.134 374.489 489.434 381.913 487.411 384.281C485.389 386.649 481.728 398.822 479.846 401.177C477.965 403.532 480.858 404.198 485.99 397.107C487.656 398.871 489.148 400.791 490.445 402.841C491.456 404.864 494.157 399.808 496.525 399.129C498.893 398.451 503.616 396.761 503.616 394.406C503.616 392.051 506.688 390.438 506.995 387.315C507.302 384.192 503.949 372.467 503.949 372.467L505.306 320.947L487.411 318.784Z" fill="white" stroke="#263238" stroke-linecap="round" stroke-linejoin="round"/>
<path d="M508.941 271.155C510.682 287.795 509.248 307.981 509.248 307.981L506.291 333.849C506.291 333.849 507.763 338.893 506.65 340.249C502.938 344.985 494.835 339.328 488.422 334.605C482.01 329.881 485.862 326.835 485.862 326.835C485.862 326.835 484.71 317.043 482.483 310.976C480.256 304.909 477.478 269.209 477.286 263.027C477.286 263.027 476.365 252.902 474.125 250.227C471.885 247.552 489.779 227.277 495.181 226.598" fill="#407BFF"/>
<path d="M508.941 271.155C510.682 287.795 509.248 307.981 509.248 307.981L506.291 333.849C506.291 333.849 507.763 338.893 506.65 340.249C502.938 344.985 494.835 339.328 488.422 334.605C482.01 329.881 485.862 326.835 485.862 326.835C485.862 326.835 484.71 317.043 482.483 310.976C480.256 304.909 477.478 269.209 477.286 263.027C477.286 263.027 476.365 252.902 474.125 250.227C471.885 247.552 489.779 227.277 495.181 226.598" stroke="#263238" stroke-linecap="round" stroke-linejoin="round"/>
<path d="M388.838 200.627C388.838 200.627 392.96 220.16 387.315 236.877" stroke="#263238" stroke-linecap="round" stroke-linejoin="round"/>
<path d="M469.568 297.971C461.67 301.579 452.801 302.479 444.339 300.531" stroke="#263238" stroke-linecap="round" stroke-linejoin="round"/>
<path d="M422.528 194.777C422.528 194.777 423.488 220.569 441.613 222.08" stroke="#263238" stroke-linecap="round" stroke-linejoin="round"/>
<path d="M376.141 192.217C376.141 192.217 377.702 200.102 372.634 202.726C367.565 205.35 372.634 197.478 372.634 197.478" stroke="#263238" stroke-linecap="round" stroke-linejoin="round"/>
<path d="M485.862 326.886C485.862 326.886 494.592 333.209 500.646 331.699" stroke="#263238" stroke-linecap="round" stroke-linejoin="round"/>
<path d="M352.333 147.968C352.333 147.968 361.498 151.974 364.019 151.321" stroke="#263238" stroke-linecap="round" stroke-linejoin="round"/>
<path d="M414.925 256L417.485 249.51L419.558 249.997L417.318 259.482L415.91 259.149L417.51 252.352L414.95 258.918L413.542 258.586L414.042 251.622L412.454 258.317L411.174 258.01L413.402 248.538L415.475 249.024L414.925 256Z" fill="#263238"/>
<path d="M420.032 252.454C420.078 252.135 420.191 251.828 420.362 251.554C420.533 251.28 420.759 251.045 421.026 250.863C421.293 250.681 421.595 250.557 421.912 250.498C422.23 250.439 422.556 250.447 422.871 250.521C423.185 250.595 423.481 250.733 423.739 250.927C423.997 251.122 424.211 251.368 424.369 251.649C424.527 251.931 424.625 252.242 424.656 252.564C424.687 252.885 424.651 253.21 424.55 253.517L423.386 258.445C423.339 258.764 423.227 259.071 423.056 259.345C422.885 259.619 422.658 259.854 422.391 260.036C422.125 260.217 421.823 260.342 421.505 260.401C421.188 260.46 420.861 260.452 420.547 260.378C420.232 260.304 419.937 260.166 419.679 259.971C419.421 259.777 419.206 259.531 419.048 259.25C418.89 258.968 418.792 258.656 418.761 258.335C418.73 258.013 418.766 257.689 418.867 257.382L420.032 252.454ZM420.339 257.817C420.173 258.496 420.416 258.829 420.89 258.944C421.363 259.059 421.722 258.867 421.875 258.189L423.155 253.069C423.309 252.39 423.066 252.07 422.592 251.955C422.118 251.84 421.773 252.032 421.606 252.71L420.339 257.817Z" fill="#263238"/>
<path d="M426.79 254.4L425.178 261.273L423.834 260.953L426.074 251.481L427.942 251.917L428.109 257.945L429.389 252.275L430.669 252.595L428.429 262.067L426.906 261.709L426.79 254.4Z" fill="#263238"/>
<path d="M431.821 252.838L434.176 253.389C434.495 253.428 434.801 253.54 435.07 253.716C435.339 253.893 435.563 254.129 435.725 254.407C435.888 254.684 435.984 254.996 436.006 255.316C436.028 255.637 435.976 255.959 435.853 256.256L434.714 261.043C434.69 261.362 434.594 261.671 434.432 261.947C434.27 262.223 434.046 262.457 433.779 262.633C433.512 262.809 433.208 262.921 432.89 262.96C432.573 263 432.251 262.966 431.949 262.861L429.594 262.31L431.821 252.838ZM432.998 254.541L431.36 261.299L432.205 261.504C432.678 261.619 433.011 261.44 433.178 260.762L434.342 255.834C434.496 255.155 434.266 254.848 433.792 254.733L432.998 254.541Z" fill="#263238"/>
<path d="M439.923 264.742L438.413 264.384L438.566 262.605L436.736 262.17L436.07 263.833L434.701 263.513L438.451 254.4L440.64 254.912L439.923 264.742ZM437.222 260.902L438.669 261.235L439.091 256.282L437.222 260.902Z" fill="#263238"/>
<path d="M442.086 261.939L441.69 255.155L443.251 255.526L443.354 260.109L445.491 256.064L446.912 256.397L443.546 262.285L442.803 265.434L441.318 265.075L442.086 261.939Z" fill="#263238"/>
<path d="M423.296 235.776L424.794 236.121L422.554 245.593L421.12 245.248L423.296 235.776Z" fill="#263238"/>
<path d="M438.285 238.912C437.58 238.504 436.759 238.345 435.953 238.461C435.147 238.577 434.404 238.961 433.843 239.552C433.588 238.78 433.077 238.119 432.396 237.676C431.714 237.234 430.901 237.038 430.093 237.12C427.533 237.325 426.086 240.153 427.469 243.341C428.433 245.29 429.819 246.999 431.526 248.345L431.859 248.614L432.269 248.512C434.384 248.005 436.36 247.035 438.054 245.67C440.64 243.353 440.486 240.166 438.285 238.912Z" fill="#263238"/>
<path d="M360.32 116.902C361.498 119.194 362.88 122.394 362.342 123.405C361.805 124.416 357.952 129.677 359.296 132.877" stroke="#263238" stroke-linecap="round" stroke-linejoin="round"/>
<path d="M341.414 122.56L340.058 126.4C340.604 126.728 341.254 126.84 341.878 126.715C342.503 126.589 343.059 126.235 343.437 125.722C344.947 123.866 347.994 124.646 347.994 124.646" stroke="#263238" stroke-linecap="round" stroke-linejoin="round"/>
<path d="M351.194 116.902C351.194 116.902 345.254 120.742 352.333 119.859C356.57 119.373 358.246 120.666 358.182 120.934" stroke="#263238" stroke-linecap="round" stroke-linejoin="round"/>
<path d="M346.202 118.182C346.202 118.182 343.642 120.23 345.126 121.433C346.611 122.637 349.709 122.15 350.31 122.086C351.648 122.091 352.964 122.415 354.15 123.033" stroke="#263238" stroke-linecap="round" stroke-linejoin="round"/>
<path d="M349.76 110.605H142.464C135.918 110.605 130.611 115.912 130.611 122.458V549.312C130.611 555.858 135.918 561.165 142.464 561.165H349.76C356.306 561.165 361.613 555.858 361.613 549.312V122.458C361.613 115.912 356.306 110.605 349.76 110.605Z" fill="white" stroke="#263238" stroke-linecap="round" stroke-linejoin="round"/>
<path d="M228.25 121.856C228.252 122.495 228.065 123.12 227.712 123.652C227.359 124.184 226.856 124.599 226.267 124.846C225.678 125.092 225.029 125.157 224.403 125.034C223.776 124.911 223.2 124.605 222.748 124.155C222.295 123.704 221.987 123.129 221.861 122.503C221.736 121.877 221.799 121.228 222.043 120.638C222.286 120.048 222.7 119.543 223.231 119.188C223.761 118.833 224.386 118.644 225.024 118.644C225.877 118.644 226.696 118.982 227.3 119.584C227.905 120.186 228.246 121.003 228.25 121.856Z" fill="#407BFF" stroke="#263238" stroke-linecap="round" stroke-linejoin="round"/>
<path d="M270.413 121.856C270.415 122.257 270.299 122.649 270.078 122.983C269.858 123.318 269.543 123.579 269.173 123.734C268.804 123.889 268.397 123.931 268.004 123.854C267.611 123.778 267.249 123.586 266.965 123.304C266.681 123.021 266.487 122.661 266.408 122.268C266.329 121.876 266.368 121.468 266.521 121.098C266.673 120.728 266.933 120.411 267.265 120.188C267.598 119.966 267.99 119.847 268.39 119.847C268.925 119.847 269.437 120.058 269.816 120.435C270.195 120.811 270.409 121.322 270.413 121.856Z" fill="#407BFF" stroke="#263238" stroke-linecap="round" stroke-linejoin="round"/>
<path d="M259.123 120.717H234.573C234.05 120.717 233.626 121.141 233.626 121.664V122.048C233.626 122.571 234.05 122.995 234.573 122.995H259.123C259.646 122.995 260.07 122.571 260.07 122.048V121.664C260.07 121.141 259.646 120.717 259.123 120.717Z" fill="#407BFF" stroke="#263238" stroke-linecap="round" stroke-linejoin="round"/>
<path opacity="0.4" d="M354.931 125.824V547.021C354.931 549.089 354.11 551.071 352.648 552.533C351.186 553.995 349.203 554.816 347.136 554.816H145.088C144.064 554.816 143.051 554.615 142.105 554.223C141.159 553.831 140.3 553.257 139.576 552.533C138.852 551.809 138.278 550.95 137.886 550.004C137.494 549.059 137.293 548.045 137.293 547.021V125.824C137.293 124.801 137.495 123.788 137.886 122.843C138.278 121.898 138.853 121.04 139.577 120.317C140.301 119.594 141.16 119.021 142.106 118.631C143.052 118.24 144.065 118.04 145.088 118.042H186.56C187.893 118.041 189.195 118.448 190.291 119.207C191.387 119.967 192.224 121.043 192.691 122.292L194.458 127.028C194.92 128.278 195.755 129.356 196.848 130.118C197.942 130.88 199.243 131.289 200.576 131.29H291.635C292.97 131.29 294.273 130.882 295.369 130.12C296.465 129.358 297.301 128.279 297.766 127.028L299.533 122.292C299.996 121.043 300.831 119.966 301.925 119.206C303.019 118.446 304.319 118.04 305.651 118.042H347.136C349.201 118.042 351.182 118.862 352.644 120.321C354.105 121.78 354.928 123.759 354.931 125.824Z" fill="#407BFF"/>
<path d="M354.931 522.483V547.021C354.933 548.045 354.732 549.06 354.341 550.006C353.95 550.953 353.376 551.813 352.652 552.537C351.928 553.261 351.068 553.835 350.121 554.226C349.175 554.617 348.16 554.818 347.136 554.816H145.088C144.064 554.816 143.051 554.615 142.105 554.223C141.159 553.831 140.3 553.257 139.576 552.533C138.852 551.809 138.278 550.95 137.886 550.004C137.494 549.058 137.293 548.045 137.293 547.021V522.483H354.931Z" fill="#407BFF"/>
<path d="M354.931 125.837V145.191H137.331V125.837C137.331 123.77 138.152 121.787 139.614 120.325C141.076 118.863 143.059 118.042 145.126 118.042H186.598C187.932 118.039 189.235 118.445 190.331 119.205C191.427 119.964 192.264 121.042 192.73 122.292L194.483 127.028C194.95 128.278 195.787 129.356 196.882 130.117C197.978 130.879 199.28 131.288 200.614 131.29H291.674C293.008 131.288 294.31 130.879 295.406 130.117C296.501 129.356 297.338 128.278 297.805 127.028L299.558 122.292C300.025 121.043 300.863 119.967 301.959 119.207C303.055 118.448 304.356 118.041 305.69 118.042H347.136C348.16 118.04 349.175 118.241 350.121 118.632C351.068 119.023 351.928 119.597 352.652 120.321C353.376 121.046 353.95 121.906 354.341 122.852C354.732 123.799 354.933 124.813 354.931 125.837Z" fill="#407BFF"/>
<path d="M354.931 125.773V546.97C354.928 549.035 354.105 551.014 352.644 552.473C351.182 553.932 349.201 554.752 347.136 554.752H145.088C144.065 554.754 143.052 554.554 142.106 554.163C141.16 553.773 140.301 553.2 139.577 552.477C138.853 551.754 138.278 550.896 137.886 549.951C137.495 549.006 137.293 547.993 137.293 546.97V125.773C137.293 124.749 137.494 123.735 137.886 122.79C138.278 121.844 138.852 120.985 139.576 120.261C140.3 119.537 141.159 118.963 142.105 118.571C143.051 118.179 144.064 117.978 145.088 117.978H186.56C187.895 117.978 189.198 118.386 190.294 119.148C191.39 119.91 192.226 120.989 192.691 122.24L194.458 126.963C194.92 128.213 195.755 129.292 196.848 130.054C197.942 130.816 199.243 131.225 200.576 131.226H291.635C292.97 131.226 294.273 130.817 295.369 130.055C296.465 129.293 297.301 128.214 297.766 126.963L299.52 122.24C299.983 120.99 300.817 119.911 301.911 119.149C303.005 118.387 304.305 117.978 305.638 117.978H347.136C349.203 117.978 351.186 118.799 352.648 120.261C354.11 121.723 354.931 123.705 354.931 125.773V125.773Z" stroke="#263238" stroke-linecap="round" stroke-linejoin="round"/>
<path d="M291.904 385.626H200.307C191.775 385.626 184.858 392.543 184.858 401.076V407.258C184.858 415.791 191.775 422.708 200.307 422.708H291.904C300.437 422.708 307.354 415.791 307.354 407.258V401.076C307.354 392.543 300.437 385.626 291.904 385.626Z" fill="#263238"/>
<path d="M215.757 399.693V401.984C215.757 404.813 214.387 406.349 211.622 406.349H210.342V412.979H207.565V395.328H211.661C214.387 395.328 215.757 396.864 215.757 399.693ZM210.304 397.85V403.827H211.584C212.467 403.827 212.941 403.418 212.941 402.163V399.514C212.941 398.234 212.467 397.85 211.584 397.85H210.304Z" fill="white"/>
<path d="M219.686 395.328V408.947C219.686 410.227 220.237 410.662 221.12 410.662C222.003 410.662 222.566 410.202 222.566 408.947V395.328H225.19V408.768C225.19 411.597 223.77 413.21 221.043 413.21C218.317 413.21 216.909 411.597 216.909 408.768V395.328H219.686Z" fill="white"/>
<path d="M232.883 412.979C232.65 412.279 232.563 411.539 232.627 410.803V408.039C232.627 406.4 232.077 405.786 230.81 405.786H229.85V412.979H227.085V395.328H231.27C234.138 395.328 235.379 396.608 235.379 399.386V400.768C235.476 401.476 235.354 402.196 235.029 402.833C234.704 403.469 234.192 403.99 233.562 404.327C234.944 404.903 235.405 406.221 235.405 408.064V410.88C235.356 411.609 235.456 412.341 235.699 413.031L232.883 412.979ZM229.85 397.85V403.264H230.938C231.974 403.264 232.602 402.816 232.602 401.408V399.667C232.602 398.387 232.166 397.85 231.194 397.85H229.85Z" fill="white"/>
<path d="M245.261 406.4V408.743C245.261 411.559 243.853 413.184 241.126 413.184C238.4 413.184 236.992 411.559 236.992 408.743V399.565C236.992 396.736 238.4 395.124 241.126 395.124C243.853 395.124 245.261 396.736 245.261 399.565V401.28H242.637V399.36C242.637 398.08 242.086 397.62 241.203 397.62C240.32 397.62 239.757 398.106 239.757 399.36V408.896C239.757 410.176 240.32 410.612 241.203 410.612C242.086 410.612 242.637 410.151 242.637 408.896V406.336L245.261 406.4Z" fill="white"/>
<path d="M249.728 412.979H246.95V395.328H249.728V402.893H252.877V395.328H255.706V412.979H252.877V405.415H249.728V412.979Z" fill="white"/>
<path d="M266.701 412.979H263.898L263.424 409.779H260.019L259.533 412.979H256.973L259.84 395.328H263.898L266.701 412.979ZM260.301 407.386H262.976L261.696 398.426L260.301 407.386Z" fill="white"/>
<path d="M271.718 395.124C274.419 395.124 275.802 396.736 275.802 399.565V400.116H273.178V399.36C273.178 398.08 272.678 397.62 271.795 397.62C270.912 397.62 270.4 398.106 270.4 399.36C270.4 400.615 270.963 401.6 272.781 403.2C275.098 405.248 275.827 406.708 275.827 408.73C275.827 411.546 274.419 413.172 271.693 413.172C268.966 413.172 267.558 411.546 267.558 408.73V407.642H270.182V408.922C270.182 410.202 270.733 410.637 271.616 410.637C272.499 410.637 273.05 410.176 273.05 408.922C273.05 407.668 272.499 406.669 270.682 405.082C268.365 403.047 267.635 401.575 267.635 399.565C267.635 396.8 269.018 395.124 271.718 395.124Z" fill="white"/>
<path d="M280.192 402.765H284.032V405.325H280.192V410.445H284.979V413.005H277.414V395.328H284.979V397.888H280.192V402.765Z" fill="white"/>
<path d="M271.731 324.647H220.531L221.811 324.122C224.826 322.885 227.408 320.784 229.231 318.082C231.053 315.381 232.034 312.2 232.051 308.941V290.074H260.211V308.826C260.209 312.103 261.181 315.308 263.004 318.032C264.828 320.755 267.42 322.875 270.451 324.122L271.731 324.647Z" fill="white"/>
<path opacity="0.3" d="M260.173 290.074V306.471C250.898 308.276 241.46 309.104 232.013 308.941V290.074H260.173Z" fill="black" fill-opacity="0.7"/>
<path d="M271.731 324.647H220.531L221.811 324.122C224.826 322.885 227.408 320.784 229.231 318.082C231.053 315.381 232.034 312.2 232.051 308.941V290.074H260.211V308.826C260.209 312.103 261.181 315.308 263.004 318.032C264.828 320.755 267.42 322.875 270.451 324.122L271.731 324.647Z" stroke="#263238" stroke-linecap="round" stroke-linejoin="round"/>
<path d="M303.36 209.088H188.851C186.73 209.088 185.011 210.808 185.011 212.928V296.359C185.011 298.48 186.73 300.199 188.851 300.199H303.36C305.481 300.199 307.2 298.48 307.2 296.359V212.928C307.2 210.808 305.481 209.088 303.36 209.088Z" fill="white" stroke="#263238" stroke-linecap="round" stroke-linejoin="round"/>
<path d="M302.336 215.987H189.875V293.299H302.336V215.987Z" fill="#BFBFBF"/>
<path opacity="0.4" d="M267.994 215.987C267.994 215.987 240.013 268.813 189.914 275.367V215.987H267.994Z" fill="white"/>
<path opacity="0.4" d="M302.336 243.303V293.3H248.192C256.474 266.087 284.39 250.688 302.336 243.303Z" fill="white"/>
<path d="M302.336 215.987H189.875V293.299H302.336V215.987Z" stroke="#263238" stroke-linecap="round" stroke-linejoin="round"/>
<path d="M220.237 321.459H271.974C272.653 321.459 273.305 321.729 273.785 322.209C274.265 322.689 274.534 323.341 274.534 324.019V328.781H217.741V324.019C217.741 323.351 218.002 322.71 218.468 322.232C218.934 321.753 219.569 321.476 220.237 321.459Z" fill="white" stroke="#263238" stroke-linecap="round" stroke-linejoin="round"/>
<path d="M199.706 344.282H174.17V369.818H199.706V344.282Z" fill="#BFBFBF" stroke="#263238" stroke-linecap="round" stroke-linejoin="round"/>
<path d="M229.299 344.282H203.763V369.818H229.299V344.282Z" fill="#BFBFBF" stroke="#263238" stroke-linecap="round" stroke-linejoin="round"/>
<path d="M258.88 344.282H233.344V369.818H258.88V344.282Z" fill="#BFBFBF" stroke="#263238" stroke-linecap="round" stroke-linejoin="round"/>
<path d="M288.461 344.282H262.925V369.818H288.461V344.282Z" fill="#BFBFBF" stroke="#263238" stroke-linecap="round" stroke-linejoin="round"/>
<path d="M318.054 344.282H292.518V369.818H318.054V344.282Z" fill="#BFBFBF" stroke="#263238" stroke-linecap="round" stroke-linejoin="round"/>
<path d="M324.109 360.871L327.923 357.043L324.109 353.229" stroke="#263238" stroke-linecap="round" stroke-linejoin="round"/>
<path d="M168.115 353.229L164.288 357.043L168.115 360.871" stroke="#263238" stroke-linecap="round" stroke-linejoin="round"/>
<path d="M302.784 191.872L308.531 190.656L311.642 195.648L317.517 195.891L319.283 201.511L324.915 203.213L325.235 209.075L330.253 212.135L329.101 217.895L333.21 222.093L330.662 227.392L333.606 232.487L329.818 236.992L331.392 242.65L326.605 246.067L326.72 251.943L321.242 254.067L319.885 259.789L314.048 260.48L311.322 265.677L305.498 264.896L301.555 269.261L296.115 267.047L291.213 270.298L286.477 266.803L280.934 268.736L277.222 264.167L271.36 264.653L268.902 259.315L263.104 258.33L262.054 252.544L256.678 250.151L257.114 244.288L252.506 240.627L254.362 235.047L250.816 230.362L254.003 225.434L251.738 220.007L256.051 216.013L255.206 210.202L260.378 207.411L260.992 201.562L266.701 200.154L268.762 194.65L274.637 194.701L278.003 189.875L283.686 191.386L288.128 187.546L293.261 190.426L298.534 187.815L302.784 191.872Z" fill="#407BFF" stroke="#263238" stroke-linecap="round" stroke-linejoin="round"/>
<path d="M271.501 228.634L270.733 231.322C270.144 233.395 270.835 234.394 272.294 234.803C273.754 235.213 274.854 234.739 275.443 232.666L277.261 226.266C277.85 224.192 277.158 223.155 275.712 222.746C274.266 222.336 273.152 222.861 272.538 224.922L272.294 225.792L267.994 224.576L273.6 208L285.594 211.418L284.416 215.552L276.48 213.299L274.138 220.16H274.227C274.818 219.593 275.554 219.201 276.353 219.027C277.153 218.853 277.986 218.904 278.758 219.174C282.099 220.122 283.136 223.014 281.92 227.226L280.09 233.626C278.81 238.272 275.699 240.256 271.219 238.989C266.739 237.722 265.19 234.406 266.509 229.773L267.187 227.366L271.501 228.634Z" fill="white"/>
<path d="M287.014 219.354C288.294 214.72 291.533 212.774 295.974 214.042C300.416 215.309 302.131 218.65 300.813 223.283L296.525 238.349C295.245 242.982 292.019 244.941 287.565 243.674C283.11 242.406 281.395 239.053 282.714 234.419L287.014 219.354ZM287.206 235.994C286.618 238.067 287.296 239.104 288.742 239.514C290.189 239.923 291.302 239.398 291.917 237.338L296.371 221.696C296.96 219.622 296.269 218.573 294.822 218.163C293.376 217.754 292.262 218.278 291.648 220.352L287.206 235.994Z" fill="white"/>
<path d="M305.318 219.597C305.413 219.261 305.574 218.947 305.79 218.673C306.006 218.398 306.275 218.169 306.58 217.999C306.884 217.828 307.22 217.719 307.567 217.678C307.914 217.638 308.265 217.665 308.602 217.76C308.938 217.855 309.252 218.016 309.526 218.232C309.8 218.448 310.029 218.717 310.2 219.022C310.371 219.326 310.479 219.662 310.52 220.009C310.561 220.356 310.533 220.707 310.438 221.044L308.838 226.56C308.647 227.239 308.193 227.814 307.577 228.159C306.961 228.503 306.234 228.589 305.555 228.397C304.876 228.205 304.301 227.752 303.957 227.136C303.612 226.52 303.527 225.793 303.718 225.114L305.318 219.597ZM305.395 225.716C305.19 226.471 305.395 226.868 305.958 226.996C306.522 227.124 306.918 226.932 307.123 226.189L308.762 220.416C308.979 219.674 308.762 219.264 308.198 219.136C307.635 219.008 307.251 219.136 307.034 219.943L305.395 225.716ZM315.226 219.636L316.787 220.084L305.382 235.008L303.821 234.56L315.226 219.636ZM311.91 228.122C312.102 227.443 312.556 226.868 313.172 226.524C313.787 226.179 314.515 226.093 315.194 226.285C315.873 226.477 316.447 226.931 316.792 227.546C317.136 228.162 317.222 228.889 317.03 229.568L315.456 235.085C315.264 235.764 314.811 236.339 314.195 236.684C313.579 237.028 312.852 237.114 312.173 236.922C311.494 236.73 310.919 236.276 310.574 235.661C310.23 235.045 310.144 234.318 310.336 233.639L311.91 228.122ZM311.987 234.24C311.77 234.983 311.987 235.38 312.55 235.52C313.114 235.661 313.498 235.444 313.715 234.701L315.354 228.941C315.558 228.199 315.354 227.789 314.79 227.661C314.227 227.533 313.83 227.661 313.626 228.48L311.987 234.24Z" fill="white"/>
<path d="M299.277 238.887C299.337 238.556 299.465 238.242 299.654 237.964C299.842 237.686 300.086 237.45 300.37 237.272C300.654 237.093 300.973 236.976 301.305 236.927C301.637 236.878 301.976 236.899 302.299 236.988C302.623 237.077 302.924 237.233 303.185 237.445C303.445 237.657 303.658 237.921 303.811 238.22C303.964 238.519 304.053 238.846 304.072 239.181C304.091 239.517 304.041 239.852 303.923 240.167L302.49 245.287C302.429 245.617 302.301 245.931 302.113 246.209C301.925 246.487 301.681 246.723 301.396 246.901C301.112 247.08 300.794 247.197 300.462 247.246C300.129 247.295 299.791 247.274 299.467 247.185C299.143 247.096 298.842 246.94 298.582 246.728C298.321 246.516 298.108 246.252 297.955 245.953C297.803 245.654 297.714 245.327 297.694 244.992C297.675 244.657 297.726 244.321 297.843 244.007L299.277 238.887ZM299.341 244.48C299.149 245.171 299.341 245.53 299.866 245.671C300.39 245.811 300.736 245.671 300.928 244.928L302.426 239.68C302.618 238.989 302.426 238.631 301.901 238.49C301.376 238.349 301.03 238.49 300.838 239.232L299.341 244.48Z" fill="white"/>
<path d="M305.92 242.918L307.891 243.469L307.494 244.864L305.523 244.301L304.384 248.32L302.861 247.885L305.626 238.157L309.67 239.309L309.274 240.691L306.714 239.987L305.92 242.918Z" fill="white"/>
<path d="M310.656 244.275L312.627 244.838L312.23 246.221L310.259 245.658L309.12 249.677L307.584 249.242L310.349 239.514L314.394 240.666L313.997 242.061L311.437 241.344L310.656 244.275Z" fill="white"/>
<path d="M340.941 439.949H151.27V456.922H340.941V439.949Z" fill="#407BFF"/>
<path d="M299.968 468.07H161.51C160.669 468.07 159.987 468.752 159.987 469.594V470.195C159.987 471.036 160.669 471.718 161.51 471.718H299.968C300.809 471.718 301.491 471.036 301.491 470.195V469.594C301.491 468.752 300.809 468.07 299.968 468.07Z" fill="#407BFF"/>
<path d="M281.536 479.015H161.51C160.669 479.015 159.987 479.697 159.987 480.538V481.139C159.987 481.981 160.669 482.663 161.51 482.663H281.536C282.377 482.663 283.059 481.981 283.059 481.139V480.538C283.059 479.697 282.377 479.015 281.536 479.015Z" fill="#407BFF"/>
<path d="M270.477 493.607H161.818C161.334 493.603 160.872 493.409 160.532 493.066C160.191 492.723 160 492.259 160 491.776C160.003 491.293 160.198 490.831 160.541 490.49C160.884 490.15 161.347 489.958 161.83 489.958H270.49C270.972 489.958 271.434 490.15 271.775 490.491C272.116 490.832 272.307 491.294 272.307 491.776C272.309 492.017 272.263 492.256 272.171 492.479C272.08 492.701 271.945 492.904 271.775 493.074C271.605 493.245 271.402 493.379 271.179 493.471C270.956 493.562 270.718 493.608 270.477 493.607Z" fill="#407BFF"/>
<path d="M287.68 500.902H161.51C160.669 500.902 159.987 501.584 159.987 502.426V503.027C159.987 503.868 160.669 504.55 161.51 504.55H287.68C288.521 504.55 289.203 503.868 289.203 503.027V502.426C289.203 501.584 288.521 500.902 287.68 500.902Z" fill="#407BFF"/>
<path d="M330.701 468.07H315.174C314.333 468.07 313.651 468.752 313.651 469.594V470.195C313.651 471.036 314.333 471.718 315.174 471.718H330.701C331.542 471.718 332.224 471.036 332.224 470.195V469.594C332.224 468.752 331.542 468.07 330.701 468.07Z" fill="#407BFF"/>
<path d="M330.701 479.015H318.246C317.405 479.015 316.723 479.697 316.723 480.538V481.139C316.723 481.981 317.405 482.663 318.246 482.663H330.701C331.542 482.663 332.224 481.981 332.224 481.139V480.538C332.224 479.697 331.542 479.015 330.701 479.015Z" fill="#407BFF"/>
<path d="M330.701 489.958H313.638C312.797 489.958 312.115 490.64 312.115 491.482V492.083C312.115 492.925 312.797 493.607 313.638 493.607H330.701C331.542 493.607 332.224 492.925 332.224 492.083V491.482C332.224 490.64 331.542 489.958 330.701 489.958Z" fill="#407BFF"/>
<path d="M330.714 500.902H325.939C325.098 500.902 324.416 501.584 324.416 502.426V503.027C324.416 503.868 325.098 504.55 325.939 504.55H330.714C331.555 504.55 332.237 503.868 332.237 503.027V502.426C332.237 501.584 331.555 500.902 330.714 500.902Z" fill="#407BFF"/>
<path d="M319.59 165.427H172.634C169.933 165.427 167.744 167.616 167.744 170.317V172.262C167.744 174.963 169.933 177.152 172.634 177.152H319.59C322.291 177.152 324.48 174.963 324.48 172.262V170.317C324.48 167.616 322.291 165.427 319.59 165.427Z" fill="#407BFF"/>
<path d="M321.062 420.723L298.176 411.712L307.187 434.598L310.746 426.547L314.65 430.464L316.915 428.186L313.011 424.282L321.062 420.723Z" fill="white" stroke="#263238" stroke-linecap="round" stroke-linejoin="round"/>
<path d="M81.92 522.15C79.0525 526.91 77.1598 532.192 76.352 537.69" stroke="#263238" stroke-linecap="round" stroke-linejoin="round"/>
<path d="M135.386 479.808L125.402 475.469L130.176 464.448L137.114 462.17L140.173 468.788L135.386 479.808Z" fill="#407BFF" stroke="#263238" stroke-linecap="round" stroke-linejoin="round"/>
<path d="M137.114 462.17C139.674 457.396 148.634 448.602 154.79 450.97" stroke="#263238" stroke-linecap="round" stroke-linejoin="round"/>
<path d="M333.67 531.75L341.402 539.418L332.941 547.942L325.658 547.558L325.21 540.275L333.67 531.75Z" fill="#407BFF" stroke="#263238" stroke-linecap="round" stroke-linejoin="round"/>
<path d="M325.658 547.559C325.658 547.559 317.453 559.079 308.582 558.029" stroke="#263238" stroke-linecap="round" stroke-linejoin="round"/>
<path d="M586.995 494.259L581.632 503.731L571.187 497.831L569.638 490.701L576.538 488.346L586.995 494.259Z" fill="#407BFF" stroke="#263238" stroke-linecap="round" stroke-linejoin="round"/>
<path d="M569.6 490.701C569.6 490.701 561.331 491.251 556.57 478.375" stroke="#263238" stroke-linecap="round" stroke-linejoin="round"/>
<path d="M551.68 541.005C551.68 541.005 550.63 531.354 546.202 526.272" stroke="#263238" stroke-linecap="round" stroke-linejoin="round"/>
<path d="M549.184 511.706H468.902V560.934H549.184V511.706Z" fill="#BFBFBF"/>
<path opacity="0.2" d="M481.702 511.706L515.763 522.547V560.947H549.197V511.706H481.702Z" fill="black" fill-opacity="0.7"/>
<path opacity="0.2" d="M549.184 511.027H515.443V560.947H549.184V511.027Z" fill="black" fill-opacity="0.7"/>
<path d="M549.184 511.706H468.902V560.934H549.184V511.706Z" stroke="#263238" stroke-linecap="round" stroke-linejoin="round"/>
<path d="M497.69 534.874L495.77 537.332L515.763 560.948" stroke="#263238" stroke-linecap="round" stroke-linejoin="round"/>
<path d="M515.763 549.85V511.706L499.827 532.122" stroke="#263238" stroke-linecap="round" stroke-linejoin="round"/>
<path d="M515.776 554.675V557.645" stroke="#263238" stroke-linecap="round" stroke-linejoin="round"/>
<path d="M472.986 555.124L468.902 560.935" stroke="#263238" stroke-linecap="round" stroke-linejoin="round"/>
<path d="M482.547 532.8L485.466 537.332L474.88 552.423" stroke="#263238" stroke-linecap="round" stroke-linejoin="round"/>
<path d="M475.264 521.536L480.538 529.703" stroke="#263238" stroke-linecap="round" stroke-linejoin="round"/>
<path d="M468.902 511.706L472.282 516.941" stroke="#263238" stroke-linecap="round" stroke-linejoin="round"/>
<path d="M561.984 474.611H481.702V513.395H561.984V474.611Z" fill="#999999"/>
<path opacity="0.2" d="M561.997 474.611H528.576V513.395H561.997V474.611Z" fill="black" fill-opacity="0.7"/>
<path d="M561.984 474.611H481.702V513.395H561.984V474.611Z" stroke="#263238" stroke-linecap="round" stroke-linejoin="round"/>
<path d="M510.49 495.142L508.57 493.21L528.563 474.611" stroke="#263238" stroke-linecap="round" stroke-linejoin="round"/>
<path d="M528.563 483.354V513.408L512.627 497.319" stroke="#263238" stroke-linecap="round" stroke-linejoin="round"/>
<path d="M528.576 479.552V477.21" stroke="#263238" stroke-linecap="round" stroke-linejoin="round"/>
<path d="M485.786 479.194L481.702 474.611" stroke="#263238" stroke-linecap="round" stroke-linejoin="round"/>
<path d="M495.347 496.781L498.266 493.21L487.68 481.319" stroke="#263238" stroke-linecap="round" stroke-linejoin="round"/>
<path d="M488.064 505.664L493.338 499.226" stroke="#263238" stroke-linecap="round" stroke-linejoin="round"/>
<path d="M481.702 513.408L485.082 509.287" stroke="#263238" stroke-linecap="round" stroke-linejoin="round"/>
<path d="M187.43 450.97H154.79V561.152H187.43V450.97Z" fill="#263238"/>
<path d="M171.917 498.074C169.229 518.375 166.195 543.68 166.195 561.152H150.413V450.56C150.413 449.491 150.838 448.465 151.594 447.709C152.35 446.953 153.375 446.528 154.445 446.528H173.645C173.645 446.528 174.618 477.773 171.917 498.074Z" fill="#BFBFBF"/>
<path opacity="0.2" d="M162.086 446.477V561.152H150.413V450.56C150.413 449.491 150.838 448.465 151.594 447.709C152.35 446.953 153.375 446.528 154.445 446.528L162.086 446.477Z" fill="black"/>
<path d="M171.917 498.074C169.229 518.375 166.195 543.68 166.195 561.152H150.413V450.56C150.413 449.491 150.838 448.465 151.594 447.709C152.35 446.953 153.375 446.528 154.445 446.528H173.645C173.645 446.528 174.618 477.773 171.917 498.074Z" stroke="#263238" stroke-linecap="round" stroke-linejoin="round"/>
<path d="M162.086 449.254V557.402" stroke="#263238" stroke-linecap="round" stroke-linejoin="round"/>
<path d="M190.413 561.165V450.56C190.413 449.491 189.988 448.465 189.232 447.709C188.476 446.953 187.45 446.528 186.381 446.528H179.981C179.981 446.528 178.944 477.824 181.632 498.125C184.32 518.426 187.366 543.732 187.366 561.204L190.413 561.165Z" fill="#BFBFBF" stroke="#263238" stroke-linecap="round" stroke-linejoin="round"/>
<path d="M167.834 489.382C168.136 489.382 168.426 489.263 168.639 489.049C168.853 488.835 168.973 488.545 168.973 488.243V455.335C168.973 455.032 168.853 454.743 168.639 454.529C168.426 454.315 168.136 454.195 167.834 454.195C167.531 454.195 167.242 454.315 167.028 454.529C166.814 454.743 166.694 455.032 166.694 455.335V488.243C166.694 488.545 166.814 488.835 167.028 489.049C167.242 489.263 167.531 489.382 167.834 489.382Z" fill="#263238"/>
<path d="M287.232 557.325H214.182C213.582 557.292 213.009 557.066 212.548 556.681C212.087 556.296 211.762 555.772 211.622 555.188L201.075 506.88C200.997 506.628 200.981 506.362 201.027 506.102C201.074 505.842 201.182 505.598 201.342 505.388C201.503 505.179 201.711 505.011 201.949 504.899C202.188 504.787 202.45 504.733 202.714 504.743H275.763C276.362 504.78 276.933 505.007 277.394 505.392C277.854 505.776 278.18 506.298 278.323 506.88L288.858 555.162C288.94 555.414 288.961 555.683 288.917 555.945C288.874 556.207 288.768 556.455 288.608 556.667C288.449 556.879 288.24 557.05 288.001 557.165C287.761 557.279 287.497 557.334 287.232 557.325Z" fill="#BFBFBF" stroke="#263238" stroke-linecap="round" stroke-linejoin="round"/>
<path d="M288.512 557.325H215.462C214.862 557.292 214.289 557.066 213.828 556.681C213.367 556.296 213.042 555.772 212.902 555.188L202.355 506.88C202.277 506.628 202.261 506.362 202.307 506.102C202.354 505.842 202.462 505.598 202.622 505.388C202.783 505.179 202.991 505.011 203.229 504.899C203.468 504.787 203.73 504.733 203.994 504.743H277.043C277.642 504.78 278.213 505.007 278.674 505.392C279.134 505.776 279.46 506.298 279.603 506.88L290.138 555.162C290.22 555.414 290.24 555.683 290.197 555.945C290.154 556.207 290.048 556.455 289.888 556.667C289.729 556.879 289.52 557.05 289.281 557.165C289.041 557.279 288.777 557.334 288.512 557.325Z" fill="#263238"/>
<path d="M287.181 552.256H214.592L211.354 537.434L205.133 508.941H277.722L287.181 552.256Z" fill="#BFBFBF"/>
<path d="M321.894 556.979V559.117L304.269 560.64H216.128C215.647 560.637 215.187 560.444 214.846 560.104C214.506 559.764 214.314 559.304 214.31 558.823V556.992L321.894 556.979Z" fill="#BFBFBF" stroke="#263238" stroke-linecap="round" stroke-linejoin="round"/>
<path d="M255.334 556.979V559.117L237.709 560.64H216.128C215.647 560.637 215.187 560.444 214.846 560.104C214.506 559.764 214.314 559.304 214.31 558.823V556.992L255.334 556.979Z" fill="#999999" stroke="#263238" stroke-linecap="round" stroke-linejoin="round"/>
<path opacity="0.4" d="M259.008 508.941C252.314 519.181 238.528 532.826 211.354 537.434L205.133 508.941H259.008Z" fill="white"/>
<path d="M79.3728 560.947H159.654V522.163H79.3728V560.947Z" fill="#757575"/>
<path opacity="0.2" d="M79.36 560.948H112.781V522.164H79.36V560.948Z" fill="black"/>
<path d="M79.3728 560.947H159.654V522.163H79.3728V560.947Z" stroke="#263238" stroke-linecap="round" stroke-linejoin="round"/>
<path d="M130.867 540.403L132.787 542.336L112.781 560.947" stroke="#263238" stroke-linecap="round" stroke-linejoin="round"/>
<path d="M112.781 552.205V522.15L128.717 538.24" stroke="#263238" stroke-linecap="round" stroke-linejoin="round"/>
<path d="M112.781 556.007V558.349" stroke="#263238" stroke-linecap="round" stroke-linejoin="round"/>
<path d="M155.571 556.365L159.654 560.948" stroke="#263238" stroke-linecap="round" stroke-linejoin="round"/>
<path d="M146.01 538.778L143.078 542.336L153.677 554.24" stroke="#263238" stroke-linecap="round" stroke-linejoin="round"/>
<path d="M153.293 529.895L148.019 536.333" stroke="#263238" stroke-linecap="round" stroke-linejoin="round"/>
<path d="M159.654 522.15L156.262 526.272" stroke="#263238" stroke-linecap="round" stroke-linejoin="round"/>
<path d="M135.744 521.869C135.546 521.843 135.349 521.804 135.155 521.754C132.595 521.101 130.189 517.991 128.256 515.968C126.81 514.445 113.062 514.445 111.616 515.968C109.683 517.991 107.226 521.088 104.717 521.754C104.523 521.804 104.326 521.843 104.128 521.869C99.264 522.381 106.496 504.269 108.851 503.104C111.206 501.939 114.253 502.067 114.611 503.552H125.261C125.619 502.067 128.653 501.952 131.021 503.104C133.389 504.256 140.608 522.381 135.744 521.869Z" fill="#BFBFBF" stroke="#263238" stroke-linecap="round" stroke-linejoin="round"/>
<path d="M135.155 521.754C132.595 521.101 130.189 517.991 128.256 515.968C126.81 514.445 113.062 514.445 111.616 515.968C109.683 517.991 107.226 521.088 104.717 521.754C106.982 519.591 109.734 513.869 111.014 512.397C112.589 510.567 113.344 511.578 113.344 511.578H126.528C126.528 511.578 127.283 510.567 128.87 512.397C130.138 513.869 132.89 519.591 135.155 521.754Z" fill="#263238"/>
<path d="M562.765 554.829L552.589 558.694L548.314 547.482L551.68 541.005L558.49 543.603L562.765 554.829Z" fill="#407BFF" stroke="#263238" stroke-linecap="round" stroke-linejoin="round"/>
<path d="M79.3728 554.701L68.672 552.717L70.8608 540.915L77.0944 537.126L81.5616 542.899L79.3728 554.701Z" fill="#407BFF" stroke="#263238" stroke-linecap="round" stroke-linejoin="round"/>
</svg>
