<svg width="540" height="540" viewBox="0 0 540 540" fill="none" xmlns="http://www.w3.org/2000/svg">
<path d="M540 412.992H0V413.262H540V412.992Z" fill="#EBEBEB"/>
<path d="M485.892 430.369H450.122V430.639H485.892V430.369Z" fill="#EBEBEB"/>
<path d="M357.718 433.307H348.332V433.577H357.718V433.307Z" fill="#EBEBEB"/>
<path d="M449.042 420.347H428.317V420.617H449.042V420.347Z" fill="#EBEBEB"/>
<path d="M103.302 422.161H56.6568V422.431H103.302V422.161Z" fill="#EBEBEB"/>
<path d="M119.761 422.161H112.925V422.431H119.761V422.161Z" fill="#EBEBEB"/>
<path d="M243.162 426.719H141.988V426.989H243.162V426.719Z" fill="#EBEBEB"/>
<path d="M255.96 364.824H47.4228C45.7891 364.821 44.2233 364.17 43.0692 363.014C41.915 361.858 41.2668 360.291 41.2668 358.657V65.5127C41.281 63.8884 41.9355 62.3353 43.0881 61.1908C44.2408 60.0462 45.7984 59.4027 47.4228 59.3999H255.96C257.596 59.3999 259.164 60.0496 260.321 61.2061C261.477 62.3626 262.127 63.9312 262.127 65.5667V358.657C262.127 360.293 261.477 361.861 260.321 363.018C259.164 364.174 257.596 364.824 255.96 364.824ZM47.4228 59.6159C45.8607 59.6188 44.3636 60.2413 43.2601 61.3468C42.1566 62.4524 41.5368 63.9506 41.5368 65.5127V358.657C41.5368 360.219 42.1566 361.717 43.2601 362.823C44.3636 363.928 45.8607 364.551 47.4228 364.554H255.96C257.523 364.551 259.021 363.929 260.127 362.824C261.232 361.718 261.854 360.22 261.857 358.657V65.5127C261.854 63.9497 261.232 62.4514 260.127 61.3462C259.021 60.2409 257.523 59.6188 255.96 59.6159H47.4228Z" fill="#EBEBEB"/>
<path d="M489.575 364.824H281.027C279.392 364.821 277.825 364.17 276.669 363.015C275.513 361.859 274.863 360.292 274.86 358.657V65.5127C274.877 63.8874 275.534 62.3343 276.688 61.1901C277.843 60.0459 279.401 59.4027 281.027 59.3999H489.575C491.197 59.4055 492.752 60.0503 493.902 61.1946C495.053 62.3388 495.706 63.8903 495.72 65.5127V358.657C495.72 360.289 495.073 361.854 493.921 363.01C492.77 364.166 491.207 364.818 489.575 364.824ZM281.027 59.6159C279.464 59.6188 277.966 60.2409 276.86 61.3462C275.755 62.4514 275.133 63.9497 275.13 65.5127V358.657C275.133 360.22 275.755 361.718 276.86 362.824C277.966 363.929 279.464 364.551 281.027 364.554H489.575C491.138 364.551 492.636 363.929 493.741 362.824C494.847 361.718 495.469 360.22 495.472 358.657V65.5127C495.469 63.9497 494.847 62.4514 493.741 61.3462C492.636 60.2409 491.138 59.6188 489.575 59.6159H281.027Z" fill="#EBEBEB"/>
<path d="M463.406 118.476H291.341C290.076 118.476 289.051 119.501 289.051 120.765V123.217C289.051 124.482 290.076 125.507 291.341 125.507H463.406C464.671 125.507 465.696 124.482 465.696 123.217V120.765C465.696 119.501 464.671 118.476 463.406 118.476Z" fill="#E0E0E0"/>
<path d="M455.209 124.07H299.549V262.202H455.209V124.07Z" fill="#E6E6E6"/>
<path d="M451.116 127.861H303.448V258.487H451.116V127.861Z" fill="#F0F0F0"/>
<path d="M338.105 127.861L303.448 258.206V196.959L321.743 127.861H338.105Z" fill="white"/>
<path d="M350.374 127.861L315.414 258.487H309.841L344.801 127.861H350.374Z" fill="white"/>
<path d="M451.116 210.287V231.163L444.042 258.487H438.458L451.116 210.287Z" fill="white"/>
<path d="M354.942 125.518H352.458V261.414H354.942V125.518Z" fill="#E6E6E6"/>
<path d="M403.153 125.518H400.669V261.414H403.153V125.518Z" fill="#E6E6E6"/>
<path d="M428.76 120.722C428.76 120.722 432.346 167.465 452.941 191.279C452.941 191.279 437.94 251.424 437.951 272.387L465.826 267.246L455.782 191.646L460.588 120.744L428.76 120.722Z" fill="#E0E0E0"/>
<path d="M324.918 120.722C324.918 120.722 321.343 167.465 300.737 191.279C300.737 191.279 315.738 251.424 315.727 272.387L287.852 267.246L297.907 191.646L293.101 120.744L324.918 120.722Z" fill="#E0E0E0"/>
<path d="M259.6 174.236H97.3728V412.085H259.6V174.236Z" fill="#F0F0F0"/>
<path d="M253.865 181.721H103.108V225.644H253.865V181.721Z" fill="#E0E0E0"/>
<path d="M111.672 188.838H103.108V225.655H111.672V188.838Z" fill="#EBEBEB"/>
<path d="M153.079 188.838H144.515V225.655H153.079V188.838Z" fill="#EBEBEB"/>
<path d="M200.094 187.912L191.654 189.367L197.908 225.649L206.348 224.195L200.094 187.912Z" fill="#EBEBEB"/>
<path d="M122.278 193.687H113.713V225.655H122.278V193.687Z" fill="#EBEBEB"/>
<path d="M141.966 193.687H133.402V225.655H141.966V193.687Z" fill="#EBEBEB"/>
<path d="M191.657 193.687H183.092V225.655H191.657V193.687Z" fill="#EBEBEB"/>
<path d="M164.338 192.578L155.977 194.437L162.913 225.643L171.273 223.785L164.338 192.578Z" fill="#EBEBEB"/>
<path d="M129.686 187.002H125.41V225.644H129.686V187.002Z" fill="#EBEBEB"/>
<path d="M180.619 187.002H176.342V225.644H180.619V187.002Z" fill="#EBEBEB"/>
<path d="M103.108 276.534H253.865V232.61L103.108 232.61V276.534Z" fill="#E0E0E0"/>
<path d="M245.3 276.534H253.865V239.717H245.3V276.534Z" fill="#EBEBEB"/>
<path d="M203.882 276.534H212.447V239.717H203.882V276.534Z" fill="#EBEBEB"/>
<path d="M150.633 275.075L159.073 276.53L165.327 240.247L156.887 238.793L150.633 275.075Z" fill="#EBEBEB"/>
<path d="M234.695 276.534H243.259V244.566H234.695V276.534Z" fill="#EBEBEB"/>
<path d="M214.996 276.534H223.56V244.566H214.996V276.534Z" fill="#EBEBEB"/>
<path d="M165.316 276.534H173.88V244.566H165.316V276.534Z" fill="#EBEBEB"/>
<path d="M185.726 274.665L194.087 276.523L201.022 245.316L192.662 243.458L185.726 274.665Z" fill="#EBEBEB"/>
<path d="M227.286 276.534H231.563V237.892H227.286V276.534Z" fill="#EBEBEB"/>
<path d="M176.353 276.534H180.63V237.892H176.353V276.534Z" fill="#EBEBEB"/>
<path d="M111.672 239.717H103.108V276.534H111.672V239.717Z" fill="#EBEBEB"/>
<path d="M122.278 244.566H113.713V276.534H122.278V244.566Z" fill="#EBEBEB"/>
<path d="M141.966 244.566H133.402V276.534H141.966V244.566Z" fill="#EBEBEB"/>
<path d="M129.686 237.892H125.41V276.534H129.686V237.892Z" fill="#EBEBEB"/>
<path d="M253.865 283.489H103.108V327.413H253.865V283.489Z" fill="#E0E0E0"/>
<path d="M198.202 290.606H189.637V327.423H198.202V290.606Z" fill="#EBEBEB"/>
<path d="M245.216 289.674L236.776 291.129L243.03 327.411L251.47 325.956L245.216 289.674Z" fill="#EBEBEB"/>
<path d="M167.4 295.456H158.836V327.424H167.4V295.456Z" fill="#EBEBEB"/>
<path d="M187.088 295.456H178.524V327.424H187.088V295.456Z" fill="#EBEBEB"/>
<path d="M236.768 295.456H228.204V327.424H236.768V295.456Z" fill="#EBEBEB"/>
<path d="M209.458 294.348L201.098 296.207L208.033 327.413L216.394 325.555L209.458 294.348Z" fill="#EBEBEB"/>
<path d="M174.798 288.77H170.521V327.413H174.798V288.77Z" fill="#EBEBEB"/>
<path d="M225.742 288.77H221.465V327.413H225.742V288.77Z" fill="#EBEBEB"/>
<path d="M146.694 289.681L138.254 291.136L144.508 327.418L152.948 325.964L146.694 289.681Z" fill="#EBEBEB"/>
<path d="M138.24 295.456H129.676V327.424H138.24V295.456Z" fill="#EBEBEB"/>
<path d="M110.933 294.351L102.573 296.209L109.508 327.416L117.868 325.558L110.933 294.351Z" fill="#EBEBEB"/>
<path d="M127.213 288.77H122.936V327.413H127.213V288.77Z" fill="#EBEBEB"/>
<path d="M69.39 412.7H97.3728L97.3728 174.236H69.39L69.39 412.7Z" fill="#E0E0E0"/>
<path d="M270 461.765C385.649 461.765 479.401 456.291 479.401 449.539C479.401 442.787 385.649 437.314 270 437.314C154.351 437.314 60.5988 442.787 60.5988 449.539C60.5988 456.291 154.351 461.765 270 461.765Z" fill="#F5F5F5"/>
<path d="M259.297 103.734V445.144C259.297 445.805 259.166 446.46 258.91 447.071C258.655 447.681 258.281 448.234 257.809 448.699C257.338 449.163 256.779 449.529 256.165 449.775C255.551 450.022 254.894 450.143 254.232 450.133H82.3824C81.7815 450.141 81.1853 450.027 80.6293 449.799C80.0734 449.571 79.5692 449.233 79.1468 448.805C78.7244 448.378 78.3925 447.87 78.1709 447.311C77.9493 446.752 77.8426 446.155 77.8572 445.554V103.324C77.8355 102.794 77.9187 102.265 78.102 101.767C78.2853 101.269 78.5651 100.812 78.9254 100.423C79.2856 100.034 79.7192 99.7194 80.2012 99.4981C80.6833 99.2767 81.2043 99.1528 81.7344 99.1333H122.537C123.168 99.1446 123.782 99.3437 124.299 99.7054C124.817 100.067 125.214 100.575 125.442 101.164L127.31 105.764C127.541 106.349 127.941 106.853 128.458 107.21C128.975 107.568 129.587 107.764 130.216 107.773H207.036C207.657 107.774 208.265 107.591 208.782 107.247C209.299 106.903 209.702 106.413 209.941 105.84L211.81 101.218C212.043 100.632 212.442 100.126 212.958 99.7637C213.474 99.4011 214.084 99.197 214.715 99.1765H254.88C256.064 99.213 257.188 99.7092 258.012 100.56C258.837 101.411 259.298 102.549 259.297 103.734Z" fill="#407BFF"/>
<path opacity="0.3" d="M259.297 120.463H77.8572V427.453H259.297V120.463Z" fill="white"/>
<path opacity="0.6" d="M99.306 112.903H101.65V109.771H99.306V112.903Z" fill="white"/>
<path opacity="0.6" d="M95.472 112.893H97.8156V108.724H95.472V112.893Z" fill="white"/>
<path opacity="0.6" d="M91.6488 112.893H93.9924V107.676H91.6488V112.893Z" fill="white"/>
<path opacity="0.6" d="M87.8256 112.893H90.1692V106.629H87.8256V112.893Z" fill="white"/>
<path opacity="0.6" d="M238.28 108.626H236.887V111.758H238.28V108.626Z" fill="white"/>
<path opacity="0.6" d="M239.231 112.893H250.322V107.482H239.231V112.893Z" fill="white"/>
<path opacity="0.4" d="M156.222 194.53H83.7864V266.965H156.222V194.53Z" fill="white"/>
<path opacity="0.4" d="M156.222 271.393H83.7864V343.829H156.222V271.393Z" fill="white"/>
<path opacity="0.4" d="M234.112 271.393H161.676V343.829H234.112V271.393Z" fill="white"/>
<path opacity="0.4" d="M156.222 348.268H83.7864V420.703H156.222V348.268Z" fill="white"/>
<path opacity="0.4" d="M234.112 194.53H161.676V266.965H234.112V194.53Z" fill="white"/>
<path opacity="0.4" d="M234.112 348.268H161.676V420.703H234.112V348.268Z" fill="white"/>
<path d="M251.554 194.53H244.933V420.703H251.554V194.53Z" fill="#407BFF"/>
<path d="M251.327 201.755H245.149C244.511 201.755 243.994 202.272 243.994 202.91V225.277C243.994 225.916 244.511 226.433 245.149 226.433H251.327C251.965 226.433 252.482 225.916 252.482 225.277V202.91C252.482 202.272 251.965 201.755 251.327 201.755Z" fill="white"/>
<path d="M252.482 128.304H83.646V187.348H252.482V128.304Z" fill="#407BFF"/>
<path d="M139.676 212.328H99.6192C99.2927 212.328 98.9795 212.458 98.7486 212.689C98.5177 212.92 98.388 213.233 98.388 213.559V239.004C98.3908 239.329 98.5218 239.639 98.7524 239.868C98.983 240.096 99.2945 240.225 99.6192 240.225H139.676C139.999 240.222 140.308 240.092 140.536 239.864C140.764 239.636 140.894 239.327 140.897 239.004V213.559C140.897 213.235 140.769 212.923 140.54 212.693C140.311 212.462 140.001 212.331 139.676 212.328ZM139.936 238.248H99.36V213.678H139.946L139.936 238.248Z" fill="white"/>
<path d="M124.524 241.002H114.772V244.566H124.524V241.002Z" fill="white"/>
<path d="M128.52 245.441H110.808C110.64 245.444 110.479 245.512 110.361 245.631C110.242 245.75 110.174 245.91 110.171 246.078V247.083H129.157V246.078C129.157 245.909 129.09 245.747 128.971 245.628C128.851 245.508 128.689 245.441 128.52 245.441Z" fill="white"/>
<path d="M217.771 214.121H177.714C177.387 214.121 177.074 214.251 176.843 214.481C176.612 214.712 176.483 215.026 176.483 215.352V241.52H218.992V215.352C218.992 215.027 218.863 214.716 218.635 214.485C218.406 214.255 218.096 214.124 217.771 214.121ZM218.03 240.041H177.444V215.46H218.03V240.041Z" fill="white"/>
<path d="M203.418 242.482V243.497C203.418 243.677 203.346 243.85 203.219 243.978C203.091 244.106 202.918 244.177 202.738 244.177H192.748C192.567 244.177 192.394 244.106 192.266 243.978C192.139 243.85 192.067 243.677 192.067 243.497V242.482H172.368V244.642C172.371 244.816 172.441 244.981 172.564 245.104C172.687 245.227 172.853 245.298 173.027 245.3H222.48C222.655 245.3 222.822 245.231 222.946 245.108C223.069 244.984 223.139 244.816 223.139 244.642V242.482H203.418Z" fill="white"/>
<path d="M132.84 163.815L134.32 160.575C136.144 161.831 138.304 162.511 140.519 162.529C143.089 162.529 144.137 161.665 144.137 160.521C144.137 157 133.218 159.441 133.218 152.431C133.218 149.191 135.788 146.589 141.134 146.589C143.405 146.549 145.644 147.124 147.614 148.252L146.275 151.492C144.696 150.56 142.903 150.054 141.07 150.023C138.488 150.023 137.495 150.984 137.495 152.183C137.495 155.639 148.424 153.263 148.424 160.153C148.424 163.296 145.811 165.975 140.443 165.975C137.749 166.035 135.1 165.282 132.84 163.815Z" fill="white"/>
<path d="M163.836 161.633H155.11L153.446 165.661H149.04L157.41 146.869H161.73L170.132 165.661H165.564L163.836 161.633ZM162.464 158.393L159.484 151.2L156.503 158.393H162.464Z" fill="white"/>
<path d="M172.022 146.88H176.342V162.13H185.76V165.672H172.022V146.88Z" fill="white"/>
<path d="M202.781 162.173V165.661H188.233V146.88H202.435V150.369H192.553V154.44H201.28V157.821H192.553V162.141L202.781 162.173Z" fill="white"/>
<path d="M131.587 282.766H107.698C107.325 282.766 106.968 282.914 106.705 283.177C106.441 283.44 106.294 283.797 106.294 284.17V327.64C106.294 328.012 106.441 328.369 106.705 328.632C106.968 328.896 107.325 329.044 107.698 329.044H131.587C131.96 329.044 132.317 328.896 132.58 328.632C132.843 328.369 132.991 328.012 132.991 327.64V284.17C132.991 283.797 132.843 283.44 132.58 283.177C132.317 282.914 131.96 282.766 131.587 282.766ZM131.144 325.393H108.14V286.416H131.144V325.393Z" fill="white"/>
<path d="M141.383 368.14H97.9128C97.5404 368.14 97.1833 368.288 96.92 368.551C96.6567 368.814 96.5088 369.171 96.5088 369.544V399.924C96.5116 400.295 96.6608 400.649 96.9238 400.91C97.1868 401.171 97.5423 401.317 97.9128 401.317H141.383C141.752 401.317 142.107 401.17 142.368 400.909C142.629 400.648 142.776 400.294 142.776 399.924V369.544C142.776 369.173 142.63 368.818 142.369 368.555C142.108 368.292 141.753 368.142 141.383 368.14ZM141.005 399.46H98.28V369.997H141.005V399.46Z" fill="white"/>
<path d="M219.121 294.052H209.401C208.815 294.051 208.242 293.877 207.754 293.552C207.267 293.228 206.885 292.767 206.658 292.226L205.762 290.066C205.536 289.525 205.154 289.063 204.666 288.739C204.178 288.414 203.605 288.241 203.018 288.241H192.51C191.922 288.24 191.347 288.413 190.857 288.737C190.367 289.062 189.984 289.524 189.756 290.066L188.87 292.226C188.641 292.767 188.258 293.229 187.768 293.554C187.278 293.878 186.704 294.051 186.116 294.052H176.396C176.066 294.052 175.739 294.117 175.433 294.243C175.128 294.37 174.851 294.555 174.617 294.789C174.383 295.022 174.198 295.3 174.072 295.605C173.945 295.91 173.88 296.238 173.88 296.568V319.388C173.88 320.056 174.145 320.696 174.617 321.168C175.089 321.64 175.729 321.905 176.396 321.905H219.164C219.832 321.905 220.472 321.64 220.944 321.168C221.416 320.696 221.681 320.056 221.681 319.388V296.568C221.681 296.234 221.614 295.903 221.485 295.595C221.356 295.287 221.167 295.007 220.929 294.773C220.69 294.539 220.408 294.355 220.097 294.231C219.787 294.107 219.455 294.046 219.121 294.052ZM195.242 290.606H200.243V292.864H195.242V290.606ZM197.737 316.861C195.979 316.861 194.26 316.34 192.798 315.362C191.336 314.385 190.197 312.997 189.524 311.372C188.852 309.747 188.677 307.959 189.02 306.235C189.364 304.51 190.212 302.927 191.456 301.684C192.7 300.441 194.285 299.596 196.01 299.254C197.735 298.912 199.522 299.09 201.146 299.764C202.77 300.439 204.158 301.579 205.133 303.043C206.108 304.506 206.628 306.225 206.626 307.984C206.626 309.15 206.396 310.306 205.949 311.383C205.502 312.461 204.847 313.44 204.022 314.265C203.196 315.089 202.216 315.743 201.138 316.189C200.059 316.634 198.904 316.863 197.737 316.861ZM218.732 300.24H213.732V297.972H218.732V300.24Z" fill="white"/>
<path d="M183.697 369.987V399.222H211.777V369.987H183.697ZM210.222 396.565H185.263V372.6H210.222V396.565Z" fill="white"/>
<path d="M221.465 369.943H213.656V399.265H221.465C222.494 399.262 223.48 398.852 224.207 398.123C224.934 397.394 225.342 396.407 225.342 395.377V373.777C225.331 372.757 224.917 371.781 224.191 371.064C223.465 370.346 222.486 369.943 221.465 369.943ZM216.659 385.949C216.337 385.919 216.038 385.771 215.82 385.532C215.602 385.293 215.481 384.982 215.481 384.658C215.481 384.335 215.602 384.023 215.82 383.785C216.038 383.546 216.337 383.397 216.659 383.368C216.838 383.351 217.019 383.372 217.19 383.43C217.361 383.487 217.518 383.58 217.651 383.701C217.784 383.823 217.89 383.97 217.963 384.135C218.035 384.3 218.073 384.478 218.073 384.658C218.073 384.839 218.035 385.017 217.963 385.182C217.89 385.346 217.784 385.494 217.651 385.616C217.518 385.737 217.361 385.829 217.19 385.887C217.019 385.944 216.838 385.965 216.659 385.949ZM219.391 380.549C219.648 380.549 219.898 380.625 220.111 380.767C220.324 380.91 220.49 381.112 220.589 381.349C220.687 381.586 220.712 381.846 220.662 382.098C220.612 382.349 220.489 382.58 220.308 382.761C220.126 382.943 219.895 383.066 219.644 383.116C219.393 383.166 219.132 383.14 218.895 383.042C218.658 382.944 218.456 382.778 218.314 382.565C218.171 382.352 218.095 382.101 218.095 381.845C218.091 381.673 218.121 381.501 218.185 381.341C218.248 381.18 218.343 381.034 218.464 380.911C218.585 380.788 218.729 380.691 218.888 380.625C219.048 380.559 219.219 380.526 219.391 380.527V380.549ZM219.499 388.703C219.243 388.703 218.992 388.627 218.779 388.485C218.566 388.342 218.4 388.14 218.302 387.903C218.204 387.666 218.178 387.406 218.228 387.154C218.278 386.903 218.402 386.672 218.583 386.491C218.764 386.309 218.995 386.186 219.246 386.136C219.498 386.086 219.758 386.112 219.995 386.21C220.232 386.308 220.434 386.474 220.577 386.687C220.719 386.9 220.795 387.151 220.795 387.407C220.794 387.576 220.759 387.743 220.693 387.898C220.627 388.053 220.531 388.194 220.411 388.313C220.291 388.431 220.148 388.524 219.992 388.588C219.835 388.651 219.668 388.683 219.499 388.681V388.703ZM222.232 385.863C222.052 385.879 221.871 385.858 221.701 385.8C221.53 385.743 221.373 385.651 221.24 385.529C221.107 385.408 221 385.26 220.928 385.095C220.855 384.93 220.817 384.752 220.817 384.572C220.817 384.392 220.855 384.214 220.928 384.049C221 383.884 221.107 383.736 221.24 383.615C221.373 383.493 221.53 383.401 221.701 383.343C221.871 383.286 222.052 383.265 222.232 383.281C222.554 383.311 222.853 383.46 223.071 383.698C223.289 383.937 223.409 384.249 223.409 384.572C223.409 384.895 223.289 385.207 223.071 385.446C222.853 385.684 222.554 385.833 222.232 385.863Z" fill="white"/>
<path d="M174.02 369.943C172.991 369.943 172.004 370.351 171.275 371.078C170.546 371.805 170.135 372.791 170.132 373.821V395.421C170.132 396.452 170.542 397.441 171.271 398.17C172 398.899 172.989 399.309 174.02 399.309H181.829V369.943H174.02ZM173.254 385.949C172.997 385.949 172.746 385.873 172.532 385.73C172.319 385.587 172.153 385.384 172.055 385.146C171.957 384.909 171.932 384.648 171.983 384.396C172.034 384.144 172.159 383.914 172.341 383.733C172.523 383.552 172.755 383.429 173.007 383.381C173.26 383.332 173.52 383.359 173.757 383.459C173.994 383.558 174.195 383.726 174.336 383.941C174.478 384.155 174.552 384.407 174.55 384.664C174.55 384.833 174.516 385.001 174.451 385.158C174.385 385.315 174.29 385.457 174.169 385.576C174.049 385.696 173.906 385.79 173.749 385.854C173.592 385.918 173.423 385.95 173.254 385.949ZM175.975 380.549C176.155 380.533 176.335 380.554 176.506 380.611C176.677 380.668 176.834 380.761 176.967 380.882C177.1 381.004 177.206 381.152 177.279 381.316C177.352 381.481 177.389 381.659 177.389 381.84C177.389 382.02 177.352 382.198 177.279 382.363C177.206 382.528 177.1 382.675 176.967 382.797C176.834 382.918 176.677 383.011 176.506 383.068C176.335 383.125 176.155 383.147 175.975 383.13C175.653 383.101 175.354 382.952 175.136 382.713C174.918 382.474 174.797 382.163 174.797 381.84C174.797 381.516 174.918 381.205 175.136 380.966C175.354 380.727 175.653 380.578 175.975 380.549ZM176.094 388.703C175.915 388.719 175.734 388.698 175.563 388.641C175.392 388.583 175.235 388.491 175.102 388.37C174.969 388.248 174.863 388.1 174.79 387.936C174.717 387.771 174.68 387.593 174.68 387.412C174.68 387.232 174.717 387.054 174.79 386.889C174.863 386.724 174.969 386.576 175.102 386.455C175.235 386.334 175.392 386.241 175.563 386.184C175.734 386.126 175.915 386.105 176.094 386.122C176.416 386.151 176.715 386.3 176.933 386.539C177.151 386.778 177.272 387.089 177.272 387.412C177.272 387.736 177.151 388.047 176.933 388.286C176.715 388.525 176.416 388.673 176.094 388.703ZM178.816 385.863C178.559 385.863 178.309 385.787 178.096 385.644C177.882 385.502 177.716 385.299 177.618 385.063C177.52 384.826 177.494 384.565 177.544 384.314C177.594 384.062 177.718 383.831 177.899 383.65C178.08 383.469 178.311 383.345 178.563 383.295C178.814 383.245 179.075 383.271 179.312 383.369C179.548 383.467 179.751 383.633 179.893 383.847C180.036 384.06 180.112 384.31 180.112 384.567C180.11 384.735 180.076 384.902 180.01 385.058C179.944 385.213 179.848 385.354 179.728 385.472C179.607 385.591 179.465 385.684 179.308 385.747C179.152 385.811 178.984 385.842 178.816 385.841V385.863Z" fill="white"/>
<path d="M132.332 201.399L134.525 202.133L136.166 200.513L138.11 201.766L140.108 200.599L141.674 202.295L143.899 201.669L145.001 203.71L147.312 203.645L147.863 205.891L150.12 206.41L150.098 208.721L152.15 209.79L151.567 212.026L153.284 213.559L152.15 215.579L153.436 217.501L151.848 219.175L152.615 221.357L150.649 222.577L150.854 224.878L148.651 225.58L148.273 227.859L145.962 227.988L145.033 230.105L142.765 229.651L141.34 231.466L139.255 230.461L137.408 231.865L135.648 230.375L133.52 231.282L132.17 229.403L129.892 229.749L129.049 227.589L126.749 227.362L126.479 225.061L124.308 224.262L124.621 221.973L122.72 220.666L123.584 218.517L122.072 216.778L123.444 214.92L122.407 212.847L124.2 211.389L123.714 209.131L125.809 208.159L125.896 205.848L128.174 205.438L128.833 203.224L131.144 203.386L132.332 201.399Z" fill="#407BFF"/>
<path d="M134.536 218.16C134.978 219.37 134.46 220.828 132.376 221.573C131.415 221.955 130.362 222.041 129.352 221.821L129.6 220.32C130.356 220.521 131.156 220.483 131.89 220.212C132.721 219.899 133.11 219.37 132.894 218.786C132.678 218.203 132.17 218.052 131.22 218.408L130.464 218.678L130.054 217.598L130.918 215.374L127.861 216.454L127.364 215.114L132.397 213.257L132.797 214.337L131.857 216.788C132.394 216.624 132.974 216.675 133.475 216.931C133.975 217.187 134.355 217.628 134.536 218.16Z" fill="white"/>
<path d="M140.605 215.881C141.08 217.156 140.551 218.603 138.499 219.359C137.537 219.736 136.486 219.823 135.475 219.607L135.659 218.095C136.415 218.296 137.215 218.259 137.948 217.987C138.78 217.674 139.158 217.134 138.942 216.551C138.726 215.968 138.229 215.752 136.922 216.238L135.086 216.918L133.92 212.76L138.305 211.14L138.802 212.469L135.799 213.549L136.188 214.953L136.782 214.737C138.942 213.959 140.141 214.607 140.605 215.881Z" fill="white"/>
<path d="M140.216 211.831C140.139 211.675 140.096 211.503 140.089 211.329C140.083 211.154 140.113 210.98 140.178 210.818C140.243 210.656 140.342 210.51 140.468 210.388C140.593 210.267 140.743 210.173 140.908 210.114C141.239 210.029 141.591 210.07 141.894 210.229C142.197 210.388 142.43 210.654 142.549 210.975C142.667 211.297 142.662 211.65 142.534 211.968C142.407 212.286 142.166 212.545 141.858 212.695C141.694 212.755 141.519 212.78 141.345 212.768C141.17 212.756 141.001 212.708 140.846 212.627C140.691 212.545 140.555 212.432 140.447 212.295C140.339 212.158 140.26 212 140.216 211.831ZM141.869 211.226C141.685 210.719 141.404 210.557 141.113 210.665C140.821 210.773 140.713 211.086 140.897 211.583C141.08 212.08 141.372 212.252 141.653 212.144C141.934 212.036 142.052 211.68 141.869 211.226ZM143.716 209.131L144.515 208.84L143.046 214.704L142.247 215.006L143.716 209.131ZM144.223 212.868C144.152 212.713 144.114 212.545 144.111 212.374C144.108 212.203 144.14 212.034 144.206 211.876C144.271 211.719 144.368 211.576 144.491 211.458C144.614 211.339 144.76 211.248 144.92 211.188C145.08 211.129 145.25 211.103 145.421 211.112C145.591 211.121 145.758 211.166 145.91 211.242C146.063 211.319 146.198 211.426 146.307 211.557C146.416 211.688 146.497 211.84 146.545 212.004C146.616 212.159 146.654 212.327 146.657 212.498C146.66 212.669 146.628 212.838 146.563 212.996C146.497 213.153 146.4 213.296 146.277 213.414C146.154 213.533 146.008 213.624 145.849 213.684C145.689 213.743 145.518 213.769 145.348 213.76C145.177 213.751 145.011 213.706 144.858 213.63C144.706 213.553 144.571 213.446 144.461 213.315C144.352 213.184 144.271 213.032 144.223 212.868ZM145.865 212.252C145.681 211.766 145.4 211.583 145.109 211.691C144.817 211.799 144.709 212.112 144.893 212.62C145.076 213.127 145.368 213.289 145.649 213.181C145.93 213.073 146.048 212.76 145.865 212.252Z" fill="white"/>
<path d="M142.171 216.832C142.082 216.634 142.054 216.413 142.092 216.2C142.13 215.986 142.232 215.788 142.384 215.633C142.535 215.478 142.731 215.372 142.943 215.329C143.156 215.286 143.377 215.309 143.577 215.394C143.777 215.478 143.947 215.621 144.064 215.804C144.182 215.987 144.241 216.201 144.235 216.418C144.229 216.635 144.158 216.845 144.03 217.021C143.903 217.197 143.726 217.331 143.521 217.404C143.395 217.458 143.26 217.486 143.123 217.487C142.986 217.487 142.85 217.46 142.724 217.406C142.598 217.353 142.484 217.274 142.389 217.175C142.294 217.077 142.22 216.96 142.171 216.832ZM143.737 216.249C143.71 216.174 143.667 216.106 143.613 216.048C143.559 215.989 143.494 215.942 143.422 215.909C143.35 215.876 143.272 215.858 143.193 215.855C143.113 215.852 143.034 215.864 142.96 215.892C142.885 215.92 142.817 215.962 142.759 216.016C142.7 216.07 142.653 216.135 142.62 216.207C142.587 216.279 142.569 216.357 142.566 216.437C142.563 216.516 142.576 216.595 142.603 216.67C142.631 216.744 142.673 216.812 142.727 216.871C142.781 216.929 142.846 216.976 142.918 217.009C142.99 217.042 143.068 217.061 143.148 217.064C143.227 217.067 143.306 217.054 143.381 217.026C143.455 216.998 143.524 216.956 143.582 216.902C143.64 216.848 143.687 216.783 143.72 216.711C143.753 216.639 143.772 216.561 143.775 216.482C143.778 216.402 143.765 216.323 143.737 216.249Z" fill="white"/>
<path d="M144.72 215.244L144.904 215.73L145.746 215.417L145.876 215.752L145.022 216.065L145.271 216.735L144.85 216.886L144.169 215.061L145.552 214.553L145.681 214.888L144.72 215.244Z" fill="white"/>
<path d="M146.372 214.628L146.545 215.104L147.388 214.79L147.517 215.136L146.675 215.449L146.923 216.119L146.491 216.27L145.822 214.445L147.204 213.937L147.323 214.272L146.372 214.628Z" fill="white"/>
<path d="M132.332 282.571L134.525 283.306L136.166 281.686L138.11 282.939L140.108 281.772L141.674 283.468L143.899 282.841L145.001 284.872L147.312 284.818L147.863 287.064L150.12 287.583L150.098 289.894L152.15 290.963L151.567 293.199L153.284 294.732L152.15 296.752L153.436 298.674L151.848 300.348L152.615 302.53L150.649 303.75L150.854 306.051L148.651 306.742L148.273 309.031L145.962 309.15L145.033 311.267L142.765 310.824L141.34 312.639L139.255 311.634L137.408 313.038L135.648 311.548L133.52 312.455L132.17 310.576L129.892 310.921L129.049 308.761L126.749 308.535L126.479 306.234L124.308 305.435L124.621 303.145L122.72 301.828L123.584 299.689L122.072 297.951L123.444 296.082L122.407 294.019L124.2 292.561L123.714 290.304L125.809 289.332L125.896 287.021L128.174 286.611L128.833 284.397L131.144 284.559L132.332 282.571Z" fill="#407BFF"/>
<path d="M135 299.16C135.117 299.503 135.162 299.866 135.132 300.227C135.101 300.588 134.997 300.939 134.824 301.258C134.652 301.576 134.415 301.855 134.129 302.078C133.844 302.301 133.515 302.462 133.164 302.551C131.177 303.286 129.492 302.497 128.639 300.175C127.786 297.853 128.704 295.758 130.864 294.959C131.549 294.688 132.294 294.602 133.024 294.711L132.851 296.158C132.358 296.053 131.846 296.102 131.382 296.298C131.099 296.38 130.837 296.523 130.614 296.717C130.392 296.911 130.215 297.151 130.096 297.421C129.976 297.69 129.917 297.983 129.923 298.278C129.929 298.573 129.999 298.863 130.129 299.128C130.284 298.819 130.5 298.546 130.764 298.323C131.027 298.1 131.333 297.933 131.663 297.832C131.967 297.684 132.298 297.601 132.636 297.588C132.974 297.576 133.311 297.634 133.625 297.759C133.939 297.884 134.223 298.073 134.46 298.315C134.697 298.556 134.881 298.844 135 299.16ZM133.423 299.83C133.371 299.667 133.283 299.517 133.167 299.392C133.05 299.267 132.907 299.169 132.749 299.105C132.59 299.041 132.419 299.013 132.248 299.023C132.077 299.032 131.911 299.079 131.76 299.16C131.6 299.201 131.45 299.274 131.319 299.375C131.188 299.476 131.079 299.603 130.999 299.748C130.919 299.892 130.87 300.052 130.854 300.216C130.838 300.381 130.856 300.547 130.907 300.704C130.969 300.86 131.063 301 131.183 301.116C131.303 301.232 131.447 301.321 131.604 301.377C131.762 301.433 131.929 301.455 132.096 301.442C132.262 301.428 132.424 301.379 132.57 301.299C132.73 301.263 132.88 301.195 133.012 301.097C133.143 301 133.252 300.875 133.332 300.732C133.411 300.589 133.46 300.431 133.474 300.268C133.488 300.105 133.467 299.941 133.412 299.786L133.423 299.83Z" fill="white"/>
<path d="M141.026 296.892C141.502 298.167 140.972 299.625 138.866 300.381C137.903 300.754 136.852 300.837 135.842 300.618L136.08 299.16C136.831 299.372 137.631 299.334 138.359 299.052C139.19 298.75 139.579 298.21 139.363 297.627C139.147 297.043 138.65 296.827 137.344 297.303L135.508 297.983L134.428 293.803L138.812 292.183L139.298 293.523L136.307 294.603L136.696 296.017L137.279 295.801C139.32 294.981 140.562 295.618 141.026 296.892Z" fill="white"/>
<path d="M140.4 292.95C140.342 292.718 140.353 292.473 140.431 292.247C140.509 292.02 140.651 291.821 140.839 291.674C141.028 291.526 141.255 291.436 141.494 291.414C141.732 291.393 141.972 291.441 142.184 291.552C142.396 291.664 142.571 291.834 142.688 292.043C142.806 292.252 142.86 292.49 142.845 292.729C142.83 292.968 142.746 293.198 142.604 293.39C142.461 293.583 142.266 293.73 142.042 293.814C141.878 293.877 141.702 293.905 141.527 293.895C141.351 293.885 141.18 293.837 141.024 293.755C140.869 293.673 140.733 293.559 140.625 293.42C140.517 293.281 140.441 293.121 140.4 292.95ZM142.052 292.345C141.869 291.838 141.577 291.676 141.286 291.784C140.994 291.892 140.886 292.216 141.07 292.702C141.253 293.188 141.545 293.371 141.836 293.263C142.128 293.155 142.193 292.842 142.009 292.345H142.052ZM143.899 290.25L144.688 289.958L143.219 295.823L142.43 296.125L143.899 290.25ZM144.396 293.987C144.338 293.754 144.349 293.51 144.427 293.284C144.505 293.057 144.647 292.858 144.835 292.71C145.024 292.563 145.251 292.473 145.49 292.451C145.728 292.429 145.968 292.477 146.18 292.589C146.392 292.7 146.567 292.871 146.684 293.08C146.802 293.289 146.856 293.527 146.841 293.766C146.826 294.005 146.742 294.235 146.6 294.427C146.457 294.62 146.262 294.767 146.038 294.851C145.871 294.92 145.692 294.952 145.512 294.945C145.332 294.937 145.156 294.891 144.995 294.809C144.835 294.726 144.695 294.61 144.584 294.469C144.473 294.327 144.394 294.162 144.353 293.987H144.396ZM146.048 293.382C145.865 292.885 145.573 292.702 145.282 292.82C144.99 292.939 144.882 293.242 145.066 293.738C145.249 294.235 145.541 294.408 145.832 294.3C146.124 294.192 146.189 293.879 146.005 293.382H146.048Z" fill="white"/>
<path d="M142.301 297.951C142.246 297.696 142.286 297.43 142.412 297.203C142.538 296.975 142.742 296.8 142.986 296.711C143.231 296.621 143.499 296.623 143.742 296.716C143.986 296.809 144.187 296.987 144.31 297.216C144.364 297.471 144.325 297.736 144.199 297.964C144.073 298.192 143.869 298.367 143.624 298.456C143.38 298.545 143.111 298.544 142.868 298.451C142.625 298.358 142.423 298.18 142.301 297.951ZM143.878 297.367C143.85 297.292 143.808 297.223 143.753 297.164C143.699 297.105 143.634 297.058 143.561 297.024C143.488 296.991 143.41 296.972 143.33 296.969C143.25 296.965 143.17 296.978 143.095 297.006C143.019 297.033 142.95 297.075 142.892 297.13C142.833 297.184 142.785 297.249 142.752 297.322C142.718 297.395 142.699 297.473 142.696 297.553C142.693 297.634 142.705 297.713 142.733 297.789C142.76 297.864 142.803 297.933 142.857 297.992C142.911 298.05 142.977 298.098 143.049 298.132C143.122 298.165 143.201 298.184 143.281 298.187C143.361 298.191 143.441 298.178 143.516 298.15C143.591 298.123 143.66 298.081 143.719 298.026C143.778 297.972 143.825 297.907 143.859 297.834C143.892 297.761 143.911 297.682 143.915 297.602C143.918 297.522 143.905 297.443 143.878 297.367Z" fill="white"/>
<path d="M144.839 296.363L145.012 296.849L145.865 296.536L145.984 296.87L145.141 297.184L145.39 297.853L144.958 298.004L144.288 296.179L145.67 295.672L145.789 296.006L144.839 296.363Z" fill="white"/>
<path d="M146.502 295.747L146.686 296.233L147.528 295.92L147.658 296.255L146.804 296.568L147.053 297.238L146.632 297.389L145.951 295.564L147.334 295.056L147.463 295.391L146.502 295.747Z" fill="white"/>
<path d="M208.3 282.506L210.492 283.241L212.144 281.61L214.088 282.874L216.086 281.707L217.652 283.403L219.877 282.776L220.968 284.807L223.279 284.753L223.841 286.999L226.098 287.518L226.076 289.829L228.128 290.887L227.534 293.123L229.262 294.667L228.128 296.687L229.414 298.609L227.815 300.273L228.582 302.454L226.627 303.674L226.822 305.986L224.618 306.677L224.24 308.956L221.94 309.085L221 311.202L218.732 310.749L217.307 312.563L215.222 311.569L213.386 312.973L211.615 311.483L209.488 312.39L208.148 310.5L205.859 310.846L205.027 308.696L202.727 308.459L202.457 306.169L200.286 305.37L200.588 303.081L198.688 301.763L199.562 299.625L198.04 297.875L199.411 296.017L198.385 293.955L200.167 292.486L199.681 290.229L201.787 289.267L201.874 286.956L204.152 286.535L204.811 284.321L207.112 284.483L208.3 282.506Z" fill="#407BFF"/>
<path d="M208.926 294.214L209.326 295.294L208.904 302.389L207.101 303.059L207.522 296.276L205.146 297.162L205.578 298.328L204.098 298.879L203.17 296.352L208.926 294.214Z" fill="white"/>
<path d="M216.734 296.924C217.21 298.199 216.68 299.646 214.574 300.413C213.612 300.787 212.56 300.87 211.55 300.65L211.745 299.138C212.497 299.339 213.293 299.301 214.024 299.03C214.855 298.717 215.233 298.177 215.017 297.594C214.801 297.011 214.304 296.795 212.998 297.281L211.162 297.961L210.082 293.782L214.466 292.162L214.963 293.49L211.961 294.57L212.35 295.974L212.933 295.758C215.071 295.002 216.27 295.65 216.734 296.924Z" fill="white"/>
<path d="M216.238 292.918C216.16 292.761 216.117 292.59 216.11 292.415C216.104 292.241 216.134 292.067 216.199 291.904C216.265 291.742 216.363 291.596 216.489 291.475C216.615 291.353 216.765 291.26 216.929 291.2C217.092 291.137 217.267 291.11 217.442 291.12C217.616 291.13 217.787 291.178 217.942 291.26C218.096 291.342 218.232 291.456 218.338 291.595C218.445 291.734 218.52 291.894 218.56 292.064C218.634 292.22 218.674 292.39 218.679 292.563C218.684 292.735 218.652 292.907 218.587 293.066C218.522 293.226 218.424 293.371 218.3 293.49C218.176 293.61 218.028 293.703 217.866 293.762C217.704 293.822 217.531 293.847 217.359 293.836C217.187 293.825 217.019 293.779 216.865 293.699C216.712 293.62 216.577 293.509 216.469 293.374C216.361 293.24 216.282 293.084 216.238 292.918ZM217.89 292.302C217.706 291.805 217.426 291.632 217.134 291.74C216.842 291.848 216.734 292.172 216.918 292.669C217.102 293.166 217.393 293.339 217.674 293.231C217.955 293.123 218.074 292.81 217.89 292.302ZM219.737 290.218L220.536 289.926L219.067 295.79L218.268 296.082L219.737 290.218ZM220.244 293.954C220.186 293.722 220.196 293.477 220.274 293.249C220.352 293.022 220.494 292.823 220.683 292.674C220.872 292.526 221.1 292.436 221.339 292.415C221.578 292.393 221.818 292.442 222.03 292.554C222.243 292.667 222.418 292.838 222.534 293.048C222.651 293.258 222.704 293.497 222.688 293.737C222.672 293.976 222.586 294.206 222.442 294.398C222.298 294.59 222.101 294.736 221.875 294.818C221.712 294.876 221.538 294.9 221.365 294.887C221.192 294.874 221.023 294.826 220.87 294.745C220.717 294.663 220.582 294.551 220.474 294.415C220.367 294.279 220.288 294.122 220.244 293.954ZM221.886 293.339C221.702 292.842 221.422 292.669 221.13 292.777C220.838 292.885 220.73 293.198 220.914 293.706C221.098 294.214 221.389 294.376 221.67 294.268C221.951 294.16 222.07 293.836 221.886 293.339Z" fill="white"/>
<path d="M218.16 297.918C218.071 297.72 218.043 297.5 218.081 297.286C218.119 297.072 218.22 296.875 218.372 296.719C218.524 296.564 218.719 296.458 218.932 296.415C219.145 296.373 219.366 296.395 219.566 296.48C219.766 296.565 219.936 296.708 220.053 296.891C220.171 297.073 220.23 297.287 220.224 297.504C220.218 297.722 220.147 297.932 220.019 298.108C219.892 298.284 219.714 298.417 219.51 298.491C219.384 298.546 219.249 298.576 219.111 298.577C218.974 298.578 218.837 298.551 218.711 298.497C218.584 298.443 218.47 298.364 218.375 298.265C218.281 298.165 218.207 298.047 218.16 297.918ZM219.726 297.335C219.68 297.225 219.603 297.132 219.505 297.066C219.406 297 219.29 296.964 219.172 296.963C219.053 296.962 218.937 296.997 218.837 297.061C218.738 297.126 218.66 297.219 218.613 297.328C218.566 297.437 218.552 297.557 218.572 297.674C218.593 297.791 218.648 297.899 218.73 297.985C218.812 298.071 218.917 298.131 219.033 298.157C219.148 298.184 219.269 298.176 219.38 298.134C219.46 298.11 219.534 298.07 219.598 298.016C219.661 297.961 219.712 297.894 219.748 297.819C219.783 297.744 219.803 297.661 219.805 297.578C219.806 297.495 219.791 297.412 219.758 297.335H219.726Z" fill="white"/>
<path d="M220.72 296.33L220.903 296.806L221.746 296.492L221.875 296.838L221.022 297.151L221.27 297.81L220.849 297.972L220.169 296.147L221.551 295.639L221.681 295.974L220.72 296.33Z" fill="white"/>
<path d="M222.394 295.715L222.566 296.19L223.409 295.877L223.538 296.223L222.696 296.536L222.934 297.195L222.512 297.357L221.843 295.531L223.225 295.013L223.344 295.359L222.394 295.715Z" fill="white"/>
<path d="M132.332 358.161L134.525 358.895L136.166 357.264L138.11 358.517L140.108 357.361L141.674 359.057L143.899 358.431L145.001 360.461L147.312 360.407L147.863 362.653L150.12 363.172L150.098 365.483L152.15 366.541L151.567 368.777L153.284 370.321L152.15 372.33L153.436 374.253L151.848 375.927L152.615 378.108L150.649 379.329L150.854 381.64L148.651 382.331L148.273 384.61L145.962 384.739L145.033 386.856L142.765 386.403L141.34 388.217L139.255 387.223L137.408 388.627L135.648 387.137L133.52 388.044L132.17 386.154L129.892 386.5L129.049 384.351L126.749 384.113L126.479 381.823L124.308 381.024L124.621 378.735L122.72 377.417L123.584 375.279L122.072 373.529L123.444 371.671L122.407 369.609L124.2 368.14L123.714 365.883L125.809 364.921L125.896 362.61L128.174 362.189L128.833 359.975L131.144 360.137L132.332 358.161Z" fill="#407BFF"/>
<path d="M134.86 374.954C135.367 376.304 134.471 377.611 132.646 378.281C130.82 378.95 129.308 378.551 128.812 377.201C128.673 376.846 128.643 376.458 128.723 376.085C128.804 375.713 128.993 375.372 129.265 375.106C128.953 375.053 128.66 374.916 128.419 374.711C128.178 374.506 127.996 374.239 127.894 373.939C127.429 372.676 128.261 371.466 129.892 370.861C131.522 370.256 132.97 370.624 133.434 371.887C133.549 372.185 133.583 372.508 133.532 372.823C133.481 373.138 133.346 373.434 133.142 373.68C133.522 373.7 133.888 373.831 134.193 374.058C134.499 374.285 134.731 374.597 134.86 374.954ZM129.6 373.388C129.794 373.928 130.356 374.112 131.026 373.864C131.695 373.615 132.03 373.108 131.836 372.557C131.641 372.006 131.047 371.822 130.367 372.071C129.686 372.319 129.362 372.827 129.6 373.388ZM133.186 375.548C132.948 374.911 132.278 374.717 131.447 375.019C130.615 375.322 130.259 375.905 130.496 376.542C130.734 377.179 131.393 377.384 132.214 377.082C133.034 376.78 133.402 376.164 133.164 375.527L133.186 375.548Z" fill="white"/>
<path d="M135.065 373.162C134.19 370.797 135.065 368.961 136.771 368.313C138.478 367.665 140.346 368.518 141.221 370.894C142.096 373.27 141.296 375.084 139.514 375.743C137.732 376.402 135.94 375.538 135.065 373.162ZM139.547 371.509C138.953 369.879 138.121 369.414 137.29 369.717C136.458 370.019 136.145 370.915 136.75 372.546C137.354 374.177 138.175 374.641 138.996 374.339C139.817 374.037 140.152 373.14 139.547 371.52V371.509Z" fill="white"/>
<path d="M140.627 368.442C140.549 368.285 140.506 368.113 140.499 367.937C140.493 367.762 140.523 367.587 140.588 367.424C140.653 367.261 140.752 367.114 140.878 366.992C141.003 366.869 141.153 366.775 141.318 366.714C141.569 366.592 141.851 366.549 142.127 366.591C142.403 366.632 142.659 366.756 142.864 366.946C143.068 367.136 143.21 367.384 143.271 367.656C143.332 367.928 143.309 368.212 143.205 368.471C143.101 368.73 142.922 368.952 142.69 369.107C142.458 369.262 142.185 369.343 141.906 369.34C141.627 369.337 141.356 369.249 141.127 369.089C140.899 368.929 140.725 368.703 140.627 368.442ZM142.279 367.826C142.096 367.33 141.815 367.157 141.523 367.265C141.232 367.373 141.124 367.697 141.307 368.183C141.491 368.669 141.782 368.853 142.063 368.755C142.344 368.658 142.463 368.334 142.279 367.826ZM144.126 365.742L144.925 365.44L143.456 371.315L142.657 371.606L144.126 365.742ZM144.634 369.468C144.575 369.235 144.585 368.99 144.663 368.763C144.741 368.536 144.883 368.336 145.072 368.188C145.261 368.04 145.489 367.95 145.728 367.928C145.967 367.907 146.207 367.956 146.42 368.068C146.632 368.18 146.807 368.352 146.924 368.562C147.04 368.772 147.094 369.011 147.077 369.25C147.061 369.49 146.975 369.72 146.831 369.912C146.687 370.104 146.49 370.25 146.264 370.332C146.101 370.394 145.927 370.42 145.752 370.409C145.578 370.397 145.408 370.349 145.254 370.268C145.1 370.186 144.965 370.073 144.858 369.935C144.751 369.797 144.674 369.638 144.634 369.468ZM146.275 368.863C146.092 368.367 145.811 368.194 145.519 368.302C145.228 368.41 145.12 368.723 145.303 369.22C145.487 369.716 145.778 369.889 146.059 369.781C146.34 369.673 146.459 369.36 146.275 368.863Z" fill="white"/>
<path d="M142.56 373.432C142.473 373.233 142.447 373.013 142.487 372.799C142.527 372.586 142.63 372.39 142.783 372.236C142.936 372.082 143.131 371.978 143.344 371.937C143.557 371.895 143.778 371.92 143.977 372.006C144.176 372.092 144.345 372.236 144.461 372.419C144.577 372.602 144.635 372.816 144.628 373.033C144.621 373.25 144.548 373.459 144.42 373.635C144.292 373.81 144.114 373.942 143.91 374.015C143.783 374.069 143.647 374.096 143.51 374.096C143.372 374.095 143.236 374.067 143.11 374.013C142.984 373.958 142.87 373.878 142.775 373.779C142.681 373.679 142.608 373.561 142.56 373.432ZM144.126 372.848C144.08 372.739 144.003 372.645 143.905 372.579C143.806 372.513 143.69 372.477 143.572 372.477C143.453 372.476 143.337 372.51 143.237 372.575C143.138 372.64 143.06 372.732 143.013 372.841C142.966 372.95 142.952 373.071 142.972 373.187C142.993 373.304 143.048 373.412 143.13 373.498C143.212 373.584 143.317 373.644 143.433 373.671C143.548 373.697 143.669 373.689 143.78 373.648C143.86 373.624 143.934 373.584 143.997 373.529C144.06 373.475 144.111 373.407 144.146 373.332C144.181 373.256 144.199 373.173 144.199 373.09C144.199 373.007 144.182 372.924 144.148 372.848H144.126Z" fill="white"/>
<path d="M145.109 371.844L145.292 372.33L146.135 372.017L146.264 372.352L145.411 372.665L145.66 373.334L145.238 373.496L144.558 371.66L145.94 371.153L146.07 371.488L145.109 371.844Z" fill="white"/>
<path d="M146.783 371.229L146.956 371.715L147.798 371.401L147.928 371.736L147.085 372.049L147.323 372.719L146.902 372.87L146.232 371.045L147.614 370.537L147.733 370.872L146.783 371.229Z" fill="white"/>
<path d="M208.3 201.334L210.492 202.068L212.144 200.437L214.088 201.701L216.086 200.534L217.652 202.23L219.877 201.604L220.968 203.634L223.279 203.58L223.841 205.826L226.098 206.345L226.076 208.656L228.128 209.725L227.534 211.95L229.262 213.494L228.128 215.514L229.414 217.436L227.815 219.11L228.582 221.281L226.627 222.512L226.822 224.813L224.618 225.504L224.24 227.794L221.94 227.912L221 230.029L218.732 229.576L217.307 231.401L215.222 230.396L213.386 231.8L211.615 230.31L209.488 231.217L208.148 229.338L205.859 229.684L205.027 227.524L202.727 227.286L202.457 224.996L200.286 224.197L200.588 221.908L198.688 220.59L199.562 218.452L198.04 216.702L199.411 214.844L198.385 212.782L200.167 211.324L199.681 209.056L201.787 208.094L201.874 205.783L204.152 205.373L204.811 203.148L207.112 203.321L208.3 201.334Z" fill="#407BFF"/>
<path d="M210.352 218.16C210.827 219.424 210.298 220.882 208.192 221.638C207.229 222.012 206.177 222.095 205.168 221.875L205.351 220.363C206.106 220.575 206.909 220.537 207.641 220.255C208.472 219.953 208.85 219.413 208.634 218.83C208.418 218.246 207.922 218.03 206.615 218.506L204.779 219.186L203.699 215.006L208.084 213.386L208.58 214.726L205.578 215.806L205.967 217.22L206.55 217.004C208.688 216.194 209.887 216.842 210.352 218.16Z" fill="white"/>
<path d="M210.535 216.529C209.66 214.153 210.481 212.328 212.242 211.669C214.002 211.01 215.827 211.885 216.702 214.25C217.577 216.616 216.767 218.452 214.996 219.1C213.224 219.748 211.41 218.894 210.535 216.529ZM215.028 214.92C214.423 213.289 213.592 212.825 212.76 213.138C211.928 213.451 211.615 214.326 212.22 215.957C212.825 217.588 213.646 218.052 214.466 217.75C215.287 217.447 215.622 216.497 215.028 214.92Z" fill="white"/>
<path d="M216.432 211.68C216.355 211.523 216.311 211.351 216.305 211.175C216.298 211 216.328 210.825 216.393 210.662C216.458 210.499 216.557 210.352 216.683 210.23C216.809 210.107 216.959 210.013 217.123 209.952C217.374 209.83 217.656 209.787 217.932 209.829C218.208 209.87 218.465 209.994 218.669 210.184C218.873 210.374 219.015 210.622 219.076 210.894C219.137 211.166 219.114 211.45 219.01 211.709C218.907 211.968 218.727 212.19 218.495 212.345C218.263 212.5 217.99 212.581 217.711 212.578C217.432 212.575 217.161 212.488 216.933 212.327C216.704 212.167 216.53 211.941 216.432 211.68ZM218.084 211.065C217.901 210.568 217.62 210.395 217.328 210.503C217.037 210.611 216.929 210.935 217.112 211.432C217.296 211.929 217.588 212.091 217.879 211.993C218.171 211.896 218.279 211.572 218.084 211.065ZM219.931 208.98L220.73 208.678L219.24 214.553L218.441 214.845L219.931 208.98ZM220.439 212.706C220.38 212.473 220.391 212.228 220.468 212.001C220.546 211.774 220.688 211.574 220.877 211.426C221.066 211.278 221.294 211.188 221.533 211.166C221.772 211.145 222.013 211.194 222.225 211.306C222.437 211.418 222.612 211.59 222.729 211.8C222.846 212.01 222.899 212.249 222.882 212.489C222.866 212.728 222.781 212.958 222.636 213.15C222.492 213.342 222.295 213.488 222.07 213.57C221.91 213.632 221.739 213.66 221.568 213.653C221.396 213.645 221.229 213.602 221.075 213.526C220.922 213.449 220.786 213.342 220.676 213.21C220.567 213.078 220.486 212.925 220.439 212.76V212.706ZM222.08 212.101C221.897 211.605 221.616 211.432 221.324 211.54C221.033 211.648 220.925 211.961 221.108 212.458C221.292 212.955 221.584 213.127 221.864 213.019C222.145 212.911 222.264 212.598 222.08 212.101Z" fill="white"/>
<path d="M218.387 216.67C218.3 216.471 218.274 216.251 218.314 216.037C218.353 215.824 218.456 215.628 218.609 215.474C218.762 215.32 218.958 215.216 219.171 215.175C219.384 215.133 219.605 215.158 219.804 215.244C220.003 215.33 220.172 215.474 220.288 215.657C220.404 215.84 220.462 216.054 220.455 216.271C220.448 216.488 220.375 216.698 220.247 216.873C220.119 217.048 219.941 217.18 219.737 217.253C219.61 217.307 219.474 217.334 219.337 217.334C219.199 217.333 219.063 217.305 218.937 217.251C218.811 217.196 218.697 217.116 218.602 217.017C218.508 216.917 218.434 216.799 218.387 216.67ZM219.953 216.086C219.929 216.009 219.889 215.938 219.836 215.877C219.783 215.816 219.718 215.766 219.645 215.732C219.572 215.697 219.492 215.678 219.411 215.676C219.33 215.674 219.25 215.689 219.175 215.719C219.056 215.758 218.951 215.832 218.874 215.931C218.798 216.03 218.752 216.15 218.744 216.275C218.736 216.401 218.766 216.525 218.83 216.633C218.894 216.741 218.989 216.828 219.102 216.881C219.215 216.935 219.342 216.953 219.466 216.934C219.59 216.914 219.705 216.858 219.797 216.772C219.889 216.687 219.953 216.576 219.98 216.453C220.008 216.331 219.999 216.203 219.953 216.086Z" fill="white"/>
<path d="M220.914 215.082L221.098 215.568L221.94 215.255L222.07 215.59L221.216 215.903L221.465 216.573L221.044 216.735L220.32 214.92L221.702 214.413L221.832 214.747L220.914 215.082Z" fill="white"/>
<path d="M222.588 214.467L222.761 214.953L223.603 214.639L223.733 214.974L222.89 215.287L223.139 215.957L222.707 216.108L222.037 214.283L223.42 213.775L223.538 214.11L222.588 214.467Z" fill="white"/>
<path d="M208.3 358.085L210.492 358.819L212.144 357.199L214.088 358.452L216.086 357.286L217.652 358.992L219.877 358.355L220.968 360.396L223.279 360.331L223.841 362.578L226.098 363.096L226.076 365.407L228.128 366.476L227.534 368.712L229.262 370.246L228.128 372.265L229.414 374.188L227.815 375.862L228.582 378.043L226.627 379.264L226.822 381.564L224.618 382.266L224.24 384.545L221.94 384.674L221 386.791L218.732 386.338L217.307 388.152L215.222 387.148L213.386 388.552L211.615 387.061L209.488 387.968L208.148 386.089L205.859 386.435L205.027 384.275L202.727 384.048L202.457 381.748L200.286 380.948L200.588 378.659L198.688 377.352L199.562 375.203L198.04 373.464L199.411 371.606L198.385 369.533L200.167 368.075L199.681 365.818L201.787 364.846L201.874 362.534L204.152 362.124L204.811 359.91L207.112 360.072L208.3 358.085Z" fill="#407BFF"/>
<path d="M211.766 375.203L210.589 375.635L211.151 377.136L209.52 377.741L208.969 376.229L205.103 377.655L204.682 376.575L206.388 370.764L208.138 370.116L206.593 375.603L208.516 374.89L208.019 373.54L209.596 372.967L210.092 374.307L211.259 373.875L211.766 375.203Z" fill="white"/>
<path d="M217.382 372.265C217.858 373.54 217.328 374.998 215.276 375.754C214.314 376.128 213.262 376.211 212.252 375.991L212.436 374.479C213.191 374.691 213.994 374.653 214.726 374.371C215.557 374.069 215.935 373.529 215.719 372.946C215.503 372.362 215.006 372.146 213.7 372.622L211.864 373.302L210.784 369.122L215.168 367.502L215.665 368.842L212.663 369.922L213.052 371.336L213.635 371.12C215.719 370.354 216.918 371.002 217.382 372.265Z" fill="white"/>
<path d="M216.454 368.421C216.396 368.188 216.407 367.944 216.485 367.717C216.563 367.491 216.704 367.292 216.893 367.144C217.082 366.996 217.309 366.906 217.547 366.885C217.786 366.863 218.026 366.911 218.238 367.023C218.45 367.134 218.625 367.305 218.742 367.513C218.859 367.722 218.914 367.961 218.899 368.2C218.884 368.439 218.8 368.668 218.657 368.861C218.515 369.053 218.319 369.2 218.095 369.285C217.931 369.346 217.756 369.372 217.581 369.361C217.406 369.35 217.236 369.302 217.081 369.221C216.926 369.139 216.79 369.026 216.681 368.888C216.573 368.75 216.496 368.591 216.454 368.421ZM218.106 367.816C217.922 367.308 217.642 367.146 217.35 367.254C217.058 367.362 216.95 367.675 217.134 368.172C217.318 368.669 217.609 368.842 217.89 368.734C218.171 368.626 218.29 368.28 218.16 367.816H218.106ZM219.953 365.721L220.752 365.429L219.24 371.293L218.441 371.596L219.953 365.721ZM220.46 369.457C220.39 369.302 220.351 369.134 220.348 368.963C220.345 368.793 220.378 368.623 220.443 368.466C220.508 368.308 220.605 368.166 220.728 368.047C220.851 367.929 220.997 367.837 221.157 367.777C221.317 367.718 221.487 367.692 221.658 367.701C221.828 367.711 221.995 367.755 222.147 367.831C222.3 367.908 222.435 368.015 222.544 368.146C222.653 368.277 222.735 368.43 222.782 368.593C222.853 368.749 222.891 368.917 222.894 369.087C222.897 369.258 222.865 369.427 222.8 369.585C222.735 369.743 222.637 369.885 222.514 370.004C222.392 370.122 222.246 370.214 222.086 370.273C221.926 370.333 221.755 370.359 221.585 370.349C221.415 370.34 221.248 370.296 221.095 370.219C220.943 370.143 220.808 370.036 220.699 369.904C220.589 369.773 220.508 369.621 220.46 369.457ZM222.102 368.842C221.918 368.356 221.638 368.172 221.346 368.28C221.054 368.388 220.946 368.712 221.13 369.209C221.314 369.706 221.605 369.879 221.886 369.771C222.167 369.663 222.286 369.36 222.102 368.842Z" fill="white"/>
<path d="M218.408 373.421C218.319 373.223 218.292 373.003 218.329 372.789C218.367 372.575 218.469 372.377 218.621 372.222C218.773 372.067 218.968 371.961 219.181 371.918C219.394 371.875 219.615 371.898 219.815 371.983C220.015 372.067 220.184 372.211 220.302 372.393C220.419 372.576 220.479 372.79 220.473 373.007C220.466 373.224 220.395 373.434 220.268 373.61C220.14 373.786 219.963 373.92 219.758 373.993C219.633 374.047 219.497 374.075 219.36 374.076C219.223 374.076 219.087 374.049 218.961 373.995C218.835 373.942 218.721 373.863 218.626 373.765C218.531 373.666 218.457 373.549 218.408 373.421ZM219.974 372.838C219.952 372.759 219.913 372.687 219.86 372.625C219.808 372.562 219.743 372.512 219.669 372.476C219.596 372.441 219.516 372.421 219.435 372.418C219.353 372.415 219.272 372.429 219.197 372.46C219.078 372.498 218.972 372.571 218.895 372.669C218.818 372.767 218.772 372.887 218.763 373.012C218.754 373.136 218.782 373.261 218.845 373.369C218.907 373.478 219.001 373.565 219.114 373.62C219.226 373.674 219.352 373.694 219.476 373.676C219.6 373.659 219.716 373.604 219.809 373.52C219.901 373.436 219.967 373.326 219.996 373.204C220.026 373.083 220.018 372.955 219.974 372.838Z" fill="white"/>
<path d="M220.936 371.833L221.119 372.319L221.962 372.006L222.091 372.341L221.238 372.654L221.486 373.324L221.065 373.475L220.385 371.65L221.767 371.142L221.897 371.477L220.936 371.833Z" fill="white"/>
<path d="M222.61 371.218L222.782 371.704L223.625 371.39L223.754 371.725L222.912 372.038L223.16 372.708L222.728 372.859L222.059 371.034L223.441 370.526L223.56 370.861L222.61 371.218Z" fill="white"/>
<path opacity="0.5" d="M122.882 177.563L127.051 152.464C127.104 152.143 127.029 151.814 126.841 151.549C126.652 151.284 126.367 151.104 126.047 151.049L86.5296 144.493C86.3707 144.466 86.2078 144.47 86.0504 144.505C85.893 144.541 85.7442 144.607 85.6126 144.7C85.481 144.794 85.3693 144.912 85.2838 145.049C85.1984 145.186 85.1409 145.339 85.1148 145.498L83.646 154.365V160.24L86.0436 145.8L126.09 152.453L122.04 176.645L83.6244 170.262V172.293L121.424 178.567C121.586 178.602 121.754 178.603 121.916 178.57C122.079 178.538 122.233 178.472 122.369 178.378C122.506 178.284 122.621 178.164 122.71 178.023C122.798 177.883 122.857 177.727 122.882 177.563Z" fill="white"/>
<path opacity="0.5" d="M96.784 175.258L96.2001 178.774L105.821 180.372L106.405 176.856L96.784 175.258Z" fill="white"/>
<path opacity="0.5" d="M109.598 181.883L92.124 178.978C91.9567 178.953 91.7863 178.994 91.6491 179.093C91.5119 179.192 91.4187 179.34 91.3896 179.507L91.2276 180.5L109.955 183.6L110.128 182.606C110.15 182.441 110.107 182.273 110.008 182.138C109.91 182.004 109.763 181.912 109.598 181.883Z" fill="white"/>
<path opacity="0.5" d="M206.539 135.54L220.05 157.961L252.45 138.413V136.663L220.05 156.179L207.382 135.141L218.732 128.304H216.13L206.917 133.855C206.646 134.031 206.454 134.305 206.383 134.62C206.313 134.936 206.369 135.266 206.539 135.54Z" fill="white"/>
<path opacity="0.5" d="M252.482 129.417L251.813 128.304H250.69L252.482 131.274V129.417Z" fill="white"/>
<path opacity="0.5" d="M244.134 145.8C244.181 145.877 244.213 145.962 244.227 146.05C244.241 146.139 244.238 146.23 244.216 146.317C244.195 146.405 244.157 146.487 244.104 146.559C244.051 146.632 243.984 146.693 243.907 146.74L235.343 151.891C235.267 151.938 235.183 151.97 235.095 151.984C235.007 151.998 234.917 151.994 234.831 151.973C234.744 151.952 234.663 151.914 234.591 151.861C234.52 151.808 234.459 151.741 234.414 151.664L233.885 150.8L217.08 160.92L218.16 162.756C218.202 162.832 218.26 162.898 218.328 162.95C218.397 163.003 218.476 163.041 218.559 163.062C218.643 163.083 218.731 163.087 218.816 163.074C218.902 163.06 218.983 163.029 219.056 162.983L252.536 142.83V139.59L243.67 144.99L244.134 145.8Z" fill="white"/>
<path opacity="0.5" d="M206.075 172.411L197.1 177.217C196.961 177.293 196.857 177.42 196.81 177.572C196.764 177.723 196.779 177.887 196.852 178.027L201.852 187.348H202.748L197.996 178.492L206.636 173.869L213.84 187.348H214.726L206.863 172.66C206.79 172.524 206.666 172.422 206.519 172.376C206.372 172.329 206.213 172.342 206.075 172.411Z" fill="white"/>
<path opacity="0.5" d="M91.8 137.635L100.786 132.84C100.925 132.765 101.029 132.637 101.075 132.486C101.122 132.334 101.107 132.171 101.034 132.03L99.036 128.304H98.1504L99.8784 131.544L91.2384 136.167L87.0156 128.304H86.13L90.99 137.387C91.0656 137.526 91.1928 137.63 91.3442 137.677C91.4957 137.723 91.6594 137.708 91.8 137.635Z" fill="white"/>
<path opacity="0.5" d="M138.974 186.84L130.334 181.44C130.268 181.399 130.194 181.371 130.116 181.358C130.039 181.345 129.96 181.348 129.883 181.366C129.807 181.384 129.735 181.417 129.672 181.463C129.608 181.509 129.554 181.568 129.514 181.635L125.993 187.305H126.922L129.676 182.855L136.858 187.305H139.255C139.249 187.21 139.22 187.119 139.171 187.038C139.122 186.958 139.055 186.89 138.974 186.84Z" fill="white"/>
<path opacity="0.5" d="M239.533 161.104L229.446 179.15C229.383 179.259 229.343 179.379 229.328 179.504C229.312 179.629 229.322 179.755 229.356 179.876C229.39 179.997 229.448 180.11 229.527 180.208C229.605 180.306 229.703 180.387 229.813 180.446L242.158 187.348H244.739L230.645 179.474L240.44 162L252.482 168.728V167.292L240.829 160.812C240.618 160.682 240.364 160.639 240.122 160.694C239.88 160.748 239.668 160.895 239.533 161.104Z" fill="white"/>
<path opacity="0.5" d="M144.104 139.849L164.074 146.329C164.386 146.432 164.726 146.406 165.019 146.259C165.313 146.111 165.536 145.853 165.64 145.541L169.128 134.881C169.179 134.727 169.198 134.565 169.186 134.403C169.174 134.242 169.13 134.084 169.057 133.94C168.983 133.796 168.882 133.667 168.759 133.562C168.636 133.456 168.494 133.376 168.34 133.326L163.782 131.836C163.508 131.745 163.266 131.576 163.088 131.35C162.909 131.123 162.801 130.849 162.778 130.561L162.691 129.481C162.667 129.227 162.577 128.983 162.429 128.774C162.281 128.566 162.081 128.4 161.849 128.293H158.274L160.045 128.866L159.7 129.946L157.356 129.179L157.648 128.315H153.857C153.549 128.423 153.214 128.423 152.906 128.315H152.831H146.578L143.338 138.305C143.238 138.611 143.262 138.945 143.405 139.234C143.549 139.522 143.8 139.743 144.104 139.849ZM165.24 134.384L167.573 135.151L167.227 136.231L164.894 135.464L165.24 134.384ZM152.096 135.259C152.37 134.454 152.875 133.747 153.549 133.228C154.222 132.708 155.034 132.399 155.883 132.339C156.731 132.28 157.579 132.472 158.318 132.891C159.058 133.311 159.658 133.94 160.042 134.699C160.426 135.458 160.577 136.313 160.477 137.158C160.376 138.002 160.029 138.799 159.478 139.447C158.927 140.095 158.197 140.566 157.38 140.801C156.562 141.036 155.694 141.024 154.883 140.767C154.333 140.596 153.823 140.316 153.382 139.945C152.942 139.574 152.58 139.118 152.319 138.605C152.057 138.091 151.901 137.531 151.859 136.957C151.817 136.382 151.89 135.805 152.075 135.259H152.096Z" fill="white"/>
<path opacity="0.5" d="M159.635 179.95L161.87 187.348H162.788L160.909 181.127L174.388 177.055L177.498 187.348H178.416L174.798 175.36L159.635 179.95Z" fill="white"/>
<path opacity="0.5" d="M186.268 186.84L182.747 175.209C182.668 174.93 182.534 174.671 182.352 174.445C182.171 174.219 181.946 174.033 181.692 173.896C181.437 173.759 181.157 173.674 180.869 173.647C180.581 173.621 180.29 173.652 180.014 173.74L175.802 175.014L179.518 187.326H186.354C186.336 187.162 186.307 187 186.268 186.84ZM180.036 183.168C179.899 183.209 179.753 183.208 179.617 183.166C179.481 183.123 179.36 183.042 179.269 182.931C179.179 182.82 179.124 182.686 179.11 182.544C179.097 182.401 179.125 182.258 179.193 182.133C179.26 182.007 179.363 181.904 179.489 181.836C179.615 181.769 179.758 181.74 179.9 181.754C180.042 181.768 180.177 181.823 180.288 181.913C180.398 182.004 180.48 182.124 180.522 182.261C180.554 182.354 180.566 182.452 180.558 182.55C180.551 182.647 180.524 182.743 180.478 182.83C180.433 182.916 180.37 182.993 180.294 183.055C180.218 183.117 180.13 183.163 180.036 183.19V183.168ZM180.133 180.706C180.091 180.524 180.12 180.333 180.213 180.171C180.307 180.01 180.459 179.89 180.638 179.836C180.816 179.783 181.009 179.799 181.176 179.883C181.343 179.966 181.472 180.109 181.537 180.285C181.579 180.466 181.551 180.657 181.457 180.819C181.363 180.98 181.212 181.1 181.033 181.154C180.854 181.207 180.661 181.191 180.494 181.108C180.327 181.024 180.198 180.881 180.133 180.706ZM182.012 184.173C181.921 184.2 181.825 184.21 181.73 184.2C181.635 184.191 181.542 184.163 181.458 184.117C181.374 184.072 181.299 184.011 181.239 183.937C181.178 183.863 181.133 183.778 181.105 183.687C181.078 183.595 181.068 183.499 181.078 183.404C181.087 183.309 181.115 183.217 181.16 183.132C181.205 183.048 181.267 182.973 181.341 182.913C181.415 182.852 181.5 182.807 181.591 182.779C181.776 182.725 181.975 182.746 182.144 182.837C182.314 182.928 182.441 183.082 182.498 183.265C182.532 183.358 182.545 183.457 182.538 183.555C182.532 183.653 182.505 183.749 182.459 183.836C182.413 183.923 182.35 184 182.273 184.062C182.196 184.124 182.108 184.169 182.012 184.194V184.173ZM183.028 182.196C182.936 182.226 182.84 182.237 182.744 182.228C182.648 182.22 182.555 182.192 182.47 182.147C182.386 182.101 182.311 182.039 182.251 181.964C182.191 181.889 182.146 181.803 182.12 181.71C182.092 181.619 182.082 181.522 182.092 181.427C182.101 181.332 182.129 181.239 182.174 181.155C182.219 181.071 182.281 180.996 182.355 180.936C182.429 180.875 182.515 180.83 182.606 180.803C182.791 180.747 182.991 180.767 183.161 180.858C183.331 180.949 183.458 181.104 183.514 181.289C183.569 181.474 183.55 181.673 183.458 181.843C183.367 182.013 183.212 182.14 183.028 182.196Z" fill="white"/>
<path opacity="0.5" d="M154.44 181.505C154.163 181.584 153.904 181.718 153.68 181.898C153.455 182.079 153.269 182.302 153.132 182.556C152.995 182.81 152.91 183.088 152.883 183.375C152.855 183.662 152.885 183.951 152.971 184.226L153.922 187.348H156.762C156.8 187.242 156.862 187.146 156.942 187.068C157.023 186.989 157.12 186.93 157.226 186.894C157.404 186.845 157.594 186.864 157.758 186.948C157.922 187.032 158.048 187.175 158.112 187.348H160.812L158.652 180.23L154.44 181.505Z" fill="white"/>
<path opacity="0.5" d="M196.895 128.304H193.936L195.545 129.773L196.895 128.304Z" fill="white"/>
<path opacity="0.5" d="M191.873 133.823L194.854 130.583L192.37 128.315H188.428C188.45 128.426 188.445 128.54 188.415 128.649C188.385 128.757 188.33 128.858 188.255 128.941C188.118 129.075 187.934 129.15 187.742 129.15C187.55 129.15 187.366 129.075 187.229 128.941C187.14 128.857 187.074 128.751 187.038 128.633C187.002 128.516 186.997 128.392 187.024 128.272H186.17C186.224 128.399 186.24 128.538 186.217 128.674C186.194 128.81 186.133 128.936 186.041 129.039C185.904 129.172 185.72 129.247 185.528 129.247C185.336 129.247 185.152 129.172 185.015 129.039C184.907 128.937 184.832 128.806 184.801 128.661C184.77 128.516 184.784 128.365 184.842 128.229H182.596L188.784 133.92C188.992 134.12 189.237 134.276 189.506 134.379C189.774 134.482 190.061 134.531 190.349 134.522C190.637 134.513 190.92 134.446 191.181 134.326C191.443 134.206 191.678 134.035 191.873 133.823Z" fill="white"/>
<path opacity="0.5" d="M113.67 137.052L112.158 136.415C112 136.344 111.867 136.226 111.778 136.078C111.689 135.929 111.648 135.756 111.661 135.583L110.074 134.903L109.987 135.119C109.695 135.805 109.687 136.579 109.964 137.271C110.241 137.964 110.782 138.518 111.467 138.812L115.463 140.508C115.802 140.654 116.167 140.732 116.537 140.736C116.907 140.741 117.274 140.673 117.617 140.535C117.96 140.398 118.273 140.194 118.537 139.935C118.801 139.677 119.012 139.369 119.156 139.028L119.243 138.812L114.61 136.836C114.497 136.968 114.345 137.06 114.175 137.099C114.006 137.138 113.829 137.121 113.67 137.052Z" fill="white"/>
<path opacity="0.5" d="M118.066 134.417L114.07 132.721C113.73 132.575 113.365 132.498 112.995 132.493C112.626 132.488 112.259 132.557 111.916 132.694C111.572 132.832 111.26 133.035 110.996 133.294C110.731 133.553 110.521 133.861 110.376 134.201L110.29 134.417L111.877 135.097C111.991 134.966 112.142 134.874 112.311 134.833C112.479 134.793 112.656 134.806 112.817 134.871L114.329 135.519C114.487 135.589 114.62 135.707 114.709 135.856C114.798 136.005 114.838 136.177 114.826 136.35L119.459 138.316L119.545 138.111C119.691 137.771 119.769 137.406 119.774 137.036C119.778 136.667 119.71 136.3 119.573 135.956C119.435 135.613 119.231 135.301 118.973 135.036C118.714 134.772 118.406 134.562 118.066 134.417Z" fill="white"/>
<path d="M199.195 450.133H193.352L195.329 430.607H203.148L199.195 450.133Z" fill="#263238"/>
<path d="M259.47 450.133H253.627L255.604 430.607H263.423L259.47 450.133Z" fill="#263238"/>
<path d="M297.108 450.133H302.951L300.974 430.607H293.155L297.108 450.133Z" fill="#263238"/>
<path d="M236.822 450.133H242.676L240.7 430.607H232.88L236.822 450.133Z" fill="#263238"/>
<path d="M382.093 450.133H387.936L385.96 430.607H378.14L382.093 450.133Z" fill="#263238"/>
<path d="M321.808 450.133H327.661L325.685 430.607H317.855L321.808 450.133Z" fill="#263238"/>
<path opacity="0.2" d="M297.108 450.133H302.951L300.974 430.607H293.155L297.108 450.133Z" fill="white"/>
<path opacity="0.2" d="M236.822 450.133H242.676L240.7 430.607H232.88L236.822 450.133Z" fill="white"/>
<path opacity="0.2" d="M382.093 450.133H387.936L385.96 430.607H378.14L382.093 450.133Z" fill="white"/>
<path opacity="0.2" d="M321.808 450.133H327.661L325.685 430.607H317.855L321.808 450.133Z" fill="white"/>
<path d="M120.139 450.133H114.296L116.273 430.607H124.092L120.139 450.133Z" fill="#263238"/>
<path d="M180.425 450.133H174.571L176.548 430.607H184.378L180.425 450.133Z" fill="#263238"/>
<path d="M269.46 385.614H390.96L409.471 289.98C409.948 287.528 409.875 285 409.26 282.579C408.645 280.158 407.501 277.902 405.911 275.975C404.322 274.048 402.325 272.496 400.065 271.432C397.805 270.367 395.337 269.815 392.839 269.816H305.856C301.922 269.815 298.11 271.183 295.076 273.686C292.041 276.189 289.972 279.67 289.224 283.532L269.46 385.614Z" fill="#263238"/>
<path d="M356.476 385.614H391.036L409.547 289.98C410.023 287.528 409.951 285 409.336 282.579C408.72 280.158 407.577 277.902 405.987 275.975C404.397 274.048 402.401 272.496 400.141 271.432C397.881 270.367 395.413 269.815 392.915 269.816C388.981 269.815 385.169 271.183 382.134 273.686C379.099 276.189 377.03 279.67 376.283 283.532L356.476 385.614Z" fill="#263238"/>
<g opacity="0.6">
<path d="M269.46 385.614H390.96L409.471 289.98C409.948 287.528 409.875 285 409.26 282.579C408.645 280.158 407.501 277.902 405.911 275.975C404.322 274.048 402.325 272.496 400.065 271.432C397.805 270.367 395.337 269.815 392.839 269.816H305.856C301.922 269.815 298.11 271.183 295.076 273.686C292.041 276.189 289.972 279.67 289.224 283.532L269.46 385.614Z" fill="white"/>
<path d="M356.476 385.614H391.036L409.547 289.98C410.023 287.528 409.951 285 409.336 282.579C408.72 280.158 407.577 277.902 405.987 275.975C404.397 274.048 402.401 272.496 400.141 271.432C397.881 270.367 395.413 269.815 392.915 269.816C388.981 269.815 385.169 271.183 382.134 273.686C379.099 276.189 377.03 279.67 376.283 283.532L356.476 385.614Z" fill="white"/>
</g>
<path opacity="0.6" d="M269.449 385.43H356.476L376.24 283.446C376.991 279.593 379.064 276.123 382.101 273.635C385.137 271.147 388.946 269.797 392.872 269.816H305.856C301.931 269.799 298.123 271.15 295.087 273.638C292.051 276.126 289.978 279.594 289.224 283.446L269.449 385.43Z" fill="white"/>
<path d="M387.05 384.448H197.608C192.89 384.448 189.065 388.273 189.065 392.991V426.298C189.065 431.016 192.89 434.841 197.608 434.841H387.05C391.768 434.841 395.593 431.016 395.593 426.298V392.991C395.593 388.273 391.768 384.448 387.05 384.448Z" fill="#263238"/>
<path opacity="0.6" d="M307.994 384.448H197.608C192.89 384.448 189.065 388.273 189.065 392.991V426.298C189.065 431.016 192.89 434.841 197.608 434.841H307.994C312.712 434.841 316.537 431.016 316.537 426.298V392.991C316.537 388.273 312.712 384.448 307.994 384.448Z" fill="white"/>
<path opacity="0.6" d="M387.05 384.448H197.608C192.89 384.448 189.065 388.273 189.065 392.991V426.298C189.065 431.016 192.89 434.841 197.608 434.841H387.05C391.768 434.841 395.593 431.016 395.593 426.298V392.991C395.593 388.273 391.768 384.448 387.05 384.448Z" fill="white"/>
<path d="M304.042 384.448H114.599C109.881 384.448 106.056 388.273 106.056 392.991V426.298C106.056 431.016 109.881 434.841 114.599 434.841H304.042C308.76 434.841 312.584 431.016 312.584 426.298V392.991C312.584 388.273 308.76 384.448 304.042 384.448Z" fill="#263238"/>
<path opacity="0.6" d="M224.986 384.448H114.599C109.881 384.448 106.056 388.273 106.056 392.991V426.298C106.056 431.016 109.881 434.841 114.599 434.841H224.986C229.704 434.841 233.528 431.016 233.528 426.298V392.991C233.528 388.273 229.704 384.448 224.986 384.448Z" fill="white"/>
<path opacity="0.6" d="M304.042 384.448H114.599C109.881 384.448 106.056 388.273 106.056 392.991V426.298C106.056 431.016 109.881 434.841 114.599 434.841H304.042C308.76 434.841 312.584 431.016 312.584 426.298V392.991C312.584 388.273 308.76 384.448 304.042 384.448Z" fill="white"/>
<path d="M248.918 360.72C249.016 360.893 249.124 360.958 249.242 360.947C252.688 360.321 261.911 365.364 273.143 371.196L276.296 372.816C276.642 373.011 276.998 373.183 277.376 373.367C283.046 376.261 289.062 379.188 295.013 381.575C302.011 384.415 308.923 386.521 315.004 386.975C315.824 387.04 316.634 387.072 317.423 387.072C344.725 387.072 335.783 342.015 335.783 342.015L303.178 339.52L299.333 346.151L297.248 349.737L292.54 348.473C290.185 347.836 286.664 347.015 282.625 346.162L281.686 345.957C280.336 345.665 278.921 345.373 277.474 345.093C266.836 342.933 254.621 340.848 250.096 340.773C246.899 340.751 247.46 358.56 248.918 360.72Z" fill="#E4897B"/>
<path d="M282.031 344.369L275.692 375.689C275.692 375.689 297.486 393.39 316.213 386.489C334.94 379.588 329.054 347.76 329.054 347.76L306.126 333.321L297 346.065L282.031 344.369Z" fill="#407BFF"/>
<path d="M283.111 343.753L276.523 377.687L272.57 374.566L277.841 343.094L283.111 343.753Z" fill="#407BFF"/>
<path opacity="0.4" d="M272.57 374.566L276.523 377.687L276.75 376.51L277.366 373.313L280.044 359.51L282.658 346.108L282.938 344.596L283.111 343.753L277.83 343.105L277.506 345.038L275.033 359.802L273.143 371.142L272.57 374.566Z" fill="white"/>
<path opacity="0.2" d="M248.918 360.72C249.016 360.893 249.124 360.958 249.242 360.947C252.688 360.321 261.911 365.364 273.143 371.196L272.57 374.62L276.523 377.741L276.75 376.445C280.943 379.345 285.381 381.875 290.012 384.005L295.002 381.467L302.216 377.698L299.246 350.698L294.926 356.627C294.926 356.627 284.947 359.046 280.001 359.521L278.921 359.629C277.56 359.737 276.242 359.813 275 359.824C274.136 359.824 273.316 359.824 272.538 359.748C264.071 359.133 254.88 358.819 248.918 360.72Z" fill="black"/>
<path d="M180.36 378.864L180.673 385.398H181.429C182.39 385.463 184.216 385.549 186.7 385.668C200.74 386.316 235.418 387.536 250.214 384.588L318.254 385.895L303.307 359.716L209.79 374.263L181.008 378.745L180.36 378.864Z" fill="#E4897B"/>
<path d="M169.074 371.088C169.193 373.637 169.29 375.937 169.387 378.065C169.528 380.97 169.636 383.562 169.754 386.024C169.96 390.344 173.48 387.472 181.116 386.942C181.3 386.942 181.364 386.327 181.375 385.43C181.375 383.53 181.105 380.311 180.943 378.767L180.857 377.881C179.922 377.019 179.039 376.103 178.211 375.138C176.084 372.862 174.457 370.165 173.437 367.222C171.914 361.876 168.804 365.04 169.074 371.088Z" fill="#263238"/>
<path d="M284.666 361.703L292.334 388.465L307.39 387.018C307.39 387.018 350.676 398.444 338.645 336.388L306.126 333.266L296.644 357.998L284.666 361.703Z" fill="#407BFF"/>
<path d="M286.319 360.245L294.97 388.886H289.861L282.28 361.703L286.319 360.245Z" fill="#407BFF"/>
<path opacity="0.4" d="M286.319 360.245L294.97 388.886H289.861L282.28 361.703L286.319 360.245Z" fill="white"/>
<path opacity="0.2" d="M169.387 378.065C169.528 380.97 169.636 383.562 169.754 386.025C169.96 390.345 173.48 387.472 181.116 386.943C181.3 386.943 181.364 386.327 181.375 385.431C182.336 385.495 184.162 385.582 186.646 385.701C193.86 381.64 203.926 376.92 209.725 374.285L180.943 378.767L180.857 377.881C179.922 377.019 179.039 376.103 178.211 375.138L169.387 378.065Z" fill="black"/>
<path d="M250.117 340.773C251.305 340.773 250.495 360.655 249.253 360.882C243.94 361.843 171.493 383.217 171.493 383.217L169.333 376.877C169.333 376.877 238.259 340.708 250.117 340.773Z" fill="#E4897B"/>
<path d="M172.39 384.48C173.092 384.232 169.679 375.84 169.679 375.84C169.679 375.84 162.551 372.341 159.635 367.61C156.719 362.88 154.591 366.768 156.503 372.503C158.414 378.238 159.862 382.622 161.222 386.705C162.583 390.787 165.24 387.018 172.39 384.48Z" fill="#263238"/>
<path d="M339.163 336.226L339.487 341.161L305.834 334.033L307.282 328.579L339.163 336.226Z" fill="#263238"/>
<path d="M327.075 340.905L328.668 341.201L330.173 333.088L328.58 332.793L327.075 340.905Z" fill="#407BFF"/>
<path d="M313.399 336.032L320.384 337.606L321.578 332.306L314.593 330.732L313.399 336.032Z" fill="white"/>
<path d="M307.588 336.121L309.181 336.417L310.685 328.303L309.092 328.008L307.588 336.121Z" fill="#407BFF"/>
<path d="M320.976 241.92C320.976 241.92 338.018 233.626 343.656 251.467C349.294 269.309 342.068 281.632 342.068 281.632C342.068 281.632 322.337 276.566 305.716 280.098C305.716 280.098 309.301 264.892 308.448 256.165C307.595 247.439 320.976 241.92 320.976 241.92Z" fill="#263238"/>
<path d="M307.67 282.312C303.923 282.485 288.23 303.566 288.23 303.566L282.398 296.006C282.398 296.006 273.402 313.481 277.852 321.797C282.301 330.113 305.737 307.379 305.737 307.379L307.67 282.312Z" fill="#407BFF"/>
<path opacity="0.6" d="M307.67 282.312L306.126 299.16L305.726 307.39C305.726 307.39 301.871 311.116 297 315.004C289.85 320.717 280.487 326.743 277.841 321.808C273.391 313.492 282.388 296.017 282.388 296.017L288.22 303.577V303.523C289.148 302.238 304.042 282.474 307.67 282.312Z" fill="white"/>
<path opacity="0.2" d="M306.126 299.16L305.726 307.39C305.726 307.39 301.871 311.116 297 315.004C296.536 305.132 305.726 290.758 305.726 290.758L306.126 299.16Z" fill="black"/>
<path opacity="0.2" d="M288.22 303.567L289.051 305.176L286.61 314.691C286.61 314.691 293.35 308.545 289.051 302.541L288.22 303.567Z" fill="black"/>
<path d="M306.99 329.551L339.12 336.388C339.12 336.388 339.023 318.589 341.539 308.761C342.36 305.575 343.386 302.001 344.693 297.843C345.244 296.093 345.848 294.235 346.518 292.248C347.188 290.261 347.782 288.425 348.494 286.362C344.171 284.981 339.753 283.916 335.275 283.176C330.547 282.332 325.765 281.826 320.965 281.664C314.777 281.61 307.649 282.312 307.649 282.312C307.649 282.312 306.644 282.56 305.996 289.127C305.435 295.294 305.705 307.109 306.99 329.551Z" fill="#407BFF"/>
<path opacity="0.6" d="M306.99 329.54L339.12 336.388C339.12 336.388 339.12 335.999 339.12 335.308C339.26 331.171 339.347 317.196 341.507 308.772C342.09 306.504 342.781 304.02 343.613 301.277C343.937 300.197 344.282 299.052 344.693 297.864C345.244 296.104 345.848 294.246 346.507 292.259C347.166 290.272 347.771 288.446 348.494 286.384C344.17 284.992 339.753 283.909 335.275 283.144C330.546 282.305 325.765 281.8 320.965 281.632C314.766 281.632 307.649 282.28 307.649 282.28C307.649 282.28 306.634 282.528 305.996 289.094C305.435 295.304 305.705 307.109 306.99 329.54Z" fill="white"/>
<path d="M323.622 288.706C331.474 287.701 333.839 284.386 333.839 284.386C330.599 281.362 331.204 276.89 332.024 274.104C332.277 273.222 332.602 272.362 332.996 271.534L323.536 273.24C323.756 274.558 323.878 275.89 323.903 277.225C323.934 278.208 323.847 279.19 323.644 280.152C322.996 282.971 321.386 283.014 321.386 283.014C319.68 286.135 323.622 288.706 323.622 288.706Z" fill="#E4897B"/>
<path opacity="0.2" d="M323.903 277.247C323.934 278.229 323.847 279.212 323.644 280.174C327.391 279.677 330.242 276.674 332.024 274.061C332.277 273.179 332.602 272.319 332.996 271.49L323.536 273.24C323.757 274.565 323.879 275.904 323.903 277.247Z" fill="black"/>
<path d="M321.386 246.726C312.682 248.508 310.835 253.735 312.023 262.829C313.513 274.201 317.628 281.653 328.018 277.042C342.133 270.778 335.88 243.778 321.386 246.726Z" fill="#E4897B"/>
<path d="M317.52 261.198C317.087 262.639 316.485 264.024 315.727 265.324C316.056 265.63 316.462 265.841 316.902 265.932C317.342 266.024 317.799 265.993 318.222 265.842L317.52 261.198Z" fill="#DE5753"/>
<path d="M321.592 253.368C322.264 253.146 322.978 253.08 323.68 253.175C324.382 253.271 325.053 253.525 325.642 253.919" stroke="#263238" stroke-width="0.72468" stroke-linecap="round" stroke-linejoin="round"/>
<path d="M315.198 254.297C314.572 254.267 313.947 254.38 313.371 254.627C312.794 254.874 312.282 255.248 311.872 255.723" stroke="#263238" stroke-width="0.72468" stroke-linecap="round" stroke-linejoin="round"/>
<path d="M333.893 259.448C333.893 259.448 328.363 253.13 327.856 247.493C327.856 247.493 309.172 243.961 311.893 261.641C311.893 261.641 307.033 246.445 321.926 243.043C336.82 239.641 341.215 261.544 334.822 269.633C334.8 269.633 337.316 263.412 333.893 259.448Z" fill="#263238"/>
<path d="M332.845 261.576C332.726 260.554 333.016 259.527 333.651 258.718C334.286 257.908 335.216 257.383 336.236 257.256C339.001 256.997 341.41 262.267 334.973 264.967C334.055 265.356 333.32 264.524 332.845 261.576Z" fill="#E4897B"/>
<path d="M318.492 268.445C319.232 269.241 319.914 270.089 320.533 270.983L321.052 270.734C323.384 269.59 324.086 268.283 324.162 267.192C324.182 266.346 323.912 265.519 323.395 264.848C322.273 266.212 320.869 267.317 319.28 268.088C318.805 268.304 318.492 268.445 318.492 268.445Z" fill="#263238"/>
<path d="M319.28 268.045L319.907 268.78C322.067 267.7 323.492 266.62 323.86 265.637C323.743 265.353 323.587 265.088 323.395 264.848C322.268 266.196 320.865 267.287 319.28 268.045Z" fill="white"/>
<path d="M321.052 270.735C323.384 269.59 324.086 268.283 324.162 267.192C323.285 267.643 322.495 268.247 321.829 268.974C321.39 269.464 321.117 270.08 321.052 270.735Z" fill="#DE5753"/>
<path d="M321.7 247.32C321.7 247.32 328.126 260.917 337.1 258.898C346.075 256.878 328.46 241.618 328.46 241.618C328.46 241.618 312.617 239.069 306.947 248.357C301.277 257.645 311.882 261.641 311.882 261.641C311.882 261.641 309.074 250.668 321.7 247.32Z" fill="#263238"/>
<path d="M321.581 246.316C321.581 246.316 322.51 256.306 330.34 258.282" stroke="#263238" stroke-width="0.5" stroke-linecap="round" stroke-linejoin="round"/>
<path d="M322.639 259.87C322.639 260.561 323.06 261.101 323.525 261.09C323.989 261.079 324.335 260.496 324.302 259.805C324.27 259.114 323.881 258.574 323.428 258.584C322.974 258.595 322.618 259.2 322.639 259.87Z" fill="#263238"/>
<path d="M323.622 258.617L322.088 258.088C322.088 258.088 322.92 259.319 323.622 258.617Z" fill="#263238"/>
<path d="M314.053 260.075C314.053 260.766 314.474 261.306 314.939 261.284C315.403 261.263 315.749 260.69 315.716 259.999C315.684 259.308 315.295 258.768 314.831 258.79C314.366 258.811 314.021 259.384 314.053 260.075Z" fill="#263238"/>
<path d="M315.025 258.811L313.502 258.282C313.502 258.282 314.28 259.513 315.025 258.811Z" fill="#263238"/>
<path d="M301.946 296.233C301.964 296.348 301.956 296.465 301.923 296.577C301.89 296.688 301.833 296.791 301.755 296.878C301.678 296.964 301.582 297.033 301.475 297.078C301.368 297.124 301.253 297.145 301.136 297.14H292.097C291.849 297.129 291.613 297.032 291.428 296.867C291.243 296.702 291.121 296.478 291.082 296.233L289.062 278.413C289.037 278.288 289.039 278.158 289.068 278.033C289.097 277.908 289.152 277.791 289.23 277.689C289.307 277.587 289.406 277.502 289.518 277.441C289.631 277.38 289.755 277.343 289.883 277.333H298.912C299.181 277.366 299.43 277.492 299.615 277.689C299.801 277.886 299.911 278.143 299.927 278.413L301.946 296.233Z" fill="#263238"/>
<path opacity="0.5" d="M298.933 278.294L300.974 296.298C301 296.403 301.001 296.512 300.977 296.617C300.952 296.722 300.903 296.819 300.833 296.902C300.764 296.984 300.676 297.048 300.576 297.09C300.477 297.131 300.369 297.149 300.262 297.14H292.604C292.086 297.14 291.146 296.86 291.092 296.352L289.051 278.294C288.986 277.787 289.872 277.387 290.38 277.387H298.08C298.309 277.406 298.524 277.509 298.681 277.677C298.839 277.844 298.929 278.064 298.933 278.294Z" fill="white"/>
<path d="M283.025 297.724L287.734 289.732C287.697 287.995 287.83 286.259 288.133 284.548C288.544 283.554 293.155 281.308 294.062 281.664C294.97 282.021 295.304 290.229 294.473 291.384C293.641 292.54 290.768 293.728 290.768 293.728L290.963 295.294L288.22 303.61L283.025 297.724Z" fill="#E4897B"/>
<path d="M281.135 296.816L282.701 295.25L290.11 303.566L289.051 306.86L281.135 296.816Z" fill="#407BFF"/>
<path opacity="0.2" d="M318.686 310.101C318.686 310.101 327.402 329.962 338.645 336.388C338.785 332.251 339.401 317.185 341.561 308.761C342.144 306.493 342.835 304.009 343.667 301.266L340.2 297.151C340.2 297.151 337.835 304.506 338.882 310.889L325.771 302.854L318.686 310.101Z" fill="black"/>
<path d="M327.121 305.543L316.44 297.141C315.82 295.325 315.062 293.559 314.172 291.859C313.513 291.082 304.139 287.615 303.372 287.539C302.605 287.464 303.372 295.229 304.549 296.557C305.726 297.886 313.276 300.489 313.276 300.489L324.443 311.04L327.121 305.543Z" fill="#E4897B"/>
<path d="M348.516 286.362C354.802 289.516 357.599 325.004 346.691 331.128C335.783 337.252 319.464 309.528 319.464 309.528L325.804 302.8C325.804 302.8 339.088 313.924 340.686 312.908C342.284 311.893 340.47 301.028 340.47 301.028C340.47 301.028 338.602 297.734 342.533 292.561C346.464 287.388 348.516 286.362 348.516 286.362Z" fill="#407BFF"/>
<path opacity="0.6" d="M348.516 286.362C354.802 289.516 357.599 325.004 346.691 331.128C335.783 337.252 319.464 309.528 319.464 309.528L325.804 302.8C325.804 302.8 339.088 313.924 340.686 312.908C342.284 311.893 340.47 301.028 340.47 301.028C340.47 301.028 338.602 297.734 342.533 292.561C346.464 287.388 348.516 286.362 348.516 286.362Z" fill="white"/>
<path d="M319.345 312.034L317.444 310.9L324.562 300.467L327.175 301.914L319.345 312.034Z" fill="#407BFF"/>
<path d="M384.167 329.659H417.647C417.859 329.659 418.062 329.743 418.212 329.893C418.362 330.043 418.446 330.246 418.446 330.458V359.435H383.4V330.48C383.394 330.27 383.471 330.066 383.615 329.912C383.758 329.759 383.957 329.668 384.167 329.659Z" fill="#263238"/>
<path d="M415.8 330.588H385.117C384.39 330.588 383.8 331.178 383.8 331.906V357.199C383.8 357.927 384.39 358.517 385.117 358.517H415.8C416.528 358.517 417.118 357.927 417.118 357.199V331.906C417.118 331.178 416.528 330.588 415.8 330.588Z" fill="#407BFF"/>
<path opacity="0.2" d="M415.8 330.588H385.117C384.39 330.588 383.8 331.178 383.8 331.906V357.199C383.8 357.927 384.39 358.517 385.117 358.517H415.8C416.528 358.517 417.118 357.927 417.118 357.199V331.906C417.118 331.178 416.528 330.588 415.8 330.588Z" fill="black"/>
<path d="M413.64 330.588H382.957C382.23 330.588 381.64 331.178 381.64 331.906V357.199C381.64 357.927 382.23 358.517 382.957 358.517H413.64C414.368 358.517 414.958 357.927 414.958 357.199V331.906C414.958 331.178 414.368 330.588 413.64 330.588Z" fill="#407BFF"/>
<path opacity="0.7" d="M413.64 330.588H382.957C382.23 330.588 381.64 331.178 381.64 331.906V357.199C381.64 357.927 382.23 358.517 382.957 358.517H413.64C414.368 358.517 414.958 357.927 414.958 357.199V331.906C414.958 331.178 414.368 330.588 413.64 330.588Z" fill="white"/>
<path d="M382.957 330.588H413.64C413.813 330.588 413.984 330.622 414.144 330.688C414.304 330.755 414.449 330.852 414.572 330.974C414.694 331.096 414.791 331.242 414.857 331.401C414.924 331.561 414.958 331.733 414.958 331.906V340.2H381.64V331.917C381.638 331.743 381.671 331.57 381.737 331.409C381.802 331.248 381.899 331.101 382.022 330.978C382.144 330.854 382.29 330.756 382.45 330.689C382.611 330.623 382.783 330.588 382.957 330.588Z" fill="#407BFF"/>
<path d="M388.66 338.267V335.578L387.331 337.803H386.996L385.657 335.643V338.299H384.944V334.239H385.56L387.169 336.928L388.757 334.239H389.372V338.299L388.66 338.267Z" fill="white"/>
<path d="M390.172 336.237C390.157 335.806 390.27 335.382 390.498 335.017C390.726 334.652 391.058 334.363 391.451 334.188C391.844 334.013 392.281 333.959 392.705 334.034C393.129 334.108 393.521 334.308 393.83 334.607C394.14 334.906 394.353 335.29 394.443 335.711C394.533 336.132 394.494 336.57 394.333 336.969C394.172 337.368 393.896 337.71 393.539 337.951C393.182 338.192 392.762 338.321 392.332 338.321C392.052 338.331 391.772 338.285 391.511 338.185C391.249 338.084 391.01 337.932 390.809 337.738C390.607 337.543 390.447 337.31 390.337 337.052C390.228 336.794 390.171 336.517 390.172 336.237ZM393.79 336.237C393.79 335.955 393.706 335.679 393.549 335.445C393.393 335.21 393.17 335.027 392.91 334.919C392.649 334.812 392.362 334.783 392.086 334.838C391.809 334.893 391.555 335.029 391.356 335.229C391.157 335.428 391.021 335.682 390.966 335.958C390.911 336.235 390.939 336.522 391.047 336.782C391.155 337.043 391.338 337.265 391.572 337.422C391.806 337.579 392.082 337.662 392.364 337.662C392.553 337.668 392.741 337.635 392.917 337.566C393.092 337.496 393.252 337.392 393.385 337.258C393.519 337.124 393.624 336.965 393.693 336.789C393.763 336.613 393.796 336.425 393.79 336.237Z" fill="white"/>
<path d="M398.952 334.206V338.267H398.336L396.09 335.513V338.267H395.345V334.206H395.96L398.207 336.949V334.206H398.952Z" fill="white"/>
<path d="M400.043 334.206H401.814C402.098 334.177 402.385 334.207 402.657 334.296C402.929 334.385 403.179 334.529 403.391 334.721C403.603 334.912 403.773 335.146 403.889 335.407C404.005 335.668 404.065 335.951 404.065 336.236C404.065 336.522 404.005 336.805 403.889 337.066C403.773 337.327 403.603 337.561 403.391 337.752C403.179 337.944 402.929 338.088 402.657 338.177C402.385 338.266 402.098 338.296 401.814 338.267H400.043V334.206ZM401.782 337.63C401.965 337.63 402.146 337.594 402.315 337.524C402.484 337.454 402.637 337.351 402.767 337.222C402.896 337.092 402.999 336.939 403.069 336.77C403.139 336.601 403.175 336.419 403.175 336.236C403.175 336.054 403.139 335.872 403.069 335.703C402.999 335.534 402.896 335.381 402.767 335.251C402.637 335.122 402.484 335.019 402.315 334.949C402.146 334.879 401.965 334.843 401.782 334.843H400.788V337.63H401.782Z" fill="white"/>
<path d="M407.398 337.327H405.367L404.968 338.267H404.19L406.015 334.206H406.76L408.596 338.267H407.808L407.398 337.327ZM407.149 336.733L406.382 334.962L405.626 336.733H407.149Z" fill="white"/>
<path d="M410.616 336.83V338.267H409.86V336.841L408.24 334.206H409.039L410.227 336.182L411.437 334.206H412.171L410.616 336.83Z" fill="white"/>
<path d="M397.332 351C397.332 352.75 396.014 354.24 393.228 354.24C391.833 354.271 390.466 353.85 389.329 353.041L390.161 351.54C391.026 352.218 392.097 352.58 393.196 352.566C394.578 352.566 395.356 351.951 395.356 350.989C395.356 350.028 394.675 349.456 393.109 349.456H392.159V348.138L394.513 345.33H389.88V343.721H396.943V345.006L394.427 347.998C396.36 348.322 397.332 349.488 397.332 351Z" fill="#407BFF"/>
<path d="M398.585 348.97C398.585 345.557 400.453 343.635 402.905 343.635C405.356 343.635 407.225 345.557 407.225 348.97C407.225 352.383 405.356 354.305 402.905 354.305C400.453 354.305 398.585 352.372 398.585 348.97ZM405.313 348.97C405.313 346.464 404.341 345.309 402.916 345.309C401.49 345.309 400.529 346.464 400.529 348.97C400.529 351.475 401.512 352.631 402.916 352.631C404.32 352.631 405.313 351.475 405.313 348.97Z" fill="#407BFF"/>
<path d="M391.63 331.96C391.4 331.96 391.181 331.869 391.019 331.707C390.857 331.545 390.766 331.325 390.766 331.096V329.681C390.766 329.452 390.857 329.232 391.019 329.07C391.181 328.908 391.4 328.817 391.63 328.817H392.569C392.798 328.817 393.018 328.908 393.18 329.07C393.342 329.232 393.433 329.452 393.433 329.681V330.588H394.2V329.681C394.197 329.249 394.024 328.836 393.719 328.531C393.414 328.226 393.001 328.053 392.569 328.05H391.63C391.199 328.053 390.787 328.226 390.483 328.532C390.18 328.837 390.01 329.25 390.01 329.681V331.096C390.01 331.526 390.18 331.939 390.483 332.245C390.787 332.551 391.199 332.724 391.63 332.726C391.685 332.736 391.742 332.733 391.797 332.718C391.851 332.703 391.902 332.676 391.945 332.64C391.988 332.603 392.023 332.558 392.047 332.507C392.071 332.455 392.083 332.4 392.083 332.343C392.083 332.287 392.071 332.231 392.047 332.179C392.023 332.128 391.988 332.083 391.945 332.046C391.902 332.01 391.851 331.983 391.797 331.968C391.742 331.953 391.685 331.95 391.63 331.96Z" fill="#263238"/>
<path d="M402.43 331.96C402.2 331.96 401.981 331.869 401.819 331.707C401.657 331.545 401.566 331.325 401.566 331.096V329.681C401.566 329.452 401.657 329.232 401.819 329.07C401.981 328.908 402.2 328.817 402.43 328.817H403.369C403.598 328.817 403.818 328.908 403.98 329.07C404.142 329.232 404.233 329.452 404.233 329.681V330.588H405V329.681C404.997 329.249 404.824 328.836 404.519 328.531C404.214 328.226 403.801 328.053 403.369 328.05H402.43C401.999 328.053 401.587 328.226 401.283 328.532C400.98 328.837 400.81 329.25 400.81 329.681V331.096C400.81 331.526 400.98 331.939 401.283 332.245C401.587 332.551 401.999 332.724 402.43 332.726C402.485 332.736 402.542 332.733 402.597 332.718C402.651 332.703 402.702 332.676 402.745 332.64C402.788 332.603 402.823 332.558 402.847 332.507C402.871 332.455 402.883 332.4 402.883 332.343C402.883 332.287 402.871 332.231 402.847 332.179C402.823 332.128 402.788 332.083 402.745 332.046C402.702 332.01 402.651 331.983 402.597 331.968C402.542 331.953 402.485 331.95 402.43 331.96Z" fill="#263238"/>
<path d="M420.358 360.472V360.105C420.359 359.985 420.337 359.866 420.291 359.756C420.246 359.645 420.18 359.544 420.095 359.46C420.011 359.375 419.91 359.309 419.799 359.263C419.689 359.218 419.57 359.196 419.45 359.197H381.812C381.572 359.197 381.341 359.293 381.171 359.463C381.001 359.633 380.905 359.864 380.905 360.105V360.472H420.358Z" fill="#263238"/>
<path d="M435.1 306.45H431.017V360.925H435.1V306.45Z" fill="#263238"/>
<path d="M454.864 325.166H411.242L414.774 294.3H451.332L454.864 325.166Z" fill="#407BFF"/>
<g opacity="0.6">
<path d="M454.864 325.166H411.242L414.774 294.3H451.332L454.864 325.166Z" fill="white"/>
</g>
<path opacity="0.2" d="M435.1 337.597V360.925H431.006V335.038L435.1 337.597Z" fill="white"/>
<path d="M425.909 358.528H440.208L442.757 360.925H423.36L425.909 358.528Z" fill="#407BFF"/>
<path opacity="0.2" d="M425.909 358.528H440.208L442.757 360.925H423.36L425.909 358.528Z" fill="white"/>
<path d="M455.08 360.526H374.836V450.133H455.08V360.526Z" fill="#407BFF"/>
<path opacity="0.2" d="M455.09 360.526H430.466V450.133H455.09V360.526Z" fill="black"/>
<path opacity="0.2" d="M424.98 364.5H378.832V381.856H424.98V364.5Z" fill="white"/>
<path opacity="0.2" d="M424.98 386.1H378.832V403.456H424.98V386.1Z" fill="white"/>
<path opacity="0.2" d="M424.98 407.7H378.832V445.208H424.98V407.7Z" fill="white"/>
<path opacity="0.2" d="M402.538 367.848C402.502 368.307 402.295 368.735 401.958 369.047C401.62 369.359 401.178 369.533 400.718 369.533C400.258 369.533 399.815 369.359 399.478 369.047C399.14 368.735 398.933 368.307 398.898 367.848C398.879 367.597 398.911 367.345 398.994 367.108C399.077 366.87 399.208 366.652 399.379 366.468C399.549 366.283 399.757 366.136 399.987 366.035C400.218 365.935 400.466 365.883 400.718 365.883C400.969 365.883 401.218 365.935 401.449 366.035C401.679 366.136 401.886 366.283 402.057 366.468C402.228 366.652 402.359 366.87 402.442 367.108C402.524 367.345 402.557 367.597 402.538 367.848Z" fill="black"/>
<path opacity="0.2" d="M402.538 388.681C402.502 389.14 402.295 389.568 401.958 389.88C401.62 390.193 401.178 390.366 400.718 390.366C400.258 390.366 399.815 390.193 399.478 389.88C399.14 389.568 398.933 389.14 398.898 388.681C398.879 388.431 398.911 388.179 398.994 387.941C399.077 387.703 399.208 387.486 399.379 387.301C399.549 387.116 399.757 386.969 399.987 386.868C400.218 386.768 400.466 386.716 400.718 386.716C400.969 386.716 401.218 386.768 401.449 386.868C401.679 386.969 401.886 387.116 402.057 387.301C402.228 387.486 402.359 387.703 402.442 387.941C402.524 388.179 402.557 388.431 402.538 388.681Z" fill="black"/>
<path opacity="0.2" d="M382.882 426.449C382.882 426.81 382.775 427.163 382.574 427.463C382.373 427.763 382.088 427.997 381.755 428.135C381.421 428.273 381.054 428.31 380.7 428.239C380.346 428.169 380.021 427.995 379.766 427.74C379.511 427.484 379.337 427.159 379.266 426.805C379.196 426.451 379.232 426.084 379.37 425.75C379.508 425.417 379.742 425.132 380.042 424.931C380.343 424.731 380.695 424.624 381.056 424.624C381.54 424.624 382.005 424.816 382.347 425.158C382.689 425.501 382.882 425.965 382.882 426.449Z" fill="black"/>
</svg>
