<svg width="40" height="40" viewBox="0 0 40 40" fill="none" xmlns="http://www.w3.org/2000/svg">
<path d="M35.2344 20H30.2344C29.5713 20 28.9354 20.2634 28.4666 20.7323C27.9978 21.2011 27.7344 21.837 27.7344 22.5V28.75C27.7344 29.4131 27.9978 30.049 28.4666 30.5178C28.9354 30.9866 29.5713 31.25 30.2344 31.25H32.7344C33.3974 31.25 34.0333 30.9866 34.5021 30.5178C34.971 30.049 35.2344 29.4131 35.2344 28.75V20ZM35.2344 20C35.2344 18.0196 34.8424 16.0588 34.0807 14.2308C33.3191 12.4027 32.203 10.7435 30.7969 9.34899C29.3907 7.95447 27.7224 6.85219 25.888 6.10576C24.0537 5.35933 22.0897 4.98353 20.1094 5.00003C18.1304 4.9856 16.1681 5.36294 14.3355 6.11029C12.503 6.85765 10.8365 7.96026 9.432 9.35457C8.02751 10.7489 6.91283 12.4074 6.15218 14.2344C5.39153 16.0615 4.99995 18.021 5 20V28.75C5 29.4131 5.26339 30.049 5.73223 30.5178C6.20107 30.9866 6.83696 31.25 7.5 31.25H10C10.663 31.25 11.2989 30.9866 11.7678 30.5178C12.2366 30.049 12.5 29.4131 12.5 28.75V22.5C12.5 21.837 12.2366 21.2011 11.7678 20.7323C11.2989 20.2634 10.663 20 10 20H5" stroke="#3A41E9" stroke-width="2" stroke-linecap="round" stroke-linejoin="round"/>
<path d="M35.2344 28.75V32.5C35.2344 33.8261 34.7076 35.0979 33.7699 36.0355C32.8322 36.9732 31.5605 37.5 30.2344 37.5H21.25" stroke="#3A41E9" stroke-width="2" stroke-linecap="round" stroke-linejoin="round"/>
</svg>
