<svg width="184" height="184" viewBox="0 0 184 184" fill="none" xmlns="http://www.w3.org/2000/svg">
<path d="M47.84 154.928H159.234C160.396 153.611 161.769 151.428 162.108 150.976C165.496 146.398 168.311 141.422 170.491 136.16C179.426 114.75 177.851 89.8584 168.47 68.8161C161.515 53.2424 149.356 39.7993 132.256 33.098C116.479 26.912 94.7195 25.3075 81.3206 36.778C67.9217 48.2486 70.1224 68.5033 56.6646 79.9702C56.2966 80.2904 55.9029 80.5995 55.5091 80.8976C48.1786 86.3955 38.0954 86.2777 29.3811 88.5372C20.3394 90.8851 12.041 96.7547 8.90192 105.097C4.75456 116.137 8.50448 128.774 14.915 138.416C22.735 150.174 34.6619 153.53 47.84 154.928Z" fill="#D5B7FF"/>
<path opacity="0.7" d="M47.84 154.928H159.234C160.396 153.611 161.769 151.428 162.108 150.976C165.496 146.398 168.311 141.422 170.491 136.16C179.426 114.75 177.851 89.8584 168.47 68.8161C161.515 53.2424 149.356 39.7993 132.256 33.098C116.479 26.912 94.7195 25.3075 81.3206 36.778C67.9217 48.2486 70.1224 68.5033 56.6646 79.9702C56.2966 80.2904 55.9029 80.5995 55.5091 80.8976C48.1786 86.3955 38.0954 86.2777 29.3811 88.5372C20.3394 90.8851 12.041 96.7547 8.90192 105.097C4.75456 116.137 8.50448 128.774 14.915 138.416C22.735 150.174 34.6619 153.53 47.84 154.928Z" fill="white"/>
<path d="M123.865 29.0718H81.2139L80.6509 34.934H123.865V29.0718Z" stroke="#A3A3A3" stroke-miterlimit="10"/>
<path d="M123.865 34.9341H81.2139L80.6509 40.8H123.865V34.9341Z" stroke="#A3A3A3" stroke-miterlimit="10"/>
<path d="M123.865 40.8H81.2139L80.6509 46.6623H123.865V40.8Z" stroke="#A3A3A3" stroke-miterlimit="10"/>
<path d="M123.865 46.6624H81.2139L80.6509 52.5246H123.865V46.6624Z" stroke="#A3A3A3" stroke-miterlimit="10"/>
<path d="M123.865 52.5244H81.2139L80.6509 58.3903H123.865V52.5244Z" stroke="#A3A3A3" stroke-miterlimit="10"/>
<path d="M123.865 58.3904H81.2139L80.6509 64.2526H123.865V58.3904Z" stroke="#A3A3A3" stroke-miterlimit="10"/>
<path d="M123.865 64.2527H81.2139L80.6509 70.1149H123.865V64.2527Z" stroke="#A3A3A3" stroke-miterlimit="10"/>
<path d="M123.865 70.115H81.2139L80.6509 75.9809H123.865V70.115Z" stroke="#A3A3A3" stroke-miterlimit="10"/>
<path d="M123.865 75.981H81.2139L80.6509 81.8432H123.865V75.981Z" stroke="#A3A3A3" stroke-miterlimit="10"/>
<path d="M123.865 81.843H81.2139L80.6509 87.7053H123.865V81.843Z" stroke="#A3A3A3" stroke-miterlimit="10"/>
<path d="M123.865 87.7053H81.2139L80.6509 93.5712H123.865V87.7053Z" stroke="#A3A3A3" stroke-miterlimit="10"/>
<path d="M123.865 93.5713H81.2139L80.6509 99.4335H123.865V93.5713Z" stroke="#A3A3A3" stroke-miterlimit="10"/>
<path d="M123.865 99.4336H81.2139L80.6509 105.296H123.865V99.4336Z" stroke="#A3A3A3" stroke-miterlimit="10"/>
<path d="M123.865 105.296H81.2139L80.6509 111.162H123.865V105.296Z" stroke="#A3A3A3" stroke-miterlimit="10"/>
<path d="M123.865 111.162H81.2139L80.6509 117.024H123.865V111.162Z" stroke="#A3A3A3" stroke-miterlimit="10"/>
<path d="M167.705 29.0718H125.057L124.494 34.934H167.705V29.0718Z" stroke="#A3A3A3" stroke-miterlimit="10"/>
<path d="M167.705 34.9341H125.057L124.494 40.8H167.705V34.9341Z" stroke="#A3A3A3" stroke-miterlimit="10"/>
<path d="M167.705 40.8H125.057L124.494 46.6623H167.705V40.8Z" stroke="#A3A3A3" stroke-miterlimit="10"/>
<path d="M167.705 46.6624H125.057L124.494 52.5246H167.705V46.6624Z" stroke="#A3A3A3" stroke-miterlimit="10"/>
<path d="M167.705 52.5244H125.057L124.494 58.3903H167.705V52.5244Z" stroke="#A3A3A3" stroke-miterlimit="10"/>
<path d="M167.705 58.3904H125.057L124.494 64.2526H167.705V58.3904Z" stroke="#A3A3A3" stroke-miterlimit="10"/>
<path d="M167.705 64.2527H125.057L124.494 70.1149H167.705V64.2527Z" stroke="#A3A3A3" stroke-miterlimit="10"/>
<path d="M167.705 70.115H125.057L124.494 75.9809H167.705V70.115Z" stroke="#A3A3A3" stroke-miterlimit="10"/>
<path d="M167.705 75.981H125.057L124.494 81.8432H167.705V75.981Z" stroke="#A3A3A3" stroke-miterlimit="10"/>
<path d="M167.705 81.843H125.057L124.494 87.7053H167.705V81.843Z" stroke="#A3A3A3" stroke-miterlimit="10"/>
<path d="M167.705 87.7053H125.057L124.494 93.5712H167.705V87.7053Z" stroke="#A3A3A3" stroke-miterlimit="10"/>
<path d="M167.705 93.5713H125.057L124.494 99.4335H167.705V93.5713Z" stroke="#A3A3A3" stroke-miterlimit="10"/>
<path d="M167.705 99.4336H125.057L124.494 105.296H167.705V99.4336Z" stroke="#A3A3A3" stroke-miterlimit="10"/>
<path d="M167.705 105.296H125.057L124.494 111.162H167.705V105.296Z" stroke="#A3A3A3" stroke-miterlimit="10"/>
<path d="M167.705 111.162H125.057L124.494 117.024H167.705V111.162Z" stroke="#A3A3A3" stroke-miterlimit="10"/>
<path d="M169.843 24.5308H79.6536V28.9541H169.843V24.5308Z" stroke="#A3A3A3" stroke-miterlimit="10"/>
<path d="M169.843 28.9541V106.856" stroke="#A3A3A3" stroke-miterlimit="10"/>
<path d="M168.86 29.0793V82.5277" stroke="#A3A3A3" stroke-miterlimit="10"/>
<path d="M170.48 106.683H169.269V108.667H170.48V106.683Z" fill="#263238" stroke="#A3A3A3" stroke-miterlimit="10"/>
<path d="M169.39 82.1006H168.176V84.0841H169.39V82.1006Z" fill="#263238" stroke="#A3A3A3" stroke-miterlimit="10"/>
<path d="M64.032 32.752H17.664V90.528H64.032V32.752Z" stroke="#A3A3A3" stroke-miterlimit="10"/>
<path d="M62.8507 34.2239H18.8453V89.0559H62.8507V34.2239Z" stroke="#A3A3A3" stroke-miterlimit="10"/>
<path d="M48.944 51.553H32.752V71.7304H48.944V51.553Z" fill="#D6D6D6"/>
<path d="M55.936 146.096C55.936 146.096 56.1016 140.175 55.8918 135.082C55.6821 129.989 56.1053 119.066 56.1053 119.066" stroke="#263238" stroke-miterlimit="10"/>
<path d="M56.0059 125.495L53.6912 123.677" stroke="#263238" stroke-miterlimit="10"/>
<path d="M55.9838 126.75L56.8045 125.418" stroke="#263238" stroke-miterlimit="10"/>
<path d="M55.7925 132.016L57.8496 130.32" stroke="#263238" stroke-miterlimit="10"/>
<path d="M56.1053 121.311L55.0197 120.325" stroke="#263238" stroke-miterlimit="10"/>
<path d="M55.7741 132.944L54.4162 131.486" stroke="#263238" stroke-miterlimit="10"/>
<path d="M55.8955 138.659L53.0693 136.083" stroke="#263238" stroke-miterlimit="10"/>
<path d="M55.9654 141.835C56.6866 141.559 57.3875 141.233 58.063 140.859" stroke="#263238" stroke-miterlimit="10"/>
<path d="M54.4088 126.412C53.2717 125.532 49.4666 125.676 48.7306 127.516C47.9946 129.356 50.3166 132.3 52.5614 132.097C53.4373 132.016 53.8163 131.954 54.1586 131.464L51.0306 128.406L54.4162 131.126C54.5143 130.95 54.5921 130.764 54.648 130.57C54.6885 130.434 54.7216 130.29 54.7547 130.136C54.9718 129.043 55.4686 127.232 54.4088 126.412Z" fill="#D5B7FF"/>
<path d="M61.7688 124.299C61.7701 124.32 61.7701 124.341 61.7688 124.362C61.4634 125.72 59.9104 126.489 58.604 126.375C58.4224 126.357 58.2427 126.324 58.0667 126.275C57.762 126.762 57.5734 127.312 57.5153 127.883C57.4572 128.454 57.5313 129.031 57.7318 129.569C57.7876 129.721 57.8617 129.866 57.9526 130C58.3206 129.687 62.4533 126.172 62.4533 126.172L58.1808 130.29C59.4651 131.67 62.4901 131.483 63.5426 128.925C64.595 126.367 63.2518 124.664 61.7688 124.299Z" fill="#D5B7FF"/>
<path d="M59.6749 119.548C57.4669 119.059 55.476 120.067 55.5128 122.378C55.5214 122.891 55.6353 123.396 55.8474 123.862C56.0595 124.329 56.3652 124.747 56.7456 125.09L59.0051 121.955L57.0842 125.352C57.2649 125.473 57.4572 125.577 57.6582 125.661C57.9391 125.775 58.2357 125.846 58.5378 125.871C59.8405 125.985 61.3934 125.216 61.7026 123.858C62.0448 122.338 61.8902 120.034 59.6749 119.548Z" fill="#D5B7FF"/>
<path d="M57.0878 111.504C56.5268 111.729 55.9778 111.984 55.4429 112.266C54.0261 112.958 52.9074 115.21 54.0261 117.12C54.4174 117.899 55.0974 118.494 55.9213 118.779L56.488 113.259L56.2598 118.864C56.3675 118.876 56.4761 118.876 56.5837 118.864C57.5037 118.768 58.961 117.668 59.1008 115.408C59.2406 113.149 57.0878 111.504 57.0878 111.504Z" fill="#D5B7FF"/>
<path d="M50.6147 116.516L54.8909 119.935C54.9373 119.778 54.9511 119.614 54.9314 119.453C54.7363 117.495 52.7822 116.361 51.4906 115.953C50.1989 115.544 49.3083 116.273 50.1363 118.161C50.9643 120.049 53.1429 120.928 54.1144 120.656C54.3451 120.6 54.5516 120.471 54.7032 120.288L50.6147 116.516Z" fill="#D5B7FF"/>
<path d="M53.5587 120.899C52.635 120.928 51.141 120.27 50.2688 119C49.8176 118.961 49.3691 119.099 49.0176 119.385C48.6662 119.671 48.4392 120.081 48.3846 120.531C47.9504 122.573 49.4261 124.708 51.5531 124.446C52.2146 124.411 52.8425 124.144 53.3269 123.692L49.5218 120.222L53.5918 123.324C53.6727 123.178 53.724 123.018 53.7427 122.853C53.8748 122.198 53.8108 121.518 53.5587 120.899Z" fill="#D5B7FF"/>
<path d="M53.5366 132.241C53.1867 132.392 52.8131 132.48 52.4326 132.502C51.0416 132.631 49.6248 131.542 48.9182 130.261C48.0645 130.401 47.3837 130.857 47.2181 131.792C46.7986 134.18 49.0066 137.312 51.2403 136.83C51.8213 136.715 52.3589 136.441 52.7933 136.039L47.9173 131.35L53.0693 135.722C53.3647 135.344 53.5551 134.895 53.6213 134.419C53.8677 133.708 53.8375 132.931 53.5366 132.241Z" fill="#D5B7FF"/>
<path d="M63.3438 137.139C61.7062 135.244 59.7522 136.94 59.7522 136.94C59.7522 136.94 58.5562 137.338 58.1072 139.03C57.9641 139.545 57.9847 140.092 58.1661 140.594L63.0973 137.72L58.2838 140.863C58.7328 141.713 59.7117 142.236 61.0549 141.857C63.2261 141.249 64.9851 139.038 63.3438 137.139Z" fill="#D5B7FF"/>
<path d="M59.259 144.315H52.4326V154.424H59.259V144.315Z" fill="#263238"/>
<path d="M112.457 114.882L112.192 112.836C111.905 110.886 111.162 105.778 111.162 105.285C111.162 104.678 108.343 102.926 108.343 102.926L104.95 107.754L102.62 112.299C102.62 112.299 104.118 113.657 105.447 114.654C106.315 115.277 107.3 115.718 108.343 115.95L115.132 139.237L119.699 130.007L112.457 114.882Z" fill="white" stroke="#263238" stroke-linecap="round" stroke-linejoin="round"/>
<path d="M106.275 95.7945L101.394 96.035C100.387 96.0846 99.6111 96.941 99.6607 97.9478L100.31 111.136C100.36 112.143 101.216 112.919 102.223 112.869L107.104 112.629C108.111 112.579 108.887 111.722 108.838 110.716L108.188 97.5278C108.138 96.5209 107.282 95.7449 106.275 95.7945Z" fill="white" stroke="#263238" stroke-linecap="round" stroke-linejoin="round"/>
<path d="M106.81 95.7535L101.929 95.9939C100.922 96.0435 100.146 96.9 100.195 97.9068L100.845 111.095C100.895 112.102 101.751 112.878 102.758 112.828L107.639 112.587C108.646 112.538 109.422 111.681 109.372 110.675L108.723 97.4868C108.673 96.4799 107.817 95.7039 106.81 95.7535Z" fill="#263238" stroke="#263238" stroke-linecap="round" stroke-linejoin="round"/>
<path d="M108.468 98.0648C108.445 97.6526 108.284 97.26 108.011 96.9503C107.738 96.6406 107.369 96.4317 106.963 96.3572L106.378 97.1521L103.029 97.3619L101.984 96.6627L106.58 96.3462H106.554L102.234 96.5596C101.752 96.5872 101.3 96.8034 100.975 97.1614C100.651 97.5194 100.481 97.9906 100.501 98.4732L101.097 110.551C101.125 111.033 101.341 111.485 101.699 111.81C102.057 112.134 102.528 112.304 103.011 112.284L107.327 112.071C107.809 112.043 108.262 111.827 108.586 111.469C108.91 111.111 109.081 110.64 109.06 110.157L108.468 98.0648Z" fill="#D5B7FF" stroke="#263238" stroke-linecap="round" stroke-linejoin="round"/>
<path d="M110.827 115.294C110.179 115.212 109.577 114.917 109.116 114.456C108.654 113.994 108.359 113.392 108.277 112.744C107.942 110.415 109.053 107.754 109.053 107.754C108.309 107.322 107.53 106.952 106.724 106.65C105.502 106.205 106.389 103.875 106.834 104.542C107.279 105.208 110.382 105.646 111.268 106.205C112.155 106.764 112.372 109.977 112.372 109.977L112.45 114.886" fill="white"/>
<path d="M110.827 115.294C110.179 115.212 109.577 114.917 109.116 114.456C108.654 113.994 108.359 113.392 108.277 112.744C107.942 110.415 109.053 107.754 109.053 107.754C108.309 107.322 107.53 106.952 106.724 106.65C105.502 106.205 106.389 103.875 106.834 104.542C107.279 105.208 110.382 105.646 111.268 106.205C112.155 106.764 112.372 109.977 112.372 109.977L112.45 114.886" stroke="#263238" stroke-linecap="round" stroke-linejoin="round"/>
<path d="M143.064 154.928L154.192 125.768C154.636 124.605 154.612 123.316 154.126 122.171C153.639 121.026 152.728 120.113 151.583 119.626C150.416 119.13 149.1 119.115 147.922 119.583C146.744 120.052 145.798 120.966 145.29 122.128L130.986 154.928H143.064Z" fill="#263238" stroke="#263238" stroke-linecap="round" stroke-linejoin="round"/>
<path d="M115.063 141.68C114.628 142.008 105.822 152.529 103.816 154.928H129.536C131.085 152.775 137.304 143.958 139.976 137.754C143.045 130.64 143.288 122.176 142.677 119.6C142.066 117.024 141.448 115.184 141.448 115.184C141.448 115.184 129.536 117.271 123.28 120.583C123.28 120.583 115.673 126.471 114.201 130.272C112.729 134.074 115.552 141.312 115.063 141.68Z" fill="#D5B7FF" stroke="#263238" stroke-linecap="round" stroke-linejoin="round"/>
<path d="M136.131 137.408C136.414 136.672 136.679 135.936 136.922 135.2C138.059 131.726 139.498 127.538 138.736 123.858C138 120.299 133.463 120.667 130.887 122.629C128.311 124.59 126.471 129.253 125.367 133.301C124.263 137.349 119.578 146.593 119.578 146.593C119.578 146.593 102.771 143.034 100.81 142.298C98.8485 141.562 96.1474 140.337 94.3074 138.618C92.4674 136.9 87.5619 134.324 85.8434 132.362C84.1248 130.401 83.8819 131.012 84.0034 131.748C84.1248 132.484 84.9859 133.345 85.5968 134.081C86.1768 134.727 86.7911 135.341 87.4368 135.921C87.4368 135.921 84.6179 135.306 83.2674 134.817C81.9168 134.328 81.3059 133.588 80.9379 134.202C80.5699 134.817 80.9379 135.553 82.1634 136.164C83.3888 136.775 88.1728 138.129 88.1728 138.129H83.2674C82.2848 138.129 80.9379 138.74 81.5488 139.354C82.1597 139.969 85.2288 139.601 86.0899 139.601H88.6659C88.6659 139.601 85.2288 140.826 84.2499 140.948C83.271 141.069 83.3888 142.052 84.1248 142.177C84.8608 142.302 90.1379 141.194 90.1379 141.194C90.1379 141.194 92.3459 142.913 93.3248 143.156C94.2155 143.322 95.1198 143.405 96.0259 143.402C96.0259 143.402 104.858 149.29 111.482 151.62C116.034 153.224 124.528 157.659 128.141 152.544C130.706 148.908 134.541 141.529 136.131 137.408Z" fill="white" stroke="#263238" stroke-linecap="round" stroke-linejoin="round"/>
<path d="M132.977 84.7211C132.977 84.7211 130.349 88.1361 130.084 89.9761C129.819 91.8161 130.217 92.8649 129.297 93.3912C128.377 93.9174 125.617 93.9137 125.227 95.2312C124.837 96.5486 126.669 98.9112 126.669 98.9112C126.669 98.9112 126.934 104.821 127.46 106.131C127.987 107.441 132.712 107.71 132.712 107.71L131.924 113.344L139.674 110.982L141.776 103.364C141.776 103.364 144.797 102.05 145.846 97.844C146.895 93.6377 145.058 89.3064 140.462 86.55C135.866 83.7937 132.977 84.7211 132.977 84.7211Z" fill="white" stroke="#263238" stroke-linecap="round" stroke-linejoin="round"/>
<path d="M132.712 107.706L136.653 108.115L132.447 110.334L132.712 107.706Z" fill="#263238" stroke="#263238" stroke-linecap="round" stroke-linejoin="round"/>
<path d="M128.642 99.6951C128.642 99.6951 131.137 100.089 132.451 98.3813" stroke="#263238" stroke-linecap="round" stroke-linejoin="round"/>
<path d="M132.075 93.0268C131.88 93.5126 131.494 93.818 131.21 93.7039C130.927 93.5898 130.842 93.1041 131.052 92.6183C131.262 92.1326 131.637 91.8234 131.917 91.9375C132.197 92.0516 132.27 92.5374 132.075 93.0268Z" fill="#263238"/>
<path d="M131.766 89.4241C131.766 89.4241 133.216 88.5225 134.169 90.3257" stroke="#263238" stroke-linecap="round" stroke-linejoin="round"/>
<path d="M129.51 99.7832C129.51 99.7832 129.462 101.833 130.213 101.785C130.964 101.737 131.865 99.0288 131.865 99.0288C131.865 99.0288 131.313 99.6802 129.51 99.7832Z" fill="#263238" stroke="#263238" stroke-linecap="round" stroke-linejoin="round"/>
<path d="M141.065 110.032C141.065 110.032 131.255 113.712 128.311 114.695C125.367 115.677 122.423 121.687 122.423 121.687C122.423 121.687 137.017 116.778 139.719 116.042L141.801 115.799C141.801 115.799 142.416 110.768 141.065 110.032Z" fill="white" stroke="#263238" stroke-linecap="round" stroke-linejoin="round"/>
<path d="M146.957 78.8036C146.957 78.8036 146.611 78.9766 147.826 76.3785C149.04 73.7804 143.141 71.348 136.381 73.4345C129.621 75.5211 130.493 81.0668 131.35 83.6686C132.208 86.2704 137.238 85.7478 137.073 87.4811C136.907 89.2144 135.858 90.9513 137.768 92.5116C139.678 94.072 138.114 93.726 138.633 94.5945C139.152 95.463 140.889 94.9404 141.408 95.2863C141.927 95.6323 143.314 96.8467 141.754 99.2755C140.193 101.704 138.46 101.355 138.81 104.129C139.159 106.904 139.851 109.506 143.494 110.547C147.137 111.589 150.254 111.762 150.777 108.814C151.3 105.866 149.39 105.171 151.469 103.956C153.548 102.742 159.274 102.223 159.966 96.5008C160.658 90.7784 159.27 85.5675 155.296 82.2739C152.928 80.3056 150.022 79.0963 146.957 78.8036Z" fill="#263238" stroke="#263238" stroke-linecap="round" stroke-linejoin="round"/>
<path d="M143.759 107.427C144.646 109.005 146.438 109.69 147.439 109.322C148.911 108.762 149.11 105.977 147.252 105.605C145.393 105.233 144.837 106.341 145.78 107.276" stroke="#9C9C9C" stroke-linecap="round" stroke-linejoin="round"/>
<path d="M136.694 82.9988C137.625 84.4708 139.884 85.4386 143.892 86.653C150.023 88.5114 151.509 93.3433 150.023 95.7573C148.536 98.1714 144.076 100.589 143.332 104.302C143.214 104.873 143.196 105.459 143.277 106.036" stroke="#9C9C9C" stroke-linecap="round" stroke-linejoin="round"/>
<path d="M141.102 79.2231C141.102 79.2231 143.332 79.0355 142.206 77.1771C141.08 75.3187 136.819 76.8091 136.263 80.1505C136.164 80.6672 136.148 81.1964 136.215 81.7182" stroke="#9C9C9C" stroke-linecap="round" stroke-linejoin="round"/>
<path d="M150.317 85.9392C152.234 86.9512 154.578 88.9311 154.851 92.6C155.219 97.6159 152.992 99.2866 149.279 101.517C145.566 103.747 147.233 105.616 147.233 105.616" stroke="#9C9C9C" stroke-linecap="round" stroke-linejoin="round"/>
<path d="M147.792 84.9824C148.295 85.0979 148.788 85.2554 149.264 85.4535" stroke="#9C9C9C" stroke-linecap="round" stroke-linejoin="round"/>
<path d="M99.1576 42.0662C96.3787 42.9021 93.8454 44.4026 91.7769 46.4378C89.7083 48.473 88.1669 50.9816 87.2859 53.7465" stroke="#263238" stroke-miterlimit="10"/>
<path d="M108.001 41.7165C106.774 41.4542 105.523 41.3222 104.269 41.3228C103.431 41.3236 102.593 41.3827 101.763 41.4994" stroke="#263238" stroke-miterlimit="10"/>
<path d="M121.282 64.4295C122.648 60.0167 122.25 55.2458 120.17 51.1208C118.09 46.9959 114.492 43.8384 110.131 42.3127" stroke="#263238" stroke-miterlimit="10"/>
<path d="M119.637 68.1499C120.129 67.3152 120.551 66.4413 120.899 65.5371" stroke="#263238" stroke-miterlimit="10"/>
<path d="M96.8134 75.3222C100.046 76.8084 103.649 77.2934 107.16 76.715C110.67 76.1366 113.928 74.5211 116.512 72.0764" stroke="#263238" stroke-miterlimit="10"/>
<path d="M93.9909 73.6885C94.5175 74.0598 95.0628 74.4037 95.6248 74.7189" stroke="#263238" stroke-miterlimit="10"/>
<path d="M86.6824 56.304C86.1952 59.3288 86.4964 62.4281 87.5569 65.3025C88.6173 68.177 90.4011 70.7293 92.736 72.7131" stroke="#263238" stroke-miterlimit="10"/>
<path d="M104.269 75.2561C113.171 75.2561 120.388 68.0396 120.388 59.1377C120.388 50.2357 113.171 43.0193 104.269 43.0193C95.3672 43.0193 88.1507 50.2357 88.1507 59.1377C88.1507 68.0396 95.3672 75.2561 104.269 75.2561Z" fill="white" stroke="#263238" stroke-miterlimit="10"/>
<path d="M114.179 69.8317H96.243C95.9963 69.8316 95.7579 69.7427 95.5714 69.5812C95.3849 69.4197 95.2627 69.1964 95.2274 68.9522L92.0405 48.1823H88.0514C87.78 48.1823 87.5198 48.0745 87.328 47.8827C87.1361 47.6908 87.0283 47.4306 87.0283 47.1593C87.0283 46.8879 87.1361 46.6277 87.328 46.4359C87.5198 46.244 87.78 46.1362 88.0514 46.1362H92.9274C93.1737 46.1365 93.4116 46.2255 93.5975 46.3871C93.7834 46.5487 93.9048 46.7719 93.9394 47.0158L97.1299 67.7857H114.179C114.451 67.7857 114.711 67.8935 114.903 68.0853C115.095 68.2772 115.202 68.5374 115.202 68.8087C115.202 69.08 115.095 69.3403 114.903 69.5321C114.711 69.724 114.451 69.8317 114.179 69.8317Z" fill="white" stroke="#263238" stroke-linecap="round" stroke-linejoin="round"/>
<path d="M88.4525 45.875H86.7781C86.0993 45.875 85.549 46.4253 85.549 47.1041V47.2513C85.549 47.9301 86.0993 48.4804 86.7781 48.4804H88.4525C89.1313 48.4804 89.6816 47.9301 89.6816 47.2513V47.1041C89.6816 46.4253 89.1313 45.875 88.4525 45.875Z" fill="#263238" stroke="#263238" stroke-linecap="round" stroke-linejoin="round"/>
<path d="M94.7085 65.5152H96.7067L96.4786 64.0542H94.4766L94.7085 65.5152Z" fill="#263238" stroke="#263238" stroke-linecap="round" stroke-linejoin="round"/>
<path d="M113.819 64.5141H94.2632L92.5373 51.0601H115.545L113.819 64.5141Z" fill="#D5B7FF" stroke="#263238" stroke-linecap="round" stroke-linejoin="round"/>
<path d="M99.1429 63.0496C99.0143 63.0496 98.887 63.0243 98.7683 62.9751C98.6495 62.9259 98.5416 62.8538 98.4507 62.7629C98.3598 62.672 98.2877 62.5641 98.2385 62.4453C98.1893 62.3265 98.164 62.1993 98.164 62.0707V55.2885C98.164 55.0285 98.267 54.7791 98.4505 54.595C98.634 54.4108 98.8829 54.3069 99.1429 54.3059C99.4028 54.3069 99.6518 54.4108 99.8353 54.595C100.019 54.7791 100.122 55.0285 100.122 55.2885V62.0707C100.122 62.1993 100.096 62.3265 100.047 62.4453C99.9981 62.5641 99.9259 62.672 99.8351 62.7629C99.7442 62.8538 99.6362 62.9259 99.5175 62.9751C99.3987 63.0243 99.2714 63.0496 99.1429 63.0496Z" fill="white" stroke="#263238" stroke-linecap="round" stroke-linejoin="round"/>
<path d="M102.609 63.0496C102.35 63.0496 102.101 62.9465 101.917 62.7629C101.734 62.5793 101.631 62.3303 101.631 62.0707V55.2885C101.631 55.0285 101.734 54.7791 101.917 54.595C102.101 54.4108 102.349 54.3069 102.609 54.3059C102.869 54.3069 103.118 54.4108 103.302 54.595C103.485 54.7791 103.588 55.0285 103.588 55.2885V62.0707C103.588 62.3303 103.485 62.5793 103.302 62.7629C103.118 62.9465 102.869 63.0496 102.609 63.0496Z" fill="white" stroke="#263238" stroke-linecap="round" stroke-linejoin="round"/>
<path d="M106.076 63.0496C105.947 63.0496 105.82 63.0243 105.701 62.9751C105.583 62.9259 105.475 62.8538 105.384 62.7629C105.293 62.672 105.221 62.5641 105.172 62.4453C105.122 62.3265 105.097 62.1993 105.097 62.0707V55.2885C105.097 55.0285 105.2 54.7791 105.384 54.595C105.567 54.4108 105.816 54.3069 106.076 54.3059C106.336 54.3069 106.585 54.4108 106.768 54.595C106.952 54.7791 107.055 55.0285 107.055 55.2885V62.0707C107.055 62.1993 107.03 62.3265 106.98 62.4453C106.931 62.5641 106.859 62.672 106.768 62.7629C106.677 62.8538 106.569 62.9259 106.451 62.9751C106.332 63.0243 106.205 63.0496 106.076 63.0496Z" fill="white" stroke="#263238" stroke-linecap="round" stroke-linejoin="round"/>
<path d="M109.543 63.0496C109.283 63.0496 109.034 62.9465 108.85 62.7629C108.667 62.5793 108.564 62.3303 108.564 62.0707V55.2885C108.564 55.0285 108.667 54.7791 108.85 54.595C109.034 54.4108 109.283 54.3069 109.543 54.3059C109.803 54.3069 110.051 54.4108 110.235 54.595C110.418 54.7791 110.521 55.0285 110.521 55.2885V62.0707C110.521 62.3303 110.418 62.5793 110.235 62.7629C110.051 62.9465 109.802 63.0496 109.543 63.0496Z" fill="white" stroke="#263238" stroke-linecap="round" stroke-linejoin="round"/>
<path d="M100.468 72.1465C101.799 72.1465 102.878 71.0673 102.878 69.7361C102.878 68.4049 101.799 67.3257 100.468 67.3257C99.1365 67.3257 98.0573 68.4049 98.0573 69.7361C98.0573 71.0673 99.1365 72.1465 100.468 72.1465Z" fill="#263238" stroke="#263238" stroke-linecap="round" stroke-linejoin="round"/>
<path d="M100.468 70.7701C101.039 70.7701 101.502 70.3071 101.502 69.736C101.502 69.1649 101.039 68.7019 100.468 68.7019C99.8966 68.7019 99.4336 69.1649 99.4336 69.736C99.4336 70.3071 99.8966 70.7701 100.468 70.7701Z" fill="white" stroke="#263238" stroke-linecap="round" stroke-linejoin="round"/>
<path d="M108.626 72.1465C109.957 72.1465 111.037 71.0673 111.037 69.7361C111.037 68.4049 109.957 67.3257 108.626 67.3257C107.295 67.3257 106.216 68.4049 106.216 69.7361C106.216 71.0673 107.295 72.1465 108.626 72.1465Z" fill="#263238" stroke="#263238" stroke-linecap="round" stroke-linejoin="round"/>
<path d="M109.664 69.736C109.664 69.5315 109.603 69.3315 109.49 69.1615C109.376 68.9914 109.215 68.8589 109.026 68.7806C108.837 68.7024 108.629 68.6819 108.428 68.7218C108.228 68.7617 108.043 68.8602 107.899 69.0048C107.754 69.1494 107.656 69.3337 107.616 69.5342C107.576 69.7348 107.596 69.9428 107.675 70.1317C107.753 70.3207 107.885 70.4822 108.055 70.5958C108.225 70.7094 108.425 70.7701 108.63 70.7701C108.766 70.7706 108.901 70.7441 109.026 70.6923C109.152 70.6405 109.266 70.5644 109.362 70.4683C109.458 70.3722 109.534 70.258 109.586 70.1323C109.638 70.0066 109.664 69.8719 109.664 69.736Z" fill="white" stroke="#263238" stroke-linecap="round" stroke-linejoin="round"/>
<path d="M112.961 53.2534H115.088" stroke="#263238" stroke-linecap="round" stroke-linejoin="round"/>
<path d="M110.297 53.2534H111.806" stroke="#263238" stroke-linecap="round" stroke-linejoin="round"/>
<path d="M93.0819 53.2534H109.141" stroke="#263238" stroke-linecap="round" stroke-linejoin="round"/>
<path d="M104.269 75.2561V94.2044" stroke="#263238" stroke-miterlimit="10"/>
<path d="M104.269 95.2312C104.836 95.2312 105.296 94.7715 105.296 94.2045C105.296 93.6374 104.836 93.1777 104.269 93.1777C103.702 93.1777 103.242 93.6374 103.242 94.2045C103.242 94.7715 103.702 95.2312 104.269 95.2312Z" fill="#263238" stroke="#263238" stroke-linecap="round" stroke-linejoin="round"/>
<path d="M115.799 56.9407C118.339 56.9407 120.399 54.8812 120.399 52.3407C120.399 49.8002 118.339 47.7407 115.799 47.7407C113.258 47.7407 111.199 49.8002 111.199 52.3407C111.199 54.8812 113.258 56.9407 115.799 56.9407Z" fill="#D5B7FF"/>
<path d="M115.799 57.4927C114.78 57.4927 113.783 57.1906 112.936 56.6245C112.089 56.0583 111.429 55.2537 111.039 54.3123C110.649 53.3709 110.547 52.335 110.746 51.3356C110.944 50.3362 111.435 49.4182 112.156 48.6977C112.876 47.9772 113.794 47.4865 114.793 47.2877C115.793 47.0889 116.829 47.191 117.77 47.5809C118.712 47.9708 119.516 48.6312 120.082 49.4784C120.648 50.3257 120.951 51.3218 120.951 52.3407C120.951 53.7071 120.408 55.0176 119.442 55.9837C118.475 56.9499 117.165 57.4927 115.799 57.4927ZM115.799 48.2927C114.998 48.2927 114.215 48.5301 113.55 48.9749C112.884 49.4197 112.365 50.0519 112.059 50.7916C111.752 51.5313 111.672 52.3452 111.828 53.1304C111.985 53.9157 112.37 54.637 112.936 55.2031C113.502 55.7692 114.224 56.1547 115.009 56.3109C115.794 56.4671 116.608 56.387 117.348 56.0806C118.087 55.7742 118.72 55.2554 119.164 54.5897C119.609 53.924 119.847 53.1413 119.847 52.3407C119.847 51.2671 119.42 50.2375 118.661 49.4784C117.902 48.7192 116.872 48.2927 115.799 48.2927Z" fill="#263238"/>
<path d="M116.1 54.0188H116.06C115.971 54.0133 115.886 53.9863 115.81 53.9401C115.734 53.8939 115.671 53.83 115.626 53.7538L113.852 50.7841C113.81 50.7219 113.782 50.6519 113.768 50.5783C113.754 50.5047 113.755 50.4291 113.772 50.356C113.788 50.283 113.819 50.214 113.863 50.1533C113.907 50.0926 113.962 50.0415 114.026 50.003C114.091 49.9645 114.162 49.9395 114.236 49.9295C114.31 49.9195 114.386 49.9246 114.458 49.9447C114.53 49.9647 114.597 49.9992 114.656 50.0461C114.714 50.093 114.762 50.1512 114.798 50.2173L116.167 52.5026L119.968 47.7628C120.06 47.6486 120.193 47.5755 120.339 47.5597C120.484 47.5438 120.63 47.5864 120.744 47.6781C120.859 47.7699 120.932 47.9032 120.948 48.0489C120.963 48.1945 120.921 48.3404 120.829 48.4546L116.531 53.8127C116.479 53.8765 116.413 53.928 116.339 53.9636C116.264 53.9992 116.183 54.0181 116.1 54.0188Z" fill="white"/>
<path d="M84.7246 151.973H48.0939V154.928H84.7246V151.973Z" fill="white" stroke="#263238" stroke-miterlimit="10" stroke-linecap="round"/>
<path d="M51.2293 150.979H48.6938V151.929H51.2293V150.979Z" fill="white" stroke="#263238" stroke-miterlimit="10" stroke-linecap="round"/>
<path d="M54.5008 150.979H51.9653V151.929H54.5008V150.979Z" fill="white" stroke="#263238" stroke-miterlimit="10" stroke-linecap="round"/>
<path d="M57.776 150.979H55.2405V151.929H57.776V150.979Z" fill="white" stroke="#263238" stroke-miterlimit="10" stroke-linecap="round"/>
<path d="M61.0475 150.979H58.512V151.929H61.0475V150.979Z" fill="white" stroke="#263238" stroke-miterlimit="10" stroke-linecap="round"/>
<path d="M64.3227 150.979H61.7872V151.929H64.3227V150.979Z" fill="white" stroke="#263238" stroke-miterlimit="10" stroke-linecap="round"/>
<path d="M67.5942 150.979H65.0587V151.929H67.5942V150.979Z" fill="white" stroke="#263238" stroke-miterlimit="10" stroke-linecap="round"/>
<path d="M70.8694 150.979H68.3339V151.929H70.8694V150.979Z" fill="white" stroke="#263238" stroke-miterlimit="10" stroke-linecap="round"/>
<path d="M74.141 150.979H71.6054V151.929H74.141V150.979Z" fill="white" stroke="#263238" stroke-miterlimit="10" stroke-linecap="round"/>
<path d="M77.4162 150.979H74.8806V151.929H77.4162V150.979Z" fill="white" stroke="#263238" stroke-miterlimit="10" stroke-linecap="round"/>
<path d="M80.6877 150.979H78.1522V151.929H80.6877V150.979Z" fill="white" stroke="#263238" stroke-miterlimit="10" stroke-linecap="round"/>
<path d="M83.9629 150.979H81.4274V151.929H83.9629V150.979Z" fill="white" stroke="#263238" stroke-miterlimit="10" stroke-linecap="round"/>
<path d="M40.112 154.928H24.1298C23.6446 154.926 23.1657 154.818 22.727 154.611C22.2882 154.404 21.9003 154.103 21.5907 153.73C21.2811 153.356 21.0573 152.919 20.9352 152.45C20.8131 151.98 20.7956 151.489 20.884 151.012L28.0232 113.303L29.7638 113.635L22.6246 151.34C22.5823 151.561 22.5894 151.789 22.6456 152.007C22.7017 152.226 22.8054 152.429 22.9492 152.602C23.0931 152.776 23.2736 152.915 23.4777 153.01C23.6818 153.106 23.9044 153.155 24.1298 153.154H40.112V154.928Z" fill="#263238"/>
<path d="M28.6966 111.305L26.1354 112.093L28.1042 122.529L31.2579 121.94L28.6966 111.305Z" fill="#263238"/>
<path d="M34.592 144.05L22.6909 83.937L23.6035 84.5037C24.6099 85.1281 25.4775 85.9521 26.1529 86.9249C26.8283 87.8978 27.297 88.9988 27.5301 90.1599L36.708 136.528C36.9701 137.86 36.9151 139.235 36.5476 140.541C36.18 141.848 35.5101 143.05 34.592 144.05Z" fill="white" stroke="#263238" stroke-miterlimit="10" stroke-linecap="round"/>
<path d="M165.843 154.928H170.752" stroke="#263238" stroke-miterlimit="10" stroke-linecap="round"/>
<path d="M8.16224 154.928H162.064" stroke="#263238" stroke-miterlimit="10" stroke-linecap="round"/>
</svg>
