<svg width="240" height="160" viewBox="0 0 240 160" fill="none" xmlns="http://www.w3.org/2000/svg">
<path d="M179.677 43.2705H60.3488C57.7738 43.2705 55.6864 45.3579 55.6864 47.9329V123.683C55.6864 126.258 57.7738 128.346 60.3488 128.346H179.677C182.252 128.346 184.339 126.258 184.339 123.683V47.9329C184.339 45.3579 182.252 43.2705 179.677 43.2705Z" fill="#263238"/>
<path d="M50.3072 122.054H189.693V123.805C189.693 125.316 189.093 126.764 188.024 127.833C186.956 128.901 185.507 129.501 183.997 129.501H56C54.4893 129.501 53.0405 128.901 51.9723 127.833C50.9041 126.764 50.304 125.316 50.304 123.805V122.054H50.3072Z" fill="#263238"/>
<path d="M180.528 46.6528H59.1424V118.499H180.528V46.6528Z" fill="#E0E0E0"/>
<path d="M107.331 122.054L109.059 124.806H133.398L135.005 122.054H107.331Z" fill="#455A64"/>
<path d="M177.229 49.085H62.688C62.1101 49.085 61.6416 49.5535 61.6416 50.1314V117.223C61.6416 117.8 62.1101 118.269 62.688 118.269H177.229C177.807 118.269 178.275 117.8 178.275 117.223V50.1314C178.275 49.5535 177.807 49.085 177.229 49.085Z" fill="#455A64"/>
<path d="M178.275 54.1538H61.6416V118.269H178.275V54.1538Z" fill="#FAFAFA"/>
<path d="M71.2064 51.7569C71.2058 51.9409 71.1506 52.1207 71.0479 52.2734C70.9452 52.4261 70.7996 52.545 70.6294 52.6149C70.4592 52.6849 70.272 52.7029 70.0916 52.6666C69.9112 52.6303 69.7456 52.5414 69.6156 52.411C69.4857 52.2807 69.3974 52.1148 69.3617 51.9342C69.326 51.7537 69.3446 51.5666 69.4152 51.3966C69.4858 51.2266 69.6051 51.0814 69.7582 50.9792C69.9113 50.877 70.0912 50.8225 70.2752 50.8225C70.3978 50.8225 70.5191 50.8467 70.6323 50.8937C70.7455 50.9407 70.8483 51.0096 70.9348 51.0964C71.0213 51.1832 71.0898 51.2862 71.1365 51.3996C71.1831 51.5129 71.2068 51.6344 71.2064 51.7569Z" fill="#D5B7FF"/>
<path d="M65.5616 51.7569C65.561 51.9409 65.5058 52.1207 65.4031 52.2734C65.3004 52.4261 65.1548 52.545 64.9846 52.6149C64.8143 52.6849 64.6272 52.7029 64.4468 52.6666C64.2664 52.6303 64.1007 52.5414 63.9708 52.411C63.8409 52.2807 63.7526 52.1148 63.7169 51.9342C63.6812 51.7537 63.6998 51.5666 63.7704 51.3966C63.841 51.2266 63.9603 51.0814 64.1134 50.9792C64.2665 50.877 64.4464 50.8225 64.6304 50.8225C64.753 50.8225 64.8743 50.8467 64.9875 50.8937C65.1007 50.9407 65.2035 51.0096 65.29 51.0964C65.3765 51.1832 65.445 51.2862 65.4916 51.3996C65.5383 51.5129 65.562 51.6344 65.5616 51.7569Z" fill="#D5B7FF"/>
<path d="M68.272 51.7569C68.2714 51.9409 68.2162 52.1207 68.1135 52.2734C68.0108 52.4261 67.8652 52.545 67.6949 52.6149C67.5247 52.6849 67.3376 52.7029 67.1572 52.6666C66.9768 52.6303 66.8111 52.5414 66.6812 52.411C66.5513 52.2807 66.4629 52.1148 66.4273 51.9342C66.3916 51.7537 66.4102 51.5666 66.4808 51.3966C66.5514 51.2266 66.6707 51.0814 66.8238 50.9792C66.9769 50.877 67.1568 50.8225 67.3408 50.8225C67.4634 50.8225 67.5847 50.8467 67.6979 50.8937C67.8111 50.9407 67.9139 51.0096 68.0004 51.0964C68.0869 51.1832 68.1554 51.2862 68.202 51.3996C68.2486 51.5129 68.2724 51.6344 68.272 51.7569Z" fill="#D5B7FF"/>
<path d="M148.88 80.8577L149.242 80.8289C149.36 80.8289 149.507 80.7905 149.683 80.7617C149.882 80.7148 150.078 80.6549 150.269 80.5825C150.806 80.3757 151.291 80.0534 151.69 79.6385C151.941 79.374 152.157 79.077 152.33 78.7553C152.521 78.3857 152.654 77.9883 152.723 77.5777C152.813 77.0495 152.793 76.5084 152.665 75.9883C152.536 75.4681 152.301 74.9802 151.975 74.5549C151.649 74.1296 151.239 73.7761 150.771 73.5165C150.302 73.257 149.785 73.097 149.251 73.0465C148.931 73.0241 148.611 73.0273 148.291 73.0273H145.216H140.685L91.04 73.0497C90.148 73.0541 89.2848 73.3658 88.5958 73.9324C87.9068 74.499 87.4342 75.2857 87.2576 76.1601C87.1453 76.7314 87.1617 77.3206 87.3056 77.8849C87.5254 78.7187 88.0177 79.4552 88.7043 79.977C89.3908 80.4989 90.2321 80.7762 91.0944 80.7649H92.816H105.997L128.317 80.7809L143.357 80.8097H147.446H148.512H148.874C148.874 80.8097 148.752 80.8097 148.512 80.8097H147.446L143.357 80.8257L128.317 80.8513L105.997 80.8705H91.0944C90.5017 80.8804 89.9144 80.7568 89.376 80.5089C88.8276 80.2621 88.3416 79.8953 87.9539 79.4356C87.5662 78.9759 87.2867 78.435 87.136 77.8529C86.9815 77.2631 86.9644 76.6457 87.0859 76.0482C87.2074 75.4508 87.4643 74.8891 87.8368 74.4065C88.2136 73.9158 88.6981 73.5183 89.253 73.2448C89.8078 72.9712 90.4182 72.8289 91.0368 72.8289L140.682 72.8545H145.213H148.294C148.614 72.8545 148.934 72.8545 149.254 72.8769C149.904 72.9426 150.527 73.167 151.07 73.5303C151.612 73.8935 152.057 74.3845 152.365 74.9601C152.673 75.5356 152.835 76.1781 152.837 76.8309C152.839 77.4838 152.68 78.127 152.374 78.7041C152.195 79.0285 151.974 79.3286 151.718 79.5969C151.31 80.0114 150.817 80.3324 150.272 80.5377C150.078 80.6084 149.879 80.6662 149.677 80.7105C149.501 80.7361 149.357 80.7617 149.235 80.7713C149.005 80.8577 148.88 80.8577 148.88 80.8577Z" fill="#263238"/>
<path d="M148.88 80.8576H141.312V72.9792H148.88C149.925 72.9792 150.927 73.3943 151.665 74.133C152.404 74.8718 152.819 75.8737 152.819 76.9184C152.819 77.9632 152.404 78.9651 151.665 79.7039C150.927 80.4426 149.925 80.8576 148.88 80.8576Z" fill="#D5B7FF"/>
<path d="M147.558 76.1761C147.542 76.1761 147.542 76.0449 147.478 75.8177C147.387 75.5027 147.193 75.227 146.928 75.0337C146.764 74.9111 146.576 74.8252 146.376 74.7817C146.176 74.7383 145.969 74.7383 145.769 74.7819C145.569 74.8254 145.381 74.9114 145.217 75.034C145.054 75.1566 144.918 75.313 144.82 75.4926C144.722 75.6722 144.664 75.8707 144.649 76.0748C144.635 76.2789 144.664 76.4837 144.736 76.6754C144.807 76.867 144.919 77.0411 145.064 77.1857C145.209 77.3304 145.383 77.4422 145.574 77.5137C145.799 77.5958 146.04 77.6212 146.277 77.5877C146.514 77.5542 146.738 77.4628 146.931 77.3217C147.195 77.1263 147.387 76.8497 147.478 76.5345C147.542 76.3105 147.542 76.1761 147.558 76.1761C147.564 76.2089 147.564 76.2425 147.558 76.2753C147.563 76.3678 147.555 76.4605 147.533 76.5505C147.459 76.8927 147.268 77.1984 146.992 77.4145C146.785 77.5762 146.541 77.6833 146.282 77.7258C146.023 77.7683 145.758 77.7449 145.51 77.6577C145.205 77.5488 144.941 77.3481 144.754 77.0832C144.567 76.8182 144.467 76.5019 144.467 76.1777C144.467 75.8534 144.567 75.5371 144.754 75.2722C144.941 75.0072 145.205 74.8065 145.51 74.6977C145.758 74.6091 146.023 74.5847 146.282 74.6267C146.541 74.6686 146.786 74.7756 146.992 74.9377C147.267 75.1543 147.458 75.4597 147.533 75.8017C147.555 75.8927 147.564 75.9865 147.558 76.0801C147.565 76.1118 147.565 76.1444 147.558 76.1761Z" fill="white"/>
<path d="M149.571 78.6817C149.141 78.4887 148.733 78.2483 148.355 77.9649C147.949 77.7277 147.573 77.4442 147.232 77.1201C148.073 77.5471 148.858 78.0747 149.571 78.6913V78.6817Z" fill="white"/>
<path d="M91.9904 79.1328C91.9075 78.3892 91.8797 77.6405 91.9072 76.8928C91.8796 76.1451 91.9074 75.3964 91.9904 74.6528C92.0734 75.3964 92.1013 76.1451 92.0736 76.8928C92.1011 77.6405 92.0733 78.3892 91.9904 79.1328Z" fill="#455A64"/>
<path d="M101.318 94.4448H82.4096V112.739H101.318V94.4448Z" fill="#E0E0E0"/>
<path d="M83.8784 111.174L89.1072 101.76L93.3856 107.776L95.9872 104.582L99.8528 111.174H83.8784Z" fill="#D5B7FF"/>
<path d="M95.2096 99.9298C95.2102 100.2 95.1308 100.464 94.9812 100.688C94.8317 100.913 94.6188 101.088 94.3696 101.192C94.1203 101.295 93.846 101.323 93.5813 101.27C93.3165 101.218 93.0733 101.088 92.8825 100.897C92.6917 100.706 92.5617 100.463 92.5093 100.198C92.4568 99.9335 92.484 99.6591 92.5876 99.4099C92.6912 99.1607 92.8664 98.9478 93.0911 98.7982C93.3157 98.6487 93.5797 98.5692 93.8496 98.5698C94.2103 98.5698 94.5562 98.7131 94.8113 98.9682C95.0663 99.2232 95.2096 99.5691 95.2096 99.9298Z" fill="#D5B7FF"/>
<path d="M99.84 111.226C99.84 111.226 99.84 111.197 99.84 111.149C99.84 111.101 99.84 111.024 99.84 110.938C99.84 110.742 99.84 110.466 99.84 110.112C99.84 109.389 99.84 108.339 99.8176 107.008C99.8176 104.336 99.7952 100.528 99.7792 95.9618L99.856 96.0386H83.8816C83.8592 96.0578 84.0512 95.869 83.9712 95.9522V98.0162C83.9712 98.7031 83.9712 99.3826 83.9712 100.055V104C83.9712 106.56 83.9712 108.983 83.9712 111.213L83.8944 111.133L95.4432 111.175L98.704 111.194H99.568H99.792H99.8688H99.8016H99.584H98.736L95.4944 111.216L83.8944 111.255H83.8144V111.178C83.8144 108.938 83.8144 106.525 83.8144 103.965V100.071C83.8144 99.3986 83.8144 98.7191 83.8144 98.0322V95.9682C83.7344 96.045 83.9264 95.853 83.9072 95.8754H99.8816H99.9616V95.9522C99.9424 100.541 99.9296 104.362 99.92 107.047C99.92 108.371 99.904 109.415 99.9008 110.135C99.9008 110.483 99.9008 110.752 99.9008 110.944C99.9008 111.031 99.9008 111.098 99.9008 111.149C99.8854 111.178 99.8648 111.204 99.84 111.226Z" fill="#455A64"/>
<path d="M131.418 94.4448H112.509V112.739H131.418V94.4448Z" fill="#D5B7FF"/>
<path d="M113.974 111.174L119.206 101.76L123.485 107.776L126.083 104.582L129.952 111.174H113.974Z" fill="#E0E0E0"/>
<path d="M125.306 99.9298C125.306 100.199 125.226 100.462 125.076 100.685C124.927 100.909 124.715 101.083 124.466 101.186C124.218 101.289 123.944 101.316 123.68 101.264C123.416 101.211 123.174 101.082 122.984 100.891C122.794 100.701 122.664 100.459 122.612 100.195C122.559 99.9313 122.586 99.6579 122.689 99.4094C122.792 99.1609 122.966 98.9485 123.19 98.799C123.414 98.6496 123.677 98.5698 123.946 98.5698C124.306 98.5698 124.652 98.7131 124.907 98.9682C125.162 99.2232 125.306 99.5691 125.306 99.9298Z" fill="#E0E0E0"/>
<path d="M129.952 111.226C129.952 111.226 129.952 111.197 129.952 111.149C129.952 111.101 129.952 111.024 129.952 110.938C129.952 110.742 129.952 110.466 129.952 110.112C129.952 109.389 129.952 108.339 129.933 107.008C129.933 104.336 129.91 100.528 129.894 95.9618L129.971 96.0386H113.997L114.083 95.9522V100.055C114.083 101.399 114.083 102.713 114.083 103.997C114.083 106.557 114.083 108.979 114.083 111.21L114.003 111.13L125.555 111.171L128.813 111.191H129.677H129.901H129.981H129.91H129.696H128.845L125.606 111.213L114.003 111.251H113.926V111.175C113.926 108.935 113.926 106.522 113.926 103.962C113.926 102.682 113.926 101.368 113.926 100.019V95.9682C113.846 96.045 114.035 95.853 114.019 95.8754H129.994H130.07V95.9522C130.07 100.541 130.042 104.362 130.032 107.047C130.032 108.371 130.016 109.415 130.01 110.135C130.01 110.483 130.01 110.752 130.01 110.944C130.01 111.031 130.01 111.098 130.01 111.149C129.993 111.176 129.973 111.202 129.952 111.226Z" fill="#455A64"/>
<path d="M161.517 94.4448H142.608V112.739H161.517V94.4448Z" fill="#E0E0E0"/>
<path d="M144.074 111.174L149.302 101.76L153.581 107.776L156.182 104.582L160.048 111.174H144.074Z" fill="#D5B7FF"/>
<path d="M155.405 99.9298C155.405 100.2 155.326 100.464 155.176 100.688C155.027 100.913 154.814 101.088 154.565 101.192C154.316 101.295 154.041 101.323 153.776 101.27C153.512 101.218 153.269 101.088 153.078 100.897C152.887 100.706 152.757 100.463 152.704 100.198C152.652 99.9335 152.679 99.6591 152.783 99.4099C152.886 99.1607 153.062 98.9478 153.286 98.7982C153.511 98.6487 153.775 98.5692 154.045 98.5698C154.406 98.5698 154.751 98.7131 155.006 98.9682C155.262 99.2232 155.405 99.5691 155.405 99.9298Z" fill="#D5B7FF"/>
<path d="M160.051 111.226C160.049 111.2 160.049 111.175 160.051 111.149C160.051 111.095 160.051 111.024 160.051 110.938C160.051 110.742 160.051 110.466 160.051 110.112C160.051 109.389 160.051 108.339 160.032 107.008C160.032 104.336 160.006 100.528 159.99 95.9618L160.07 96.0386H144.093C144.074 96.0578 144.262 95.869 144.182 95.9522V100.055C144.182 101.399 144.182 102.713 144.182 103.997C144.182 106.557 144.182 108.979 144.182 111.21L144.106 111.13L155.658 111.171L158.915 111.191H159.779H160.003H160.083H160.013H159.795H158.947L155.706 111.213L144.106 111.251H144V111.175C144 108.935 144 106.522 144 103.962C144 102.682 144 101.368 144 100.019V95.9682C143.92 96.045 144.109 95.853 144.09 95.8754H160.067H160.144V95.9522C160.144 100.541 160.112 104.362 160.102 107.047C160.102 108.371 160.102 109.415 160.083 110.135C160.083 110.483 160.083 110.752 160.083 110.944C160.083 111.031 160.083 111.098 160.083 111.149C160.083 111.2 160.051 111.226 160.051 111.226Z" fill="#455A64"/>
<path d="M131.933 63.7185H107.984V65.7249H131.933V63.7185Z" fill="#455A64"/>
<path d="M183.235 122.054C183.235 122.102 154.678 122.138 119.462 122.138C84.2464 122.138 55.6864 122.102 55.6864 122.054C55.6864 122.006 84.2368 121.971 119.462 121.971C154.688 121.971 183.235 122.01 183.235 122.054Z" fill="#455A64"/>
<path d="M37.4752 87.0209C35.664 87.3153 34.8544 89.5425 35.0112 91.3697C35.168 93.1969 35.9232 94.9889 35.7216 96.8097C35.4656 99.1265 33.7152 101.085 33.5104 103.408C33.2704 106.147 35.2064 108.576 35.7856 111.264C36.0672 112.573 36.0256 113.955 36.512 115.2C36.9256 116.263 37.6951 117.148 38.6892 117.706C39.6834 118.265 40.8404 118.46 41.9628 118.26C43.0851 118.06 44.1031 117.476 44.843 116.609C45.5828 115.741 45.9986 114.644 46.0192 113.504C46.0576 111.402 44.7616 109.421 44.9184 107.322C45.0336 105.773 45.9424 104.301 45.7504 102.759C45.5168 100.925 43.8304 99.6225 43.216 97.8721C42.6016 96.1217 43.1936 94.1921 42.9856 92.3521C42.6144 89.0529 40.784 86.7553 37.4752 87.0177" fill="#D5B7FF"/>
<path d="M28.2208 102.995C27.9008 106.051 29.264 109.648 30.8352 112.275C32.4264 114.932 34.8229 117.012 37.6768 118.214C37.9968 118.349 38.3968 118.461 38.6656 118.243C38.7609 118.138 38.8325 118.014 38.8755 117.878C38.9186 117.743 38.9321 117.6 38.9152 117.459C38.9373 114.214 37.907 111.05 35.979 108.44C34.0509 105.83 31.3288 103.915 28.2208 102.982" fill="#D5B7FF"/>
<path opacity="0.2" d="M28.2208 102.995C27.9008 106.051 29.264 109.648 30.8352 112.275C32.4264 114.932 34.8229 117.012 37.6768 118.214C37.9968 118.349 38.3968 118.461 38.6656 118.243C38.7609 118.138 38.8325 118.014 38.8755 117.878C38.9186 117.743 38.9321 117.6 38.9152 117.459C38.9373 114.214 37.907 111.05 35.979 108.44C34.0509 105.83 31.3288 103.915 28.2208 102.982" fill="black"/>
<path d="M41.536 124.618C41.5002 124.565 41.4711 124.508 41.4496 124.448L41.2288 123.946C41.0464 123.51 40.7712 122.883 40.4224 122.112C39.5121 120.103 38.4995 118.142 37.3888 116.237C36.2716 114.338 35.0594 112.497 33.7568 110.72C33.2576 110.035 32.8448 109.488 32.5536 109.12L32.2336 108.685C32.1916 108.636 32.1561 108.583 32.128 108.525C32.1783 108.565 32.2234 108.611 32.2624 108.662L32.6176 109.078C32.9216 109.44 33.3504 109.978 33.8656 110.653C35.1961 112.415 36.4217 114.254 37.536 116.16C38.6516 118.07 39.6529 120.045 40.5344 122.074C40.8544 122.855 41.1296 123.488 41.2928 123.936C41.3696 124.144 41.4304 124.314 41.4816 124.448C41.5068 124.502 41.5251 124.559 41.536 124.618Z" fill="#263238"/>
<path d="M39.568 95.4785C39.5859 95.5757 39.5966 95.6741 39.6 95.7729C39.6 95.9809 39.6352 96.2593 39.6608 96.6145C39.7088 97.3601 39.776 98.4161 39.8624 99.7121C40.0256 102.327 40.2592 105.939 40.5376 109.927C40.816 113.914 41.0944 117.527 41.2992 120.141C41.3984 121.421 41.4784 122.487 41.536 123.235C41.5584 123.587 41.5776 123.875 41.5936 124.077C41.6014 124.175 41.6014 124.273 41.5936 124.371C41.5724 124.275 41.5585 124.178 41.552 124.08C41.5296 123.872 41.5008 123.594 41.4624 123.242L41.1712 120.151C40.9344 117.539 40.64 113.93 40.3584 109.939C40.0768 105.949 39.8656 102.336 39.7184 99.7185C39.6576 98.4225 39.6096 97.3665 39.5744 96.6177C39.5616 96.2614 39.552 95.9799 39.5456 95.7729C39.5454 95.6744 39.5528 95.5759 39.568 95.4785Z" fill="#263238"/>
<path d="M36.7552 120.259H44.4096V125.878C44.4096 126.361 44.3146 126.839 44.13 127.284C43.9454 127.73 43.6748 128.135 43.3336 128.476C42.9925 128.817 42.5875 129.088 42.1418 129.272C41.6961 129.457 41.2184 129.552 40.736 129.552C39.7964 129.552 38.8926 129.192 38.21 128.546C37.5274 127.901 37.118 127.018 37.0656 126.08L36.7552 120.259Z" fill="#455A64"/>
<path d="M206.522 120.17C207.681 119.626 208.984 119.468 210.24 119.718C210.915 119.83 211.619 120.038 212.077 120.538C212.534 121.037 212.624 121.936 212.096 122.371C211.756 122.601 211.346 122.705 210.938 122.666C209.955 122.666 208.864 122.48 208.08 123.072C207.632 123.392 207.334 123.971 206.8 124.138C206.532 124.197 206.252 124.169 206.002 124.057C205.751 123.945 205.543 123.756 205.408 123.517C205.151 123.024 205.095 122.45 205.251 121.917C205.314 121.548 205.462 121.198 205.682 120.895C205.902 120.592 206.19 120.344 206.522 120.17Z" fill="#D5B7FF"/>
<path d="M203.933 115.168C204.624 116.157 205.968 115.83 206.589 115.226C207.21 114.621 207.475 113.75 207.715 112.915C208.266 111.014 208.816 109.018 208.41 107.078C208.314 106.486 208.056 105.933 207.664 105.478C207.468 105.256 207.217 105.09 206.936 104.996C206.655 104.903 206.354 104.884 206.064 104.944C205.386 105.123 204.966 105.786 204.659 106.416C203.764 108.281 203.295 110.322 203.286 112.39C203.286 113.35 203.395 114.362 203.926 115.155" fill="#D5B7FF"/>
<path d="M202.032 116.586C202.387 116.122 202.624 115.578 202.721 115.002C202.819 114.426 202.774 113.835 202.592 113.28C202.214 112.17 201.536 111.187 200.634 110.439C199.606 109.526 198.41 108.823 197.114 108.368C196.613 108.166 196.075 108.074 195.536 108.099C195.267 108.116 195.005 108.197 194.774 108.337C194.543 108.477 194.35 108.671 194.211 108.903C193.843 109.607 194.211 110.458 194.579 111.143C195.253 112.375 196.024 113.552 196.883 114.663C197.574 115.555 198.365 116.432 199.418 116.835C200.47 117.239 201.562 117.191 202.122 116.461" fill="#D5B7FF"/>
<path d="M203.885 130.067C203.922 129.92 203.944 129.768 203.949 129.616C203.981 129.296 204.019 128.88 204.067 128.394C204.128 127.79 204.22 127.19 204.342 126.595C204.499 125.873 204.713 125.165 204.982 124.477C205.251 123.789 205.615 123.143 206.064 122.557C206.43 122.081 206.898 121.693 207.434 121.421C207.796 121.24 208.185 121.118 208.586 121.059C208.737 121.054 208.887 121.033 209.034 120.995C208.882 120.98 208.73 120.98 208.579 120.995C208.162 121.029 207.754 121.137 207.376 121.315C206.813 121.582 206.319 121.975 205.933 122.464C205.464 123.057 205.085 123.716 204.81 124.419C204.534 125.117 204.32 125.838 204.17 126.573C204.053 127.174 203.973 127.783 203.93 128.394C203.891 128.912 203.875 129.335 203.869 129.626C203.859 129.773 203.864 129.921 203.885 130.067Z" fill="#263238"/>
<path d="M203.968 129.123C203.978 129.054 203.978 128.984 203.968 128.915V128.32C203.968 127.802 203.968 127.056 203.994 126.131C204.038 124.285 204.198 121.735 204.506 118.935C204.813 116.135 205.226 113.61 205.6 111.799C205.686 111.347 205.776 110.938 205.859 110.583C205.942 110.227 206.006 109.914 206.074 109.664C206.141 109.415 206.176 109.239 206.211 109.085C206.233 109.019 206.246 108.95 206.25 108.88C206.216 108.941 206.191 109.007 206.176 109.075L206.003 109.645C205.926 109.895 205.85 110.202 205.76 110.557C205.67 110.912 205.568 111.319 205.472 111.773C204.96 114.13 204.575 116.513 204.32 118.912C204 121.722 203.875 124.279 203.862 126.128C203.862 127.056 203.862 127.805 203.894 128.323C203.894 128.563 203.923 128.762 203.933 128.915C203.937 128.986 203.949 129.056 203.968 129.123Z" fill="#263238"/>
<path d="M203.981 124.192C203.998 123.985 203.998 123.778 203.981 123.571C203.946 123.006 203.882 122.443 203.789 121.885C203.481 120.041 202.953 118.242 202.214 116.525C201.503 114.79 200.482 113.199 199.2 111.83C198.978 111.596 198.74 111.376 198.49 111.171C198.381 111.078 198.285 110.986 198.189 110.912C198.093 110.838 197.997 110.784 197.914 110.723C197.747 110.598 197.572 110.486 197.389 110.387C197.992 110.862 198.564 111.374 199.104 111.92C200.344 113.3 201.339 114.883 202.045 116.598C202.453 117.534 202.798 118.497 203.078 119.478C203.347 120.381 203.526 121.213 203.661 121.91C203.795 122.608 203.862 123.19 203.907 123.578C203.917 123.784 203.941 123.989 203.981 124.192Z" fill="#263238"/>
<path d="M212.662 60.9663L194.586 61.3407L195.072 84.9119L213.158 84.9919L212.662 60.9663Z" fill="#D5B7FF"/>
<path d="M211.491 61.8303L195.674 62.1567L196.115 83.5359L211.942 83.7407L211.491 61.8303Z" fill="#FAFAFA"/>
<path d="M208.8 65.7727L198.298 65.5903L198.605 80.5311L209.101 80.3135L208.8 65.7727Z" fill="#263238"/>
<path d="M198.605 80.5311L208.944 72.6367L198.298 65.5903L198.605 80.5311Z" fill="#455A64"/>
<path d="M206.509 41.4304L194.096 41.6864L194.432 57.872L206.848 57.9264L206.509 41.4304Z" fill="#455A64"/>
<path d="M205.706 42.0225L194.842 42.2465L195.146 56.9249L206.013 57.0689L205.706 42.0225Z" fill="#FAFAFA"/>
<path d="M203.856 44.7296L196.643 44.6016L196.854 54.864L204.064 54.7136L203.856 44.7296Z" fill="#D5B7FF"/>
<path d="M201.482 49.6C201.482 49.6 201.526 49.4848 201.565 49.28C201.622 48.9855 201.579 48.6804 201.443 48.4128C201.336 48.1967 201.172 48.0144 200.968 47.8863C200.763 47.7582 200.528 47.6892 200.287 47.6872C200.046 47.6851 199.809 47.7499 199.602 47.8745C199.396 47.9991 199.228 48.1785 199.118 48.3928C199.007 48.607 198.959 48.8478 198.977 49.0881C198.995 49.3285 199.08 49.5591 199.221 49.7542C199.363 49.9493 199.556 50.1014 199.778 50.1933C200.001 50.2853 200.245 50.3137 200.483 50.2752C200.788 50.2293 201.069 50.0816 201.28 49.856C201.427 49.6992 201.482 49.5904 201.494 49.5968C201.466 49.7097 201.408 49.8132 201.328 49.8976C201.126 50.149 200.841 50.3203 200.525 50.3808C200.288 50.4282 200.043 50.4146 199.813 50.3412C199.583 50.2679 199.375 50.1373 199.21 49.9616C199.004 49.7445 198.87 49.4689 198.828 49.1727C198.785 48.8766 198.835 48.5745 198.971 48.3081C199.108 48.0416 199.323 47.824 199.588 47.6852C199.853 47.5463 200.155 47.4931 200.451 47.5328C200.69 47.5644 200.918 47.656 201.112 47.7993C201.306 47.9426 201.461 48.1327 201.562 48.352C201.697 48.6444 201.725 48.9752 201.642 49.2864C201.614 49.4022 201.559 49.5098 201.482 49.6Z" fill="#263238"/>
<path d="M202.086 52.4801C201.806 52.1494 201.569 51.7837 201.382 51.3921C201.149 51.0282 200.962 50.6356 200.829 50.2241C201.107 50.5563 201.342 50.9218 201.53 51.3121C201.762 51.6773 201.949 52.0696 202.086 52.4801Z" fill="#263238"/>
<path d="M212.998 129.497C212.998 129.545 172.512 129.581 122.579 129.581C72.6464 129.581 32.1504 129.545 32.1504 129.497C32.1504 129.449 72.6304 129.414 122.579 129.414C172.528 129.414 212.998 129.453 212.998 129.497Z" fill="#263238"/>
<path d="M160.432 89.6703C160.432 89.6703 160.717 86.6335 161.005 86.6591C161.293 86.6847 161.341 87.2223 161.306 87.4847C161.27 87.7471 161.306 88.7647 161.306 88.7647L160.432 89.6703Z" fill="#FFBE9D"/>
<path d="M186.49 87.184L185.034 97.424L191.754 126.781L173.194 128.266L181.194 80.9888C181.194 80.9888 186.474 80.3904 186.49 87.184Z" fill="#263238"/>
<path d="M163.67 138.861L162.598 150.976H167.178L169.197 138.861H163.67Z" fill="#FFBE9D"/>
<path d="M162.598 150.976C162.598 150.976 159.507 151.376 158.957 151.773L167.056 151.677L167.178 150.976H162.598Z" fill="#FFBE9D"/>
<path d="M158.957 151.776V152.099L167.296 152.01V151.661L158.957 151.776Z" fill="#D5B7FF"/>
<path d="M161.92 151.962C161.875 151.981 161.744 151.731 161.475 151.536C161.206 151.341 160.934 151.28 160.941 151.235C160.947 151.19 161.261 151.178 161.581 151.408C161.901 151.638 161.949 151.952 161.92 151.962Z" fill="#D5B7FF"/>
<path d="M167.283 150.736C167.283 150.781 166.726 150.893 166.093 151.194C165.459 151.494 165.011 151.834 164.979 151.811C165.259 151.473 165.619 151.21 166.026 151.046C166.411 150.837 166.844 150.73 167.283 150.736Z" fill="#D5B7FF"/>
<path d="M167.094 150.538C165.591 150.571 164.087 150.495 162.595 150.31C163.342 150.269 164.09 150.281 164.835 150.346C165.592 150.354 166.347 150.419 167.094 150.538Z" fill="#D5B7FF"/>
<path d="M167.632 148.944C166.818 149.176 165.989 149.355 165.152 149.478C164.324 149.657 163.487 149.783 162.643 149.856C163.458 149.626 164.286 149.448 165.123 149.322C165.951 149.144 166.789 149.018 167.632 148.944Z" fill="#D5B7FF"/>
<path d="M167.552 149.002C167.343 149.004 167.136 148.96 166.947 148.87C166.735 148.787 166.534 148.679 166.346 148.55C166.233 148.476 166.126 148.394 166.026 148.304C165.964 148.25 165.915 148.182 165.885 148.106C165.868 148.061 165.862 148.013 165.866 147.965C165.871 147.917 165.886 147.871 165.91 147.83C165.939 147.789 165.978 147.757 166.024 147.736C166.07 147.716 166.12 147.709 166.17 147.715C166.247 147.726 166.322 147.748 166.394 147.779C166.519 147.831 166.639 147.898 166.749 147.978C166.937 148.11 167.098 148.277 167.222 148.47C167.351 148.638 167.426 148.841 167.437 149.053C167.411 149.053 167.35 148.829 167.117 148.534C166.988 148.364 166.831 148.216 166.653 148.099C166.553 148.029 166.446 147.971 166.333 147.926C166.214 147.872 166.08 147.85 166.045 147.926C166.026 147.975 166.025 148.029 166.041 148.078C166.058 148.128 166.091 148.17 166.134 148.198C166.227 148.285 166.324 148.366 166.426 148.442C166.603 148.564 166.79 148.671 166.986 148.762C167.328 148.922 167.555 148.976 167.552 149.002Z" fill="#D5B7FF"/>
<path d="M167.51 149.12C167.411 148.937 167.37 148.728 167.395 148.522C167.405 148.302 167.453 148.085 167.536 147.882C167.586 147.758 167.651 147.641 167.728 147.533C167.769 147.473 167.814 147.417 167.862 147.363C167.891 147.327 167.928 147.298 167.969 147.278C168.011 147.257 168.056 147.246 168.102 147.245C168.151 147.248 168.199 147.264 168.239 147.292C168.28 147.319 168.312 147.357 168.333 147.402C168.368 147.475 168.383 147.557 168.378 147.638C168.372 147.773 168.35 147.906 168.314 148.035C168.248 148.253 168.139 148.455 167.994 148.63C167.877 148.802 167.709 148.933 167.514 149.005C167.514 148.982 167.696 148.858 167.901 148.563C168.019 148.391 168.106 148.199 168.157 147.997C168.189 147.879 168.206 147.757 168.208 147.635C168.208 147.514 168.16 147.405 168.086 147.405C168.013 147.405 167.917 147.526 167.843 147.622C167.771 147.723 167.709 147.83 167.658 147.942C167.572 148.134 167.517 148.338 167.494 148.547C167.472 148.88 167.536 149.12 167.51 149.12Z" fill="#D5B7FF"/>
<path d="M168.125 151.002C167.914 150.729 167.762 150.415 167.68 150.08C167.548 149.753 167.488 149.402 167.504 149.05C167.641 149.365 167.748 149.693 167.824 150.029C167.952 150.344 168.052 150.669 168.125 151.002Z" fill="#D5B7FF"/>
<path d="M168.672 150.573C168.044 150.195 167.578 149.599 167.363 148.899C167.408 148.877 167.629 149.299 168.003 149.757C168.378 150.214 168.701 150.534 168.672 150.573Z" fill="#D5B7FF"/>
<path d="M180.762 139.853L190.144 147.29L192.374 144.026L183.987 134.896L180.762 139.853Z" fill="#FFBE9D"/>
<path d="M189.482 147.472C189.482 147.472 188.038 150.233 188.051 150.915L192.608 144.221L192.106 143.718L189.482 147.472Z" fill="#FFBE9D"/>
<path d="M188.051 150.915L188.317 151.101L193.018 144.214L192.733 144.013L188.051 150.915Z" fill="#D5B7FF"/>
<path d="M189.891 148.605C189.891 148.65 189.603 148.605 189.29 148.726C188.976 148.848 188.771 149.021 188.736 148.992C188.701 148.963 188.877 148.694 189.238 148.573C189.6 148.451 189.91 148.566 189.891 148.605Z" fill="#D5B7FF"/>
<path d="M191.965 143.494C192.01 143.514 191.776 144.042 191.661 144.733C191.546 145.424 191.578 145.994 191.53 146.013C191.345 145.153 191.501 144.254 191.965 143.507V143.494Z" fill="#D5B7FF"/>
<path d="M191.709 143.318C191.357 143.902 190.96 144.457 190.522 144.979C190.123 145.535 189.682 146.059 189.203 146.547C189.555 145.962 189.953 145.405 190.394 144.883C190.789 144.327 191.229 143.804 191.709 143.318Z" fill="#D5B7FF"/>
<path d="M190.701 142.182C190.462 142.892 190.175 143.583 189.84 144.253C189.554 144.943 189.218 145.611 188.835 146.253C189.074 145.545 189.362 144.854 189.696 144.186C189.981 143.494 190.317 142.824 190.701 142.182Z" fill="#D5B7FF"/>
<path d="M190.698 142.282C190.714 142.282 190.563 142.483 190.243 142.704C190.057 142.834 189.856 142.941 189.645 143.024C189.52 143.074 189.392 143.115 189.261 143.146C189.181 143.163 189.098 143.163 189.018 143.146C188.971 143.133 188.928 143.111 188.892 143.08C188.855 143.049 188.826 143.01 188.806 142.966C188.789 142.919 188.785 142.869 188.795 142.82C188.805 142.771 188.827 142.725 188.861 142.688C188.913 142.63 188.973 142.581 189.04 142.541C189.351 142.343 189.715 142.244 190.083 142.256C190.294 142.245 190.504 142.301 190.682 142.416C190.682 142.442 190.451 142.358 190.083 142.371C189.741 142.38 189.409 142.484 189.123 142.672C189.011 142.739 188.915 142.838 188.95 142.906C188.98 142.949 189.023 142.981 189.073 142.996C189.123 143.011 189.177 143.009 189.226 142.989C189.349 142.962 189.471 142.928 189.59 142.886C189.795 142.814 189.993 142.724 190.182 142.618C190.506 142.419 190.682 142.262 190.698 142.282Z" fill="#D5B7FF"/>
<path d="M190.765 142.378C190.558 142.354 190.363 142.267 190.208 142.128C190.028 141.994 189.874 141.828 189.754 141.638C189.681 141.526 189.622 141.406 189.578 141.28C189.552 141.214 189.531 141.145 189.517 141.075C189.504 141.031 189.5 140.984 189.507 140.938C189.513 140.892 189.53 140.848 189.555 140.81C189.586 140.772 189.627 140.742 189.673 140.725C189.719 140.708 189.769 140.703 189.818 140.71C189.897 140.725 189.972 140.759 190.035 140.81C190.142 140.892 190.239 140.986 190.323 141.091C190.468 141.265 190.577 141.466 190.643 141.683C190.716 141.878 190.728 142.09 190.675 142.291C190.638 142.099 190.591 141.909 190.534 141.722C190.46 141.525 190.352 141.343 190.214 141.184C190.134 141.093 190.045 141.01 189.949 140.938C189.856 140.861 189.731 140.845 189.686 140.906C189.642 140.966 189.686 141.114 189.728 141.226C189.768 141.337 189.82 141.444 189.882 141.546C189.99 141.726 190.126 141.888 190.285 142.026C190.554 142.278 190.774 142.352 190.765 142.378Z" fill="#D5B7FF"/>
<path d="M192.669 142.957C192.317 142.978 191.964 142.924 191.635 142.797C191.287 142.719 190.96 142.567 190.675 142.352C191.34 142.538 192.001 142.74 192.656 142.957H192.669Z" fill="#D5B7FF"/>
<path d="M192.64 142.262C192.317 142.434 191.956 142.521 191.59 142.515C191.227 142.562 190.857 142.514 190.518 142.374C190.518 142.33 191.002 142.374 191.581 142.355C192.16 142.336 192.614 142.214 192.64 142.262Z" fill="#D5B7FF"/>
<path d="M171.718 103.302C171.718 103.302 168.134 127.107 168.656 128.262C169.178 129.418 180.781 141.296 180.781 141.296L185.136 133.837C185.136 133.837 177.456 125.328 177.568 124.877C177.68 124.425 183.104 101.385 183.104 101.385L171.718 103.302Z" fill="#D5B7FF"/>
<path d="M172.544 132.762L175.603 126.042L179.123 118.496C176.982 121.593 175.159 124.898 173.683 128.362C173.11 129.771 172.727 131.251 172.544 132.762Z" fill="#D5B7FF"/>
<path opacity="0.4" d="M172.544 132.762L175.603 126.042L179.123 118.496C176.982 121.593 175.159 124.898 173.683 128.362C173.11 129.771 172.727 131.251 172.544 132.762Z" fill="black"/>
<path d="M170.445 112.09C170.48 111.837 173.37 105.338 173.37 105.338L171.965 103.36L171.718 103.306L170.445 112.09Z" fill="#D5B7FF"/>
<path opacity="0.4" d="M170.445 112.09C170.48 111.837 173.37 105.338 173.37 105.338L171.965 103.36L171.718 103.306L170.445 112.09Z" fill="black"/>
<path d="M185.139 101.062L185.354 101.946C185.995 104.551 185.604 107.303 184.262 109.626L174.547 126.467C173.857 127.663 173.356 128.959 173.059 130.307L170.64 141.187C170.64 141.187 163.002 141.446 162.672 141.187C162.342 140.928 163.658 133.725 164.534 128.269C165.197 124.154 170.701 111.382 173.37 105.35L171.718 103.315L174.598 102.838L185.139 101.062Z" fill="#D5B7FF"/>
<path d="M170.64 141.174C170.536 141.205 170.428 141.222 170.32 141.226C170.115 141.248 169.824 141.274 169.459 141.296C168.733 141.344 167.725 141.379 166.614 141.376C165.504 141.373 164.496 141.341 163.77 141.302C163.405 141.286 163.11 141.267 162.909 141.251C162.801 141.254 162.693 141.24 162.589 141.21C162.694 141.191 162.802 141.184 162.909 141.19H163.77L166.611 141.216C167.722 141.216 168.723 141.2 169.45 141.184L170.314 141.162C170.422 141.149 170.532 141.154 170.64 141.174Z" fill="#263238"/>
<path d="M171.059 139.13C171.059 139.174 169.222 139.203 166.96 139.194C164.698 139.184 162.858 139.142 162.858 139.101C162.858 139.059 164.694 139.027 166.96 139.034C169.226 139.04 171.059 139.085 171.059 139.13Z" fill="#263238"/>
<path d="M183.802 132.294C183.76 132.401 183.706 132.502 183.638 132.595L183.142 133.382L181.498 135.971L179.859 138.563L179.357 139.347C179.301 139.447 179.232 139.54 179.152 139.622C179.189 139.51 179.24 139.403 179.302 139.302C179.408 139.11 179.565 138.832 179.76 138.493C180.157 137.814 180.72 136.893 181.36 135.872C182 134.851 182.605 133.952 183.05 133.312C183.274 132.992 183.456 132.73 183.587 132.55C183.648 132.457 183.72 132.371 183.802 132.294Z" fill="#263238"/>
<path d="M180.323 140.653C180.151 140.339 180.026 140.001 179.952 139.651C179.827 139.316 179.754 138.965 179.734 138.608C179.906 138.921 180.031 139.257 180.106 139.606C180.23 139.942 180.303 140.295 180.323 140.653Z" fill="#263238"/>
<path d="M181.002 140.63C180.829 140.084 180.708 139.523 180.64 138.954C180.52 138.394 180.454 137.824 180.442 137.251C180.732 138.358 180.92 139.489 181.002 140.63Z" fill="#263238"/>
<path d="M181.888 139.366C181.718 138.89 181.584 138.401 181.488 137.904C181.339 137.42 181.232 136.924 181.168 136.422C181.386 136.882 181.545 137.367 181.642 137.866C181.789 138.353 181.872 138.857 181.888 139.366Z" fill="#263238"/>
<path d="M182.643 137.616C182.47 137.161 182.349 136.687 182.282 136.205C182.16 135.732 182.091 135.247 182.077 134.758C182.246 135.216 182.368 135.69 182.438 136.173C182.558 136.645 182.627 137.129 182.643 137.616Z" fill="#263238"/>
<path d="M183.619 136.166C183.475 135.709 183.361 135.243 183.277 134.771C183.138 134.311 183.031 133.841 182.957 133.366C183.18 133.797 183.336 134.259 183.421 134.736C183.56 135.2 183.627 135.682 183.619 136.166Z" fill="#263238"/>
<path d="M184.49 134.938C184.316 134.578 184.193 134.195 184.125 133.802C184.003 133.42 183.932 133.024 183.914 132.624C184.207 133.366 184.4 134.144 184.49 134.938Z" fill="#263238"/>
<path d="M166.662 139.05C166.049 139.429 165.415 139.777 164.765 140.09C164.142 140.452 163.501 140.782 162.845 141.078C163.002 140.934 163.178 140.81 163.366 140.71C163.686 140.502 164.17 140.23 164.701 139.949C165.232 139.667 165.722 139.434 166.08 139.274C166.264 139.174 166.459 139.099 166.662 139.05Z" fill="#263238"/>
<path d="M169.018 139.085C168.832 139.238 168.631 139.37 168.416 139.478C168.032 139.699 167.498 139.99 166.893 140.291C166.288 140.592 165.728 140.838 165.318 141.008C165.104 141.114 164.877 141.195 164.643 141.248C164.843 141.11 165.058 140.995 165.283 140.906L166.829 140.147L168.371 139.379C168.575 139.258 168.792 139.159 169.018 139.085Z" fill="#263238"/>
<path d="M170.81 139.085C170.353 139.546 169.852 139.96 169.312 140.32C168.802 140.721 168.255 141.072 167.677 141.366C168.164 140.941 168.678 140.547 169.216 140.189C169.724 139.789 170.256 139.42 170.81 139.085Z" fill="#263238"/>
<path d="M171.005 140.211C171.034 140.246 170.736 140.531 170.339 140.826C170.115 141.032 169.856 141.197 169.574 141.312C169.76 141.07 169.986 140.862 170.243 140.698C170.467 140.492 170.725 140.328 171.005 140.211Z" fill="#263238"/>
<path d="M164.573 139.011C164.276 139.281 163.944 139.51 163.587 139.693C163.256 139.921 162.895 140.104 162.515 140.237C163.144 139.739 163.836 139.327 164.573 139.011Z" fill="#263238"/>
<path d="M173.158 105.28C173.047 105.644 172.912 106 172.752 106.346C172.49 106.986 172.112 107.898 171.734 108.906C171.357 109.914 171.008 110.826 170.774 111.466C170.657 111.827 170.516 112.179 170.352 112.522C170.363 112.42 170.385 112.32 170.419 112.224C170.474 112.035 170.557 111.763 170.666 111.427C170.883 110.758 171.206 109.827 171.594 108.838C171.981 107.85 172.368 106.941 172.659 106.301C172.806 105.981 172.928 105.725 173.018 105.549C173.053 105.454 173.1 105.363 173.158 105.28Z" fill="#263238"/>
<path d="M172.362 133.523C172.354 133.461 172.354 133.397 172.362 133.334C172.378 133.194 172.403 133.014 172.429 132.797C172.454 132.579 172.499 132.278 172.573 131.949C172.646 131.619 172.704 131.245 172.819 130.838C172.874 130.637 172.931 130.422 172.989 130.198C173.046 129.974 173.13 129.75 173.203 129.514C173.344 129.04 173.539 128.554 173.731 128.022C174.181 126.9 174.692 125.803 175.261 124.736C176.313 122.811 177.475 120.948 178.739 119.155C179.216 118.464 179.613 117.91 179.891 117.53L180.211 117.094C180.247 117.042 180.288 116.993 180.333 116.947C180.309 117.006 180.277 117.062 180.24 117.114C180.16 117.229 180.064 117.379 179.942 117.565L178.832 119.219C177.92 120.618 176.64 122.56 175.414 124.8C174.849 125.862 174.337 126.951 173.882 128.064C173.686 128.582 173.485 129.072 173.341 129.542C173.264 129.779 173.184 130.003 173.12 130.221C173.056 130.438 172.998 130.653 172.944 130.861C172.822 131.264 172.749 131.638 172.672 131.962C172.595 132.285 172.541 132.57 172.502 132.8C172.464 133.03 172.432 133.194 172.406 133.331C172.398 133.397 172.383 133.461 172.362 133.523Z" fill="#263238"/>
<path d="M181.888 81.0144L174.371 81.6544C174.371 81.6544 172.131 81.7056 169.674 87.4144L167.907 93.0784L171.085 93.7568V94.0768L171.725 103.302L185.28 101.12C185.309 99.9488 184.64 98.24 184.15 96.64C184.659 95.376 186.8 89.8592 186.797 87.2032C186.797 81.5232 181.885 81.0336 181.885 81.0336" fill="white"/>
<path d="M185.136 133.83C185.104 133.942 185.058 134.05 184.998 134.15C184.899 134.346 184.752 134.624 184.563 134.966C184.186 135.651 183.642 136.586 183.027 137.606L181.44 140.208L180.96 141.002C180.908 141.102 180.844 141.196 180.768 141.28C180.8 141.168 180.846 141.06 180.906 140.96C181.005 140.765 181.152 140.486 181.341 140.144C181.718 139.459 182.262 138.525 182.877 137.504L184.451 134.893L184.931 134.102C184.988 134.004 185.057 133.913 185.136 133.83Z" fill="#263238"/>
<path d="M183.36 94.5791C183.028 94.7397 182.669 94.8343 182.301 94.8575C181.941 94.9294 181.57 94.9294 181.21 94.8575C181.561 94.7665 181.92 94.7097 182.282 94.6879C182.637 94.6174 182.998 94.581 183.36 94.5791Z" fill="white"/>
<path d="M171.75 94.1279L171.597 104.141L175.661 81.3375C174.31 81.0975 171.792 82.1599 170.845 83.5071C170.166 84.3135 169.795 86.1695 167.907 91.7567L166.749 95.5487L162.051 90.4063L158.886 93.2671C158.886 93.2671 164.346 102.185 166.627 102.678C169.731 103.35 171.747 94.1279 171.747 94.1279" fill="#455A64"/>
<path d="M172.4 84.864C172.402 84.9954 172.388 85.1265 172.358 85.2544C172.317 85.536 172.262 85.8944 172.195 86.3072C172.058 87.1968 171.875 88.4256 171.706 89.7888C171.536 91.152 171.418 92.3904 171.334 93.2864C171.296 93.7088 171.264 94.064 171.235 94.3456C171.233 94.4775 171.215 94.6087 171.181 94.736C171.168 94.6051 171.168 94.4733 171.181 94.3424C171.181 94.0896 171.203 93.728 171.229 93.2768C171.28 92.3776 171.386 91.136 171.549 89.7568C171.712 88.3776 171.92 87.1616 172.086 86.2752C172.173 85.8336 172.246 85.4752 172.301 85.2288C172.323 85.1044 172.356 84.9823 172.4 84.864Z" fill="#263238"/>
<path d="M171.347 84.4257C171.331 84.3809 171.962 84.1057 172.678 83.6705C173.395 83.2353 173.917 82.7873 173.958 82.8225C173.259 83.5905 172.358 84.1451 171.357 84.4225L171.347 84.4257Z" fill="white"/>
<path d="M170.048 91.0271C169.886 90.6565 169.754 90.2734 169.654 89.8815C169.504 89.5067 169.384 89.1204 169.296 88.7263C169.724 89.4235 169.982 90.2117 170.048 91.0271Z" fill="white"/>
<path d="M173.344 87.4241C173.388 87.87 173.356 88.3203 173.248 88.7553C173.193 89.2017 173.06 89.6349 172.854 90.0353C172.907 89.5967 172.986 89.1618 173.091 88.7329C173.148 88.2917 173.232 87.8546 173.344 87.4241Z" fill="white"/>
<path d="M168.771 96.1536C168.773 96.5471 168.741 96.94 168.675 97.328C168.659 97.7228 168.61 98.1157 168.528 98.5024C168.429 97.7111 168.512 96.9076 168.771 96.1536Z" fill="white"/>
<path d="M162.765 96.0737C162.416 95.6944 162.128 95.2624 161.914 94.7937C161.652 94.3488 161.46 93.8664 161.344 93.3633C161.606 93.8021 161.843 94.255 162.054 94.7201C162.315 95.1584 162.552 95.6102 162.765 96.0737Z" fill="white"/>
<path d="M166.202 96.3201C165.95 96.5602 165.651 96.7464 165.325 96.8673C165.019 97.0365 164.681 97.1401 164.333 97.1713C164.625 96.9907 164.935 96.8405 165.258 96.7233C165.558 96.5574 165.874 96.4223 166.202 96.3201Z" fill="white"/>
<path d="M182.477 99.4815L184.829 127.44L191.914 126.771L185.187 97.4143L186.01 89.5327L182.477 99.4815Z" fill="#455A64"/>
<path d="M184.829 127.44C184.787 127.44 184.266 121.242 183.667 113.587C183.069 105.933 182.624 99.7281 182.666 99.7249C182.707 99.7217 183.232 105.92 183.827 113.574C184.422 121.229 184.874 127.437 184.829 127.44Z" fill="#263238"/>
<path d="M184.147 100.128C184.195 99.8067 184.296 99.4954 184.445 99.2065C184.548 98.8987 184.699 98.6092 184.893 98.3489C184.747 98.9798 184.494 99.5814 184.147 100.128Z" fill="white"/>
<path d="M186.102 104.288C186.064 104.317 185.712 103.907 185.216 103.469C184.899 103.222 184.595 102.959 184.304 102.682C184.688 102.829 185.036 103.057 185.325 103.35C185.647 103.605 185.912 103.924 186.102 104.288Z" fill="white"/>
<path d="M185.67 109.897C185.799 109.569 185.947 109.248 186.115 108.937C186.235 108.602 186.375 108.274 186.534 107.955C186.526 108.321 186.432 108.679 186.259 109.001C186.136 109.342 185.934 109.649 185.67 109.897Z" fill="white"/>
<path d="M187.2 114.4C186.515 113.951 185.893 113.413 185.35 112.8C185.701 113.004 186.023 113.253 186.31 113.539C186.643 113.786 186.942 114.076 187.2 114.4Z" fill="white"/>
<path d="M188.48 117.491C188.38 116.593 188.386 115.687 188.499 114.79C188.573 115.236 188.596 115.689 188.57 116.141C188.592 116.593 188.562 117.046 188.48 117.491Z" fill="white"/>
<path d="M186.208 119.59C186.117 119.239 186.061 118.88 186.038 118.518C185.966 118.163 185.926 117.802 185.92 117.44C186.085 117.769 186.184 118.128 186.211 118.496C186.283 118.857 186.282 119.229 186.208 119.59Z" fill="white"/>
<path d="M188.554 122.266C187.874 122.272 187.198 122.171 186.55 121.968C186.89 121.937 187.233 121.961 187.565 122.038C187.904 122.063 188.238 122.139 188.554 122.266Z" fill="white"/>
<path d="M188.16 125.824C188.497 125.129 188.928 124.483 189.44 123.904C189.298 124.265 189.106 124.604 188.87 124.912C188.675 125.246 188.436 125.553 188.16 125.824Z" fill="white"/>
<path d="M172.038 102.874L160.138 86.6624C160.843 86.1192 161.503 85.5199 162.112 84.8704C164.65 82.154 166.189 78.6559 166.477 74.9498C166.765 71.2437 165.785 67.5498 163.698 64.4739C161.61 61.398 158.54 59.1228 154.989 58.0216C151.439 56.9203 147.62 57.0584 144.158 58.4131C140.696 59.7678 137.798 62.2588 135.938 65.4773C134.078 68.6959 133.368 72.451 133.923 76.1266C134.478 79.8022 136.265 83.18 138.992 85.7061C141.719 88.2321 145.224 89.7564 148.931 90.0288C149.516 90.0715 150.102 90.0822 150.688 90.0608C153.07 89.9875 155.408 89.3933 157.536 88.32L169.558 104.698C169.801 105.025 170.164 105.242 170.567 105.302C170.971 105.362 171.381 105.26 171.709 105.018C172.036 104.776 172.254 104.415 172.315 104.014C172.377 103.612 172.278 103.202 172.038 102.874ZM150.598 86.9888C150.123 87.0044 149.646 86.9958 149.171 86.9632C145.768 86.7179 142.589 85.1762 140.29 82.6559C137.991 80.1356 136.746 76.829 136.813 73.4181C136.88 70.0071 138.253 66.7519 140.65 64.3237C143.046 61.8956 146.283 60.4796 149.693 60.368C150.174 60.3519 150.656 60.3615 151.136 60.3968C154.533 60.6507 157.704 62.1969 159.997 64.7174C162.289 67.2379 163.528 70.5411 163.459 73.9473C163.39 77.3536 162.019 80.604 159.627 83.0298C157.234 85.4556 154.003 86.8724 150.598 86.9888Z" fill="#263238"/>
<path d="M167.312 94.0577L165.901 98.8801C165.901 98.8801 173.286 101.565 177.286 101.514C181.034 101.469 182.106 101.043 183.424 98.0193C184.742 94.9953 186.24 91.5201 186.56 89.5073C186.56 89.5073 188.675 80.2945 180.605 81.1169L180.381 88.3201C180.381 88.3201 179.488 91.2737 179.421 91.4465C178.819 93.0465 178.038 95.3729 177.283 95.6545C176.528 95.9361 167.312 94.0577 167.312 94.0577Z" fill="#455A64"/>
<path d="M178.902 97.9199C178.308 97.2213 177.842 96.4228 177.526 95.5615C177.8 95.926 178.04 96.3136 178.246 96.7199C178.498 97.1011 178.717 97.5025 178.902 97.9199Z" fill="#263238"/>
<path d="M179.658 97.1617C179.272 96.9628 178.912 96.7178 178.586 96.4321C178.231 96.1877 177.908 95.8996 177.626 95.5745C178.01 95.7748 178.37 96.0196 178.698 96.3041C179.052 96.5484 179.375 96.8365 179.658 97.1617Z" fill="#263238"/>
<path d="M182.166 84.0225C181.932 84.7921 181.648 85.5457 181.315 86.2785C181.032 87.0314 180.7 87.7647 180.32 88.4737C180.552 87.7035 180.835 86.9498 181.168 86.2177C181.451 85.4643 181.785 84.7309 182.166 84.0225Z" fill="#263238"/>
<path d="M186.24 90.8799C186.219 91.0062 186.184 91.1297 186.134 91.2479C186.045 91.5103 185.933 91.8399 185.814 92.2271C185.52 93.0527 185.107 94.1919 184.621 95.4271C184.134 96.6623 183.661 97.7855 183.27 98.5759C183.082 98.9727 182.922 99.2895 182.803 99.5039C182.751 99.6178 182.685 99.7251 182.608 99.8239C182.642 99.7008 182.689 99.5818 182.749 99.4687C182.861 99.2159 182.998 98.8959 183.165 98.5087C183.517 97.7055 183.981 96.5887 184.47 95.3471C184.96 94.1055 185.379 93.0047 185.706 92.1471C185.866 91.7407 186 91.4111 186.093 91.1871C186.132 91.0804 186.182 90.9775 186.24 90.8799Z" fill="#263238"/>
<path d="M174.371 95.4431C174.371 95.4879 172.771 95.2319 170.781 94.8735C168.79 94.5151 167.21 94.1887 167.219 94.1471C167.229 94.1055 168.819 94.3583 170.81 94.7167C172.8 95.0751 174.381 95.4015 174.371 95.4431Z" fill="#263238"/>
<path d="M182.746 91.0464C182.649 90.1812 182.66 89.3071 182.781 88.4448C182.853 88.8749 182.874 89.3122 182.842 89.7472C182.863 90.1826 182.831 90.6189 182.746 91.0464Z" fill="white"/>
<path d="M179.869 99.9039C179.987 99.5688 180.129 99.2426 180.294 98.9279C180.412 98.592 180.553 98.2648 180.717 97.9487C180.704 98.3127 180.61 98.6692 180.442 98.9919C180.32 99.3344 180.125 99.6458 179.869 99.9039Z" fill="white"/>
<path d="M175.962 99.6544C175.522 98.9161 175.107 98.1637 174.717 97.3984C175.023 97.7083 175.275 98.0674 175.462 98.4608C175.695 98.8276 175.864 99.2312 175.962 99.6544Z" fill="white"/>
<path d="M170.56 97.1616C170.236 97.3763 169.884 97.5453 169.514 97.664C169.163 97.8303 168.792 97.9486 168.41 98.016C168.734 97.8014 169.086 97.6323 169.456 97.5136C169.806 97.347 170.178 97.2285 170.56 97.1616Z" fill="white"/>
<path d="M185.712 85.8559C185.677 85.8847 185.322 85.536 184.81 85.1712C184.298 84.8064 183.83 84.6176 183.85 84.5728C184.233 84.6398 184.593 84.8003 184.899 85.04C185.234 85.2397 185.514 85.5203 185.712 85.8559Z" fill="white"/>
<path d="M183.408 93.8113C182.589 94.1061 181.715 94.2154 180.848 94.1313C181.27 94.0399 181.697 93.9811 182.128 93.9553C182.551 93.8762 182.978 93.8281 183.408 93.8113Z" fill="white"/>
<path d="M182.65 69.1423C182.865 68.7495 183.209 68.4421 183.623 68.271C184.038 68.1 184.498 68.0755 184.928 68.2015C185.354 68.3415 185.74 68.5816 186.053 68.9019C186.367 69.2221 186.599 69.6129 186.73 70.0415C186.982 70.9046 186.999 71.8196 186.778 72.6911C186.637 73.3311 186.458 74.0703 186.874 74.5631C187.29 75.0559 188 75.0111 188.458 75.4079C188.57 75.5071 188.662 75.6285 188.726 75.7644C188.79 75.9004 188.825 76.048 188.83 76.1982C188.835 76.3484 188.809 76.498 188.753 76.6377C188.698 76.7774 188.614 76.9041 188.508 77.0102C188.401 77.1163 188.274 77.1993 188.134 77.2542C187.994 77.3091 187.845 77.3347 187.694 77.3294C187.544 77.3241 187.397 77.288 187.261 77.2233C187.125 77.1587 187.004 77.0669 186.906 76.9535C186.906 77.3983 187.149 77.8047 187.286 78.2335C187.424 78.6623 187.443 79.1935 187.104 79.4783C186.969 79.5756 186.811 79.6351 186.646 79.6509C186.48 79.6666 186.314 79.638 186.163 79.5679C185.862 79.4253 185.59 79.2291 185.36 78.9887C185.517 79.4483 185.517 79.9468 185.36 80.4063C185.275 80.633 185.134 80.834 184.949 80.9898C184.764 81.1457 184.542 81.2511 184.304 81.2959C184.003 81.3182 183.702 81.25 183.439 81.1C183.177 80.9501 182.966 80.7253 182.832 80.4543C182.575 79.9068 182.478 79.2977 182.554 78.6975C182.621 77.7631 182.874 76.8479 182.976 75.9199C183.141 74.9898 183.02 74.0316 182.63 73.1711" fill="#D5B7FF"/>
<path d="M188.074 74.5984C188.074 74.5984 188.035 74.6208 187.952 74.5984C187.892 74.5886 187.836 74.565 187.787 74.5294C187.738 74.4938 187.698 74.4473 187.67 74.3936C187.625 74.3045 187.614 74.2021 187.638 74.1051C187.662 74.0082 187.72 73.9232 187.802 73.8656C187.907 73.7853 188.037 73.7454 188.169 73.753C188.301 73.7607 188.426 73.8153 188.522 73.9072C188.634 74.016 188.713 74.1539 188.751 74.3054C188.789 74.4569 188.784 74.616 188.736 74.7648C188.694 74.934 188.604 75.0875 188.477 75.2064C188.336 75.3325 188.157 75.406 187.968 75.4144C187.775 75.4266 187.582 75.3845 187.411 75.2928C187.235 75.1938 187.089 75.0503 186.986 74.8768C186.783 74.515 186.711 74.0949 186.781 73.6864C186.899 72.864 187.296 72.176 187.286 71.4848C187.295 70.8746 187.129 70.2748 186.806 69.7568C186.589 69.4056 186.307 69.0993 185.974 68.8544C185.738 68.6816 185.587 68.6176 185.597 68.6016C185.606 68.5856 185.635 68.6016 185.709 68.6432C185.813 68.6881 185.914 68.7416 186.01 68.8032C186.366 69.0355 186.67 69.3396 186.902 69.696C187.252 70.2281 187.437 70.8514 187.434 71.488C187.434 72.2208 187.046 72.9312 186.938 73.7088C186.874 74.0806 186.938 74.4631 187.12 74.7936C187.202 74.9424 187.324 75.0654 187.472 75.149C187.62 75.2327 187.789 75.2736 187.958 75.2672C188.109 75.2582 188.252 75.201 188.367 75.1042C188.483 75.0074 188.564 74.876 188.598 74.7296C188.642 74.6033 188.65 74.4674 188.621 74.3369C188.592 74.2064 188.528 74.0865 188.435 73.9904C188.359 73.9131 188.259 73.8652 188.151 73.8553C188.043 73.8453 187.935 73.8739 187.846 73.936C187.778 73.981 187.728 74.0485 187.704 74.1268C187.68 74.205 187.684 74.2892 187.715 74.3648C187.738 74.4129 187.77 74.4558 187.81 74.4905C187.851 74.5253 187.898 74.5511 187.949 74.5664C188.029 74.5984 188.07 74.5888 188.074 74.5984Z" fill="#D5B7FF"/>
<path d="M180.669 81.296L181.098 71.5296L177.219 68.592L173.699 70.3168C173.699 70.3168 173.581 74.7424 173.699 76.6624C173.818 78.5824 175.754 78.7872 175.754 78.7872C175.754 78.7872 175.709 79.9104 175.664 81.0944C175.651 81.4335 175.708 81.7716 175.83 82.0883C175.951 82.405 176.136 82.6936 176.373 82.9368C176.61 83.18 176.893 83.3727 177.206 83.5032C177.519 83.6337 177.856 83.6993 178.195 83.696C178.836 83.6876 179.449 83.4343 179.909 82.988C180.369 82.5417 180.641 81.9363 180.669 81.296Z" fill="#FFBE9D"/>
<path d="M174.08 73.5423C174.08 73.591 174.094 73.6387 174.122 73.6792C174.149 73.7197 174.187 73.7513 174.232 73.7699C174.277 73.7886 174.327 73.7935 174.374 73.784C174.422 73.7745 174.466 73.751 174.501 73.7165C174.535 73.6821 174.559 73.6382 174.568 73.5904C174.578 73.5426 174.573 73.493 174.554 73.448C174.535 73.403 174.504 73.3645 174.463 73.3374C174.423 73.3103 174.375 73.2959 174.326 73.2959C174.261 73.2967 174.199 73.323 174.153 73.369C174.107 73.415 174.081 73.4772 174.08 73.5423Z" fill="#263238"/>
<path d="M173.84 73.28C173.872 73.312 174.051 73.1584 174.317 73.1456C174.582 73.1328 174.781 73.2576 174.806 73.2224C174.832 73.1872 174.787 73.1488 174.701 73.088C174.585 73.0108 174.446 72.9738 174.307 72.9824C174.168 72.9911 174.035 73.045 173.93 73.136C173.85 73.1968 173.824 73.2608 173.84 73.28Z" fill="#263238"/>
<path d="M176.925 73.5423C176.925 73.591 176.939 73.6387 176.966 73.6792C176.993 73.7197 177.032 73.7513 177.077 73.7699C177.122 73.7886 177.171 73.7935 177.219 73.784C177.267 73.7745 177.311 73.751 177.345 73.7165C177.38 73.6821 177.403 73.6382 177.413 73.5904C177.422 73.5426 177.417 73.493 177.399 73.448C177.38 73.403 177.349 73.3645 177.308 73.3374C177.268 73.3103 177.22 73.2959 177.171 73.2959C177.106 73.2959 177.043 73.3219 176.997 73.3681C176.951 73.4143 176.925 73.477 176.925 73.5423Z" fill="#263238"/>
<path d="M176.771 73.28C176.803 73.312 176.986 73.1584 177.248 73.1456C177.51 73.1328 177.712 73.2576 177.741 73.2224C177.77 73.1872 177.722 73.1488 177.632 73.088C177.516 73.0108 177.378 72.9738 177.238 72.9824C177.099 72.9911 176.967 73.045 176.861 73.136C176.781 73.1968 176.755 73.2608 176.771 73.28Z" fill="#263238"/>
<path d="M176.691 75.76C176.287 75.9658 175.856 76.1134 175.411 76.1984C175.509 76.3316 175.648 76.4284 175.807 76.4736C175.966 76.5188 176.135 76.5098 176.288 76.448C176.361 76.4318 176.43 76.4007 176.491 76.3567C176.551 76.3126 176.602 76.2565 176.64 76.1919C176.677 76.1274 176.702 76.0557 176.71 75.9814C176.719 75.907 176.713 75.8317 176.691 75.76Z" fill="white"/>
<path d="M175.744 78.7871C176.657 78.7481 177.539 78.4494 178.288 77.9263C178.288 77.9263 177.712 79.3375 175.786 79.2575L175.744 78.7871Z" fill="#EB996E"/>
<path d="M186.682 77.0496C186.439 77.0588 186.198 77.0036 185.984 76.8896C185.668 76.7209 185.405 76.4671 185.226 76.1568C185.005 75.7671 184.816 75.3605 184.659 74.9408C184.301 74.048 184.019 73.2192 183.846 72.6144L183.766 72.3488C183.766 72.2464 183.734 72.1536 183.718 72.0864C182.669 68.0832 179.152 67.3376 178.454 67.3376C177.757 67.3376 176.403 66.928 174.499 68.9056C174.214 69.2031 173.971 69.5392 173.779 69.904C173.356 70.4293 173.066 71.0481 172.931 71.7088C172.843 72.0213 172.828 72.3496 172.886 72.6688C172.922 72.6688 172.928 72.3072 173.075 71.7504C173.164 71.4233 173.289 71.1067 173.446 70.8064C173.28 71.5459 173.348 72.3188 173.642 73.0176L174.323 72.8288L176.768 71.9968C176.544 71.2416 176.874 70.3008 177.056 69.8624L177.075 69.8464C177.212 70.6443 177.599 71.3781 178.18 71.9417C178.76 72.5054 179.506 72.8699 180.307 72.9824L180.758 79.2704C184.01 78.576 183.933 74.2272 183.914 73.344C184.061 73.84 184.253 74.4128 184.493 75.0112C184.651 75.4421 184.85 75.8568 185.088 76.2496C185.288 76.5802 185.581 76.8449 185.93 77.0112C186.166 77.1216 186.43 77.1605 186.688 77.1232C186.783 77.1146 186.874 77.0803 186.95 77.024C186.86 77.0269 186.771 77.0355 186.682 77.0496Z" fill="#D5B7FF"/>
<path d="M175.818 75.5201C175.676 75.4872 175.531 75.469 175.386 75.4657C175.318 75.4657 175.251 75.4657 175.238 75.4049C175.229 75.3315 175.241 75.2569 175.274 75.1905L175.456 74.6433C175.581 74.2529 175.69 73.8977 175.776 73.6385C175.827 73.5017 175.86 73.3585 175.872 73.2129C175.794 73.3346 175.73 73.4644 175.68 73.6001C175.59 73.8529 175.472 74.2049 175.36 74.5953L175.187 75.1457C175.148 75.2319 175.139 75.3289 175.162 75.4209C175.172 75.4444 175.187 75.4653 175.206 75.482C175.226 75.4986 175.249 75.5106 175.274 75.5169C175.312 75.5214 175.351 75.5214 175.389 75.5169C175.531 75.5362 175.675 75.5373 175.818 75.5201Z" fill="#263238"/>
<path d="M181.302 75.4271C181.27 75.1034 181.305 74.7766 181.405 74.4671C181.455 74.3151 181.546 74.1796 181.667 74.0749C181.788 73.9701 181.935 73.9 182.093 73.8719C182.279 73.8634 182.462 73.9241 182.606 74.0422C182.75 74.1604 182.845 74.3277 182.874 74.5119C182.895 74.6951 182.861 74.8805 182.777 75.0446C182.692 75.2087 182.561 75.344 182.4 75.4335C182.236 75.519 182.054 75.5663 181.869 75.5718C181.684 75.5774 181.5 75.541 181.331 75.4655" fill="#FFBE9D"/>
<path d="M181.859 75.1487C181.859 75.1263 181.965 75.1743 182.099 75.1327C182.184 75.1038 182.257 75.049 182.309 74.9761C182.361 74.9031 182.388 74.8158 182.387 74.7263C182.395 74.6813 182.393 74.6352 182.381 74.5911C182.37 74.5469 182.349 74.5058 182.32 74.4703C182.26 74.4227 182.185 74.3998 182.109 74.4063C181.965 74.4063 181.866 74.4575 181.856 74.4351C181.846 74.4127 181.92 74.3455 182.093 74.2943C182.148 74.2809 182.205 74.2796 182.26 74.2907C182.315 74.3017 182.367 74.3248 182.413 74.3583C182.463 74.4065 182.501 74.4658 182.524 74.5314C182.546 74.5971 182.553 74.6671 182.544 74.7359C182.537 74.868 182.486 74.994 182.4 75.0943C182.328 75.1774 182.228 75.2309 182.118 75.2447C181.933 75.2639 181.846 75.1615 181.859 75.1487Z" fill="#EB996E"/>
<path d="M182.435 75.4113C182.435 75.4113 182.579 75.5105 182.579 75.7665C182.573 75.9159 182.508 76.0569 182.4 76.1601C182.331 76.2226 182.249 76.2694 182.16 76.297C182.071 76.3246 181.977 76.3325 181.885 76.3201C181.792 76.3025 181.705 76.2648 181.628 76.2094C181.552 76.1541 181.489 76.0826 181.443 76.0001C181.407 75.9335 181.385 75.8604 181.378 75.7851C181.371 75.7098 181.379 75.6338 181.402 75.5617C181.482 75.3153 181.645 75.2417 181.651 75.2673C181.658 75.2929 181.549 75.3793 181.51 75.5873C181.491 75.6859 181.503 75.7881 181.545 75.8795C181.587 75.971 181.656 76.0472 181.743 76.0975C181.83 76.1479 181.93 76.1699 182.03 76.1604C182.13 76.151 182.225 76.1106 182.301 76.0449C182.393 75.9696 182.452 75.8619 182.467 75.7441C182.471 75.6322 182.46 75.5203 182.435 75.4113Z" fill="#263238"/>
<path d="M181.309 74.0897C181.238 74.1558 181.154 74.207 181.062 74.2401C180.817 74.347 180.552 74.4015 180.285 74.4001C179.885 74.3981 179.492 74.2993 179.139 74.1121C178.714 73.8802 178.348 73.5513 178.074 73.1521C177.601 72.4143 177.31 71.5756 177.222 70.7041C177.178 70.3841 177.155 70.1089 177.142 69.9265C177.126 69.8301 177.126 69.7316 177.142 69.6353C177.224 69.9827 177.289 70.3341 177.334 70.6881C177.453 71.5313 177.749 72.3397 178.205 73.0593C178.463 73.4385 178.803 73.7546 179.2 73.9841C179.531 74.1643 179.899 74.2672 180.275 74.2849C180.629 74.2884 180.98 74.2221 181.309 74.0897Z" fill="#D5B7FF"/>
<path d="M183.462 71.3376C183.414 71.3376 183.27 70.784 182.896 70.1824C182.522 69.5808 182.08 69.2 182.112 69.1616C182.5 69.3822 182.818 69.707 183.03 70.0992C183.289 70.4628 183.439 70.8922 183.462 71.3376Z" fill="#263238"/>
<path d="M166.045 98.3871H164.915C163.888 98.2879 163.315 98.2719 163.027 97.9999C162.643 97.6319 163.171 97.2735 163.171 97.2735C163.171 97.2735 162.429 97.0175 162.499 96.5663C162.544 96.2463 162.896 96.2239 162.896 96.2239C162.896 96.2239 162.256 95.9679 162.112 95.6927C161.936 95.3215 162.397 95.1231 162.397 95.1231C161.504 94.5727 161.587 94.0255 161.792 93.9711C161.997 93.9167 162.694 94.2399 162.694 94.2399C163.283 94.4063 164.89 94.8959 164.294 94.0095C163.699 93.1231 163.578 92.2207 163.712 91.9519C163.741 91.8813 163.795 91.8235 163.863 91.7889C163.931 91.7544 164.009 91.7454 164.084 91.7636C164.158 91.7817 164.223 91.8259 164.268 91.888C164.312 91.9501 164.333 92.0261 164.326 92.1023C164.418 92.4512 164.56 92.7852 164.746 93.0943C164.887 93.3433 165.067 93.568 165.28 93.7599C165.533 93.9839 165.757 94.1631 165.949 94.3135L166.954 95.2735L166.045 98.3871Z" fill="#FFBE9D"/>
<path d="M159.014 87.1137C159.098 86.8705 159.299 86.6977 159.517 86.8129C159.56 86.8638 159.589 86.9251 159.602 86.9908C159.614 87.0564 159.609 87.1242 159.587 87.1873L158.89 89.4561L159.549 87.8561C159.632 87.6129 159.853 87.4657 160.003 87.5969C160.041 87.6496 160.065 87.7104 160.075 87.7744C160.084 87.8383 160.078 87.9036 160.058 87.9649L159.456 89.8497L159.946 88.6721C160.048 88.4033 160.166 88.3297 160.304 88.3905C160.442 88.4513 160.445 88.6465 160.413 88.7553L160 90.1441C160.09 90.4129 160.397 91.2545 160.099 91.7281C160.099 91.7505 160.131 91.8305 160.128 91.8561L160.269 92.0161L159.36 92.8513C159.36 92.8513 158.506 90.6913 158.342 90.0417C158.242 89.6679 158.26 89.2721 158.394 88.9089L159.014 87.1137Z" fill="#FFBE9D"/>
</svg>
